G04 #@! TF.GenerationSoftware,KiCad,Pcbnew,(6.0.4-0)*
G04 #@! TF.CreationDate,2022-03-31T22:02:44+09:00*
G04 #@! TF.ProjectId,otaHID,6f746148-4944-42e6-9b69-6361645f7063,1.0*
G04 #@! TF.SameCoordinates,Original*
G04 #@! TF.FileFunction,Copper,L2,Bot*
G04 #@! TF.FilePolarity,Positive*
%FSLAX46Y46*%
G04 Gerber Fmt 4.6, Leading zero omitted, Abs format (unit mm)*
G04 Created by KiCad (PCBNEW (6.0.4-0)) date 2022-03-31 22:02:44*
%MOMM*%
%LPD*%
G01*
G04 APERTURE LIST*
G04 Aperture macros list*
%AMRoundRect*
0 Rectangle with rounded corners*
0 $1 Rounding radius*
0 $2 $3 $4 $5 $6 $7 $8 $9 X,Y pos of 4 corners*
0 Add a 4 corners polygon primitive as box body*
4,1,4,$2,$3,$4,$5,$6,$7,$8,$9,$2,$3,0*
0 Add four circle primitives for the rounded corners*
1,1,$1+$1,$2,$3*
1,1,$1+$1,$4,$5*
1,1,$1+$1,$6,$7*
1,1,$1+$1,$8,$9*
0 Add four rect primitives between the rounded corners*
20,1,$1+$1,$2,$3,$4,$5,0*
20,1,$1+$1,$4,$5,$6,$7,0*
20,1,$1+$1,$6,$7,$8,$9,0*
20,1,$1+$1,$8,$9,$2,$3,0*%
%AMFreePoly0*
4,1,9,3.562500,-0.866500,0.737500,-0.866500,0.737500,-0.450000,-0.737500,-0.450000,-0.737500,0.450000,0.737500,0.450000,0.737500,0.866500,3.562500,0.866500,3.562500,-0.866500,3.562500,-0.866500,$1*%
G04 Aperture macros list end*
G04 #@! TA.AperFunction,ComponentPad*
%ADD10R,1.000000X1.000000*%
G04 #@! TD*
G04 #@! TA.AperFunction,ComponentPad*
%ADD11O,1.000000X1.000000*%
G04 #@! TD*
G04 #@! TA.AperFunction,SMDPad,CuDef*
%ADD12RoundRect,0.200000X-0.200000X0.250000X-0.200000X-0.250000X0.200000X-0.250000X0.200000X0.250000X0*%
G04 #@! TD*
G04 #@! TA.AperFunction,SMDPad,CuDef*
%ADD13R,1.500000X0.800000*%
G04 #@! TD*
G04 #@! TA.AperFunction,SMDPad,CuDef*
%ADD14C,1.000000*%
G04 #@! TD*
G04 #@! TA.AperFunction,SMDPad,CuDef*
%ADD15R,0.800000X1.500000*%
G04 #@! TD*
G04 #@! TA.AperFunction,ComponentPad*
%ADD16C,1.524000*%
G04 #@! TD*
G04 #@! TA.AperFunction,ComponentPad*
%ADD17RoundRect,0.400000X0.400000X1.100000X-0.400000X1.100000X-0.400000X-1.100000X0.400000X-1.100000X0*%
G04 #@! TD*
G04 #@! TA.AperFunction,SMDPad,CuDef*
%ADD18RoundRect,0.200000X0.250000X0.200000X-0.250000X0.200000X-0.250000X-0.200000X0.250000X-0.200000X0*%
G04 #@! TD*
G04 #@! TA.AperFunction,SMDPad,CuDef*
%ADD19R,0.900000X1.300000*%
G04 #@! TD*
G04 #@! TA.AperFunction,SMDPad,CuDef*
%ADD20FreePoly0,90.000000*%
G04 #@! TD*
G04 #@! TA.AperFunction,SMDPad,CuDef*
%ADD21RoundRect,0.200000X0.200000X-0.250000X0.200000X0.250000X-0.200000X0.250000X-0.200000X-0.250000X0*%
G04 #@! TD*
G04 #@! TA.AperFunction,SMDPad,CuDef*
%ADD22R,1.200000X0.800000*%
G04 #@! TD*
G04 #@! TA.AperFunction,ViaPad*
%ADD23C,0.609600*%
G04 #@! TD*
G04 #@! TA.AperFunction,Conductor*
%ADD24C,0.406400*%
G04 #@! TD*
G04 #@! TA.AperFunction,Conductor*
%ADD25C,0.203200*%
G04 #@! TD*
G04 #@! TA.AperFunction,Conductor*
%ADD26C,0.152400*%
G04 #@! TD*
G04 APERTURE END LIST*
D10*
X5300000Y-2475000D03*
D11*
X5300000Y-3745000D03*
X5300000Y-5015000D03*
X5300000Y-6285000D03*
X5300000Y-7555000D03*
D12*
X3400000Y-3150000D03*
X3400000Y-4850000D03*
D13*
X-5500000Y-26370000D03*
X-5500000Y-25170000D03*
X-5500000Y-23970000D03*
X-5500000Y-22770000D03*
X-5500000Y-21570000D03*
X-5500000Y-20370000D03*
X-5500000Y-19170000D03*
X-5500000Y-17970000D03*
D14*
X-5750000Y-15470000D03*
D15*
X-3000000Y-15720000D03*
X-1800000Y-15720000D03*
X-600000Y-15720000D03*
X600000Y-15720000D03*
X1800000Y-15720000D03*
X3000000Y-15720000D03*
D14*
X5750000Y-15470000D03*
D13*
X5500000Y-17970000D03*
X5500000Y-19170000D03*
X5500000Y-20370000D03*
X5500000Y-21570000D03*
X5500000Y-22770000D03*
X5500000Y-23970000D03*
X5500000Y-25170000D03*
X5500000Y-26370000D03*
D12*
X-3000000Y-3150000D03*
X-3000000Y-4850000D03*
X4300000Y-11900000D03*
X4300000Y-13600000D03*
D16*
X-3500000Y0D03*
X-1000000Y0D03*
X1000000Y0D03*
X3500000Y0D03*
D17*
X5850000Y2400000D03*
X-5850000Y2400000D03*
D18*
X4600000Y-9200000D03*
X2900000Y-9200000D03*
D12*
X-4500000Y-3150000D03*
X-4500000Y-4850000D03*
X5800000Y-11900000D03*
X5800000Y-13600000D03*
D19*
X1700000Y-6125000D03*
D20*
X200000Y-6037500D03*
D19*
X-1300000Y-6125000D03*
D21*
X-6000000Y-4850000D03*
X-6000000Y-3150000D03*
D22*
X1050000Y-9330000D03*
X1050000Y-11870000D03*
X-5250000Y-11870000D03*
X-5250000Y-9330000D03*
D21*
X2800000Y-13600000D03*
X2800000Y-11900000D03*
D23*
X-2000000Y-1500000D03*
X-2500000Y-13200000D03*
X2000000Y-10500000D03*
X5499999Y-500000D03*
X3100000Y-27800000D03*
X0Y-23000000D03*
X2900000Y-6200000D03*
X-3700000Y-27700000D03*
X-400000Y-11600000D03*
X-5500000Y-500000D03*
X-3000000Y-6200000D03*
X-3500000Y-7800000D03*
X5800000Y-9300000D03*
X4100000Y-23100000D03*
X2300000Y-3500000D03*
X400000Y-1400000D03*
X-6000000Y-13400000D03*
X-5600000Y-10500000D03*
X-1700000Y-11300000D03*
X-2700000Y-9300000D03*
X-1200000Y-9300000D03*
X2100000Y-17800000D03*
X4100000Y-16200000D03*
X1300000Y-13000000D03*
D24*
X-1300000Y-4100000D02*
X-2250000Y-3150000D01*
X-2250000Y-3150000D02*
X-3000000Y-3150000D01*
X-4500000Y-3150000D02*
X-3000000Y-3150000D01*
X-1300000Y-6125000D02*
X-1300000Y-4100000D01*
D25*
X6594080Y-14625920D02*
X6594080Y-2500000D01*
D26*
X-5500000Y-26370000D02*
X-3930000Y-26370000D01*
X-6400000Y-6200000D02*
X-6619480Y-6419480D01*
X-3500000Y-26800000D02*
X-3500000Y-27500000D01*
X-3500000Y-27500000D02*
X-3700000Y-27700000D01*
X-5500000Y-27700000D02*
X-5500000Y-26370000D01*
X3400000Y-4850000D02*
X3400000Y-5700000D01*
D25*
X6569080Y-2475000D02*
X5300000Y-2475000D01*
D26*
X-6619480Y-6419480D02*
X-6619480Y-27800000D01*
X-6619480Y-27800000D02*
X-5600000Y-27800000D01*
X-3930000Y-26370000D02*
X-3500000Y-26800000D01*
D25*
X5500000Y-27400000D02*
X5800000Y-27700000D01*
X6594080Y-16300000D02*
X6580000Y-16300000D01*
D26*
X-3000000Y-6200000D02*
X-6400000Y-6200000D01*
D25*
X5750000Y-15470000D02*
X6594080Y-14625920D01*
X6594080Y-27605920D02*
X6594080Y-16300000D01*
X6594080Y-2500000D02*
X6569080Y-2475000D01*
D26*
X-5600000Y-27800000D02*
X-5500000Y-27700000D01*
D25*
X5500000Y-26370000D02*
X5500000Y-27400000D01*
D26*
X3400000Y-5700000D02*
X2900000Y-6200000D01*
D25*
X5800000Y-27700000D02*
X6500000Y-27700000D01*
X6500000Y-27700000D02*
X6594080Y-27605920D01*
X6580000Y-16300000D02*
X5750000Y-15470000D01*
X1700000Y-6978200D02*
X1568960Y-7109240D01*
D24*
X2650000Y-3150000D02*
X3400000Y-3150000D01*
D25*
X4546800Y-25170000D02*
X4100000Y-24723200D01*
X5500000Y-25170000D02*
X4546800Y-25170000D01*
X4100000Y-24723200D02*
X4100000Y-23100000D01*
D24*
X1700000Y-6125000D02*
X1700000Y-4100000D01*
D25*
X-2809240Y-7109240D02*
X-3500000Y-7800000D01*
D24*
X2300000Y-3500000D02*
X2650000Y-3150000D01*
X1700000Y-4100000D02*
X2300000Y-3500000D01*
D25*
X5800000Y-11900000D02*
X5800000Y-9300000D01*
X1700000Y-6125000D02*
X1700000Y-6978200D01*
X4600000Y-9200000D02*
X5700000Y-9200000D01*
X1568960Y-7109240D02*
X-2809240Y-7109240D01*
X5800000Y-11900000D02*
X4300000Y-11900000D01*
X5700000Y-9200000D02*
X5800000Y-9300000D01*
D24*
X-6000000Y-4850000D02*
X-4500000Y-4850000D01*
X-6000000Y-2500000D02*
X-6000000Y-3150000D01*
X-3500000Y0D02*
X-6000000Y-2500000D01*
D25*
X-1000000Y0D02*
X400000Y-1400000D01*
D26*
X-5255493Y-9330000D02*
X-6200000Y-10274507D01*
X-5250000Y-9330000D02*
X-5255493Y-9330000D01*
X-6200000Y-13200000D02*
X-6000000Y-13400000D01*
X-6200000Y-10274507D02*
X-6200000Y-13200000D01*
X-5250000Y-11870000D02*
X-5250000Y-10850000D01*
X-5250000Y-10850000D02*
X-5600000Y-10500000D01*
X4300000Y-4745000D02*
X5300000Y-3745000D01*
X3100000Y-7489760D02*
X4300000Y-6289760D01*
X-1715253Y-7489760D02*
X3100000Y-7489760D01*
X-3283711Y-9716289D02*
X-3283711Y-9058218D01*
X4300000Y-6289760D02*
X4300000Y-4745000D01*
X-1700000Y-11300000D02*
X-3283711Y-9716289D01*
X-3283711Y-9058218D02*
X-1715253Y-7489760D01*
X3740120Y-7844880D02*
X5300000Y-6285000D01*
X-1244880Y-7844880D02*
X3740120Y-7844880D01*
X-2700000Y-9300000D02*
X-1244880Y-7844880D01*
X4655000Y-8200000D02*
X5300000Y-7555000D01*
X-1200000Y-8800000D02*
X-1200000Y-9300000D01*
X-600000Y-8200000D02*
X4655000Y-8200000D01*
X-600000Y-8200000D02*
X-1200000Y-8800000D01*
D25*
X-4270000Y-19170000D02*
X-5500000Y-19170000D01*
X-3638622Y-14600000D02*
X-3800000Y-14761378D01*
X-3800000Y-18700000D02*
X-4270000Y-19170000D01*
X4000000Y-14600000D02*
X-3638622Y-14600000D01*
X4300000Y-14300000D02*
X4000000Y-14600000D01*
X-3800000Y-14761378D02*
X-3800000Y-18700000D01*
X4300000Y-13600000D02*
X4300000Y-14300000D01*
X-4205920Y-14593241D02*
X-4205920Y-17800000D01*
X2705920Y-14194080D02*
X-3806760Y-14194080D01*
X-3806760Y-14194080D02*
X-4205920Y-14593241D01*
X-4375920Y-17970000D02*
X-5500000Y-17970000D01*
X-4205920Y-17800000D02*
X-4375920Y-17970000D01*
X2800000Y-14100000D02*
X2705920Y-14194080D01*
X2800000Y-13600000D02*
X2800000Y-14100000D01*
X3454058Y-15720000D02*
X3000000Y-15720000D01*
X5100000Y-13600000D02*
X5004320Y-13695680D01*
X5800000Y-13600000D02*
X5100000Y-13600000D01*
X5004320Y-14169738D02*
X3454058Y-15720000D01*
X5004320Y-13695680D02*
X5004320Y-14169738D01*
X1050000Y-9330000D02*
X1970000Y-9330000D01*
X1970000Y-9330000D02*
X2100000Y-9200000D01*
X2100000Y-9200000D02*
X2900000Y-9200000D01*
D26*
X-2200000Y-17800000D02*
X-4770000Y-20370000D01*
X2100000Y-17800000D02*
X-2200000Y-17800000D01*
X-4770000Y-20370000D02*
X-5500000Y-20370000D01*
X2341782Y-18383711D02*
X-2281495Y-18383711D01*
X4100000Y-16625493D02*
X2341782Y-18383711D01*
X-4400000Y-21200000D02*
X-4770000Y-21570000D01*
X-4400000Y-20502216D02*
X-4400000Y-21200000D01*
X4100000Y-16200000D02*
X4100000Y-16625493D01*
X-2281495Y-18383711D02*
X-4400000Y-20502216D01*
X-4770000Y-21570000D02*
X-5500000Y-21570000D01*
X1050000Y-12750000D02*
X1300000Y-13000000D01*
X1050000Y-11870000D02*
X1050000Y-12750000D01*
G04 #@! TA.AperFunction,Conductor*
G36*
X6629270Y-14021058D02*
G01*
X6679388Y-14071344D01*
X6694700Y-14131544D01*
X6694700Y-14849154D01*
X6674698Y-14917275D01*
X6621042Y-14963768D01*
X6611588Y-14967622D01*
X6122022Y-15457188D01*
X6114408Y-15471132D01*
X6114539Y-15472965D01*
X6118790Y-15479580D01*
X6606661Y-15967451D01*
X6629087Y-15979697D01*
X6679288Y-16029900D01*
X6694700Y-16090284D01*
X6694700Y-17278672D01*
X6674698Y-17346793D01*
X6621042Y-17393286D01*
X6550768Y-17403390D01*
X6486188Y-17373896D01*
X6479683Y-17367846D01*
X6433705Y-17321948D01*
X6433703Y-17321947D01*
X6425472Y-17313730D01*
X6321451Y-17267742D01*
X6295358Y-17264700D01*
X4704642Y-17264700D01*
X4693748Y-17265996D01*
X4687407Y-17266750D01*
X4687404Y-17266751D01*
X4678022Y-17267867D01*
X4574081Y-17314036D01*
X4534002Y-17354186D01*
X4501948Y-17386295D01*
X4501947Y-17386297D01*
X4493730Y-17394528D01*
X4447742Y-17498549D01*
X4444700Y-17524642D01*
X4444700Y-18415358D01*
X4447867Y-18441978D01*
X4451705Y-18450618D01*
X4481987Y-18518793D01*
X4491360Y-18589168D01*
X4482077Y-18620887D01*
X4447742Y-18698549D01*
X4444700Y-18724642D01*
X4444700Y-19615358D01*
X4447867Y-19641978D01*
X4451705Y-19650618D01*
X4481987Y-19718793D01*
X4491360Y-19789168D01*
X4482077Y-19820887D01*
X4447742Y-19898549D01*
X4444700Y-19924642D01*
X4444700Y-20815358D01*
X4447867Y-20841978D01*
X4451705Y-20850618D01*
X4481987Y-20918793D01*
X4491360Y-20989168D01*
X4482077Y-21020887D01*
X4447742Y-21098549D01*
X4444700Y-21124642D01*
X4444700Y-22015358D01*
X4445996Y-22026252D01*
X4446685Y-22032040D01*
X4447867Y-22041978D01*
X4451705Y-22050618D01*
X4481987Y-22118793D01*
X4491360Y-22189168D01*
X4482077Y-22220887D01*
X4447742Y-22298549D01*
X4444700Y-22324642D01*
X4444700Y-22395937D01*
X4424698Y-22464058D01*
X4371042Y-22510551D01*
X4300768Y-22520655D01*
X4288015Y-22518143D01*
X4177027Y-22490265D01*
X4169428Y-22490225D01*
X4169426Y-22490225D01*
X4107798Y-22489903D01*
X4029362Y-22489492D01*
X4021982Y-22491264D01*
X4021980Y-22491264D01*
X3893153Y-22522192D01*
X3893149Y-22522193D01*
X3885774Y-22523964D01*
X3754554Y-22591692D01*
X3643277Y-22688765D01*
X3558368Y-22809579D01*
X3504727Y-22947160D01*
X3485453Y-23093564D01*
X3501657Y-23240340D01*
X3512984Y-23271291D01*
X3549116Y-23370028D01*
X3552404Y-23379014D01*
X3556640Y-23385317D01*
X3556640Y-23385318D01*
X3580757Y-23421207D01*
X3634765Y-23501580D01*
X3640385Y-23506693D01*
X3640386Y-23506695D01*
X3651900Y-23517172D01*
X3688822Y-23577813D01*
X3693100Y-23610365D01*
X3693100Y-24787646D01*
X3696165Y-24797079D01*
X3700054Y-24809048D01*
X3704670Y-24828274D01*
X3708191Y-24850506D01*
X3712692Y-24859339D01*
X3712692Y-24859340D01*
X3718408Y-24870558D01*
X3725972Y-24888820D01*
X3729864Y-24900797D01*
X3732930Y-24910232D01*
X3738761Y-24918257D01*
X3746160Y-24928441D01*
X3756490Y-24945296D01*
X3766708Y-24965351D01*
X4304649Y-25503292D01*
X4307970Y-25504984D01*
X4349225Y-25558486D01*
X4355300Y-25629222D01*
X4332636Y-25679764D01*
X4305212Y-25716356D01*
X4296676Y-25731946D01*
X4251522Y-25852394D01*
X4247895Y-25867649D01*
X4242369Y-25918514D01*
X4242000Y-25925328D01*
X4242000Y-26101981D01*
X4221998Y-26170102D01*
X4168342Y-26216595D01*
X4099555Y-26226903D01*
X4044844Y-26219700D01*
X3958708Y-26219700D01*
X3879605Y-26229273D01*
X3844077Y-26233572D01*
X3844076Y-26233572D01*
X3836534Y-26234485D01*
X3816646Y-26242000D01*
X3689610Y-26290002D01*
X3689608Y-26290003D01*
X3682505Y-26292687D01*
X3546805Y-26385951D01*
X3437269Y-26508892D01*
X3433713Y-26515608D01*
X3374800Y-26626876D01*
X3360220Y-26654412D01*
X3320107Y-26814110D01*
X3319245Y-26978766D01*
X3321017Y-26986146D01*
X3321017Y-26986148D01*
X3354526Y-27125724D01*
X3357683Y-27138875D01*
X3361164Y-27145619D01*
X3420141Y-27259884D01*
X3433204Y-27285194D01*
X3438196Y-27290916D01*
X3438197Y-27290918D01*
X3536452Y-27403550D01*
X3536456Y-27403553D01*
X3541447Y-27409275D01*
X3547657Y-27413640D01*
X3547661Y-27413643D01*
X3669945Y-27499586D01*
X3669947Y-27499587D01*
X3676162Y-27503955D01*
X3829574Y-27563767D01*
X3955156Y-27580300D01*
X4041292Y-27580300D01*
X4120395Y-27570727D01*
X4155923Y-27566428D01*
X4155924Y-27566428D01*
X4163466Y-27565515D01*
X4218260Y-27544810D01*
X4310390Y-27509998D01*
X4310392Y-27509997D01*
X4317495Y-27507313D01*
X4453195Y-27414049D01*
X4542492Y-27313824D01*
X4602743Y-27276268D01*
X4650177Y-27272380D01*
X4698514Y-27277631D01*
X4705328Y-27278000D01*
X5227885Y-27278000D01*
X5243124Y-27273525D01*
X5244329Y-27272135D01*
X5246000Y-27264452D01*
X5246000Y-26242000D01*
X5266002Y-26173879D01*
X5319658Y-26127386D01*
X5372000Y-26116000D01*
X5628000Y-26116000D01*
X5696121Y-26136002D01*
X5742614Y-26189658D01*
X5754000Y-26242000D01*
X5754000Y-27259884D01*
X5758475Y-27275123D01*
X5759865Y-27276328D01*
X5767548Y-27277999D01*
X6294669Y-27277999D01*
X6301490Y-27277629D01*
X6352352Y-27272105D01*
X6367604Y-27268479D01*
X6488061Y-27223321D01*
X6508192Y-27212300D01*
X6577549Y-27197131D01*
X6644097Y-27221868D01*
X6686707Y-27278656D01*
X6694700Y-27322820D01*
X6694700Y-28962264D01*
X6692786Y-28984142D01*
X6689990Y-29000000D01*
X6691904Y-29010855D01*
X6691904Y-29021879D01*
X6690865Y-29021879D01*
X6691317Y-29034345D01*
X6682568Y-29123179D01*
X6677749Y-29147405D01*
X6645422Y-29253973D01*
X6635970Y-29276793D01*
X6583472Y-29375010D01*
X6569749Y-29395548D01*
X6499099Y-29481634D01*
X6481634Y-29499099D01*
X6395548Y-29569749D01*
X6375010Y-29583472D01*
X6276793Y-29635970D01*
X6253973Y-29645422D01*
X6147405Y-29677749D01*
X6123179Y-29682568D01*
X6034345Y-29691317D01*
X6021879Y-29690865D01*
X6021879Y-29691904D01*
X6010855Y-29691904D01*
X6000000Y-29689990D01*
X5984142Y-29692786D01*
X5962264Y-29694700D01*
X-5962264Y-29694700D01*
X-5984142Y-29692786D01*
X-6000000Y-29689990D01*
X-6010855Y-29691904D01*
X-6021879Y-29691904D01*
X-6021879Y-29690865D01*
X-6034345Y-29691317D01*
X-6123179Y-29682568D01*
X-6147406Y-29677749D01*
X-6253975Y-29645421D01*
X-6276794Y-29635969D01*
X-6375010Y-29583472D01*
X-6395548Y-29569749D01*
X-6481634Y-29499099D01*
X-6499099Y-29481634D01*
X-6569749Y-29395548D01*
X-6583472Y-29375010D01*
X-6635969Y-29276794D01*
X-6645421Y-29253975D01*
X-6677749Y-29147406D01*
X-6682568Y-29123179D01*
X-6691317Y-29034345D01*
X-6690865Y-29021879D01*
X-6691904Y-29021879D01*
X-6691904Y-29010855D01*
X-6689990Y-29000000D01*
X-6692786Y-28984142D01*
X-6694700Y-28962264D01*
X-6694700Y-27322820D01*
X-6674698Y-27254699D01*
X-6621042Y-27208206D01*
X-6550768Y-27198102D01*
X-6508192Y-27212300D01*
X-6488061Y-27223321D01*
X-6367606Y-27268478D01*
X-6352351Y-27272105D01*
X-6301486Y-27277631D01*
X-6294672Y-27278000D01*
X-5772115Y-27278000D01*
X-5756876Y-27273525D01*
X-5755671Y-27272135D01*
X-5754000Y-27264452D01*
X-5754000Y-27259884D01*
X-5246000Y-27259884D01*
X-5241525Y-27275123D01*
X-5240135Y-27276328D01*
X-5232452Y-27277999D01*
X-4705331Y-27277999D01*
X-4698510Y-27277629D01*
X-4647648Y-27272105D01*
X-4632396Y-27268479D01*
X-4511946Y-27223324D01*
X-4496351Y-27214786D01*
X-4394276Y-27138285D01*
X-4381715Y-27125724D01*
X-4305214Y-27023649D01*
X-4296676Y-27008054D01*
X-4285696Y-26978766D01*
X1519245Y-26978766D01*
X1521017Y-26986146D01*
X1521017Y-26986148D01*
X1554526Y-27125724D01*
X1557683Y-27138875D01*
X1561164Y-27145619D01*
X1620141Y-27259884D01*
X1633204Y-27285194D01*
X1638196Y-27290916D01*
X1638197Y-27290918D01*
X1736452Y-27403550D01*
X1736456Y-27403553D01*
X1741447Y-27409275D01*
X1747657Y-27413640D01*
X1747661Y-27413643D01*
X1869945Y-27499586D01*
X1869947Y-27499587D01*
X1876162Y-27503955D01*
X2029574Y-27563767D01*
X2155156Y-27580300D01*
X2241292Y-27580300D01*
X2320395Y-27570727D01*
X2355923Y-27566428D01*
X2355924Y-27566428D01*
X2363466Y-27565515D01*
X2418260Y-27544810D01*
X2510390Y-27509998D01*
X2510392Y-27509997D01*
X2517495Y-27507313D01*
X2653195Y-27414049D01*
X2762731Y-27291108D01*
X2772793Y-27272105D01*
X2836226Y-27152301D01*
X2836227Y-27152299D01*
X2839780Y-27145588D01*
X2843320Y-27131496D01*
X2878042Y-26993261D01*
X2878042Y-26993257D01*
X2879893Y-26985890D01*
X2880755Y-26821234D01*
X2842317Y-26661125D01*
X2766796Y-26514806D01*
X2756690Y-26503221D01*
X2663548Y-26396450D01*
X2663544Y-26396447D01*
X2658553Y-26390725D01*
X2652343Y-26386360D01*
X2652339Y-26386357D01*
X2530055Y-26300414D01*
X2530053Y-26300413D01*
X2523838Y-26296045D01*
X2370426Y-26236233D01*
X2244844Y-26219700D01*
X2158708Y-26219700D01*
X2079605Y-26229273D01*
X2044077Y-26233572D01*
X2044076Y-26233572D01*
X2036534Y-26234485D01*
X2016646Y-26242000D01*
X1889610Y-26290002D01*
X1889608Y-26290003D01*
X1882505Y-26292687D01*
X1746805Y-26385951D01*
X1637269Y-26508892D01*
X1633713Y-26515608D01*
X1574800Y-26626876D01*
X1560220Y-26654412D01*
X1520107Y-26814110D01*
X1519245Y-26978766D01*
X-4285696Y-26978766D01*
X-4251522Y-26887606D01*
X-4247895Y-26872351D01*
X-4242369Y-26821486D01*
X-4242000Y-26814672D01*
X-4242000Y-26642115D01*
X-4246475Y-26626876D01*
X-4247865Y-26625671D01*
X-4255548Y-26624000D01*
X-5227885Y-26624000D01*
X-5243124Y-26628475D01*
X-5244329Y-26629865D01*
X-5246000Y-26637548D01*
X-5246000Y-27259884D01*
X-5754000Y-27259884D01*
X-5754000Y-26242000D01*
X-5733998Y-26173879D01*
X-5680342Y-26127386D01*
X-5628000Y-26116000D01*
X-4260116Y-26116000D01*
X-4244877Y-26111525D01*
X-4243672Y-26110135D01*
X-4242001Y-26102452D01*
X-4242001Y-25925331D01*
X-4242371Y-25918510D01*
X-4247895Y-25867648D01*
X-4251521Y-25852396D01*
X-4296676Y-25731946D01*
X-4305214Y-25716351D01*
X-4381715Y-25614276D01*
X-4400626Y-25595365D01*
X-4399707Y-25594446D01*
X-4436781Y-25544862D01*
X-4444700Y-25500897D01*
X-4444700Y-24724642D01*
X-4447867Y-24698022D01*
X-4481987Y-24621207D01*
X-4491360Y-24550832D01*
X-4482076Y-24519111D01*
X-4451573Y-24450116D01*
X-4447742Y-24441451D01*
X-4444700Y-24415358D01*
X-4444700Y-23524642D01*
X-4447867Y-23498022D01*
X-4481987Y-23421207D01*
X-4491360Y-23350832D01*
X-4482076Y-23319111D01*
X-4451573Y-23250116D01*
X-4447742Y-23241451D01*
X-4444700Y-23215358D01*
X-4444700Y-22324642D01*
X-4445996Y-22313748D01*
X-4446750Y-22307407D01*
X-4446751Y-22307404D01*
X-4447867Y-22298022D01*
X-4481987Y-22221207D01*
X-4491360Y-22150832D01*
X-4482076Y-22119111D01*
X-4451573Y-22050116D01*
X-4447742Y-22041451D01*
X-4444700Y-22015358D01*
X-4444700Y-21836413D01*
X-4424698Y-21768292D01*
X-4407795Y-21747317D01*
X-4168517Y-21508040D01*
X-4149506Y-21492686D01*
X-4148444Y-21491720D01*
X-4139696Y-21486071D01*
X-4133252Y-21477896D01*
X-4133249Y-21477894D01*
X-4118771Y-21459528D01*
X-4114794Y-21455053D01*
X-4114865Y-21454992D01*
X-4111512Y-21451035D01*
X-4107829Y-21447352D01*
X-4096545Y-21431561D01*
X-4092982Y-21426815D01*
X-4067512Y-21394507D01*
X-4067511Y-21394506D01*
X-4061066Y-21386330D01*
X-4058015Y-21377643D01*
X-4052666Y-21370157D01*
X-4037901Y-21320786D01*
X-4036067Y-21315141D01*
X-4018984Y-21266498D01*
X-4018500Y-21260909D01*
X-4018500Y-21258198D01*
X-4018385Y-21255531D01*
X-4018366Y-21255468D01*
X-4018192Y-21255475D01*
X-4018145Y-21254729D01*
X-4016275Y-21248476D01*
X-4018403Y-21194322D01*
X-4018500Y-21189375D01*
X-4018500Y-20712428D01*
X-3998498Y-20644307D01*
X-3981595Y-20623333D01*
X-2160378Y-18802116D01*
X-2098066Y-18768090D01*
X-2071283Y-18765211D01*
X2287647Y-18765211D01*
X2311946Y-18767797D01*
X2313384Y-18767865D01*
X2323562Y-18770056D01*
X2357123Y-18766084D01*
X2363102Y-18765732D01*
X2363094Y-18765639D01*
X2368272Y-18765211D01*
X2373474Y-18765211D01*
X2392628Y-18762023D01*
X2398486Y-18761189D01*
X2415100Y-18759223D01*
X2439349Y-18756353D01*
X2439350Y-18756353D01*
X2449689Y-18755129D01*
X2457988Y-18751144D01*
X2467065Y-18749633D01*
X2512433Y-18725153D01*
X2517696Y-18722472D01*
X2557032Y-18703584D01*
X2557036Y-18703581D01*
X2564180Y-18700151D01*
X2568474Y-18696541D01*
X2570406Y-18694609D01*
X2572355Y-18692822D01*
X2572408Y-18692793D01*
X2572527Y-18692923D01*
X2573095Y-18692422D01*
X2578839Y-18689323D01*
X2615650Y-18649501D01*
X2619079Y-18645936D01*
X4331476Y-16933539D01*
X4350499Y-16918175D01*
X4351558Y-16917211D01*
X4360304Y-16911564D01*
X4366752Y-16903385D01*
X4366754Y-16903383D01*
X4381234Y-16885016D01*
X4385209Y-16880543D01*
X4385137Y-16880482D01*
X4388490Y-16876525D01*
X4392171Y-16872844D01*
X4403455Y-16857053D01*
X4407019Y-16852307D01*
X4432487Y-16820001D01*
X4438934Y-16811823D01*
X4441984Y-16803138D01*
X4447335Y-16795650D01*
X4462115Y-16746227D01*
X4463918Y-16740679D01*
X4477315Y-16702529D01*
X4514364Y-16648474D01*
X4552391Y-16615995D01*
X4556826Y-16609824D01*
X4556828Y-16609821D01*
X4595476Y-16556036D01*
X4638561Y-16496077D01*
X4693640Y-16359065D01*
X4696477Y-16339132D01*
X5245698Y-16339132D01*
X5250607Y-16345690D01*
X5339118Y-16395157D01*
X5350357Y-16400067D01*
X5526641Y-16457345D01*
X5538615Y-16459978D01*
X5722676Y-16481926D01*
X5734925Y-16482183D01*
X5919742Y-16467962D01*
X5931822Y-16465831D01*
X6110345Y-16415986D01*
X6121778Y-16411552D01*
X6245507Y-16349052D01*
X6255791Y-16339407D01*
X6253553Y-16332763D01*
X5762812Y-15842022D01*
X5748868Y-15834408D01*
X5747035Y-15834539D01*
X5740420Y-15838790D01*
X5252458Y-16326752D01*
X5245698Y-16339132D01*
X4696477Y-16339132D01*
X4714446Y-16212871D01*
X4714581Y-16200000D01*
X4703513Y-16108540D01*
X4715186Y-16038511D01*
X4762867Y-15985909D01*
X4831418Y-15967436D01*
X4858462Y-15970994D01*
X4879181Y-15976048D01*
X4887666Y-15973124D01*
X6247834Y-14612956D01*
X6254594Y-14600576D01*
X6249935Y-14594353D01*
X6167546Y-14549805D01*
X6117137Y-14499810D01*
X6101760Y-14430499D01*
X6126296Y-14363877D01*
X6183246Y-14320987D01*
X6236749Y-14300930D01*
X6236748Y-14300930D01*
X6245152Y-14297780D01*
X6252331Y-14292400D01*
X6252334Y-14292398D01*
X6353794Y-14216357D01*
X6360975Y-14210975D01*
X6420506Y-14131544D01*
X6442398Y-14102334D01*
X6442400Y-14102331D01*
X6447780Y-14095152D01*
X6450930Y-14086750D01*
X6455242Y-14078873D01*
X6456529Y-14079578D01*
X6493360Y-14030550D01*
X6559922Y-14005850D01*
X6629270Y-14021058D01*
G37*
G04 #@! TD.AperFunction*
G04 #@! TA.AperFunction,Conductor*
G36*
X-1994769Y-4145783D02*
G01*
X-1941699Y-4177428D01*
X-1845405Y-4273722D01*
X-1811379Y-4336034D01*
X-1808500Y-4362817D01*
X-1808500Y-5084977D01*
X-1828502Y-5153098D01*
X-1883349Y-5200127D01*
X-1916161Y-5214701D01*
X-1986532Y-5224075D01*
X-2050803Y-5193913D01*
X-2088203Y-5135047D01*
X-2096474Y-5106876D01*
X-2097865Y-5105671D01*
X-2105548Y-5104000D01*
X-2727885Y-5104000D01*
X-2743124Y-5108475D01*
X-2744329Y-5109865D01*
X-2746000Y-5117548D01*
X-2746000Y-5789884D01*
X-2741525Y-5805123D01*
X-2740135Y-5806328D01*
X-2735706Y-5807291D01*
X-2676685Y-5801868D01*
X-2663649Y-5799257D01*
X-2513757Y-5752285D01*
X-2500012Y-5746079D01*
X-2366426Y-5665176D01*
X-2354557Y-5655869D01*
X-2270395Y-5571707D01*
X-2208083Y-5537681D01*
X-2137268Y-5542746D01*
X-2080432Y-5585293D01*
X-2055621Y-5651813D01*
X-2055300Y-5660802D01*
X-2055300Y-6576340D01*
X-2075302Y-6644461D01*
X-2128958Y-6690954D01*
X-2181300Y-6702340D01*
X-2873687Y-6702340D01*
X-2892902Y-6708583D01*
X-2895090Y-6709294D01*
X-2914310Y-6713908D01*
X-2926750Y-6715879D01*
X-2926753Y-6715880D01*
X-2936546Y-6717431D01*
X-2956599Y-6727649D01*
X-2974860Y-6735213D01*
X-2996272Y-6742170D01*
X-3004296Y-6748000D01*
X-3004298Y-6748001D01*
X-3014481Y-6755400D01*
X-3031336Y-6765730D01*
X-3051391Y-6775948D01*
X-3428307Y-7152864D01*
X-3490619Y-7186890D01*
X-3518061Y-7189767D01*
X-3518485Y-7189765D01*
X-3570638Y-7189492D01*
X-3578017Y-7191264D01*
X-3578021Y-7191264D01*
X-3706847Y-7222192D01*
X-3706851Y-7222193D01*
X-3714226Y-7223964D01*
X-3845446Y-7291692D01*
X-3956723Y-7388765D01*
X-4041632Y-7509579D01*
X-4044391Y-7516654D01*
X-4044392Y-7516657D01*
X-4072908Y-7589798D01*
X-4095273Y-7647160D01*
X-4096265Y-7654693D01*
X-4096265Y-7654694D01*
X-4109672Y-7756537D01*
X-4114547Y-7793564D01*
X-4098343Y-7940340D01*
X-4047596Y-8079014D01*
X-3965235Y-8201580D01*
X-3959616Y-8206693D01*
X-3959615Y-8206694D01*
X-3861631Y-8295852D01*
X-3856015Y-8300962D01*
X-3726242Y-8371423D01*
X-3583408Y-8408895D01*
X-3477765Y-8410554D01*
X-3409967Y-8431623D01*
X-3364323Y-8486002D01*
X-3355323Y-8556426D01*
X-3390649Y-8625633D01*
X-3515190Y-8750174D01*
X-3534206Y-8765533D01*
X-3535267Y-8766499D01*
X-3544015Y-8772147D01*
X-3550461Y-8780324D01*
X-3564940Y-8798690D01*
X-3568917Y-8803165D01*
X-3568846Y-8803226D01*
X-3572199Y-8807183D01*
X-3575882Y-8810866D01*
X-3578908Y-8815101D01*
X-3578910Y-8815103D01*
X-3587164Y-8826654D01*
X-3590729Y-8831403D01*
X-3612129Y-8858549D01*
X-3622645Y-8871888D01*
X-3625696Y-8880575D01*
X-3631045Y-8888061D01*
X-3634028Y-8898037D01*
X-3634029Y-8898038D01*
X-3645809Y-8937429D01*
X-3647639Y-8943061D01*
X-3664727Y-8991720D01*
X-3665211Y-8997309D01*
X-3665211Y-9000020D01*
X-3665326Y-9002687D01*
X-3665345Y-9002750D01*
X-3665519Y-9002743D01*
X-3665566Y-9003489D01*
X-3667436Y-9009742D01*
X-3667027Y-9020146D01*
X-3665308Y-9063896D01*
X-3665211Y-9068843D01*
X-3665211Y-9662154D01*
X-3667797Y-9686453D01*
X-3667865Y-9687891D01*
X-3670056Y-9698069D01*
X-3667934Y-9715995D01*
X-3666084Y-9731631D01*
X-3665732Y-9737609D01*
X-3665639Y-9737601D01*
X-3665211Y-9742779D01*
X-3665211Y-9747981D01*
X-3662253Y-9765750D01*
X-3662025Y-9767121D01*
X-3661188Y-9773000D01*
X-3656584Y-9811898D01*
X-3655129Y-9824196D01*
X-3651144Y-9832495D01*
X-3649633Y-9841572D01*
X-3625153Y-9886940D01*
X-3622472Y-9892203D01*
X-3603584Y-9931539D01*
X-3603581Y-9931543D01*
X-3600151Y-9938687D01*
X-3596541Y-9942981D01*
X-3594609Y-9944913D01*
X-3592822Y-9946862D01*
X-3592793Y-9946915D01*
X-3592923Y-9947034D01*
X-3592422Y-9947602D01*
X-3589323Y-9953346D01*
X-3581678Y-9960413D01*
X-3549502Y-9990156D01*
X-3545936Y-9993586D01*
X-2350386Y-11189136D01*
X-2316360Y-11251448D01*
X-2313488Y-11279549D01*
X-2313556Y-11286036D01*
X-2314547Y-11293564D01*
X-2298343Y-11440340D01*
X-2247596Y-11579014D01*
X-2243360Y-11585317D01*
X-2243360Y-11585318D01*
X-2231981Y-11602251D01*
X-2165235Y-11701580D01*
X-2056015Y-11800962D01*
X-1926242Y-11871423D01*
X-1783408Y-11908895D01*
X-1706621Y-11910101D01*
X-1643357Y-11911095D01*
X-1643354Y-11911095D01*
X-1635759Y-11911214D01*
X-1583964Y-11899351D01*
X-1499221Y-11879943D01*
X-1499217Y-11879942D01*
X-1491818Y-11878247D01*
X-1471046Y-11867800D01*
X-1366679Y-11815310D01*
X-1366676Y-11815308D01*
X-1359896Y-11811898D01*
X-1247609Y-11715995D01*
X-1161439Y-11596077D01*
X-1106360Y-11459065D01*
X-1085554Y-11312871D01*
X-1085419Y-11300000D01*
X-1103159Y-11153402D01*
X-1155356Y-11015267D01*
X-1199702Y-10950743D01*
X-1234694Y-10899829D01*
X-1234695Y-10899827D01*
X-1238996Y-10893570D01*
X-1349250Y-10795337D01*
X-1355960Y-10791784D01*
X-1473043Y-10729792D01*
X-1473045Y-10729791D01*
X-1479754Y-10726239D01*
X-1526660Y-10714457D01*
X-1615602Y-10692116D01*
X-1615606Y-10692116D01*
X-1622973Y-10690265D01*
X-1630572Y-10690225D01*
X-1630574Y-10690225D01*
X-1719184Y-10689761D01*
X-1787199Y-10669403D01*
X-1807619Y-10652858D01*
X-2428667Y-10031810D01*
X-2462693Y-9969498D01*
X-2457628Y-9898683D01*
X-2415081Y-9841847D01*
X-2396186Y-9830150D01*
X-2366680Y-9815310D01*
X-2359896Y-9811898D01*
X-2247609Y-9715995D01*
X-2161439Y-9596077D01*
X-2106360Y-9459065D01*
X-2085554Y-9312871D01*
X-2085419Y-9300000D01*
X-2086155Y-9293916D01*
X-2086056Y-9293324D01*
X-2086141Y-9291782D01*
X-2085796Y-9291763D01*
X-2074480Y-9223886D01*
X-2050162Y-9189686D01*
X-2025542Y-9165066D01*
X-1963230Y-9131040D01*
X-1892415Y-9136105D01*
X-1835579Y-9178652D01*
X-1810768Y-9245172D01*
X-1811525Y-9270605D01*
X-1813556Y-9286030D01*
X-1813556Y-9286037D01*
X-1814547Y-9293564D01*
X-1798343Y-9440340D01*
X-1795733Y-9447472D01*
X-1756815Y-9553821D01*
X-1747596Y-9579014D01*
X-1743360Y-9585317D01*
X-1743360Y-9585318D01*
X-1681073Y-9678010D01*
X-1665235Y-9701580D01*
X-1659616Y-9706693D01*
X-1659615Y-9706694D01*
X-1561631Y-9795852D01*
X-1556015Y-9800962D01*
X-1426242Y-9871423D01*
X-1283408Y-9908895D01*
X-1206621Y-9910101D01*
X-1143357Y-9911095D01*
X-1143354Y-9911095D01*
X-1135759Y-9911214D01*
X-1080627Y-9898587D01*
X-999221Y-9879943D01*
X-999217Y-9879942D01*
X-991818Y-9878247D01*
X-937503Y-9850930D01*
X-866679Y-9815310D01*
X-866676Y-9815308D01*
X-859896Y-9811898D01*
X-747609Y-9715995D01*
X-661439Y-9596077D01*
X-606360Y-9459065D01*
X-585554Y-9312871D01*
X-585419Y-9300000D01*
X-587109Y-9286030D01*
X-592054Y-9245172D01*
X-603159Y-9153402D01*
X-655356Y-9015267D01*
X-663963Y-9002743D01*
X-685771Y-8971013D01*
X-707872Y-8903544D01*
X-689987Y-8834837D01*
X-671027Y-8810549D01*
X-593979Y-8733502D01*
X-478881Y-8618404D01*
X-416569Y-8584379D01*
X-389786Y-8581500D01*
X76757Y-8581500D01*
X144878Y-8601502D01*
X191371Y-8655158D01*
X201475Y-8725432D01*
X191997Y-8758448D01*
X147742Y-8858549D01*
X144700Y-8884642D01*
X144700Y-9775358D01*
X145996Y-9786252D01*
X146685Y-9792040D01*
X147867Y-9801978D01*
X160381Y-9830150D01*
X187944Y-9892203D01*
X194036Y-9905919D01*
X210558Y-9922412D01*
X266295Y-9978052D01*
X266297Y-9978053D01*
X274528Y-9986270D01*
X378549Y-10032258D01*
X404642Y-10035300D01*
X1695358Y-10035300D01*
X1706252Y-10034004D01*
X1712593Y-10033250D01*
X1712596Y-10033249D01*
X1721978Y-10032133D01*
X1793376Y-10000419D01*
X1815284Y-9990688D01*
X1825919Y-9985964D01*
X1889360Y-9922412D01*
X1898052Y-9913705D01*
X1898053Y-9913703D01*
X1906270Y-9905472D01*
X1934399Y-9841847D01*
X1949755Y-9807113D01*
X1995594Y-9752897D01*
X2034711Y-9737716D01*
X2034446Y-9736900D01*
X2055848Y-9729946D01*
X2075074Y-9725330D01*
X2087513Y-9723360D01*
X2097306Y-9721809D01*
X2117359Y-9711592D01*
X2135623Y-9704027D01*
X2138950Y-9702946D01*
X2209918Y-9700919D01*
X2270716Y-9737581D01*
X2278708Y-9747209D01*
X2289025Y-9760975D01*
X2296206Y-9766357D01*
X2397666Y-9842398D01*
X2397669Y-9842400D01*
X2404848Y-9847780D01*
X2413252Y-9850930D01*
X2413251Y-9850930D01*
X2532983Y-9895815D01*
X2532985Y-9895815D01*
X2540378Y-9898587D01*
X2548228Y-9899440D01*
X2548229Y-9899440D01*
X2598765Y-9904930D01*
X2602171Y-9905300D01*
X2899956Y-9905300D01*
X3197828Y-9905299D01*
X3201222Y-9904930D01*
X3201228Y-9904930D01*
X3251764Y-9899441D01*
X3251768Y-9899440D01*
X3259622Y-9898587D01*
X3395152Y-9847780D01*
X3402331Y-9842400D01*
X3402334Y-9842398D01*
X3503794Y-9766357D01*
X3510975Y-9760975D01*
X3528508Y-9737581D01*
X3592398Y-9652334D01*
X3592400Y-9652331D01*
X3597780Y-9645152D01*
X3632018Y-9553821D01*
X3674659Y-9497056D01*
X3741220Y-9472356D01*
X3810569Y-9487563D01*
X3860688Y-9537849D01*
X3867982Y-9553821D01*
X3902220Y-9645152D01*
X3907600Y-9652331D01*
X3907602Y-9652334D01*
X3971492Y-9737581D01*
X3989025Y-9760975D01*
X3996206Y-9766357D01*
X4097666Y-9842398D01*
X4097669Y-9842400D01*
X4104848Y-9847780D01*
X4113252Y-9850930D01*
X4113251Y-9850930D01*
X4232983Y-9895815D01*
X4232985Y-9895815D01*
X4240378Y-9898587D01*
X4248228Y-9899440D01*
X4248229Y-9899440D01*
X4298765Y-9904930D01*
X4302171Y-9905300D01*
X4599956Y-9905300D01*
X4897828Y-9905299D01*
X4901222Y-9904930D01*
X4901228Y-9904930D01*
X4951764Y-9899441D01*
X4951768Y-9899440D01*
X4959622Y-9898587D01*
X5095152Y-9847780D01*
X5102331Y-9842400D01*
X5102334Y-9842398D01*
X5191535Y-9775545D01*
X5258041Y-9750697D01*
X5327424Y-9765750D01*
X5377654Y-9815924D01*
X5393100Y-9876371D01*
X5393100Y-11110525D01*
X5373098Y-11178646D01*
X5342666Y-11211350D01*
X5239025Y-11289025D01*
X5233643Y-11296206D01*
X5179494Y-11368456D01*
X5152220Y-11404848D01*
X5149800Y-11403034D01*
X5110259Y-11442485D01*
X5040868Y-11457498D01*
X4974376Y-11432611D01*
X4949320Y-11403694D01*
X4947780Y-11404848D01*
X4866357Y-11296206D01*
X4860975Y-11289025D01*
X4848331Y-11279549D01*
X4752334Y-11207602D01*
X4752331Y-11207600D01*
X4745152Y-11202220D01*
X4653514Y-11167867D01*
X4617017Y-11154185D01*
X4617015Y-11154185D01*
X4609622Y-11151413D01*
X4601772Y-11150560D01*
X4601771Y-11150560D01*
X4551226Y-11145069D01*
X4551225Y-11145069D01*
X4547829Y-11144700D01*
X4300073Y-11144700D01*
X4052172Y-11144701D01*
X4048778Y-11145070D01*
X4048772Y-11145070D01*
X3998236Y-11150559D01*
X3998232Y-11150560D01*
X3990378Y-11151413D01*
X3854848Y-11202220D01*
X3808426Y-11237012D01*
X3760985Y-11272567D01*
X3694479Y-11297415D01*
X3625097Y-11282362D01*
X3577644Y-11237012D01*
X3565179Y-11216429D01*
X3555869Y-11204557D01*
X3445443Y-11094131D01*
X3433574Y-11084824D01*
X3299988Y-11003921D01*
X3286243Y-10997715D01*
X3136356Y-10950744D01*
X3123306Y-10948131D01*
X3068414Y-10943087D01*
X3056876Y-10946475D01*
X3055671Y-10947865D01*
X3054000Y-10955548D01*
X3054000Y-12028000D01*
X3033998Y-12096121D01*
X2980342Y-12142614D01*
X2928000Y-12154000D01*
X2672000Y-12154000D01*
X2603879Y-12133998D01*
X2557386Y-12080342D01*
X2546000Y-12028000D01*
X2546000Y-10960116D01*
X2541525Y-10944877D01*
X2540135Y-10943672D01*
X2535706Y-10942709D01*
X2476685Y-10948132D01*
X2463649Y-10950743D01*
X2313757Y-10997715D01*
X2300012Y-11003921D01*
X2166426Y-11084824D01*
X2154557Y-11094131D01*
X2044129Y-11204559D01*
X2031732Y-11220368D01*
X1973957Y-11261630D01*
X1903045Y-11265106D01*
X1843565Y-11231791D01*
X1833705Y-11221949D01*
X1833704Y-11221948D01*
X1825472Y-11213730D01*
X1721451Y-11167742D01*
X1695358Y-11164700D01*
X404642Y-11164700D01*
X393748Y-11165996D01*
X387407Y-11166750D01*
X387404Y-11166751D01*
X378022Y-11167867D01*
X330139Y-11189136D01*
X300683Y-11202220D01*
X274081Y-11214036D01*
X236735Y-11251448D01*
X201948Y-11286295D01*
X201947Y-11286297D01*
X193730Y-11294528D01*
X189026Y-11305168D01*
X184609Y-11315158D01*
X147742Y-11398549D01*
X144700Y-11424642D01*
X144700Y-12315358D01*
X145996Y-12326252D01*
X146685Y-12332040D01*
X147867Y-12341978D01*
X194036Y-12445919D01*
X234186Y-12485998D01*
X266295Y-12518052D01*
X266297Y-12518053D01*
X274528Y-12526270D01*
X378549Y-12572258D01*
X404642Y-12575300D01*
X541330Y-12575300D01*
X609451Y-12595302D01*
X655944Y-12648958D01*
X664883Y-12711129D01*
X666337Y-12711198D01*
X665980Y-12718761D01*
X666048Y-12719232D01*
X665926Y-12719912D01*
X665846Y-12721601D01*
X663655Y-12731780D01*
X666850Y-12758780D01*
X667627Y-12765342D01*
X667979Y-12771320D01*
X668072Y-12771312D01*
X668500Y-12776490D01*
X668500Y-12781692D01*
X669354Y-12786822D01*
X671686Y-12800832D01*
X672522Y-12806704D01*
X678582Y-12857907D01*
X682567Y-12866206D01*
X684078Y-12875283D01*
X687478Y-12881583D01*
X692963Y-12936520D01*
X685453Y-12993564D01*
X701657Y-13140340D01*
X704267Y-13147472D01*
X745791Y-13260942D01*
X752404Y-13279014D01*
X756640Y-13285317D01*
X756640Y-13285318D01*
X773333Y-13310159D01*
X834765Y-13401580D01*
X840384Y-13406693D01*
X840385Y-13406694D01*
X850607Y-13415995D01*
X943985Y-13500962D01*
X1016511Y-13540340D01*
X1035129Y-13550449D01*
X1085450Y-13600531D01*
X1100707Y-13669869D01*
X1076055Y-13736449D01*
X1019320Y-13779130D01*
X975007Y-13787180D01*
X-3838784Y-13787180D01*
X-3838787Y-13787181D01*
X-3871207Y-13787181D01*
X-3890215Y-13793357D01*
X-3892604Y-13794133D01*
X-3911823Y-13798747D01*
X-3924271Y-13800719D01*
X-3924275Y-13800720D01*
X-3934066Y-13802271D01*
X-3942897Y-13806771D01*
X-3942898Y-13806771D01*
X-3954125Y-13812492D01*
X-3972391Y-13820057D01*
X-3993792Y-13827011D01*
X-4012000Y-13840240D01*
X-4028853Y-13850568D01*
X-4048911Y-13860788D01*
X-4071824Y-13883701D01*
X-4071838Y-13883714D01*
X-4448072Y-14259949D01*
X-4448075Y-14259953D01*
X-4539212Y-14351090D01*
X-4543715Y-14359927D01*
X-4543716Y-14359929D01*
X-4549428Y-14371140D01*
X-4559756Y-14387994D01*
X-4567162Y-14398187D01*
X-4567165Y-14398192D01*
X-4572990Y-14406210D01*
X-4576054Y-14415640D01*
X-4579944Y-14427613D01*
X-4587509Y-14445877D01*
X-4597729Y-14465935D01*
X-4599280Y-14475730D01*
X-4601250Y-14488167D01*
X-4605866Y-14507393D01*
X-4612820Y-14528795D01*
X-4612820Y-14956180D01*
X-4632822Y-15024301D01*
X-4686478Y-15070794D01*
X-4756752Y-15080898D01*
X-4821332Y-15051404D01*
X-4850072Y-15015333D01*
X-4871438Y-14975148D01*
X-4881298Y-14965067D01*
X-4888425Y-14967635D01*
X-5377978Y-15457188D01*
X-5385592Y-15471132D01*
X-5385461Y-15472965D01*
X-5381210Y-15479580D01*
X-4893339Y-15967451D01*
X-4880959Y-15974211D01*
X-4874225Y-15969170D01*
X-4848376Y-15923667D01*
X-4797337Y-15874317D01*
X-4727719Y-15860394D01*
X-4661625Y-15886320D01*
X-4620041Y-15943863D01*
X-4612820Y-15985904D01*
X-4612820Y-17138700D01*
X-4632822Y-17206821D01*
X-4686478Y-17253314D01*
X-4738820Y-17264700D01*
X-6295358Y-17264700D01*
X-6306252Y-17265996D01*
X-6312593Y-17266750D01*
X-6312596Y-17266751D01*
X-6321978Y-17267867D01*
X-6425919Y-17314036D01*
X-6434141Y-17322272D01*
X-6434142Y-17322273D01*
X-6479527Y-17367737D01*
X-6541809Y-17401817D01*
X-6612629Y-17396814D01*
X-6669502Y-17354317D01*
X-6694371Y-17287819D01*
X-6694700Y-17278720D01*
X-6694700Y-16339132D01*
X-6254302Y-16339132D01*
X-6249393Y-16345690D01*
X-6160882Y-16395157D01*
X-6149643Y-16400067D01*
X-5973359Y-16457345D01*
X-5961385Y-16459978D01*
X-5777324Y-16481926D01*
X-5765075Y-16482183D01*
X-5580258Y-16467962D01*
X-5568178Y-16465831D01*
X-5389655Y-16415986D01*
X-5378222Y-16411552D01*
X-5254493Y-16349052D01*
X-5244209Y-16339407D01*
X-5246447Y-16332763D01*
X-5737188Y-15842022D01*
X-5751132Y-15834408D01*
X-5752965Y-15834539D01*
X-5759580Y-15838790D01*
X-6247542Y-16326752D01*
X-6254302Y-16339132D01*
X-6694700Y-16339132D01*
X-6694700Y-16091359D01*
X-6674698Y-16023238D01*
X-6621042Y-15976745D01*
X-6612569Y-15973359D01*
X-6122022Y-15482812D01*
X-6114408Y-15468868D01*
X-6114539Y-15467035D01*
X-6118790Y-15460420D01*
X-6606879Y-14972331D01*
X-6629087Y-14960204D01*
X-6679288Y-14910001D01*
X-6694700Y-14849617D01*
X-6694700Y-14601101D01*
X-6255180Y-14601101D01*
X-6252726Y-14608064D01*
X-5762812Y-15097978D01*
X-5748868Y-15105592D01*
X-5747035Y-15105461D01*
X-5740420Y-15101210D01*
X-5252166Y-14612956D01*
X-5245406Y-14600576D01*
X-5250065Y-14594353D01*
X-5352076Y-14539196D01*
X-5363381Y-14534444D01*
X-5540446Y-14479633D01*
X-5552459Y-14477167D01*
X-5736801Y-14457792D01*
X-5749069Y-14457707D01*
X-5933655Y-14474505D01*
X-5945704Y-14476803D01*
X-6123517Y-14529137D01*
X-6134892Y-14533732D01*
X-6245031Y-14591312D01*
X-6255180Y-14601101D01*
X-6694700Y-14601101D01*
X-6694700Y-13873150D01*
X-6674698Y-13805029D01*
X-6621042Y-13758536D01*
X-6550768Y-13748432D01*
X-6486188Y-13777926D01*
X-6473320Y-13790817D01*
X-6469472Y-13795275D01*
X-6465235Y-13801580D01*
X-6459616Y-13806693D01*
X-6459615Y-13806694D01*
X-6361631Y-13895852D01*
X-6356015Y-13900962D01*
X-6226242Y-13971423D01*
X-6083408Y-14008895D01*
X-6006621Y-14010101D01*
X-5943357Y-14011095D01*
X-5943354Y-14011095D01*
X-5935759Y-14011214D01*
X-5883964Y-13999351D01*
X-5799221Y-13979943D01*
X-5799217Y-13979942D01*
X-5791818Y-13978247D01*
X-5754786Y-13959622D01*
X-5666679Y-13915310D01*
X-5666676Y-13915308D01*
X-5659896Y-13911898D01*
X-5547609Y-13815995D01*
X-5461439Y-13696077D01*
X-5406360Y-13559065D01*
X-5385554Y-13412871D01*
X-5385419Y-13400000D01*
X-5403159Y-13253402D01*
X-5455356Y-13115267D01*
X-5463310Y-13103694D01*
X-5534694Y-12999829D01*
X-5534695Y-12999827D01*
X-5538996Y-12993570D01*
X-5550137Y-12983643D01*
X-5643579Y-12900390D01*
X-5649250Y-12895337D01*
X-5655959Y-12891785D01*
X-5655966Y-12891780D01*
X-5751459Y-12841219D01*
X-5802302Y-12791667D01*
X-5818500Y-12729865D01*
X-5818500Y-12701300D01*
X-5798498Y-12633179D01*
X-5744842Y-12586686D01*
X-5692500Y-12575300D01*
X-4604642Y-12575300D01*
X-4593748Y-12574004D01*
X-4587407Y-12573250D01*
X-4587404Y-12573249D01*
X-4578022Y-12572133D01*
X-4474081Y-12525964D01*
X-4434002Y-12485814D01*
X-4401948Y-12453705D01*
X-4401947Y-12453703D01*
X-4393730Y-12445472D01*
X-4347742Y-12341451D01*
X-4344700Y-12315358D01*
X-4344700Y-11424642D01*
X-4345996Y-11413748D01*
X-4346750Y-11407407D01*
X-4346751Y-11407404D01*
X-4347867Y-11398022D01*
X-4394036Y-11294081D01*
X-4456435Y-11231791D01*
X-4466295Y-11221948D01*
X-4466297Y-11221947D01*
X-4474528Y-11213730D01*
X-4578549Y-11167742D01*
X-4604642Y-11164700D01*
X-4742500Y-11164700D01*
X-4810621Y-11144698D01*
X-4857114Y-11091042D01*
X-4868500Y-11038700D01*
X-4868500Y-10904140D01*
X-4865913Y-10879824D01*
X-4865846Y-10878401D01*
X-4863654Y-10868220D01*
X-4867627Y-10834652D01*
X-4867979Y-10828678D01*
X-4868072Y-10828686D01*
X-4868500Y-10823508D01*
X-4868500Y-10818308D01*
X-4869354Y-10813176D01*
X-4871686Y-10799165D01*
X-4872523Y-10793286D01*
X-4877358Y-10752433D01*
X-4877358Y-10752432D01*
X-4878582Y-10742093D01*
X-4882567Y-10733794D01*
X-4884078Y-10724717D01*
X-4908558Y-10679349D01*
X-4911239Y-10674086D01*
X-4930131Y-10634743D01*
X-4933560Y-10627602D01*
X-4937169Y-10623308D01*
X-4939095Y-10621382D01*
X-4940891Y-10619424D01*
X-4940921Y-10619367D01*
X-4940792Y-10619249D01*
X-4941290Y-10618684D01*
X-4944388Y-10612943D01*
X-4952036Y-10605873D01*
X-4958420Y-10597643D01*
X-4955422Y-10595317D01*
X-4981931Y-10550998D01*
X-4985326Y-10512873D01*
X-4985554Y-10512871D01*
X-4985530Y-10510584D01*
X-4985419Y-10500000D01*
X-5003159Y-10353402D01*
X-5029893Y-10282653D01*
X-5052673Y-10222367D01*
X-5052673Y-10222366D01*
X-5055356Y-10215267D01*
X-5054985Y-10215127D01*
X-5067914Y-10150036D01*
X-5041903Y-10083976D01*
X-4984305Y-10042466D01*
X-4942419Y-10035300D01*
X-4604642Y-10035300D01*
X-4593748Y-10034004D01*
X-4587407Y-10033250D01*
X-4587404Y-10033249D01*
X-4578022Y-10032133D01*
X-4506624Y-10000419D01*
X-4484716Y-9990688D01*
X-4474081Y-9985964D01*
X-4410640Y-9922412D01*
X-4401948Y-9913705D01*
X-4401947Y-9913703D01*
X-4393730Y-9905472D01*
X-4347742Y-9801451D01*
X-4344700Y-9775358D01*
X-4344700Y-8884642D01*
X-4346217Y-8871888D01*
X-4346750Y-8867407D01*
X-4346751Y-8867404D01*
X-4347867Y-8858022D01*
X-4394036Y-8754081D01*
X-4449551Y-8698663D01*
X-4466295Y-8681948D01*
X-4466297Y-8681947D01*
X-4474528Y-8673730D01*
X-4578549Y-8627742D01*
X-4604642Y-8624700D01*
X-5895358Y-8624700D01*
X-5906252Y-8625996D01*
X-5912593Y-8626750D01*
X-5912596Y-8626751D01*
X-5921978Y-8627867D01*
X-6025919Y-8674036D01*
X-6043967Y-8692116D01*
X-6098052Y-8746295D01*
X-6098053Y-8746297D01*
X-6106270Y-8754528D01*
X-6152258Y-8858549D01*
X-6155300Y-8884642D01*
X-6155300Y-9638094D01*
X-6175302Y-9706215D01*
X-6192205Y-9727189D01*
X-6431479Y-9966463D01*
X-6450495Y-9981822D01*
X-6451556Y-9982788D01*
X-6460304Y-9988436D01*
X-6466751Y-9996614D01*
X-6469751Y-10000419D01*
X-6527632Y-10041531D01*
X-6598552Y-10044825D01*
X-6659995Y-10009253D01*
X-6692451Y-9946109D01*
X-6694700Y-9922412D01*
X-6694700Y-5612645D01*
X-6674698Y-5544524D01*
X-6621042Y-5498031D01*
X-6550768Y-5487927D01*
X-6493135Y-5511819D01*
X-6491575Y-5512988D01*
X-6445152Y-5547780D01*
X-6436748Y-5550930D01*
X-6436749Y-5550930D01*
X-6317017Y-5595815D01*
X-6317015Y-5595815D01*
X-6309622Y-5598587D01*
X-6301772Y-5599440D01*
X-6301771Y-5599440D01*
X-6251235Y-5604930D01*
X-6247829Y-5605300D01*
X-6000073Y-5605300D01*
X-5752172Y-5605299D01*
X-5748778Y-5604930D01*
X-5748772Y-5604930D01*
X-5698236Y-5599441D01*
X-5698232Y-5599440D01*
X-5690378Y-5598587D01*
X-5554848Y-5547780D01*
X-5547669Y-5542400D01*
X-5547666Y-5542398D01*
X-5446206Y-5466357D01*
X-5439025Y-5460975D01*
X-5400023Y-5408935D01*
X-5343164Y-5366420D01*
X-5299197Y-5358500D01*
X-5200803Y-5358500D01*
X-5132682Y-5378502D01*
X-5099977Y-5408935D01*
X-5060975Y-5460975D01*
X-5053794Y-5466357D01*
X-4952334Y-5542398D01*
X-4952331Y-5542400D01*
X-4945152Y-5547780D01*
X-4936748Y-5550930D01*
X-4936749Y-5550930D01*
X-4817017Y-5595815D01*
X-4817015Y-5595815D01*
X-4809622Y-5598587D01*
X-4801772Y-5599440D01*
X-4801771Y-5599440D01*
X-4751235Y-5604930D01*
X-4747829Y-5605300D01*
X-4500073Y-5605300D01*
X-4252172Y-5605299D01*
X-4248778Y-5604930D01*
X-4248772Y-5604930D01*
X-4198236Y-5599441D01*
X-4198232Y-5599440D01*
X-4190378Y-5598587D01*
X-4054848Y-5547780D01*
X-3960984Y-5477433D01*
X-3894479Y-5452585D01*
X-3825097Y-5467638D01*
X-3777644Y-5512988D01*
X-3765179Y-5533571D01*
X-3755869Y-5545443D01*
X-3645443Y-5655869D01*
X-3633574Y-5665176D01*
X-3499988Y-5746079D01*
X-3486243Y-5752285D01*
X-3336356Y-5799256D01*
X-3323306Y-5801869D01*
X-3268414Y-5806913D01*
X-3256876Y-5803525D01*
X-3255671Y-5802135D01*
X-3254000Y-5794452D01*
X-3254000Y-4722000D01*
X-3233998Y-4653879D01*
X-3180342Y-4607386D01*
X-3128000Y-4596000D01*
X-2110116Y-4596000D01*
X-2094877Y-4591525D01*
X-2093672Y-4590135D01*
X-2092001Y-4582452D01*
X-2092001Y-4546295D01*
X-2092264Y-4540546D01*
X-2098132Y-4476685D01*
X-2100743Y-4463649D01*
X-2149987Y-4306508D01*
X-2147400Y-4305697D01*
X-2155432Y-4248048D01*
X-2125658Y-4183597D01*
X-2065765Y-4145473D01*
X-1994769Y-4145783D01*
G37*
G04 #@! TD.AperFunction*
G04 #@! TA.AperFunction,Conductor*
G36*
X5984142Y4692786D02*
G01*
X6000000Y4689990D01*
X6010855Y4691904D01*
X6021879Y4691904D01*
X6021879Y4690865D01*
X6034345Y4691317D01*
X6123179Y4682568D01*
X6147399Y4677751D01*
X6223806Y4654573D01*
X6283184Y4615659D01*
X6312100Y4550818D01*
X6301369Y4480637D01*
X6254399Y4427398D01*
X6187227Y4408000D01*
X6122115Y4408000D01*
X6106876Y4403525D01*
X6105671Y4402135D01*
X6104000Y4394452D01*
X6104000Y410115D01*
X6108475Y394876D01*
X6109865Y393671D01*
X6117548Y392000D01*
X6311085Y392000D01*
X6316010Y392193D01*
X6387069Y397786D01*
X6398403Y399733D01*
X6536089Y436626D01*
X6607066Y434936D01*
X6665861Y395142D01*
X6693809Y329877D01*
X6694700Y314919D01*
X6694700Y-11368456D01*
X6674698Y-11436577D01*
X6621042Y-11483070D01*
X6550768Y-11493174D01*
X6486188Y-11463680D01*
X6456218Y-11420593D01*
X6455242Y-11421127D01*
X6450930Y-11413250D01*
X6447780Y-11404848D01*
X6442400Y-11397669D01*
X6442398Y-11397666D01*
X6366357Y-11296206D01*
X6360975Y-11289025D01*
X6257334Y-11211350D01*
X6214820Y-11154492D01*
X6206900Y-11110525D01*
X6206900Y-9812934D01*
X6226902Y-9744813D01*
X6242248Y-9727232D01*
X6241473Y-9726520D01*
X6246615Y-9720928D01*
X6252391Y-9715995D01*
X6256828Y-9709821D01*
X6298136Y-9652334D01*
X6338561Y-9596077D01*
X6393640Y-9459065D01*
X6414446Y-9312871D01*
X6414581Y-9300000D01*
X6412891Y-9286030D01*
X6407946Y-9245172D01*
X6396841Y-9153402D01*
X6344644Y-9015267D01*
X6336042Y-9002751D01*
X6265306Y-8899829D01*
X6265305Y-8899827D01*
X6261004Y-8893570D01*
X6250984Y-8884642D01*
X6168179Y-8810866D01*
X6150750Y-8795337D01*
X6143866Y-8791692D01*
X6026957Y-8729792D01*
X6026955Y-8729791D01*
X6020246Y-8726239D01*
X5969617Y-8713522D01*
X5884398Y-8692116D01*
X5884394Y-8692116D01*
X5877027Y-8690265D01*
X5869428Y-8690225D01*
X5869426Y-8690225D01*
X5807798Y-8689903D01*
X5729362Y-8689492D01*
X5721982Y-8691264D01*
X5721980Y-8691264D01*
X5593153Y-8722192D01*
X5593149Y-8722193D01*
X5585774Y-8723964D01*
X5579029Y-8727445D01*
X5579030Y-8727445D01*
X5479016Y-8779066D01*
X5421226Y-8793100D01*
X5389475Y-8793100D01*
X5321354Y-8773098D01*
X5288649Y-8742665D01*
X5285971Y-8739091D01*
X5210975Y-8639025D01*
X5201753Y-8632113D01*
X5137285Y-8583797D01*
X5094770Y-8526937D01*
X5089744Y-8456119D01*
X5123804Y-8393826D01*
X5186136Y-8359836D01*
X5229514Y-8358078D01*
X5241141Y-8359629D01*
X5283028Y-8365218D01*
X5290039Y-8364580D01*
X5290043Y-8364580D01*
X5455935Y-8349483D01*
X5455938Y-8349482D01*
X5462953Y-8348844D01*
X5599167Y-8304585D01*
X5628082Y-8295190D01*
X5628084Y-8295189D01*
X5634778Y-8293014D01*
X5665583Y-8274651D01*
X5783910Y-8204115D01*
X5783913Y-8204113D01*
X5789965Y-8200505D01*
X5910923Y-8085318D01*
X5915695Y-8080774D01*
X5915697Y-8080771D01*
X5920799Y-8075913D01*
X6020779Y-7925430D01*
X6070871Y-7793564D01*
X6082436Y-7763119D01*
X6082437Y-7763117D01*
X6084936Y-7756537D01*
X6089417Y-7724652D01*
X6109529Y-7581551D01*
X6109529Y-7581546D01*
X6110080Y-7577628D01*
X6110396Y-7555000D01*
X6090257Y-7375458D01*
X6030841Y-7204839D01*
X5935102Y-7051624D01*
X5893405Y-7009635D01*
X5859598Y-6947204D01*
X5864910Y-6876407D01*
X5895919Y-6829606D01*
X5915695Y-6810774D01*
X5915697Y-6810771D01*
X5920799Y-6805913D01*
X6020779Y-6655430D01*
X6084936Y-6486537D01*
X6110080Y-6307628D01*
X6110396Y-6285000D01*
X6090257Y-6105458D01*
X6030841Y-5934839D01*
X5935102Y-5781624D01*
X5893405Y-5739635D01*
X5859598Y-5677204D01*
X5864910Y-5606407D01*
X5895919Y-5559606D01*
X5915695Y-5540774D01*
X5915697Y-5540771D01*
X5920799Y-5535913D01*
X6020779Y-5385430D01*
X6062484Y-5275642D01*
X6082436Y-5223119D01*
X6082437Y-5223117D01*
X6084936Y-5216537D01*
X6085916Y-5209565D01*
X6109529Y-5041551D01*
X6109529Y-5041546D01*
X6110080Y-5037628D01*
X6110396Y-5015000D01*
X6090257Y-4835458D01*
X6030841Y-4664839D01*
X5935102Y-4511624D01*
X5893405Y-4469635D01*
X5859598Y-4407204D01*
X5864910Y-4336407D01*
X5895919Y-4289606D01*
X5915695Y-4270774D01*
X5915697Y-4270771D01*
X5920799Y-4265913D01*
X6020779Y-4115430D01*
X6069744Y-3986529D01*
X6082436Y-3953119D01*
X6082437Y-3953117D01*
X6084936Y-3946537D01*
X6085935Y-3939431D01*
X6109529Y-3771551D01*
X6109529Y-3771546D01*
X6110080Y-3767628D01*
X6110298Y-3752044D01*
X6110341Y-3748962D01*
X6110341Y-3748957D01*
X6110396Y-3745000D01*
X6090257Y-3565458D01*
X6072750Y-3515185D01*
X6069238Y-3444277D01*
X6104619Y-3382725D01*
X6116177Y-3372924D01*
X6155724Y-3343285D01*
X6168285Y-3330724D01*
X6244786Y-3228649D01*
X6253324Y-3213054D01*
X6298478Y-3092606D01*
X6302105Y-3077351D01*
X6307631Y-3026486D01*
X6308000Y-3019672D01*
X6308000Y-2747115D01*
X6303525Y-2731876D01*
X6302135Y-2730671D01*
X6294452Y-2729000D01*
X4310116Y-2729000D01*
X4294877Y-2733475D01*
X4281778Y-2748592D01*
X4222052Y-2786976D01*
X4151055Y-2786976D01*
X4091329Y-2748593D01*
X4068571Y-2710309D01*
X4050930Y-2663251D01*
X4047780Y-2654848D01*
X4042400Y-2647669D01*
X4042398Y-2647666D01*
X3966357Y-2546206D01*
X3960975Y-2539025D01*
X3883002Y-2480587D01*
X3852334Y-2457602D01*
X3852331Y-2457600D01*
X3845152Y-2452220D01*
X3761234Y-2420761D01*
X3717017Y-2404185D01*
X3717015Y-2404185D01*
X3709622Y-2401413D01*
X3701772Y-2400560D01*
X3701771Y-2400560D01*
X3651226Y-2395069D01*
X3651225Y-2395069D01*
X3647829Y-2394700D01*
X3400073Y-2394700D01*
X3152172Y-2394701D01*
X3148778Y-2395070D01*
X3148772Y-2395070D01*
X3098236Y-2400559D01*
X3098232Y-2400560D01*
X3090378Y-2401413D01*
X2954848Y-2452220D01*
X2947669Y-2457600D01*
X2947666Y-2457602D01*
X2916998Y-2480587D01*
X2839025Y-2539025D01*
X2833643Y-2546206D01*
X2801480Y-2589121D01*
X2744621Y-2631636D01*
X2694305Y-2638628D01*
X2691200Y-2637926D01*
X2637492Y-2641258D01*
X2629690Y-2641500D01*
X2613487Y-2641500D01*
X2604571Y-2642777D01*
X2603122Y-2642984D01*
X2593072Y-2644013D01*
X2555215Y-2646362D01*
X2545823Y-2646945D01*
X2537377Y-2649994D01*
X2534486Y-2650593D01*
X2517520Y-2654822D01*
X2514695Y-2655648D01*
X2505813Y-2656920D01*
X2462702Y-2676522D01*
X2453353Y-2680327D01*
X2408819Y-2696404D01*
X2401571Y-2701699D01*
X2398973Y-2703080D01*
X2383855Y-2711915D01*
X2381386Y-2713494D01*
X2373218Y-2717208D01*
X2337348Y-2748115D01*
X2329431Y-2754401D01*
X2322385Y-2759548D01*
X2322380Y-2759553D01*
X2318448Y-2762425D01*
X2307473Y-2773400D01*
X2300626Y-2779758D01*
X2262873Y-2812287D01*
X2257989Y-2819822D01*
X2252542Y-2826066D01*
X2242942Y-2837931D01*
X2204511Y-2876362D01*
X2144830Y-2909786D01*
X2093153Y-2922192D01*
X2093149Y-2922193D01*
X2085774Y-2923964D01*
X1954554Y-2991692D01*
X1948832Y-2996684D01*
X1948830Y-2996685D01*
X1925977Y-3016621D01*
X1843277Y-3088765D01*
X1758368Y-3209579D01*
X1755609Y-3216654D01*
X1755608Y-3216657D01*
X1750933Y-3228649D01*
X1704727Y-3347160D01*
X1704035Y-3352414D01*
X1671607Y-3409266D01*
X1390696Y-3690177D01*
X1381156Y-3697800D01*
X1381470Y-3698168D01*
X1374634Y-3703986D01*
X1367042Y-3708776D01*
X1361100Y-3715504D01*
X1331407Y-3749125D01*
X1326061Y-3754812D01*
X1314618Y-3766255D01*
X1310649Y-3771551D01*
X1308341Y-3774630D01*
X1301967Y-3782459D01*
X1270622Y-3817951D01*
X1266808Y-3826074D01*
X1265174Y-3828562D01*
X1256186Y-3843523D01*
X1254771Y-3846108D01*
X1249384Y-3853295D01*
X1244147Y-3867265D01*
X1232759Y-3897642D01*
X1228833Y-3906958D01*
X1208719Y-3949800D01*
X1207338Y-3958669D01*
X1206472Y-3961502D01*
X1202042Y-3978389D01*
X1201408Y-3981274D01*
X1198255Y-3989684D01*
X1196088Y-4018842D01*
X1194746Y-4036906D01*
X1193592Y-4046952D01*
X1191500Y-4060386D01*
X1191500Y-4075906D01*
X1191154Y-4085243D01*
X1187461Y-4134941D01*
X1189335Y-4143720D01*
X1189898Y-4151978D01*
X1191500Y-4167161D01*
X1191500Y-5084977D01*
X1171498Y-5153098D01*
X1116649Y-5200128D01*
X1074081Y-5219036D01*
X1034002Y-5259186D01*
X1001948Y-5291295D01*
X1001947Y-5291297D01*
X993730Y-5299528D01*
X947742Y-5403549D01*
X944700Y-5429642D01*
X944700Y-6576340D01*
X924698Y-6644461D01*
X871042Y-6690954D01*
X818700Y-6702340D01*
X-418700Y-6702340D01*
X-486821Y-6682338D01*
X-533314Y-6628682D01*
X-544700Y-6576340D01*
X-544700Y-5429642D01*
X-545996Y-5418748D01*
X-546750Y-5412407D01*
X-546751Y-5412404D01*
X-547867Y-5403022D01*
X-594036Y-5299081D01*
X-634186Y-5259002D01*
X-666295Y-5226948D01*
X-666297Y-5226947D01*
X-674528Y-5218730D01*
X-685168Y-5214026D01*
X-716448Y-5200197D01*
X-770664Y-5154359D01*
X-791500Y-5084957D01*
X-791500Y-4171072D01*
X-790145Y-4158942D01*
X-790627Y-4158903D01*
X-789907Y-4149956D01*
X-787926Y-4141200D01*
X-791258Y-4087492D01*
X-791500Y-4079690D01*
X-791500Y-4063487D01*
X-792984Y-4053122D01*
X-794013Y-4043072D01*
X-796389Y-4004784D01*
X-796945Y-3995823D01*
X-799994Y-3987377D01*
X-800593Y-3984486D01*
X-804822Y-3967520D01*
X-805648Y-3964695D01*
X-806920Y-3955813D01*
X-826522Y-3912702D01*
X-830328Y-3903351D01*
X-843355Y-3867265D01*
X-846404Y-3858819D01*
X-851699Y-3851571D01*
X-853080Y-3848973D01*
X-861915Y-3833855D01*
X-863494Y-3831386D01*
X-867208Y-3823218D01*
X-898116Y-3787347D01*
X-904401Y-3779431D01*
X-909548Y-3772385D01*
X-909553Y-3772380D01*
X-912425Y-3768448D01*
X-923400Y-3757473D01*
X-929758Y-3750625D01*
X-956424Y-3719677D01*
X-956425Y-3719676D01*
X-962287Y-3712873D01*
X-969822Y-3707989D01*
X-976066Y-3702542D01*
X-987931Y-3692942D01*
X-1840177Y-2840696D01*
X-1847800Y-2831156D01*
X-1848168Y-2831470D01*
X-1853986Y-2824634D01*
X-1858776Y-2817042D01*
X-1899125Y-2781407D01*
X-1904812Y-2776061D01*
X-1916255Y-2764618D01*
X-1924630Y-2758341D01*
X-1932459Y-2751967D01*
X-1967951Y-2720622D01*
X-1976074Y-2716808D01*
X-1978562Y-2715174D01*
X-1993523Y-2706186D01*
X-1996108Y-2704771D01*
X-2003295Y-2699384D01*
X-2047643Y-2682759D01*
X-2056960Y-2678832D01*
X-2091674Y-2662534D01*
X-2099800Y-2658719D01*
X-2108669Y-2657338D01*
X-2111502Y-2656472D01*
X-2128389Y-2652042D01*
X-2131274Y-2651408D01*
X-2139684Y-2648255D01*
X-2168842Y-2646088D01*
X-2186906Y-2644746D01*
X-2196952Y-2643592D01*
X-2205575Y-2642249D01*
X-2205578Y-2642249D01*
X-2210386Y-2641500D01*
X-2225906Y-2641500D01*
X-2235243Y-2641154D01*
X-2242114Y-2640643D01*
X-2284941Y-2637461D01*
X-2292649Y-2639106D01*
X-2361435Y-2623903D01*
X-2401508Y-2589084D01*
X-2439025Y-2539025D01*
X-2516998Y-2480587D01*
X-2547666Y-2457602D01*
X-2547669Y-2457600D01*
X-2554848Y-2452220D01*
X-2638766Y-2420761D01*
X-2682983Y-2404185D01*
X-2682985Y-2404185D01*
X-2690378Y-2401413D01*
X-2698228Y-2400560D01*
X-2698229Y-2400560D01*
X-2748774Y-2395069D01*
X-2748775Y-2395069D01*
X-2752171Y-2394700D01*
X-2999927Y-2394700D01*
X-3247828Y-2394701D01*
X-3251222Y-2395070D01*
X-3251228Y-2395070D01*
X-3301764Y-2400559D01*
X-3301768Y-2400560D01*
X-3309622Y-2401413D01*
X-3445152Y-2452220D01*
X-3452331Y-2457600D01*
X-3452334Y-2457602D01*
X-3483002Y-2480587D01*
X-3560975Y-2539025D01*
X-3566357Y-2546206D01*
X-3599977Y-2591065D01*
X-3656836Y-2633580D01*
X-3700803Y-2641500D01*
X-3799197Y-2641500D01*
X-3867318Y-2621498D01*
X-3900023Y-2591065D01*
X-3933643Y-2546206D01*
X-3939025Y-2539025D01*
X-4016998Y-2480587D01*
X-4047666Y-2457602D01*
X-4047669Y-2457600D01*
X-4054848Y-2452220D01*
X-4138766Y-2420761D01*
X-4182983Y-2404185D01*
X-4182985Y-2404185D01*
X-4190378Y-2401413D01*
X-4198228Y-2400560D01*
X-4198229Y-2400560D01*
X-4248774Y-2395069D01*
X-4248775Y-2395069D01*
X-4252171Y-2394700D01*
X-4499927Y-2394700D01*
X-4747828Y-2394701D01*
X-4751222Y-2395070D01*
X-4751228Y-2395070D01*
X-4801764Y-2400559D01*
X-4801768Y-2400560D01*
X-4809622Y-2401413D01*
X-4861234Y-2420761D01*
X-4932040Y-2425944D01*
X-4994409Y-2392023D01*
X-5028538Y-2329767D01*
X-5023591Y-2258943D01*
X-4994557Y-2213684D01*
X-4983758Y-2202885D01*
X4292000Y-2202885D01*
X4296475Y-2218124D01*
X4297865Y-2219329D01*
X4305548Y-2221000D01*
X5027885Y-2221000D01*
X5043124Y-2216525D01*
X5044329Y-2215135D01*
X5046000Y-2207452D01*
X5046000Y-2202885D01*
X5554000Y-2202885D01*
X5558475Y-2218124D01*
X5559865Y-2219329D01*
X5567548Y-2221000D01*
X6289884Y-2221000D01*
X6305123Y-2216525D01*
X6306328Y-2215135D01*
X6307999Y-2207452D01*
X6307999Y-1930331D01*
X6307629Y-1923510D01*
X6302105Y-1872648D01*
X6298479Y-1857396D01*
X6253324Y-1736946D01*
X6244786Y-1721351D01*
X6168285Y-1619276D01*
X6155724Y-1606715D01*
X6053649Y-1530214D01*
X6038054Y-1521676D01*
X5917606Y-1476522D01*
X5902351Y-1472895D01*
X5851486Y-1467369D01*
X5844672Y-1467000D01*
X5572115Y-1467000D01*
X5556876Y-1471475D01*
X5555671Y-1472865D01*
X5554000Y-1480548D01*
X5554000Y-2202885D01*
X5046000Y-2202885D01*
X5046000Y-1485116D01*
X5041525Y-1469877D01*
X5040135Y-1468672D01*
X5032452Y-1467001D01*
X4755331Y-1467001D01*
X4748510Y-1467371D01*
X4697648Y-1472895D01*
X4682396Y-1476521D01*
X4561946Y-1521676D01*
X4546351Y-1530214D01*
X4444276Y-1606715D01*
X4431715Y-1619276D01*
X4355214Y-1721351D01*
X4346676Y-1736946D01*
X4301522Y-1857394D01*
X4297895Y-1872649D01*
X4292369Y-1923514D01*
X4292000Y-1930328D01*
X4292000Y-2202885D01*
X-4983758Y-2202885D01*
X-3858878Y-1078005D01*
X-3796566Y-1043979D01*
X-3742712Y-1046672D01*
X-3742173Y-1044219D01*
X-3736156Y-1045542D01*
X-3730296Y-1047446D01*
X-3522460Y-1072229D01*
X-3516325Y-1071757D01*
X-3516323Y-1071757D01*
X-3319910Y-1056644D01*
X-3319905Y-1056643D01*
X-3313769Y-1056171D01*
X-3307839Y-1054515D01*
X-3307837Y-1054515D01*
X-3118099Y-1001539D01*
X-3118100Y-1001539D01*
X-3112171Y-999884D01*
X-3082052Y-984670D01*
X-3024266Y-955480D01*
X-2925345Y-905511D01*
X-2760408Y-776648D01*
X-2728917Y-740165D01*
X-2627671Y-622871D01*
X-2627670Y-622869D01*
X-2623642Y-618203D01*
X-2520255Y-436210D01*
X-2454187Y-237603D01*
X-2427954Y-29945D01*
X-2427536Y0D01*
X-2429004Y14974D01*
X-2072359Y14974D01*
X-2054845Y-193600D01*
X-1997152Y-394800D01*
X-1994334Y-400282D01*
X-1994333Y-400286D01*
X-1904297Y-575477D01*
X-1904294Y-575481D01*
X-1901477Y-580963D01*
X-1771466Y-744996D01*
X-1612070Y-880653D01*
X-1429360Y-982766D01*
X-1230296Y-1047446D01*
X-1022460Y-1072229D01*
X-1016325Y-1071757D01*
X-1016323Y-1071757D01*
X-819910Y-1056644D01*
X-819905Y-1056643D01*
X-813769Y-1056171D01*
X-807839Y-1054515D01*
X-807837Y-1054515D01*
X-654465Y-1011693D01*
X-583474Y-1012640D01*
X-531486Y-1043957D01*
X-249890Y-1325553D01*
X-215864Y-1387865D01*
X-213746Y-1400821D01*
X-198343Y-1540340D01*
X-195733Y-1547472D01*
X-174053Y-1606715D01*
X-147596Y-1679014D01*
X-143360Y-1685317D01*
X-143360Y-1685318D01*
X-131981Y-1702251D01*
X-65235Y-1801580D01*
X43985Y-1900962D01*
X173758Y-1971423D01*
X316592Y-2008895D01*
X393379Y-2010101D01*
X456643Y-2011095D01*
X456646Y-2011095D01*
X464241Y-2011214D01*
X516036Y-1999351D01*
X600779Y-1979943D01*
X600783Y-1979942D01*
X608182Y-1978247D01*
X703460Y-1930328D01*
X733321Y-1915310D01*
X733324Y-1915308D01*
X740104Y-1911898D01*
X852391Y-1815995D01*
X938561Y-1696077D01*
X993640Y-1559065D01*
X1005387Y-1476522D01*
X1013865Y-1416955D01*
X1013865Y-1416952D01*
X1014446Y-1412871D01*
X1014581Y-1400000D01*
X996841Y-1253402D01*
X989198Y-1233175D01*
X983828Y-1162383D01*
X1017585Y-1099925D01*
X1079750Y-1065632D01*
X1097396Y-1063007D01*
X1152369Y-1058777D01*
X2805777Y-1058777D01*
X2815074Y-1070793D01*
X2858069Y-1100898D01*
X2867555Y-1106376D01*
X3058993Y-1195645D01*
X3069285Y-1199391D01*
X3273309Y-1254059D01*
X3284104Y-1255962D01*
X3494525Y-1274372D01*
X3505475Y-1274372D01*
X3715896Y-1255962D01*
X3726691Y-1254059D01*
X3930715Y-1199391D01*
X3941007Y-1195645D01*
X4132445Y-1106376D01*
X4141931Y-1100898D01*
X4185764Y-1070207D01*
X4194139Y-1059729D01*
X4187071Y-1046281D01*
X3512812Y-372022D01*
X3498868Y-364408D01*
X3497035Y-364539D01*
X3490420Y-368790D01*
X2812207Y-1047003D01*
X2805777Y-1058777D01*
X1152369Y-1058777D01*
X1180090Y-1056644D01*
X1180095Y-1056643D01*
X1186231Y-1056171D01*
X1192161Y-1054515D01*
X1192163Y-1054515D01*
X1381901Y-1001539D01*
X1381900Y-1001539D01*
X1387829Y-999884D01*
X1417948Y-984670D01*
X1475734Y-955480D01*
X1574655Y-905511D01*
X1739592Y-776648D01*
X1771083Y-740165D01*
X1872329Y-622871D01*
X1872330Y-622869D01*
X1876358Y-618203D01*
X1979745Y-436210D01*
X2025711Y-298032D01*
X2066193Y-239708D01*
X2131781Y-212528D01*
X2201651Y-225123D01*
X2253621Y-273493D01*
X2266976Y-305193D01*
X2300609Y-430715D01*
X2304355Y-441007D01*
X2393623Y-632441D01*
X2399103Y-641932D01*
X2429794Y-685765D01*
X2440271Y-694140D01*
X2453718Y-687072D01*
X3127978Y-12812D01*
X3134356Y-1132D01*
X3864408Y-1132D01*
X3864539Y-2965D01*
X3868790Y-9580D01*
X4547003Y-687793D01*
X4558777Y-694223D01*
X4570793Y-684926D01*
X4600897Y-641932D01*
X4606377Y-632441D01*
X4695645Y-441007D01*
X4699391Y-430715D01*
X4754059Y-226691D01*
X4755962Y-215896D01*
X4774372Y-5475D01*
X4774372Y5475D01*
X4755962Y215896D01*
X4754059Y226691D01*
X4699390Y430719D01*
X4695452Y441538D01*
X4690949Y512392D01*
X4725468Y574432D01*
X4788048Y607961D01*
X4858821Y602334D01*
X4893147Y582552D01*
X4947610Y538448D01*
X4958625Y531295D01*
X5116930Y450635D01*
X5129183Y445931D01*
X5301597Y399733D01*
X5312931Y397786D01*
X5383990Y392193D01*
X5388915Y392000D01*
X5577885Y392000D01*
X5593124Y396475D01*
X5594329Y397865D01*
X5596000Y405548D01*
X5596000Y2127885D01*
X5591525Y2143124D01*
X5590135Y2144329D01*
X5582452Y2146000D01*
X4560115Y2146000D01*
X4544876Y2141525D01*
X4543671Y2140135D01*
X4542000Y2132452D01*
X4542000Y1238916D01*
X4542193Y1233990D01*
X4547786Y1162931D01*
X4549733Y1151597D01*
X4595931Y979183D01*
X4600635Y966930D01*
X4645144Y879575D01*
X4658248Y809798D01*
X4631548Y744013D01*
X4591502Y710841D01*
X4546281Y687071D01*
X3872022Y12812D01*
X3864408Y-1132D01*
X3134356Y-1132D01*
X3135592Y1132D01*
X3135461Y2965D01*
X3131210Y9580D01*
X2452997Y687793D01*
X2441223Y694223D01*
X2429207Y684926D01*
X2399103Y641932D01*
X2393623Y632441D01*
X2304355Y441007D01*
X2300609Y430715D01*
X2266642Y303948D01*
X2229690Y243325D01*
X2165830Y212304D01*
X2095335Y220732D01*
X2040588Y265935D01*
X2024313Y300141D01*
X2015335Y329877D01*
X1991542Y408684D01*
X1893278Y593493D01*
X1818707Y684926D01*
X1764884Y750920D01*
X1764881Y750923D01*
X1760989Y755695D01*
X1756240Y759624D01*
X1604464Y885184D01*
X1604461Y885186D01*
X1599714Y889113D01*
X1415597Y988665D01*
X1315623Y1019612D01*
X1221536Y1048737D01*
X1221533Y1048738D01*
X1215649Y1050559D01*
X1209524Y1051203D01*
X1209523Y1051203D01*
X1128404Y1059729D01*
X2805860Y1059729D01*
X2812928Y1046282D01*
X3487188Y372022D01*
X3501132Y364408D01*
X3502965Y364539D01*
X3509580Y368790D01*
X4187793Y1047003D01*
X4194223Y1058777D01*
X4184926Y1070793D01*
X4141931Y1100898D01*
X4132445Y1106376D01*
X3941007Y1195645D01*
X3930715Y1199391D01*
X3726691Y1254059D01*
X3715896Y1255962D01*
X3505475Y1274372D01*
X3494525Y1274372D01*
X3284104Y1255962D01*
X3273309Y1254059D01*
X3069285Y1199391D01*
X3058993Y1195645D01*
X2867559Y1106377D01*
X2858068Y1100897D01*
X2814235Y1070206D01*
X2805860Y1059729D01*
X1128404Y1059729D01*
X1013615Y1071794D01*
X1013614Y1071794D01*
X1007487Y1072438D01*
X877837Y1060639D01*
X805181Y1054027D01*
X805180Y1054027D01*
X799040Y1053468D01*
X793126Y1051727D01*
X793124Y1051727D01*
X774624Y1046282D01*
X598248Y994371D01*
X412758Y897400D01*
X249636Y766246D01*
X115095Y605907D01*
X112124Y600504D01*
X112122Y600500D01*
X110828Y598146D01*
X109832Y597155D01*
X108642Y595418D01*
X108312Y595644D01*
X60485Y548086D01*
X-8932Y533191D01*
X-75382Y558190D01*
X-104212Y588772D01*
X-106722Y593493D01*
X-181293Y684926D01*
X-235116Y750920D01*
X-235119Y750923D01*
X-239011Y755695D01*
X-243760Y759624D01*
X-395536Y885184D01*
X-395539Y885186D01*
X-400286Y889113D01*
X-584403Y988665D01*
X-684377Y1019612D01*
X-778464Y1048737D01*
X-778467Y1048738D01*
X-784351Y1050559D01*
X-790476Y1051203D01*
X-790477Y1051203D01*
X-986385Y1071794D01*
X-986386Y1071794D01*
X-992513Y1072438D01*
X-1122163Y1060639D01*
X-1194819Y1054027D01*
X-1194820Y1054027D01*
X-1200960Y1053468D01*
X-1206874Y1051727D01*
X-1206876Y1051727D01*
X-1225376Y1046282D01*
X-1401752Y994371D01*
X-1587242Y897400D01*
X-1750364Y766246D01*
X-1884905Y605907D01*
X-1887875Y600504D01*
X-1887876Y600503D01*
X-1891730Y593493D01*
X-1985740Y422489D01*
X-2049028Y222978D01*
X-2049714Y216861D01*
X-2049715Y216857D01*
X-2071672Y21099D01*
X-2072359Y14974D01*
X-2429004Y14974D01*
X-2447961Y208309D01*
X-2450251Y215896D01*
X-2503479Y392193D01*
X-2508458Y408684D01*
X-2606722Y593493D01*
X-2681293Y684926D01*
X-2735116Y750920D01*
X-2735119Y750923D01*
X-2739011Y755695D01*
X-2743760Y759624D01*
X-2895536Y885184D01*
X-2895539Y885186D01*
X-2900286Y889113D01*
X-3084403Y988665D01*
X-3184377Y1019612D01*
X-3278464Y1048737D01*
X-3278467Y1048738D01*
X-3284351Y1050559D01*
X-3290476Y1051203D01*
X-3290477Y1051203D01*
X-3486385Y1071794D01*
X-3486386Y1071794D01*
X-3492513Y1072438D01*
X-3622163Y1060639D01*
X-3694819Y1054027D01*
X-3694820Y1054027D01*
X-3700960Y1053468D01*
X-3706874Y1051727D01*
X-3706876Y1051727D01*
X-3725376Y1046282D01*
X-3901752Y994371D01*
X-4087242Y897400D01*
X-4250364Y766246D01*
X-4384905Y605907D01*
X-4387875Y600504D01*
X-4387876Y600503D01*
X-4391730Y593493D01*
X-4485740Y422489D01*
X-4549028Y222978D01*
X-4549714Y216861D01*
X-4549715Y216857D01*
X-4571672Y21099D01*
X-4572359Y14974D01*
X-4554845Y-193600D01*
X-4543632Y-232705D01*
X-4544083Y-303699D01*
X-4575656Y-356529D01*
X-6309304Y-2090177D01*
X-6318844Y-2097800D01*
X-6318530Y-2098168D01*
X-6325366Y-2103986D01*
X-6332958Y-2108776D01*
X-6338900Y-2115504D01*
X-6368593Y-2149125D01*
X-6373939Y-2154812D01*
X-6385382Y-2166255D01*
X-6391022Y-2173780D01*
X-6391659Y-2174630D01*
X-6398033Y-2182459D01*
X-6429378Y-2217951D01*
X-6433192Y-2226074D01*
X-6434826Y-2228562D01*
X-6443814Y-2243523D01*
X-6445230Y-2246108D01*
X-6450616Y-2253295D01*
X-6453768Y-2261702D01*
X-6458079Y-2269576D01*
X-6461383Y-2267767D01*
X-6493370Y-2310339D01*
X-6559934Y-2335032D01*
X-6629281Y-2319817D01*
X-6679394Y-2269526D01*
X-6694700Y-2209337D01*
X-6694700Y314919D01*
X-6674698Y383040D01*
X-6621042Y429533D01*
X-6550768Y439637D01*
X-6536089Y436626D01*
X-6398403Y399733D01*
X-6387069Y397786D01*
X-6316010Y392193D01*
X-6311085Y392000D01*
X-6122115Y392000D01*
X-6106876Y396475D01*
X-6105671Y397865D01*
X-6104000Y405548D01*
X-6104000Y410115D01*
X-5596000Y410115D01*
X-5591525Y394876D01*
X-5590135Y393671D01*
X-5582452Y392000D01*
X-5388915Y392000D01*
X-5383990Y392193D01*
X-5312931Y397786D01*
X-5301597Y399733D01*
X-5129183Y445931D01*
X-5116930Y450635D01*
X-4958625Y531295D01*
X-4947610Y538448D01*
X-4809541Y650255D01*
X-4800255Y659541D01*
X-4688448Y797610D01*
X-4681295Y808625D01*
X-4600635Y966930D01*
X-4595931Y979183D01*
X-4549733Y1151597D01*
X-4547786Y1162931D01*
X-4542193Y1233990D01*
X-4542000Y1238916D01*
X-4542000Y2127885D01*
X-4546475Y2143124D01*
X-4547865Y2144329D01*
X-4555548Y2146000D01*
X-5577885Y2146000D01*
X-5593124Y2141525D01*
X-5594329Y2140135D01*
X-5596000Y2132452D01*
X-5596000Y410115D01*
X-6104000Y410115D01*
X-6104000Y2405658D01*
X-3060376Y2405658D01*
X-3041491Y2225979D01*
X-2983268Y2054950D01*
X-2979578Y2048951D01*
X-2979577Y2048950D01*
X-2973328Y2038792D01*
X-2888601Y1901070D01*
X-2762194Y1771988D01*
X-2610331Y1674119D01*
X-2603708Y1671708D01*
X-2603705Y1671707D01*
X-2447181Y1614737D01*
X-2447176Y1614736D01*
X-2440558Y1612327D01*
X-2301028Y1594700D01*
X-2204568Y1594700D01*
X-2070458Y1609743D01*
X-2063805Y1612060D01*
X-2063804Y1612060D01*
X-1994065Y1636346D01*
X-1899839Y1669159D01*
X-1746624Y1764898D01*
X-1682246Y1828829D01*
X-1623425Y1887240D01*
X-1623422Y1887244D01*
X-1618428Y1892203D01*
X-1612801Y1901070D01*
X-1525399Y2038792D01*
X-1525397Y2038796D01*
X-1521621Y2044746D01*
X-1511109Y2074268D01*
X-1463378Y2208310D01*
X-1463377Y2208315D01*
X-1461016Y2214945D01*
X-1458865Y2232979D01*
X-1440458Y2387349D01*
X-1439624Y2394342D01*
X-1440813Y2405658D01*
X1439624Y2405658D01*
X1458509Y2225979D01*
X1516732Y2054950D01*
X1520422Y2048951D01*
X1520423Y2048950D01*
X1526672Y2038792D01*
X1611399Y1901070D01*
X1737806Y1771988D01*
X1889669Y1674119D01*
X1896292Y1671708D01*
X1896295Y1671707D01*
X2052819Y1614737D01*
X2052824Y1614736D01*
X2059442Y1612327D01*
X2198972Y1594700D01*
X2295432Y1594700D01*
X2429542Y1609743D01*
X2436195Y1612060D01*
X2436196Y1612060D01*
X2505935Y1636346D01*
X2600161Y1669159D01*
X2753376Y1764898D01*
X2817754Y1828829D01*
X2876575Y1887240D01*
X2876578Y1887244D01*
X2881572Y1892203D01*
X2887199Y1901070D01*
X2974601Y2038792D01*
X2974603Y2038796D01*
X2978379Y2044746D01*
X2988891Y2074268D01*
X3036622Y2208310D01*
X3036623Y2208315D01*
X3038984Y2214945D01*
X3041135Y2232979D01*
X3059542Y2387349D01*
X3060376Y2394342D01*
X3041491Y2574021D01*
X3008097Y2672115D01*
X4542000Y2672115D01*
X4546475Y2656876D01*
X4547865Y2655671D01*
X4555548Y2654000D01*
X5577885Y2654000D01*
X5593124Y2658475D01*
X5594329Y2659865D01*
X5596000Y2667548D01*
X5596000Y4389885D01*
X5591525Y4405124D01*
X5590135Y4406329D01*
X5582452Y4408000D01*
X5388916Y4408000D01*
X5383990Y4407807D01*
X5312931Y4402214D01*
X5301597Y4400267D01*
X5129183Y4354069D01*
X5116930Y4349365D01*
X4958625Y4268705D01*
X4947610Y4261552D01*
X4809541Y4149745D01*
X4800255Y4140459D01*
X4688448Y4002390D01*
X4681295Y3991375D01*
X4600635Y3833070D01*
X4595931Y3820817D01*
X4549733Y3648403D01*
X4547786Y3637069D01*
X4542193Y3566010D01*
X4542000Y3561085D01*
X4542000Y2672115D01*
X3008097Y2672115D01*
X2983268Y2745050D01*
X2976991Y2755254D01*
X2957282Y2787290D01*
X2888601Y2898930D01*
X2762194Y3028012D01*
X2610331Y3125881D01*
X2603708Y3128292D01*
X2603705Y3128293D01*
X2447181Y3185263D01*
X2447176Y3185264D01*
X2440558Y3187673D01*
X2301028Y3205300D01*
X2204568Y3205300D01*
X2070458Y3190257D01*
X2063805Y3187940D01*
X2063804Y3187940D01*
X2056117Y3185263D01*
X1899839Y3130841D01*
X1746624Y3035102D01*
X1682246Y2971171D01*
X1623425Y2912760D01*
X1623422Y2912756D01*
X1618428Y2907797D01*
X1614654Y2901851D01*
X1614653Y2901849D01*
X1525399Y2761208D01*
X1525397Y2761204D01*
X1521621Y2755254D01*
X1511109Y2725732D01*
X1463378Y2591690D01*
X1463377Y2591685D01*
X1461016Y2585055D01*
X1460183Y2578067D01*
X1460182Y2578064D01*
X1445551Y2455360D01*
X1439624Y2405658D01*
X-1440813Y2405658D01*
X-1458509Y2574021D01*
X-1516732Y2745050D01*
X-1523009Y2755254D01*
X-1542718Y2787290D01*
X-1611399Y2898930D01*
X-1737806Y3028012D01*
X-1889669Y3125881D01*
X-1896292Y3128292D01*
X-1896295Y3128293D01*
X-2052819Y3185263D01*
X-2052824Y3185264D01*
X-2059442Y3187673D01*
X-2198972Y3205300D01*
X-2295432Y3205300D01*
X-2429542Y3190257D01*
X-2436195Y3187940D01*
X-2436196Y3187940D01*
X-2443883Y3185263D01*
X-2600161Y3130841D01*
X-2753376Y3035102D01*
X-2817754Y2971171D01*
X-2876575Y2912760D01*
X-2876578Y2912756D01*
X-2881572Y2907797D01*
X-2885346Y2901851D01*
X-2885347Y2901849D01*
X-2974601Y2761208D01*
X-2974603Y2761204D01*
X-2978379Y2755254D01*
X-2988891Y2725732D01*
X-3036622Y2591690D01*
X-3036623Y2591685D01*
X-3038984Y2585055D01*
X-3039817Y2578067D01*
X-3039818Y2578064D01*
X-3054449Y2455360D01*
X-3060376Y2405658D01*
X-6104000Y2405658D01*
X-6104000Y2672115D01*
X-5596000Y2672115D01*
X-5591525Y2656876D01*
X-5590135Y2655671D01*
X-5582452Y2654000D01*
X-4560115Y2654000D01*
X-4544876Y2658475D01*
X-4543671Y2659865D01*
X-4542000Y2667548D01*
X-4542000Y3561085D01*
X-4542193Y3566010D01*
X-4547786Y3637069D01*
X-4549733Y3648403D01*
X-4595931Y3820817D01*
X-4600635Y3833070D01*
X-4681295Y3991375D01*
X-4688448Y4002390D01*
X-4800255Y4140459D01*
X-4809541Y4149745D01*
X-4947610Y4261552D01*
X-4958625Y4268705D01*
X-5116930Y4349365D01*
X-5129183Y4354069D01*
X-5301597Y4400267D01*
X-5312931Y4402214D01*
X-5383990Y4407807D01*
X-5388916Y4408000D01*
X-5577885Y4408000D01*
X-5593124Y4403525D01*
X-5594329Y4402135D01*
X-5596000Y4394452D01*
X-5596000Y2672115D01*
X-6104000Y2672115D01*
X-6104000Y4389885D01*
X-6108475Y4405124D01*
X-6109865Y4406329D01*
X-6117548Y4408000D01*
X-6187226Y4408000D01*
X-6255347Y4428002D01*
X-6301840Y4481658D01*
X-6311944Y4551932D01*
X-6282450Y4616512D01*
X-6223802Y4654574D01*
X-6147405Y4677749D01*
X-6123179Y4682568D01*
X-6034345Y4691317D01*
X-6021879Y4690865D01*
X-6021879Y4691904D01*
X-6010855Y4691904D01*
X-6000000Y4689990D01*
X-5984142Y4692786D01*
X-5962264Y4694700D01*
X5962264Y4694700D01*
X5984142Y4692786D01*
G37*
G04 #@! TD.AperFunction*
G04 #@! TA.AperFunction,Conductor*
G36*
X2474826Y-4148467D02*
G01*
X2531662Y-4191014D01*
X2556473Y-4257534D01*
X2547866Y-4305843D01*
X2549987Y-4306508D01*
X2500744Y-4463644D01*
X2498131Y-4476694D01*
X2492266Y-4540521D01*
X2492000Y-4546309D01*
X2492000Y-4577885D01*
X2496475Y-4593124D01*
X2497865Y-4594329D01*
X2505548Y-4596000D01*
X3528000Y-4596000D01*
X3596121Y-4616002D01*
X3642614Y-4669658D01*
X3654000Y-4722000D01*
X3654000Y-5789884D01*
X3658475Y-5805123D01*
X3659865Y-5806328D01*
X3664294Y-5807291D01*
X3723315Y-5801868D01*
X3736348Y-5799258D01*
X3754820Y-5793469D01*
X3825805Y-5792184D01*
X3886216Y-5829481D01*
X3916873Y-5893518D01*
X3918500Y-5913703D01*
X3918500Y-6079547D01*
X3898498Y-6147668D01*
X3881595Y-6168643D01*
X2978881Y-7071356D01*
X2916569Y-7105381D01*
X2889786Y-7108260D01*
X2529981Y-7108260D01*
X2461860Y-7088258D01*
X2415367Y-7034602D01*
X2405263Y-6964328D01*
X2414741Y-6931312D01*
X2448427Y-6855117D01*
X2448427Y-6855115D01*
X2452258Y-6846451D01*
X2455300Y-6820358D01*
X2455300Y-5660802D01*
X2475302Y-5592681D01*
X2528958Y-5546188D01*
X2599232Y-5536084D01*
X2663812Y-5565578D01*
X2670395Y-5571707D01*
X2754557Y-5655869D01*
X2766426Y-5665176D01*
X2900012Y-5746079D01*
X2913757Y-5752285D01*
X3063644Y-5799256D01*
X3076694Y-5801869D01*
X3131586Y-5806913D01*
X3143124Y-5803525D01*
X3144329Y-5802135D01*
X3146000Y-5794452D01*
X3146000Y-5122115D01*
X3141525Y-5106876D01*
X3140135Y-5105671D01*
X3132452Y-5104000D01*
X2510116Y-5104000D01*
X2494877Y-5108475D01*
X2493672Y-5109865D01*
X2490137Y-5126116D01*
X2456112Y-5188428D01*
X2393799Y-5222453D01*
X2322984Y-5217389D01*
X2316078Y-5214577D01*
X2283550Y-5200196D01*
X2229335Y-5154357D01*
X2208500Y-5084957D01*
X2208500Y-4362817D01*
X2228502Y-4294696D01*
X2245405Y-4273722D01*
X2341699Y-4177428D01*
X2404011Y-4143402D01*
X2474826Y-4148467D01*
G37*
G04 #@! TD.AperFunction*
M02*
