G04 #@! TF.GenerationSoftware,KiCad,Pcbnew,(6.0.9)*
G04 #@! TF.CreationDate,2022-12-10T19:33:09+09:00*
G04 #@! TF.ProjectId,otaHID,6f746148-4944-42e6-9b69-6361645f7063,2.0*
G04 #@! TF.SameCoordinates,Original*
G04 #@! TF.FileFunction,Soldermask,Top*
G04 #@! TF.FilePolarity,Negative*
%FSLAX46Y46*%
G04 Gerber Fmt 4.6, Leading zero omitted, Abs format (unit mm)*
G04 Created by KiCad (PCBNEW (6.0.9)) date 2022-12-10 19:33:09*
%MOMM*%
%LPD*%
G01*
G04 APERTURE LIST*
G04 Aperture macros list*
%AMRoundRect*
0 Rectangle with rounded corners*
0 $1 Rounding radius*
0 $2 $3 $4 $5 $6 $7 $8 $9 X,Y pos of 4 corners*
0 Add a 4 corners polygon primitive as box body*
4,1,4,$2,$3,$4,$5,$6,$7,$8,$9,$2,$3,0*
0 Add four circle primitives for the rounded corners*
1,1,$1+$1,$2,$3*
1,1,$1+$1,$4,$5*
1,1,$1+$1,$6,$7*
1,1,$1+$1,$8,$9*
0 Add four rect primitives between the rounded corners*
20,1,$1+$1,$2,$3,$4,$5,0*
20,1,$1+$1,$4,$5,$6,$7,0*
20,1,$1+$1,$6,$7,$8,$9,0*
20,1,$1+$1,$8,$9,$2,$3,0*%
G04 Aperture macros list end*
%ADD10RoundRect,0.200000X-0.200000X0.250000X-0.200000X-0.250000X0.200000X-0.250000X0.200000X0.250000X0*%
%ADD11R,0.150000X0.800000*%
%ADD12R,0.800000X0.150000*%
%ADD13R,1.200000X1.200000*%
%ADD14R,0.200000X0.675000*%
%ADD15R,0.700000X0.200000*%
%ADD16R,0.900000X1.200000*%
%ADD17R,1.400000X0.800000*%
%ADD18R,0.800000X1.400000*%
%ADD19RoundRect,0.200000X0.200000X-0.250000X0.200000X0.250000X-0.200000X0.250000X-0.200000X-0.250000X0*%
%ADD20R,1.000000X1.000000*%
%ADD21O,1.000000X1.000000*%
%ADD22R,0.500000X1.200000*%
%ADD23R,0.800000X1.200000*%
%ADD24RoundRect,0.300000X-0.300000X-0.500000X0.300000X-0.500000X0.300000X0.500000X-0.300000X0.500000X0*%
%ADD25R,0.600000X1.550000*%
%ADD26C,1.000000*%
%ADD27C,1.524000*%
%ADD28RoundRect,0.400000X0.400000X1.100000X-0.400000X1.100000X-0.400000X-1.100000X0.400000X-1.100000X0*%
G04 APERTURE END LIST*
D10*
X3400000Y-3850000D03*
X3400000Y-5550000D03*
D11*
X-2750000Y-13500000D03*
X-2250000Y-13500000D03*
X-1750000Y-13500000D03*
X-1250000Y-13500000D03*
X-750000Y-13500000D03*
X-250000Y-13500000D03*
X250000Y-13500000D03*
X750000Y-13500000D03*
D12*
X1500000Y-12750000D03*
X1500000Y-12250000D03*
X1500000Y-11750000D03*
X1500000Y-11250000D03*
X1500000Y-10750000D03*
X1500000Y-10250000D03*
X1500000Y-9750000D03*
X1500000Y-9250000D03*
D11*
X750000Y-8500000D03*
X250000Y-8500000D03*
X-250000Y-8500000D03*
X-750000Y-8500000D03*
X-1250000Y-8500000D03*
X-1750000Y-8500000D03*
X-2250000Y-8500000D03*
X-2750000Y-8500000D03*
D12*
X-3500000Y-9250000D03*
X-3500000Y-9750000D03*
X-3500000Y-10250000D03*
X-3500000Y-10750000D03*
X-3500000Y-11250000D03*
X-3500000Y-11750000D03*
X-3500000Y-12250000D03*
D13*
X-100000Y-10100000D03*
X-1900000Y-11900000D03*
X-1900000Y-10100000D03*
D12*
X-3500000Y-12750000D03*
D13*
X-100000Y-11900000D03*
D14*
X825000Y-3912500D03*
X1375000Y-3912500D03*
D15*
X1750000Y-4700000D03*
D14*
X1375000Y-5487500D03*
X825000Y-5487500D03*
D15*
X450000Y-4700000D03*
D16*
X5250000Y-16900000D03*
X5250000Y-20900000D03*
X6750000Y-16900000D03*
X6750000Y-20900000D03*
D17*
X1900000Y-23200000D03*
X1900000Y-22000000D03*
X1900000Y-20800000D03*
X1900000Y-19600000D03*
X1900000Y-18400000D03*
D18*
X700000Y-16800000D03*
X-500000Y-16800000D03*
X-1700000Y-16800000D03*
X-2900000Y-16800000D03*
X-4100000Y-16800000D03*
X-5300000Y-16800000D03*
D17*
X-6500000Y-18400000D03*
X-6500000Y-19600000D03*
X-6500000Y-20800000D03*
X-6500000Y-22000000D03*
X-6500000Y-23200000D03*
D19*
X-4900000Y-5550000D03*
X-4900000Y-3850000D03*
D10*
X6400000Y-550000D03*
X6400000Y-2250000D03*
D20*
X-6000000Y-14000000D03*
D21*
X-6000000Y-12730000D03*
X-6000000Y-11460000D03*
X-6000000Y-10190000D03*
X-6000000Y-8920000D03*
D19*
X-6400000Y-5550000D03*
X-6400000Y-3850000D03*
D22*
X-3050000Y-5850000D03*
X-2100000Y-5850000D03*
X-1150000Y-5850000D03*
X-1150000Y-3550000D03*
X-3050000Y-3550000D03*
D19*
X-6400000Y-2250000D03*
X-6400000Y-550000D03*
X6400000Y-5550000D03*
X6400000Y-3850000D03*
D23*
X6370000Y-8150000D03*
X3830000Y-8150000D03*
X3830000Y-14450000D03*
X6370000Y-14450000D03*
D24*
X6600000Y-26900000D03*
X3000000Y-26900000D03*
D25*
X4300000Y-23050000D03*
X5300000Y-23050000D03*
D10*
X4900000Y-3850000D03*
X4900000Y-5550000D03*
D26*
X2250000Y2400000D03*
X-2250000Y2400000D03*
D27*
X-3500000Y0D03*
X-1000000Y0D03*
X1000000Y0D03*
X3500000Y0D03*
D28*
X5850000Y2400000D03*
X-5850000Y2400000D03*
M02*
