G04 #@! TF.GenerationSoftware,KiCad,Pcbnew,(6.0.4-0)*
G04 #@! TF.CreationDate,2022-03-31T22:02:44+09:00*
G04 #@! TF.ProjectId,otaHID,6f746148-4944-42e6-9b69-6361645f7063,1.0*
G04 #@! TF.SameCoordinates,Original*
G04 #@! TF.FileFunction,Legend,Bot*
G04 #@! TF.FilePolarity,Positive*
%FSLAX46Y46*%
G04 Gerber Fmt 4.6, Leading zero omitted, Abs format (unit mm)*
G04 Created by KiCad (PCBNEW (6.0.4-0)) date 2022-03-31 22:02:44*
%MOMM*%
%LPD*%
G01*
G04 APERTURE LIST*
%ADD10C,0.100000*%
%ADD11C,0.120000*%
G04 APERTURE END LIST*
D10*
X3500000Y-2014285D02*
X3528571Y-2042857D01*
X3614285Y-2071428D01*
X3671428Y-2071428D01*
X3757142Y-2042857D01*
X3814285Y-1985714D01*
X3842857Y-1928571D01*
X3871428Y-1814285D01*
X3871428Y-1728571D01*
X3842857Y-1614285D01*
X3814285Y-1557142D01*
X3757142Y-1500000D01*
X3671428Y-1471428D01*
X3614285Y-1471428D01*
X3528571Y-1500000D01*
X3500000Y-1528571D01*
X3271428Y-1528571D02*
X3242857Y-1500000D01*
X3185714Y-1471428D01*
X3042857Y-1471428D01*
X2985714Y-1500000D01*
X2957142Y-1528571D01*
X2928571Y-1585714D01*
X2928571Y-1642857D01*
X2957142Y-1728571D01*
X3300000Y-2071428D01*
X2928571Y-2071428D01*
X457142Y-13971428D02*
X457142Y-14457142D01*
X428571Y-14514285D01*
X399999Y-14542857D01*
X342857Y-14571428D01*
X228571Y-14571428D01*
X171428Y-14542857D01*
X142857Y-14514285D01*
X114285Y-14457142D01*
X114285Y-13971428D01*
X-428571Y-14171428D02*
X-428571Y-14571428D01*
X-285714Y-13942857D02*
X-142857Y-14371428D01*
X-514285Y-14371428D01*
X-2900000Y-2014285D02*
X-2871428Y-2042857D01*
X-2785714Y-2071428D01*
X-2728571Y-2071428D01*
X-2642857Y-2042857D01*
X-2585714Y-1985714D01*
X-2557142Y-1928571D01*
X-2528571Y-1814285D01*
X-2528571Y-1728571D01*
X-2557142Y-1614285D01*
X-2585714Y-1557142D01*
X-2642857Y-1500000D01*
X-2728571Y-1471428D01*
X-2785714Y-1471428D01*
X-2871428Y-1500000D01*
X-2900000Y-1528571D01*
X-3471428Y-2071428D02*
X-3128571Y-2071428D01*
X-3300000Y-2071428D02*
X-3300000Y-1471428D01*
X-3242857Y-1557142D01*
X-3185714Y-1614285D01*
X-3128571Y-1642857D01*
X4400000Y-10821428D02*
X4600000Y-10535714D01*
X4742857Y-10821428D02*
X4742857Y-10221428D01*
X4514285Y-10221428D01*
X4457142Y-10250000D01*
X4428571Y-10278571D01*
X4400000Y-10335714D01*
X4400000Y-10421428D01*
X4428571Y-10478571D01*
X4457142Y-10507142D01*
X4514285Y-10535714D01*
X4742857Y-10535714D01*
X3828571Y-10821428D02*
X4171428Y-10821428D01*
X4000000Y-10821428D02*
X4000000Y-10221428D01*
X4057142Y-10307142D01*
X4114285Y-10364285D01*
X4171428Y-10392857D01*
X3800000Y-8071428D02*
X4000000Y-7785714D01*
X4142857Y-8071428D02*
X4142857Y-7471428D01*
X3914285Y-7471428D01*
X3857142Y-7500000D01*
X3828571Y-7528571D01*
X3800000Y-7585714D01*
X3800000Y-7671428D01*
X3828571Y-7728571D01*
X3857142Y-7757142D01*
X3914285Y-7785714D01*
X4142857Y-7785714D01*
X3257142Y-7471428D02*
X3542857Y-7471428D01*
X3571428Y-7757142D01*
X3542857Y-7728571D01*
X3485714Y-7700000D01*
X3342857Y-7700000D01*
X3285714Y-7728571D01*
X3257142Y-7757142D01*
X3228571Y-7814285D01*
X3228571Y-7957142D01*
X3257142Y-8014285D01*
X3285714Y-8042857D01*
X3342857Y-8071428D01*
X3485714Y-8071428D01*
X3542857Y-8042857D01*
X3571428Y-8014285D01*
X-4400000Y-2071428D02*
X-4114285Y-2071428D01*
X-4114285Y-1471428D01*
X-4914285Y-2071428D02*
X-4571428Y-2071428D01*
X-4742857Y-2071428D02*
X-4742857Y-1471428D01*
X-4685714Y-1557142D01*
X-4628571Y-1614285D01*
X-4571428Y-1642857D01*
X5900000Y-10821428D02*
X6100000Y-10535714D01*
X6242857Y-10821428D02*
X6242857Y-10221428D01*
X6014285Y-10221428D01*
X5957142Y-10250000D01*
X5928571Y-10278571D01*
X5900000Y-10335714D01*
X5900000Y-10421428D01*
X5928571Y-10478571D01*
X5957142Y-10507142D01*
X6014285Y-10535714D01*
X6242857Y-10535714D01*
X5700000Y-10221428D02*
X5328571Y-10221428D01*
X5528571Y-10450000D01*
X5442857Y-10450000D01*
X5385714Y-10478571D01*
X5357142Y-10507142D01*
X5328571Y-10564285D01*
X5328571Y-10707142D01*
X5357142Y-10764285D01*
X5385714Y-10792857D01*
X5442857Y-10821428D01*
X5614285Y-10821428D01*
X5671428Y-10792857D01*
X5700000Y-10764285D01*
X157142Y-1571428D02*
X157142Y-2057142D01*
X128571Y-2114285D01*
X99999Y-2142857D01*
X42857Y-2171428D01*
X-71428Y-2171428D01*
X-128571Y-2142857D01*
X-157142Y-2114285D01*
X-185714Y-2057142D01*
X-185714Y-1571428D01*
X-785714Y-2171428D02*
X-442857Y-2171428D01*
X-614285Y-2171428D02*
X-614285Y-1571428D01*
X-557142Y-1657142D01*
X-500000Y-1714285D01*
X-442857Y-1742857D01*
X-5800000Y-1757142D02*
X-5600000Y-1757142D01*
X-5600000Y-2071428D02*
X-5600000Y-1471428D01*
X-5885714Y-1471428D01*
X-6428571Y-2071428D02*
X-6085714Y-2071428D01*
X-6257142Y-2071428D02*
X-6257142Y-1471428D01*
X-6200000Y-1557142D01*
X-6142857Y-1614285D01*
X-6085714Y-1642857D01*
X-1642857Y-7771428D02*
X-1642857Y-8257142D01*
X-1671428Y-8314285D01*
X-1700000Y-8342857D01*
X-1757142Y-8371428D01*
X-1871428Y-8371428D01*
X-1928571Y-8342857D01*
X-1957142Y-8314285D01*
X-1985714Y-8257142D01*
X-1985714Y-7771428D01*
X-2557142Y-7771428D02*
X-2271428Y-7771428D01*
X-2242857Y-8057142D01*
X-2271428Y-8028571D01*
X-2328571Y-8000000D01*
X-2471428Y-8000000D01*
X-2528571Y-8028571D01*
X-2557142Y-8057142D01*
X-2585714Y-8114285D01*
X-2585714Y-8257142D01*
X-2557142Y-8314285D01*
X-2528571Y-8342857D01*
X-2471428Y-8371428D01*
X-2328571Y-8371428D01*
X-2271428Y-8342857D01*
X-2242857Y-8314285D01*
X2900000Y-10821428D02*
X3100000Y-10535714D01*
X3242857Y-10821428D02*
X3242857Y-10221428D01*
X3014285Y-10221428D01*
X2957142Y-10250000D01*
X2928571Y-10278571D01*
X2900000Y-10335714D01*
X2900000Y-10421428D01*
X2928571Y-10478571D01*
X2957142Y-10507142D01*
X3014285Y-10535714D01*
X3242857Y-10535714D01*
X2671428Y-10278571D02*
X2642857Y-10250000D01*
X2585714Y-10221428D01*
X2442857Y-10221428D01*
X2385714Y-10250000D01*
X2357142Y-10278571D01*
X2328571Y-10335714D01*
X2328571Y-10392857D01*
X2357142Y-10478571D01*
X2700000Y-10821428D01*
X2328571Y-10821428D01*
D11*
X3400000Y-3900000D02*
X3200000Y-4100000D01*
X2650000Y-2350000D02*
X2650000Y-5650000D01*
X3200000Y-4100000D02*
X3600000Y-4100000D01*
X3600000Y-4100000D02*
X3400000Y-3900000D01*
X4150000Y-2350000D02*
X4150000Y-5650000D01*
X2650000Y-5650000D02*
X4150000Y-5650000D01*
X2650000Y-2350000D02*
X4150000Y-2350000D01*
X-5850000Y-17370000D02*
X-5850000Y-16170000D01*
X-5050000Y-15370000D02*
X-3650000Y-15370000D01*
X5050000Y-15370000D02*
X3650000Y-15370000D01*
X5850000Y-17370000D02*
X5850000Y-16170000D01*
X5850000Y-29770000D02*
X5850000Y-26970000D01*
X-5850000Y-26970000D02*
X-5850000Y-29770000D01*
X-3750000Y-2350000D02*
X-2250000Y-2350000D01*
X-3750000Y-5650000D02*
X-2250000Y-5650000D01*
X-2250000Y-2350000D02*
X-2250000Y-5650000D01*
X-3750000Y-2350000D02*
X-3750000Y-5650000D01*
X-3200000Y-4100000D02*
X-2800000Y-4100000D01*
X-3000000Y-3900000D02*
X-3200000Y-4100000D01*
X-2800000Y-4100000D02*
X-3000000Y-3900000D01*
X4100000Y-12850000D02*
X4500000Y-12850000D01*
X5050000Y-11100000D02*
X5050000Y-14400000D01*
X3550000Y-11100000D02*
X5050000Y-11100000D01*
X3550000Y-14400000D02*
X5050000Y-14400000D01*
X4300000Y-12650000D02*
X4100000Y-12850000D01*
X4500000Y-12850000D02*
X4300000Y-12650000D01*
X3550000Y-11100000D02*
X3550000Y-14400000D01*
X3850000Y-9200000D02*
X3650000Y-9000000D01*
X5400000Y-8450000D02*
X5400000Y-9950000D01*
X5400000Y-8450000D02*
X2100000Y-8450000D01*
X2100000Y-8450000D02*
X2100000Y-9950000D01*
X5400000Y-9950000D02*
X2100000Y-9950000D01*
X3650000Y-9400000D02*
X3850000Y-9200000D01*
X3650000Y-9000000D02*
X3650000Y-9400000D01*
X-4300000Y-4100000D02*
X-4500000Y-3900000D01*
X-5250000Y-2350000D02*
X-5250000Y-5650000D01*
X-5250000Y-2350000D02*
X-3750000Y-2350000D01*
X-3750000Y-2350000D02*
X-3750000Y-5650000D01*
X-4500000Y-3900000D02*
X-4700000Y-4100000D01*
X-5250000Y-5650000D02*
X-3750000Y-5650000D01*
X-4700000Y-4100000D02*
X-4300000Y-4100000D01*
X5800000Y-12650000D02*
X5600000Y-12850000D01*
X5050000Y-11100000D02*
X6550000Y-11100000D01*
X5050000Y-14400000D02*
X6550000Y-14400000D01*
X5600000Y-12850000D02*
X6000000Y-12850000D01*
X5050000Y-11100000D02*
X5050000Y-14400000D01*
X6000000Y-12850000D02*
X5800000Y-12650000D01*
X6550000Y-11100000D02*
X6550000Y-14400000D01*
X-850000Y-2815000D02*
X-2160000Y-2815000D01*
X2560000Y-2815000D02*
X1250000Y-2815000D01*
X-2160000Y-5535000D02*
X-1930000Y-5535000D01*
X-2160000Y-2815000D02*
X-2160000Y-5535000D01*
X2560000Y-5535000D02*
X2330000Y-5535000D01*
X2560000Y-5535000D02*
X2560000Y-2815000D01*
X2330000Y-6675000D02*
X2330000Y-5535000D01*
X-5250000Y-5650000D02*
X-5250000Y-2350000D01*
X-6750000Y-5650000D02*
X-6750000Y-2350000D01*
X-6000000Y-4100000D02*
X-5800000Y-3900000D01*
X-5250000Y-5650000D02*
X-6750000Y-5650000D01*
X-5800000Y-3900000D02*
X-6200000Y-3900000D01*
X-6200000Y-3900000D02*
X-6000000Y-4100000D01*
X-5250000Y-2350000D02*
X-6750000Y-2350000D01*
X900000Y-8680000D02*
X-4100000Y-8680000D01*
X-3600000Y-12520000D02*
X-600000Y-12520000D01*
X3550000Y-14400000D02*
X2050000Y-14400000D01*
X2600000Y-12650000D02*
X2800000Y-12850000D01*
X2800000Y-12850000D02*
X3000000Y-12650000D01*
X3000000Y-12650000D02*
X2600000Y-12650000D01*
X3550000Y-14400000D02*
X3550000Y-11100000D01*
X2050000Y-14400000D02*
X2050000Y-11100000D01*
X3550000Y-11100000D02*
X2050000Y-11100000D01*
M02*
