M48
; DRILL file {KiCad (6.0.4-0)} date 
; FORMAT={-:-/ absolute / metric / decimal}
; #@! TF.CreationDate,2022-03-31T22:02:53+09:00
; #@! TF.GenerationSoftware,Kicad,Pcbnew,(6.0.4-0)
; #@! TF.FileFunction,MixedPlating,1,2
FMAT,2
METRIC
; #@! TA.AperFunction,Plated,PTH,ViaDrill
T1C0.305
; #@! TA.AperFunction,Plated,PTH,ComponentDrill
T2C0.700
; #@! TA.AperFunction,Plated,PTH,ComponentDrill
T3C0.930
; #@! TA.AperFunction,Plated,PTH,ComponentDrill
T4C1.200
; #@! TA.AperFunction,NonPlated,NPTH,ComponentDrill
T5C0.750
; #@! TA.AperFunction,NonPlated,NPTH,ComponentDrill
T6C1.000
%
G90
G05
T1
X-6.0Y-13.4
X-5.6Y-10.5
X-5.5Y-0.5
X-3.7Y-27.7
X-3.5Y-7.8
X-3.0Y-6.2
X-2.7Y-9.3
X-2.5Y-13.2
X-2.0Y-1.5
X-1.7Y-11.3
X-1.2Y-9.3
X-0.4Y-11.6
X0.0Y-23.0
X0.4Y-1.4
X1.3Y-13.0
X2.0Y-10.5
X2.1Y-17.8
X2.3Y-3.5
X2.9Y-6.2
X3.1Y-27.8
X4.1Y-16.2
X4.1Y-23.1
X5.5Y-0.5
X5.8Y-9.3
T2
X5.3Y-2.475
X5.3Y-3.745
X5.3Y-5.015
X5.3Y-6.285
X5.3Y-7.555
T3
X-3.5Y0.0
X-1.0Y0.0
X1.0Y0.0
X3.5Y0.0
T5
X2.2Y-26.9
X4.0Y-26.9
T6
X-2.25Y2.4
X2.25Y2.4
T4
G00X-5.85Y1.75
M15
G01X-5.85Y3.05
M16
G05
G00X5.85Y1.75
M15
G01X5.85Y3.05
M16
G05
T0
M30
