G04 #@! TF.GenerationSoftware,KiCad,Pcbnew,(6.0.9)*
G04 #@! TF.CreationDate,2023-01-08T15:32:06+09:00*
G04 #@! TF.ProjectId,otaHID,6f746148-4944-42e6-9b69-6361645f7063,2.1*
G04 #@! TF.SameCoordinates,Original*
G04 #@! TF.FileFunction,Legend,Top*
G04 #@! TF.FilePolarity,Positive*
%FSLAX46Y46*%
G04 Gerber Fmt 4.6, Leading zero omitted, Abs format (unit mm)*
G04 Created by KiCad (PCBNEW (6.0.9)) date 2023-01-08 15:32:06*
%MOMM*%
%LPD*%
G01*
G04 APERTURE LIST*
%ADD10C,0.150000*%
%ADD11C,0.100000*%
%ADD12C,0.120000*%
%ADD13C,0.200000*%
G04 APERTURE END LIST*
D10*
X376190Y-14452380D02*
X709523Y-15452380D01*
X1042857Y-14452380D01*
X1328571Y-14547619D02*
X1376190Y-14500000D01*
X1471428Y-14452380D01*
X1709523Y-14452380D01*
X1804761Y-14500000D01*
X1852380Y-14547619D01*
X1899999Y-14642857D01*
X1899999Y-14738095D01*
X1852380Y-14880952D01*
X1280952Y-15452380D01*
X1899999Y-15452380D01*
X2328571Y-15357142D02*
X2376190Y-15404761D01*
X2328571Y-15452380D01*
X2280952Y-15404761D01*
X2328571Y-15357142D01*
X2328571Y-15452380D01*
X3328571Y-15452380D02*
X2757142Y-15452380D01*
X3042857Y-15452380D02*
X3042857Y-14452380D01*
X2947619Y-14595238D01*
X2852380Y-14690476D01*
X2757142Y-14738095D01*
X-4071428Y-2252380D02*
X-4166666Y-2204761D01*
X-4214285Y-2157142D01*
X-4261904Y-2061904D01*
X-4261904Y-1776190D01*
X-4214285Y-1680952D01*
X-4166666Y-1633333D01*
X-4071428Y-1585714D01*
X-3928571Y-1585714D01*
X-3833333Y-1633333D01*
X-3785714Y-1680952D01*
X-3738095Y-1776190D01*
X-3738095Y-2061904D01*
X-3785714Y-2157142D01*
X-3833333Y-2204761D01*
X-3928571Y-2252380D01*
X-4071428Y-2252380D01*
X-3452380Y-1585714D02*
X-3071428Y-1585714D01*
X-3309523Y-1252380D02*
X-3309523Y-2109523D01*
X-3261904Y-2204761D01*
X-3166666Y-2252380D01*
X-3071428Y-2252380D01*
X-2309523Y-2252380D02*
X-2309523Y-1728571D01*
X-2357142Y-1633333D01*
X-2452380Y-1585714D01*
X-2642857Y-1585714D01*
X-2738095Y-1633333D01*
X-2309523Y-2204761D02*
X-2404761Y-2252380D01*
X-2642857Y-2252380D01*
X-2738095Y-2204761D01*
X-2785714Y-2109523D01*
X-2785714Y-2014285D01*
X-2738095Y-1919047D01*
X-2642857Y-1871428D01*
X-2404761Y-1871428D01*
X-2309523Y-1823809D01*
X-1833333Y-2252380D02*
X-1833333Y-1252380D01*
X-1833333Y-1728571D02*
X-1261904Y-1728571D01*
X-1261904Y-2252380D02*
X-1261904Y-1252380D01*
X-785714Y-2252380D02*
X-785714Y-1252380D01*
X-309523Y-2252380D02*
X-309523Y-1252380D01*
X-71428Y-1252380D01*
X71428Y-1300000D01*
X166666Y-1395238D01*
X214285Y-1490476D01*
X261904Y-1680952D01*
X261904Y-1823809D01*
X214285Y-2014285D01*
X166666Y-2109523D01*
X71428Y-2204761D01*
X-71428Y-2252380D01*
X-309523Y-2252380D01*
D11*
X-49999Y-4114285D02*
X-78571Y-4142857D01*
X-164285Y-4171428D01*
X-221428Y-4171428D01*
X-307142Y-4142857D01*
X-364285Y-4085714D01*
X-392857Y-4028571D01*
X-421428Y-3914285D01*
X-421428Y-3828571D01*
X-392857Y-3714285D01*
X-364285Y-3657142D01*
X-307142Y-3600000D01*
X-221428Y-3571428D01*
X-164285Y-3571428D01*
X-78571Y-3600000D01*
X-49999Y-3628571D01*
X178571Y-3628571D02*
X207142Y-3600000D01*
X264285Y-3571428D01*
X407142Y-3571428D01*
X464285Y-3600000D01*
X492857Y-3628571D01*
X521428Y-3685714D01*
X521428Y-3742857D01*
X492857Y-3828571D01*
X150000Y-4171428D01*
X521428Y-4171428D01*
X-1757142Y-7171428D02*
X-1757142Y-7657142D01*
X-1728571Y-7714285D01*
X-1700000Y-7742857D01*
X-1642857Y-7771428D01*
X-1528571Y-7771428D01*
X-1471428Y-7742857D01*
X-1442857Y-7714285D01*
X-1414285Y-7657142D01*
X-1414285Y-7171428D01*
X-871428Y-7371428D02*
X-871428Y-7771428D01*
X-1014285Y-7142857D02*
X-1157142Y-7571428D01*
X-785714Y-7571428D01*
X1142857Y-3671428D02*
X1142857Y-4157142D01*
X1171428Y-4214285D01*
X1200000Y-4242857D01*
X1257142Y-4271428D01*
X1371428Y-4271428D01*
X1428571Y-4242857D01*
X1457142Y-4214285D01*
X1485714Y-4157142D01*
X1485714Y-3671428D01*
X1742857Y-3728571D02*
X1771428Y-3700000D01*
X1828571Y-3671428D01*
X1971428Y-3671428D01*
X2028571Y-3700000D01*
X2057142Y-3728571D01*
X2085714Y-3785714D01*
X2085714Y-3842857D01*
X2057142Y-3928571D01*
X1714285Y-4271428D01*
X2085714Y-4271428D01*
X4575000Y-12042857D02*
X4660714Y-12071428D01*
X4803571Y-12071428D01*
X4860714Y-12042857D01*
X4889285Y-12014285D01*
X4917857Y-11957142D01*
X4917857Y-11900000D01*
X4889285Y-11842857D01*
X4860714Y-11814285D01*
X4803571Y-11785714D01*
X4689285Y-11757142D01*
X4632142Y-11728571D01*
X4603571Y-11700000D01*
X4575000Y-11642857D01*
X4575000Y-11585714D01*
X4603571Y-11528571D01*
X4632142Y-11500000D01*
X4689285Y-11471428D01*
X4832142Y-11471428D01*
X4917857Y-11500000D01*
X5117857Y-11471428D02*
X5260714Y-12071428D01*
X5375000Y-11642857D01*
X5489285Y-12071428D01*
X5632142Y-11471428D01*
X6175000Y-12071428D02*
X5832142Y-12071428D01*
X6003571Y-12071428D02*
X6003571Y-11471428D01*
X5946428Y-11557142D01*
X5889285Y-11614285D01*
X5832142Y-11642857D01*
X-2457142Y-15171428D02*
X-2457142Y-15657142D01*
X-2428571Y-15714285D01*
X-2400000Y-15742857D01*
X-2342857Y-15771428D01*
X-2228571Y-15771428D01*
X-2171428Y-15742857D01*
X-2142857Y-15714285D01*
X-2114285Y-15657142D01*
X-2114285Y-15171428D01*
X-1885714Y-15171428D02*
X-1514285Y-15171428D01*
X-1714285Y-15400000D01*
X-1628571Y-15400000D01*
X-1571428Y-15428571D01*
X-1542857Y-15457142D01*
X-1514285Y-15514285D01*
X-1514285Y-15657142D01*
X-1542857Y-15714285D01*
X-1571428Y-15742857D01*
X-1628571Y-15771428D01*
X-1800000Y-15771428D01*
X-1857142Y-15742857D01*
X-1885714Y-15714285D01*
X-4750000Y-7164285D02*
X-4778571Y-7192857D01*
X-4864285Y-7221428D01*
X-4921428Y-7221428D01*
X-5007142Y-7192857D01*
X-5064285Y-7135714D01*
X-5092857Y-7078571D01*
X-5121428Y-6964285D01*
X-5121428Y-6878571D01*
X-5092857Y-6764285D01*
X-5064285Y-6707142D01*
X-5007142Y-6650000D01*
X-4921428Y-6621428D01*
X-4864285Y-6621428D01*
X-4778571Y-6650000D01*
X-4750000Y-6678571D01*
X-4178571Y-7221428D02*
X-4521428Y-7221428D01*
X-4350000Y-7221428D02*
X-4350000Y-6621428D01*
X-4407142Y-6707142D01*
X-4464285Y-6764285D01*
X-4521428Y-6792857D01*
X2100000Y-2821428D02*
X1900000Y-2535714D01*
X1757142Y-2821428D02*
X1757142Y-2221428D01*
X1985714Y-2221428D01*
X2042857Y-2250000D01*
X2071428Y-2278571D01*
X2100000Y-2335714D01*
X2100000Y-2421428D01*
X2071428Y-2478571D01*
X2042857Y-2507142D01*
X1985714Y-2535714D01*
X1757142Y-2535714D01*
X2671428Y-2821428D02*
X2328571Y-2821428D01*
X2500000Y-2821428D02*
X2500000Y-2221428D01*
X2442857Y-2307142D01*
X2385714Y-2364285D01*
X2328571Y-2392857D01*
X-5700000Y-15171428D02*
X-5700000Y-15600000D01*
X-5728571Y-15685714D01*
X-5785714Y-15742857D01*
X-5871428Y-15771428D01*
X-5928571Y-15771428D01*
X-5442857Y-15228571D02*
X-5414285Y-15200000D01*
X-5357142Y-15171428D01*
X-5214285Y-15171428D01*
X-5157142Y-15200000D01*
X-5128571Y-15228571D01*
X-5100000Y-15285714D01*
X-5100000Y-15342857D01*
X-5128571Y-15428571D01*
X-5471428Y-15771428D01*
X-5100000Y-15771428D01*
X-6000000Y-7171428D02*
X-6285714Y-7171428D01*
X-6285714Y-6571428D01*
X-5485714Y-7171428D02*
X-5828571Y-7171428D01*
X-5657142Y-7171428D02*
X-5657142Y-6571428D01*
X-5714285Y-6657142D01*
X-5771428Y-6714285D01*
X-5828571Y-6742857D01*
X-2757142Y-2671428D02*
X-2757142Y-3157142D01*
X-2728571Y-3214285D01*
X-2700000Y-3242857D01*
X-2642857Y-3271428D01*
X-2528571Y-3271428D01*
X-2471428Y-3242857D01*
X-2442857Y-3214285D01*
X-2414285Y-3157142D01*
X-2414285Y-2671428D01*
X-1814285Y-3271428D02*
X-2157142Y-3271428D01*
X-1985714Y-3271428D02*
X-1985714Y-2671428D01*
X-2042857Y-2757142D01*
X-2100000Y-2814285D01*
X-2157142Y-2842857D01*
X-4700000Y-2857142D02*
X-4900000Y-2857142D01*
X-4900000Y-3171428D02*
X-4900000Y-2571428D01*
X-4614285Y-2571428D01*
X-4071428Y-3171428D02*
X-4414285Y-3171428D01*
X-4242857Y-3171428D02*
X-4242857Y-2571428D01*
X-4300000Y-2657142D01*
X-4357142Y-2714285D01*
X-4414285Y-2742857D01*
X1757142Y-1921428D02*
X1757142Y-1321428D01*
X1900000Y-1321428D01*
X1985714Y-1350000D01*
X2042857Y-1407142D01*
X2071428Y-1464285D01*
X2100000Y-1578571D01*
X2100000Y-1664285D01*
X2071428Y-1778571D01*
X2042857Y-1835714D01*
X1985714Y-1892857D01*
X1900000Y-1921428D01*
X1757142Y-1921428D01*
X2671428Y-1921428D02*
X2328571Y-1921428D01*
X2500000Y-1921428D02*
X2500000Y-1321428D01*
X2442857Y-1407142D01*
X2385714Y-1464285D01*
X2328571Y-1492857D01*
X4142857Y-3871428D02*
X4142857Y-4357142D01*
X4171428Y-4414285D01*
X4200000Y-4442857D01*
X4257142Y-4471428D01*
X4371428Y-4471428D01*
X4428571Y-4442857D01*
X4457142Y-4414285D01*
X4485714Y-4357142D01*
X4485714Y-3871428D01*
X5057142Y-3871428D02*
X4771428Y-3871428D01*
X4742857Y-4157142D01*
X4771428Y-4128571D01*
X4828571Y-4100000D01*
X4971428Y-4100000D01*
X5028571Y-4128571D01*
X5057142Y-4157142D01*
X5085714Y-4214285D01*
X5085714Y-4357142D01*
X5057142Y-4414285D01*
X5028571Y-4442857D01*
X4971428Y-4471428D01*
X4828571Y-4471428D01*
X4771428Y-4442857D01*
X4742857Y-4414285D01*
X6150000Y-18353928D02*
X6150000Y-18782500D01*
X6121428Y-18868214D01*
X6064285Y-18925357D01*
X5978571Y-18953928D01*
X5921428Y-18953928D01*
X6378571Y-18353928D02*
X6750000Y-18353928D01*
X6550000Y-18582500D01*
X6635714Y-18582500D01*
X6692857Y-18611071D01*
X6721428Y-18639642D01*
X6750000Y-18696785D01*
X6750000Y-18839642D01*
X6721428Y-18896785D01*
X6692857Y-18925357D01*
X6635714Y-18953928D01*
X6464285Y-18953928D01*
X6407142Y-18925357D01*
X6378571Y-18896785D01*
X900000Y-2821428D02*
X700000Y-2535714D01*
X557142Y-2821428D02*
X557142Y-2221428D01*
X785714Y-2221428D01*
X842857Y-2250000D01*
X871428Y-2278571D01*
X900000Y-2335714D01*
X900000Y-2421428D01*
X871428Y-2478571D01*
X842857Y-2507142D01*
X785714Y-2535714D01*
X557142Y-2535714D01*
X1128571Y-2278571D02*
X1157142Y-2250000D01*
X1214285Y-2221428D01*
X1357142Y-2221428D01*
X1414285Y-2250000D01*
X1442857Y-2278571D01*
X1471428Y-2335714D01*
X1471428Y-2392857D01*
X1442857Y-2478571D01*
X1100000Y-2821428D01*
X1471428Y-2821428D01*
D12*
X-450000Y-4350000D02*
X-450000Y-6350000D01*
X550000Y-4350000D02*
X550000Y-6350000D01*
X-450000Y-6350000D02*
X550000Y-6350000D01*
X-450000Y-4350000D02*
X550000Y-4350000D01*
X1310000Y-8865000D02*
X1310000Y-8390000D01*
X1310000Y-8390000D02*
X835000Y-8390000D01*
X-3910000Y-13135000D02*
X-3910000Y-13610000D01*
X1310000Y-13135000D02*
X1310000Y-13610000D01*
X-3910000Y-8390000D02*
X-3435000Y-8390000D01*
X1310000Y-13610000D02*
X835000Y-13610000D01*
X-3910000Y-8865000D02*
X-3910000Y-8390000D01*
D13*
X-3500000Y-13900000D02*
G75*
G03*
X-3500000Y-13900000I-100000J0D01*
G01*
D12*
X900000Y-5100000D02*
X900000Y-4600000D01*
X900000Y-6200000D02*
X900000Y-5700000D01*
X2300000Y-5700000D02*
X2300000Y-6200000D01*
X2200000Y-4600000D02*
X2300000Y-4600000D01*
X900000Y-4600000D02*
X1000000Y-4600000D01*
X2300000Y-4600000D02*
X2300000Y-5100000D01*
X2300000Y-6200000D02*
X2200000Y-6200000D01*
X1100000Y-6200000D02*
X900000Y-6200000D01*
X3875000Y-16700000D02*
X3875000Y-13100000D01*
X5475000Y-13100000D02*
X5275000Y-13100000D01*
X5475000Y-16700000D02*
X5275000Y-16700000D01*
X-6600000Y-16400000D02*
X-5700000Y-16400000D01*
X2600000Y-17700000D02*
X2600000Y-16400000D01*
X2600000Y-16400000D02*
X1700000Y-16400000D01*
X-6600000Y-17700000D02*
X-6600000Y-16400000D01*
X-4150000Y-4350000D02*
X-5150000Y-4350000D01*
X-4150000Y-6350000D02*
X-5150000Y-6350000D01*
X-4150000Y-6350000D02*
X-4150000Y-4350000D01*
X-5150000Y-6350000D02*
X-5150000Y-4350000D01*
X4900000Y-1050000D02*
X4900000Y-3050000D01*
X3900000Y-1050000D02*
X3900000Y-3050000D01*
X3900000Y-1050000D02*
X4900000Y-1050000D01*
X3900000Y-3050000D02*
X4900000Y-3050000D01*
X-4550000Y-8000000D02*
X-6450000Y-8000000D01*
X-4550000Y-14950000D02*
X-4550000Y-8000000D01*
X-4550000Y-14950000D02*
X-6450000Y-14950000D01*
X-6450000Y-14950000D02*
X-6450000Y-8000000D01*
X-5700000Y-4600000D02*
X-5900000Y-4800000D01*
X-6650000Y-6350000D02*
X-6650000Y-3050000D01*
X-6650000Y-6350000D02*
X-5150000Y-6350000D01*
X-5150000Y-6350000D02*
X-5150000Y-3050000D01*
X-5900000Y-4800000D02*
X-6100000Y-4600000D01*
X-6650000Y-3050000D02*
X-5150000Y-3050000D01*
X-6100000Y-4600000D02*
X-5700000Y-4600000D01*
X-3700000Y-3750000D02*
X-3800000Y-3750000D01*
X-3800000Y-5650000D02*
X-3700000Y-5650000D01*
X-900000Y-5650000D02*
X-800000Y-5650000D01*
X-3800000Y-3750000D02*
X-3800000Y-5650000D01*
X-800000Y-3750000D02*
X-900000Y-3750000D01*
X-2800000Y-3750000D02*
X-1800000Y-3750000D01*
X-800000Y-5650000D02*
X-800000Y-3750000D01*
D13*
X-3150000Y-6800000D02*
G75*
G03*
X-3150000Y-6800000I-100000J0D01*
G01*
D12*
X-6650000Y-3050000D02*
X-6650000Y250000D01*
X-5150000Y-3050000D02*
X-5150000Y250000D01*
X-5900000Y-1500000D02*
X-6100000Y-1300000D01*
X-6650000Y-3050000D02*
X-5150000Y-3050000D01*
X-6100000Y-1300000D02*
X-5700000Y-1300000D01*
X-5700000Y-1300000D02*
X-5900000Y-1500000D01*
X-6650000Y250000D02*
X-5150000Y250000D01*
X5150000Y-3050000D02*
X6650000Y-3050000D01*
X5150000Y-3050000D02*
X5150000Y250000D01*
X6100000Y-1300000D02*
X5900000Y-1500000D01*
X5700000Y-1300000D02*
X6100000Y-1300000D01*
X6650000Y-3050000D02*
X6650000Y250000D01*
X5150000Y250000D02*
X6650000Y250000D01*
X5900000Y-1500000D02*
X5700000Y-1300000D01*
X6520000Y-4400000D02*
X6520000Y-9400000D01*
X2680000Y-8900000D02*
X2680000Y-5900000D01*
X6750000Y-19432500D02*
X6750000Y-21832500D01*
X2750000Y-19432500D02*
X3650000Y-19432500D01*
X5850000Y-19432500D02*
X6750000Y-19432500D01*
X2750000Y-21832500D02*
X2750000Y-19432500D01*
X2900000Y-1050000D02*
X2900000Y-3050000D01*
X2900000Y-1050000D02*
X3900000Y-1050000D01*
X2900000Y-3050000D02*
X3900000Y-3050000D01*
X3900000Y-1050000D02*
X3900000Y-3050000D01*
M02*
