G04 #@! TF.GenerationSoftware,KiCad,Pcbnew,(6.0.9)*
G04 #@! TF.CreationDate,2022-12-10T19:33:08+09:00*
G04 #@! TF.ProjectId,otaHID,6f746148-4944-42e6-9b69-6361645f7063,2.0*
G04 #@! TF.SameCoordinates,Original*
G04 #@! TF.FileFunction,Copper,L1,Top*
G04 #@! TF.FilePolarity,Positive*
%FSLAX46Y46*%
G04 Gerber Fmt 4.6, Leading zero omitted, Abs format (unit mm)*
G04 Created by KiCad (PCBNEW (6.0.9)) date 2022-12-10 19:33:08*
%MOMM*%
%LPD*%
G01*
G04 APERTURE LIST*
G04 Aperture macros list*
%AMRoundRect*
0 Rectangle with rounded corners*
0 $1 Rounding radius*
0 $2 $3 $4 $5 $6 $7 $8 $9 X,Y pos of 4 corners*
0 Add a 4 corners polygon primitive as box body*
4,1,4,$2,$3,$4,$5,$6,$7,$8,$9,$2,$3,0*
0 Add four circle primitives for the rounded corners*
1,1,$1+$1,$2,$3*
1,1,$1+$1,$4,$5*
1,1,$1+$1,$6,$7*
1,1,$1+$1,$8,$9*
0 Add four rect primitives between the rounded corners*
20,1,$1+$1,$2,$3,$4,$5,0*
20,1,$1+$1,$4,$5,$6,$7,0*
20,1,$1+$1,$6,$7,$8,$9,0*
20,1,$1+$1,$8,$9,$2,$3,0*%
G04 Aperture macros list end*
G04 #@! TA.AperFunction,SMDPad,CuDef*
%ADD10RoundRect,0.200000X-0.200000X0.250000X-0.200000X-0.250000X0.200000X-0.250000X0.200000X0.250000X0*%
G04 #@! TD*
G04 #@! TA.AperFunction,SMDPad,CuDef*
%ADD11R,0.150000X0.800000*%
G04 #@! TD*
G04 #@! TA.AperFunction,SMDPad,CuDef*
%ADD12R,0.800000X0.150000*%
G04 #@! TD*
G04 #@! TA.AperFunction,SMDPad,CuDef*
%ADD13R,1.200000X1.200000*%
G04 #@! TD*
G04 #@! TA.AperFunction,SMDPad,CuDef*
%ADD14R,0.200000X0.675000*%
G04 #@! TD*
G04 #@! TA.AperFunction,SMDPad,CuDef*
%ADD15R,0.700000X0.200000*%
G04 #@! TD*
G04 #@! TA.AperFunction,SMDPad,CuDef*
%ADD16R,0.900000X1.200000*%
G04 #@! TD*
G04 #@! TA.AperFunction,SMDPad,CuDef*
%ADD17R,1.400000X0.800000*%
G04 #@! TD*
G04 #@! TA.AperFunction,SMDPad,CuDef*
%ADD18R,0.800000X1.400000*%
G04 #@! TD*
G04 #@! TA.AperFunction,SMDPad,CuDef*
%ADD19RoundRect,0.200000X0.200000X-0.250000X0.200000X0.250000X-0.200000X0.250000X-0.200000X-0.250000X0*%
G04 #@! TD*
G04 #@! TA.AperFunction,ComponentPad*
%ADD20R,1.000000X1.000000*%
G04 #@! TD*
G04 #@! TA.AperFunction,ComponentPad*
%ADD21O,1.000000X1.000000*%
G04 #@! TD*
G04 #@! TA.AperFunction,SMDPad,CuDef*
%ADD22R,0.500000X1.200000*%
G04 #@! TD*
G04 #@! TA.AperFunction,SMDPad,CuDef*
%ADD23R,0.800000X1.200000*%
G04 #@! TD*
G04 #@! TA.AperFunction,SMDPad,CuDef*
%ADD24RoundRect,0.300000X-0.300000X-0.500000X0.300000X-0.500000X0.300000X0.500000X-0.300000X0.500000X0*%
G04 #@! TD*
G04 #@! TA.AperFunction,SMDPad,CuDef*
%ADD25R,0.600000X1.550000*%
G04 #@! TD*
G04 #@! TA.AperFunction,ComponentPad*
%ADD26C,1.524000*%
G04 #@! TD*
G04 #@! TA.AperFunction,ComponentPad*
%ADD27RoundRect,0.400000X0.400000X1.100000X-0.400000X1.100000X-0.400000X-1.100000X0.400000X-1.100000X0*%
G04 #@! TD*
G04 #@! TA.AperFunction,ViaPad*
%ADD28C,0.609600*%
G04 #@! TD*
G04 #@! TA.AperFunction,Conductor*
%ADD29C,0.203200*%
G04 #@! TD*
G04 #@! TA.AperFunction,Conductor*
%ADD30C,0.152400*%
G04 #@! TD*
G04 APERTURE END LIST*
D10*
X3400000Y-3850000D03*
X3400000Y-5550000D03*
D11*
X-2750000Y-13500000D03*
X-2250000Y-13500000D03*
X-1750000Y-13500000D03*
X-1250000Y-13500000D03*
X-750000Y-13500000D03*
X-250000Y-13500000D03*
X250000Y-13500000D03*
X750000Y-13500000D03*
D12*
X1500000Y-12750000D03*
X1500000Y-12250000D03*
X1500000Y-11750000D03*
X1500000Y-11250000D03*
X1500000Y-10750000D03*
X1500000Y-10250000D03*
X1500000Y-9750000D03*
X1500000Y-9250000D03*
D11*
X750000Y-8500000D03*
X250000Y-8500000D03*
X-250000Y-8500000D03*
X-750000Y-8500000D03*
X-1250000Y-8500000D03*
X-1750000Y-8500000D03*
X-2250000Y-8500000D03*
X-2750000Y-8500000D03*
D12*
X-3500000Y-9250000D03*
X-3500000Y-9750000D03*
X-3500000Y-10250000D03*
X-3500000Y-10750000D03*
X-3500000Y-11250000D03*
X-3500000Y-11750000D03*
X-3500000Y-12250000D03*
D13*
X-100000Y-10100000D03*
X-1900000Y-11900000D03*
X-1900000Y-10100000D03*
D12*
X-3500000Y-12750000D03*
D13*
X-100000Y-11900000D03*
D14*
X825000Y-3912500D03*
X1375000Y-3912500D03*
D15*
X1750000Y-4700000D03*
D14*
X1375000Y-5487500D03*
X825000Y-5487500D03*
D15*
X450000Y-4700000D03*
D16*
X5250000Y-16900000D03*
X5250000Y-20900000D03*
X6750000Y-16900000D03*
X6750000Y-20900000D03*
D17*
X1900000Y-23200000D03*
X1900000Y-22000000D03*
X1900000Y-20800000D03*
X1900000Y-19600000D03*
X1900000Y-18400000D03*
D18*
X700000Y-16800000D03*
X-500000Y-16800000D03*
X-1700000Y-16800000D03*
X-2900000Y-16800000D03*
X-4100000Y-16800000D03*
X-5300000Y-16800000D03*
D17*
X-6500000Y-18400000D03*
X-6500000Y-19600000D03*
X-6500000Y-20800000D03*
X-6500000Y-22000000D03*
X-6500000Y-23200000D03*
D19*
X-4900000Y-5550000D03*
X-4900000Y-3850000D03*
D10*
X6400000Y-550000D03*
X6400000Y-2250000D03*
D20*
X-6000000Y-14000000D03*
D21*
X-6000000Y-12730000D03*
X-6000000Y-11460000D03*
X-6000000Y-10190000D03*
X-6000000Y-8920000D03*
D19*
X-6400000Y-5550000D03*
X-6400000Y-3850000D03*
D22*
X-3050000Y-5850000D03*
X-2100000Y-5850000D03*
X-1150000Y-5850000D03*
X-1150000Y-3550000D03*
X-3050000Y-3550000D03*
D19*
X-6400000Y-2250000D03*
X-6400000Y-550000D03*
X6400000Y-5550000D03*
X6400000Y-3850000D03*
D23*
X6370000Y-8150000D03*
X3830000Y-8150000D03*
X3830000Y-14450000D03*
X6370000Y-14450000D03*
D24*
X6600000Y-26900000D03*
X3000000Y-26900000D03*
D25*
X4300000Y-23050000D03*
X5300000Y-23050000D03*
D10*
X4900000Y-3850000D03*
X4900000Y-5550000D03*
D26*
X-3500000Y0D03*
X-1000000Y0D03*
X1000000Y0D03*
X3500000Y0D03*
D27*
X5850000Y2400000D03*
X-5850000Y2400000D03*
D28*
X4800000Y-25700000D03*
X5100000Y-11300000D03*
X-5600000Y-7400000D03*
X-2100000Y-4700000D03*
X2204900Y-7295100D03*
X-5000000Y-18432400D03*
X6300000Y-18900000D03*
X-500000Y-19400000D03*
X1500000Y-14809600D03*
X-1700000Y-18009600D03*
X-5180000Y-23200000D03*
X133900Y-14862200D03*
X800000Y-7300000D03*
X-4800000Y-2500000D03*
X-5000000Y-21710500D03*
D29*
X-1150000Y-6189000D02*
X-1715900Y-6754900D01*
X-4900000Y-5550000D02*
X-4900000Y-6600000D01*
X-4745100Y-6754900D02*
X-3050000Y-6754900D01*
X-6400000Y-5550000D02*
X-4900000Y-5550000D01*
X-4900000Y-6600000D02*
X-4745100Y-6754900D01*
X-1150000Y-5850000D02*
X-1150000Y-6189000D01*
X-3050000Y-5850000D02*
X-3050000Y-6754900D01*
X-1715900Y-6754900D02*
X-3050000Y-6754900D01*
X-1900000Y-10100000D02*
X-995100Y-10100000D01*
X-100000Y-10100000D02*
X-100000Y-11900000D01*
X6750000Y-16900000D02*
X6750000Y-20900000D01*
X2077500Y-4700000D02*
X2550000Y-4700000D01*
X3674100Y-24543200D02*
X5910000Y-24543200D01*
X1900000Y-22000000D02*
X2904900Y-22000000D01*
X450000Y-4700000D02*
X-2100000Y-4700000D01*
X2904900Y-23774000D02*
X3674100Y-24543200D01*
D30*
X-1900000Y-12600000D02*
X-1900000Y-11900000D01*
D29*
X2204900Y-9250000D02*
X2204900Y-7295100D01*
X-2100000Y-4700000D02*
X-3400000Y-4700000D01*
D30*
X-2850000Y-12250000D02*
X-3500000Y-12250000D01*
X-3500000Y-12750000D02*
X-2850000Y-12750000D01*
D29*
X-2100000Y-5850000D02*
X-2100000Y-4700000D01*
X450000Y-4700000D02*
X1750000Y-4700000D01*
D30*
X-2700000Y-12400000D02*
X-2850000Y-12250000D01*
D29*
X2550000Y-4700000D02*
X3400000Y-5550000D01*
X2204900Y-7295100D02*
X2204900Y-6745100D01*
D30*
X-2700000Y-12400000D02*
X-2700000Y-12700000D01*
D29*
X-100000Y-10100000D02*
X-995100Y-10100000D01*
X2550000Y-950000D02*
X3500000Y0D01*
X6750000Y-23703200D02*
X6750000Y-20900000D01*
X-100000Y-11900000D02*
X-995100Y-11900000D01*
X1750000Y-4700000D02*
X2077500Y-4700000D01*
X-1900000Y-10100000D02*
X-1900000Y-11900000D01*
D30*
X-2050000Y-12750000D02*
X-1900000Y-12600000D01*
X-2700000Y-12700000D02*
X-2650000Y-12750000D01*
D29*
X-4250000Y-3850000D02*
X-4900000Y-3850000D01*
X5910000Y-24543200D02*
X6750000Y-23703200D01*
D30*
X1500000Y-9250000D02*
X50000Y-9250000D01*
D29*
X-1900000Y-11900000D02*
X-995100Y-11900000D01*
X2904900Y-22000000D02*
X2904900Y-23774000D01*
D30*
X-2850000Y-12750000D02*
X-2650000Y-12750000D01*
D29*
X-3400000Y-4700000D02*
X-4250000Y-3850000D01*
D30*
X50000Y-9250000D02*
X-100000Y-9400000D01*
D29*
X2204900Y-6745100D02*
X3400000Y-5550000D01*
D30*
X-2650000Y-12750000D02*
X-2050000Y-12750000D01*
X1500000Y-9250000D02*
X2204900Y-9250000D01*
D29*
X2550000Y-950000D02*
X2550000Y-4700000D01*
D30*
X-100000Y-9400000D02*
X-100000Y-10100000D01*
D29*
X5000000Y-8530000D02*
X2280000Y-11250000D01*
X4185000Y-5059200D02*
X4185000Y-6395000D01*
X4195000Y-6395000D02*
X5000000Y-7200000D01*
X6400000Y-5550000D02*
X5637500Y-4787500D01*
X4456700Y-4787500D02*
X4185000Y-5059200D01*
X5000000Y-7200000D02*
X5000000Y-8530000D01*
D30*
X1500000Y-11250000D02*
X2280000Y-11250000D01*
D29*
X5637500Y-4787500D02*
X4456700Y-4787500D01*
X4185000Y-6395000D02*
X4195000Y-6395000D01*
X6400000Y-3850000D02*
X6400000Y-2250000D01*
X-6400000Y-2250000D02*
X-6400000Y-3850000D01*
X-5850000Y0D02*
X-6400000Y-550000D01*
X-3500000Y0D02*
X-5850000Y0D01*
X2100000Y700000D02*
X2100000Y-2545100D01*
X-1000000Y0D02*
X95300Y1095300D01*
X1375000Y-3912500D02*
X1375000Y-3270100D01*
X1704700Y1095300D02*
X2100000Y700000D01*
X2100000Y-2545100D02*
X1375000Y-3270100D01*
X95300Y1095300D02*
X1704700Y1095300D01*
X1000000Y0D02*
X825000Y-175000D01*
X825000Y-175000D02*
X825000Y-3912500D01*
D30*
X-1250000Y-14241184D02*
X-1354408Y-14345592D01*
D29*
X-5195100Y-12730000D02*
X-3570200Y-14354900D01*
X-6000000Y-12730000D02*
X-5195100Y-12730000D01*
D30*
X-1250000Y-13500000D02*
X-1250000Y-14241184D01*
D29*
X-3570200Y-14354900D02*
X-1400000Y-14354900D01*
D30*
X-2750000Y-8500000D02*
X-2750000Y-7950000D01*
D29*
X-6000000Y-10190000D02*
X-3760000Y-7950000D01*
X-3760000Y-7950000D02*
X-2750000Y-7950000D01*
X-4530000Y-7450000D02*
X-2250000Y-7450000D01*
X-6000000Y-8920000D02*
X-4530000Y-7450000D01*
D30*
X-2250000Y-8500000D02*
X-2250000Y-7450000D01*
D29*
X3830000Y-21714336D02*
X4300000Y-22184336D01*
X3830000Y-14450000D02*
X3830000Y-21714336D01*
X4300000Y-22184336D02*
X4300000Y-23050000D01*
X3842500Y-24136700D02*
X3423400Y-23717600D01*
X5484968Y-21815032D02*
X5749632Y-21815032D01*
X5250000Y-20900000D02*
X5250000Y-21580064D01*
X2600000Y-14990400D02*
X2600000Y-11900000D01*
X5250000Y-21580064D02*
X5484968Y-21815032D01*
X3423400Y-23717600D02*
X3423400Y-15813800D01*
X5905000Y-23973300D02*
X5741600Y-24136700D01*
X5749632Y-21815032D02*
X5905000Y-21970400D01*
X5250000Y-20900000D02*
X5250000Y-16900000D01*
D30*
X1500000Y-11750000D02*
X2450000Y-11750000D01*
D29*
X5905000Y-21970400D02*
X5905000Y-23973300D01*
X5741600Y-24136700D02*
X3842500Y-24136700D01*
X3423400Y-15813800D02*
X2600000Y-14990400D01*
X2600000Y-11900000D02*
X2450000Y-11750000D01*
D30*
X-1250000Y-8500000D02*
X-1250000Y-7969094D01*
X-1250000Y-7969094D02*
X159547Y-6559547D01*
X749253Y-6559547D02*
X1375000Y-5933800D01*
X159547Y-6559547D02*
X749253Y-6559547D01*
X1375000Y-5933800D02*
X1375000Y-5487500D01*
X-1750000Y-7966200D02*
X-1750000Y-8500000D01*
X16200Y-6200000D02*
X-1750000Y-7966200D01*
X825000Y-5487500D02*
X825000Y-5975000D01*
X600000Y-6200000D02*
X16200Y-6200000D01*
X825000Y-5975000D02*
X600000Y-6200000D01*
D29*
X139300Y-15795100D02*
X750000Y-15184400D01*
X-500000Y-15795100D02*
X139300Y-15795100D01*
D30*
X750000Y-13500000D02*
X750000Y-15184400D01*
D29*
X-500000Y-16800000D02*
X-500000Y-15795100D01*
X1500000Y-14809600D02*
X2150000Y-14159600D01*
X-1700000Y-16800000D02*
X-1700000Y-17804900D01*
X-1700000Y-17804900D02*
X-1700000Y-18009600D01*
D30*
X1500000Y-12750000D02*
X2150000Y-12750000D01*
D29*
X2150000Y-14159600D02*
X2150000Y-12750000D01*
D30*
X2134900Y-10750000D02*
X2204900Y-10680000D01*
D29*
X3830000Y-9054900D02*
X2204900Y-10680000D01*
D30*
X1500000Y-10750000D02*
X2134900Y-10750000D01*
D29*
X3830000Y-8150000D02*
X3830000Y-9054900D01*
X4495200Y-21804800D02*
X4900000Y-21804800D01*
X4495000Y-21804600D02*
X4495200Y-21804800D01*
X6370000Y-14450000D02*
X6370000Y-15354900D01*
X4495000Y-16150900D02*
X4495000Y-21804600D01*
X5300000Y-22204800D02*
X5300000Y-23050000D01*
X5291000Y-15354900D02*
X4495000Y-16150900D01*
X4900000Y-21804800D02*
X5300000Y-22204800D01*
X6370000Y-15354900D02*
X5291000Y-15354900D01*
X4900000Y-5550000D02*
X4900000Y-5775100D01*
X6370000Y-8150000D02*
X6370000Y-7245100D01*
X4900000Y-5775100D02*
X6370000Y-7245100D01*
X-4100000Y-16800000D02*
X-4100000Y-15795100D01*
X-1673800Y-15795100D02*
X-250000Y-14371300D01*
X-4100000Y-15795100D02*
X-1673800Y-15795100D01*
D30*
X-250000Y-13500000D02*
X-250000Y-14371300D01*
D29*
X-6500000Y-23200000D02*
X-5180000Y-23200000D01*
D30*
X250000Y-13500000D02*
X250000Y-14746100D01*
X250000Y-14746100D02*
X133900Y-14862200D01*
D29*
X4950000Y-550000D02*
X4900000Y-500000D01*
X4106401Y1493599D02*
X1874556Y1493599D01*
X4900000Y-500000D02*
X4900000Y700000D01*
X6400000Y-550000D02*
X4950000Y-550000D01*
X-5600000Y-20800000D02*
X-5400000Y-21000000D01*
X-5400000Y-21000000D02*
X-5400000Y-21310500D01*
X-6895200Y-14804800D02*
X-6900000Y-14800000D01*
X-6900000Y-14800000D02*
X-6900000Y-12360000D01*
D30*
X750000Y-7350000D02*
X800000Y-7300000D01*
D29*
X1866255Y1501900D02*
X-1073600Y1501900D01*
D30*
X750000Y-8500000D02*
X750000Y-7350000D01*
D29*
X-1073600Y1501900D02*
X-2250000Y325500D01*
X-2250000Y325500D02*
X-2250000Y-2140700D01*
X-5195100Y-11963100D02*
X-5195100Y-12155264D01*
X1874556Y1493599D02*
X1866255Y1501900D01*
D30*
X-750000Y-13500000D02*
X-750000Y-14280000D01*
D29*
X-6900000Y-12360000D02*
X-6000000Y-11460000D01*
X4900000Y700000D02*
X4106401Y1493599D01*
X4900000Y-3850000D02*
X3400000Y-3850000D01*
X-2250000Y-2140700D02*
X-2609300Y-2500000D01*
D30*
X-3376464Y-13973900D02*
X-3425182Y-13925182D01*
D29*
X-3050000Y-2550000D02*
X-3100000Y-2500000D01*
X-1274800Y-14804800D02*
X-6895200Y-14804800D01*
X-5848900Y-11460000D02*
X-5195100Y-11460000D01*
X-6000000Y-11460000D02*
X-5923400Y-11460000D01*
D30*
X-2750000Y-13500000D02*
X-2750000Y-13950000D01*
D29*
X-2609300Y-2500000D02*
X-3100000Y-2500000D01*
X-5195100Y-11963100D02*
X-5195100Y-11460000D01*
X4900000Y-500000D02*
X4900000Y-3850000D01*
X-5195100Y-12155264D02*
X-3425182Y-13925182D01*
D30*
X-2773900Y-13973900D02*
X-3376464Y-13973900D01*
D29*
X-750000Y-14280000D02*
X-1274800Y-14804800D01*
X-5600000Y-20800000D02*
X-6500000Y-20800000D01*
X-3050000Y-3550000D02*
X-3050000Y-2550000D01*
X-5923400Y-11460000D02*
X-5848900Y-11460000D01*
X-5400000Y-21310500D02*
X-5000000Y-21710500D01*
D30*
X-2750000Y-13950000D02*
X-2773900Y-13973900D01*
D29*
X-3100000Y-2500000D02*
X-4800000Y-2500000D01*
G04 #@! TA.AperFunction,Conductor*
G36*
X7112629Y-15243221D02*
G01*
X7169502Y-15285718D01*
X7194371Y-15352216D01*
X7194700Y-15361315D01*
X7194700Y-15666000D01*
X7174698Y-15734121D01*
X7121042Y-15780614D01*
X7068700Y-15792000D01*
X7022115Y-15792000D01*
X7006876Y-15796475D01*
X7005671Y-15797865D01*
X7004000Y-15805548D01*
X7004000Y-17989884D01*
X7008475Y-18005123D01*
X7009865Y-18006328D01*
X7017548Y-18007999D01*
X7068700Y-18007999D01*
X7136821Y-18028001D01*
X7183314Y-18081657D01*
X7194700Y-18133999D01*
X7194700Y-19666000D01*
X7174698Y-19734121D01*
X7121042Y-19780614D01*
X7068700Y-19792000D01*
X7022115Y-19792000D01*
X7006876Y-19796475D01*
X7005671Y-19797865D01*
X7004000Y-19805548D01*
X7004000Y-21989884D01*
X7008475Y-22005123D01*
X7009865Y-22006328D01*
X7017548Y-22007999D01*
X7068700Y-22007999D01*
X7136821Y-22028001D01*
X7183314Y-22081657D01*
X7194700Y-22133999D01*
X7194700Y-25684600D01*
X7174698Y-25752721D01*
X7121042Y-25799214D01*
X7052255Y-25809522D01*
X6939673Y-25794700D01*
X6600042Y-25794700D01*
X6260328Y-25794701D01*
X6256243Y-25795239D01*
X6256239Y-25795239D01*
X6150172Y-25809202D01*
X6150170Y-25809202D01*
X6141985Y-25810280D01*
X5994738Y-25871272D01*
X5988187Y-25876299D01*
X5874848Y-25963267D01*
X5868295Y-25968295D01*
X5771272Y-26094739D01*
X5710280Y-26241985D01*
X5694700Y-26360327D01*
X5694701Y-27439672D01*
X5709522Y-27552253D01*
X5709522Y-27552255D01*
X5698582Y-27622403D01*
X5651454Y-27675502D01*
X5584600Y-27694700D01*
X4015400Y-27694700D01*
X3947279Y-27674698D01*
X3900786Y-27621042D01*
X3890478Y-27552255D01*
X3905300Y-27439673D01*
X3905299Y-26360328D01*
X3889720Y-26241985D01*
X3828728Y-26094738D01*
X3780216Y-26031516D01*
X3736732Y-25974846D01*
X3736731Y-25974845D01*
X3731705Y-25968295D01*
X3605261Y-25871272D01*
X3458015Y-25810280D01*
X3449831Y-25809203D01*
X3449829Y-25809202D01*
X3343760Y-25795238D01*
X3343759Y-25795238D01*
X3339673Y-25794700D01*
X3000042Y-25794700D01*
X2660328Y-25794701D01*
X2656243Y-25795239D01*
X2656239Y-25795239D01*
X2550172Y-25809202D01*
X2550170Y-25809202D01*
X2541985Y-25810280D01*
X2534120Y-25813538D01*
X2402368Y-25868111D01*
X2402365Y-25868113D01*
X2394738Y-25871272D01*
X2388705Y-25875901D01*
X2320004Y-25892567D01*
X2252912Y-25869346D01*
X2209025Y-25813538D01*
X2200000Y-25766710D01*
X2200000Y-24031300D01*
X2220002Y-23963179D01*
X2273658Y-23916686D01*
X2326000Y-23905300D01*
X2645358Y-23905300D01*
X2656252Y-23904004D01*
X2662593Y-23903250D01*
X2662596Y-23903249D01*
X2671978Y-23902133D01*
X2775919Y-23855964D01*
X2827344Y-23804449D01*
X2889624Y-23770370D01*
X2960444Y-23775372D01*
X3017317Y-23817869D01*
X3031404Y-23845003D01*
X3031592Y-23844907D01*
X3039632Y-23860688D01*
X3041808Y-23864958D01*
X3049372Y-23883220D01*
X3053264Y-23895197D01*
X3056330Y-23904632D01*
X3062161Y-23912657D01*
X3069560Y-23922841D01*
X3079890Y-23939696D01*
X3090108Y-23959751D01*
X3600349Y-24469992D01*
X3620404Y-24480210D01*
X3637259Y-24490540D01*
X3655468Y-24503770D01*
X3664901Y-24506835D01*
X3664903Y-24506836D01*
X3676880Y-24510728D01*
X3695141Y-24518292D01*
X3715194Y-24528509D01*
X3724987Y-24530060D01*
X3737426Y-24532030D01*
X3756652Y-24536646D01*
X3778054Y-24543600D01*
X5806046Y-24543600D01*
X5827448Y-24536646D01*
X5846674Y-24532030D01*
X5859113Y-24530060D01*
X5868906Y-24528509D01*
X5888959Y-24518292D01*
X5907220Y-24510728D01*
X5919197Y-24506836D01*
X5919199Y-24506835D01*
X5928632Y-24503770D01*
X5946841Y-24490540D01*
X5963696Y-24480210D01*
X5983751Y-24469992D01*
X6074892Y-24378851D01*
X6215366Y-24238378D01*
X6215369Y-24238374D01*
X6238292Y-24215451D01*
X6248512Y-24195393D01*
X6258840Y-24178540D01*
X6266238Y-24168357D01*
X6272069Y-24160332D01*
X6279023Y-24138931D01*
X6286588Y-24120665D01*
X6292309Y-24109438D01*
X6292309Y-24109437D01*
X6296809Y-24100606D01*
X6298360Y-24090815D01*
X6298361Y-24090811D01*
X6300333Y-24078363D01*
X6304947Y-24059144D01*
X6308833Y-24047182D01*
X6311899Y-24037747D01*
X6311899Y-24005330D01*
X6311900Y-24005324D01*
X6311900Y-22133999D01*
X6331902Y-22065879D01*
X6385558Y-22019386D01*
X6437900Y-22008000D01*
X6477885Y-22008000D01*
X6493124Y-22003525D01*
X6494329Y-22002135D01*
X6496000Y-21994452D01*
X6496000Y-19810116D01*
X6491525Y-19794877D01*
X6490135Y-19793672D01*
X6482452Y-19792001D01*
X6255331Y-19792001D01*
X6248510Y-19792371D01*
X6197648Y-19797895D01*
X6182396Y-19801521D01*
X6061946Y-19846676D01*
X6046351Y-19855214D01*
X5944276Y-19931715D01*
X5931713Y-19944278D01*
X5921691Y-19957650D01*
X5864831Y-20000165D01*
X5787724Y-20003647D01*
X5780116Y-20001573D01*
X5771451Y-19997742D01*
X5762040Y-19996645D01*
X5752900Y-19994153D01*
X5753712Y-19991174D01*
X5702972Y-19969628D01*
X5663000Y-19910953D01*
X5656900Y-19872224D01*
X5656900Y-17927722D01*
X5676902Y-17859601D01*
X5730558Y-17813108D01*
X5753711Y-17806617D01*
X5753474Y-17805755D01*
X5762589Y-17803250D01*
X5771978Y-17802133D01*
X5780617Y-17798295D01*
X5787471Y-17796412D01*
X5858457Y-17797648D01*
X5921685Y-17842342D01*
X5931713Y-17855722D01*
X5944276Y-17868285D01*
X6046351Y-17944786D01*
X6061946Y-17953324D01*
X6182394Y-17998478D01*
X6197649Y-18002105D01*
X6248514Y-18007631D01*
X6255328Y-18008000D01*
X6477885Y-18008000D01*
X6493124Y-18003525D01*
X6494329Y-18002135D01*
X6496000Y-17994452D01*
X6496000Y-15824587D01*
X6516002Y-15756466D01*
X6564796Y-15712321D01*
X6612151Y-15688192D01*
X6703292Y-15597051D01*
X6761809Y-15482206D01*
X6767231Y-15447972D01*
X6797642Y-15383818D01*
X6843434Y-15355412D01*
X6841978Y-15352133D01*
X6935284Y-15310688D01*
X6945919Y-15305964D01*
X6979526Y-15272298D01*
X7041809Y-15238218D01*
X7112629Y-15243221D01*
G37*
G04 #@! TD.AperFunction*
G04 #@! TA.AperFunction,Conductor*
G36*
X150887Y-17767923D02*
G01*
X228549Y-17802258D01*
X254642Y-17805300D01*
X770568Y-17805300D01*
X838689Y-17825302D01*
X885182Y-17878958D01*
X895721Y-17945886D01*
X894700Y-17954642D01*
X894700Y-18845358D01*
X897867Y-18871978D01*
X901705Y-18880618D01*
X931987Y-18948793D01*
X941360Y-19019168D01*
X932077Y-19050887D01*
X897742Y-19128549D01*
X894700Y-19154642D01*
X894700Y-20045358D01*
X897867Y-20071978D01*
X901705Y-20080618D01*
X931987Y-20148793D01*
X941360Y-20219168D01*
X932077Y-20250887D01*
X897742Y-20328549D01*
X894700Y-20354642D01*
X894700Y-21074000D01*
X874698Y-21142121D01*
X821042Y-21188614D01*
X768700Y-21200000D01*
X-800000Y-21200000D01*
X-800000Y-23874000D01*
X-820002Y-23942121D01*
X-873658Y-23988614D01*
X-926000Y-24000000D01*
X-4881777Y-24000000D01*
X-4949898Y-23979998D01*
X-4996391Y-23926342D01*
X-5006495Y-23856068D01*
X-4977001Y-23791488D01*
X-4938390Y-23761435D01*
X-4846682Y-23715312D01*
X-4846676Y-23715308D01*
X-4839896Y-23711898D01*
X-4727609Y-23615995D01*
X-4641439Y-23496077D01*
X-4586360Y-23359065D01*
X-4565554Y-23212871D01*
X-4565419Y-23200000D01*
X-4583159Y-23053402D01*
X-4635356Y-22915267D01*
X-4718996Y-22793570D01*
X-4829250Y-22695337D01*
X-4845207Y-22686888D01*
X-4953043Y-22629792D01*
X-4953045Y-22629791D01*
X-4959754Y-22626239D01*
X-5006660Y-22614457D01*
X-5095602Y-22592116D01*
X-5095606Y-22592116D01*
X-5102973Y-22590265D01*
X-5110572Y-22590225D01*
X-5110574Y-22590225D01*
X-5172202Y-22589903D01*
X-5250638Y-22589492D01*
X-5258018Y-22591264D01*
X-5258020Y-22591264D01*
X-5286715Y-22598153D01*
X-5344096Y-22611929D01*
X-5415002Y-22608382D01*
X-5472736Y-22567062D01*
X-5498966Y-22501089D01*
X-5496405Y-22471607D01*
X-5497742Y-22471451D01*
X-5495125Y-22449000D01*
X-5494700Y-22445358D01*
X-5494700Y-22347949D01*
X-5474698Y-22279828D01*
X-5421042Y-22233335D01*
X-5350768Y-22223231D01*
X-5308579Y-22237218D01*
X-5226242Y-22281923D01*
X-5083408Y-22319395D01*
X-5006621Y-22320601D01*
X-4943357Y-22321595D01*
X-4943354Y-22321595D01*
X-4935759Y-22321714D01*
X-4883964Y-22309851D01*
X-4799221Y-22290443D01*
X-4799217Y-22290442D01*
X-4791818Y-22288747D01*
X-4771046Y-22278300D01*
X-4666679Y-22225810D01*
X-4666676Y-22225808D01*
X-4659896Y-22222398D01*
X-4547609Y-22126495D01*
X-4528320Y-22099652D01*
X-4472329Y-22056006D01*
X-4401625Y-22049560D01*
X-4338661Y-22082362D01*
X-4303426Y-22143999D01*
X-4300000Y-22173180D01*
X-4300000Y-23500000D01*
X-2700000Y-23500000D01*
X-2700000Y-18300000D01*
X-4300000Y-18300000D01*
X-4300000Y-20074000D01*
X-4320002Y-20142121D01*
X-4373658Y-20188614D01*
X-4426000Y-20200000D01*
X-5168073Y-20200000D01*
X-5236194Y-20179998D01*
X-5282687Y-20126342D01*
X-5293337Y-20060397D01*
X-5292369Y-20051480D01*
X-5292000Y-20044672D01*
X-5292000Y-19872115D01*
X-5296475Y-19856876D01*
X-5297865Y-19855671D01*
X-5305548Y-19854000D01*
X-6628000Y-19854000D01*
X-6696121Y-19833998D01*
X-6742614Y-19780342D01*
X-6754000Y-19728000D01*
X-6754000Y-19472000D01*
X-6733998Y-19403879D01*
X-6680342Y-19357386D01*
X-6628000Y-19346000D01*
X-5310116Y-19346000D01*
X-5294877Y-19341525D01*
X-5293672Y-19340135D01*
X-5292001Y-19332452D01*
X-5292001Y-19155331D01*
X-5292371Y-19148510D01*
X-5297895Y-19097648D01*
X-5301521Y-19082396D01*
X-5346676Y-18961946D01*
X-5355214Y-18946351D01*
X-5431715Y-18844276D01*
X-5450626Y-18825365D01*
X-5449707Y-18824446D01*
X-5486781Y-18774862D01*
X-5494700Y-18730897D01*
X-5494700Y-17954642D01*
X-5495706Y-17946183D01*
X-5483890Y-17876177D01*
X-5436102Y-17823672D01*
X-5370588Y-17805300D01*
X-4854642Y-17805300D01*
X-4843748Y-17804004D01*
X-4837407Y-17803250D01*
X-4837404Y-17803249D01*
X-4828022Y-17802133D01*
X-4751207Y-17768013D01*
X-4680832Y-17758640D01*
X-4649113Y-17767923D01*
X-4571451Y-17802258D01*
X-4545358Y-17805300D01*
X-3654642Y-17805300D01*
X-3643748Y-17804004D01*
X-3637407Y-17803250D01*
X-3637404Y-17803249D01*
X-3628022Y-17802133D01*
X-3551207Y-17768013D01*
X-3480832Y-17758640D01*
X-3449113Y-17767923D01*
X-3371451Y-17802258D01*
X-3345358Y-17805300D01*
X-2454642Y-17805300D01*
X-2446826Y-17804370D01*
X-2376820Y-17816181D01*
X-2324311Y-17863965D01*
X-2305972Y-17932553D01*
X-2307013Y-17945932D01*
X-2313556Y-17995631D01*
X-2313556Y-17995637D01*
X-2314547Y-18003164D01*
X-2298343Y-18149940D01*
X-2247596Y-18288614D01*
X-2243360Y-18294917D01*
X-2243360Y-18294918D01*
X-2231981Y-18311851D01*
X-2165235Y-18411180D01*
X-2056015Y-18510562D01*
X-1926242Y-18581023D01*
X-1783408Y-18618495D01*
X-1706621Y-18619701D01*
X-1643357Y-18620695D01*
X-1643354Y-18620695D01*
X-1635759Y-18620814D01*
X-1583964Y-18608951D01*
X-1499221Y-18589543D01*
X-1499217Y-18589542D01*
X-1491818Y-18587847D01*
X-1471046Y-18577400D01*
X-1366679Y-18524910D01*
X-1366676Y-18524908D01*
X-1359896Y-18521498D01*
X-1247609Y-18425595D01*
X-1161439Y-18305677D01*
X-1106360Y-18168665D01*
X-1085554Y-18022471D01*
X-1085419Y-18009600D01*
X-1093282Y-17944625D01*
X-1081608Y-17874597D01*
X-1033926Y-17821995D01*
X-965374Y-17803523D01*
X-953613Y-17804338D01*
X-945358Y-17805300D01*
X-54642Y-17805300D01*
X-43748Y-17804004D01*
X-37407Y-17803250D01*
X-37404Y-17803249D01*
X-28022Y-17802133D01*
X48793Y-17768013D01*
X119168Y-17758640D01*
X150887Y-17767923D01*
G37*
G04 #@! TD.AperFunction*
G04 #@! TA.AperFunction,Conductor*
G36*
X5615412Y-7066409D02*
G01*
X5621995Y-7072538D01*
X5729748Y-7180291D01*
X5763774Y-7242603D01*
X5758709Y-7313418D01*
X5729826Y-7358403D01*
X5713730Y-7374528D01*
X5667742Y-7478549D01*
X5664700Y-7504642D01*
X5664700Y-8795358D01*
X5665996Y-8806252D01*
X5666659Y-8811821D01*
X5667867Y-8821978D01*
X5714036Y-8925919D01*
X5733509Y-8945358D01*
X5786295Y-8998052D01*
X5786297Y-8998053D01*
X5794528Y-9006270D01*
X5898549Y-9052258D01*
X5924642Y-9055300D01*
X6815358Y-9055300D01*
X6826252Y-9054004D01*
X6832593Y-9053250D01*
X6832596Y-9053249D01*
X6841978Y-9052133D01*
X6945919Y-9005964D01*
X6979526Y-8972298D01*
X7041809Y-8938218D01*
X7112629Y-8943221D01*
X7169502Y-8985718D01*
X7194371Y-9052216D01*
X7194700Y-9061315D01*
X7194700Y-13538707D01*
X7174698Y-13606828D01*
X7121042Y-13653321D01*
X7050768Y-13663425D01*
X6986188Y-13633931D01*
X6979683Y-13627881D01*
X6953705Y-13601948D01*
X6953703Y-13601947D01*
X6945472Y-13593730D01*
X6841451Y-13547742D01*
X6815358Y-13544700D01*
X5924642Y-13544700D01*
X5913748Y-13545996D01*
X5907407Y-13546750D01*
X5907404Y-13546751D01*
X5898022Y-13547867D01*
X5794081Y-13594036D01*
X5775471Y-13612679D01*
X5721948Y-13666295D01*
X5721947Y-13666297D01*
X5713730Y-13674528D01*
X5667742Y-13778549D01*
X5664700Y-13804642D01*
X5664700Y-14822000D01*
X5644698Y-14890121D01*
X5591042Y-14936614D01*
X5538700Y-14948000D01*
X5226554Y-14948000D01*
X5217121Y-14951065D01*
X5205152Y-14954954D01*
X5185926Y-14959570D01*
X5163694Y-14963091D01*
X5154861Y-14967592D01*
X5154860Y-14967592D01*
X5143642Y-14973308D01*
X5125380Y-14980872D01*
X5113403Y-14984764D01*
X5113401Y-14984765D01*
X5103968Y-14987830D01*
X5095943Y-14993661D01*
X5085759Y-15001060D01*
X5068904Y-15011390D01*
X5048849Y-15021608D01*
X4451995Y-15618462D01*
X4389683Y-15652488D01*
X4318868Y-15647423D01*
X4262032Y-15604876D01*
X4237221Y-15538356D01*
X4236900Y-15529367D01*
X4236900Y-15462943D01*
X4256902Y-15394822D01*
X4311751Y-15347792D01*
X4395286Y-15310687D01*
X4405919Y-15305964D01*
X4472199Y-15239568D01*
X4478052Y-15233705D01*
X4478053Y-15233703D01*
X4486270Y-15225472D01*
X4532258Y-15121451D01*
X4535300Y-15095358D01*
X4535300Y-13804642D01*
X4534004Y-13793748D01*
X4533250Y-13787407D01*
X4533249Y-13787404D01*
X4532133Y-13778022D01*
X4485964Y-13674081D01*
X4437899Y-13626100D01*
X4413705Y-13601948D01*
X4413703Y-13601947D01*
X4405472Y-13593730D01*
X4301451Y-13547742D01*
X4275358Y-13544700D01*
X3384642Y-13544700D01*
X3373748Y-13545996D01*
X3367407Y-13546750D01*
X3367404Y-13546751D01*
X3358022Y-13547867D01*
X3254081Y-13594036D01*
X3235471Y-13612679D01*
X3222073Y-13626100D01*
X3159791Y-13660179D01*
X3088971Y-13655176D01*
X3032098Y-13612679D01*
X3007229Y-13546181D01*
X3006900Y-13537082D01*
X3006900Y-11835554D01*
X2999946Y-11814152D01*
X2995330Y-11794926D01*
X2993360Y-11782487D01*
X2991809Y-11772694D01*
X2981592Y-11752641D01*
X2974028Y-11734380D01*
X2970136Y-11722403D01*
X2970135Y-11722401D01*
X2967070Y-11712968D01*
X2953840Y-11694759D01*
X2943508Y-11677900D01*
X2937795Y-11666687D01*
X2933292Y-11657849D01*
X2779538Y-11504095D01*
X2745512Y-11441783D01*
X2750577Y-11370968D01*
X2779538Y-11325905D01*
X5333292Y-8772151D01*
X5343510Y-8752096D01*
X5353840Y-8735241D01*
X5358053Y-8729442D01*
X5367070Y-8717032D01*
X5370136Y-8707597D01*
X5374028Y-8695620D01*
X5381592Y-8677358D01*
X5387308Y-8666140D01*
X5387308Y-8666139D01*
X5391809Y-8657306D01*
X5395330Y-8635074D01*
X5399946Y-8615848D01*
X5403835Y-8603879D01*
X5406900Y-8594446D01*
X5406900Y-7161633D01*
X5426902Y-7093512D01*
X5480558Y-7047019D01*
X5550832Y-7036915D01*
X5615412Y-7066409D01*
G37*
G04 #@! TD.AperFunction*
G04 #@! TA.AperFunction,Conductor*
G36*
X-4789687Y-13710856D02*
G01*
X-4317738Y-14182805D01*
X-4283712Y-14245117D01*
X-4288777Y-14315932D01*
X-4331324Y-14372768D01*
X-4397844Y-14397579D01*
X-4406833Y-14397900D01*
X-4866000Y-14397900D01*
X-4934121Y-14377898D01*
X-4980614Y-14324242D01*
X-4991819Y-14272731D01*
X-4996475Y-14256876D01*
X-4997865Y-14255671D01*
X-5005548Y-14254000D01*
X-6128000Y-14254000D01*
X-6196121Y-14233998D01*
X-6242614Y-14180342D01*
X-6254000Y-14128000D01*
X-6254000Y-13872000D01*
X-6233998Y-13803879D01*
X-6180342Y-13757386D01*
X-6128000Y-13746000D01*
X-5010116Y-13746000D01*
X-4994877Y-13741525D01*
X-4974007Y-13717440D01*
X-4914282Y-13679055D01*
X-4843285Y-13679055D01*
X-4789687Y-13710856D01*
G37*
G04 #@! TD.AperFunction*
G04 #@! TA.AperFunction,Conductor*
G36*
X96121Y-9866002D02*
G01*
X142614Y-9919658D01*
X154000Y-9972000D01*
X154000Y-12028000D01*
X133998Y-12096121D01*
X80342Y-12142614D01*
X28000Y-12154000D01*
X-2028000Y-12154000D01*
X-2096121Y-12133998D01*
X-2142614Y-12080342D01*
X-2154000Y-12028000D01*
X-2154000Y-11627885D01*
X-1646000Y-11627885D01*
X-1641525Y-11643124D01*
X-1640135Y-11644329D01*
X-1632452Y-11646000D01*
X-372115Y-11646000D01*
X-356876Y-11641525D01*
X-355671Y-11640135D01*
X-354000Y-11632452D01*
X-354000Y-10372115D01*
X-358475Y-10356876D01*
X-359865Y-10355671D01*
X-367548Y-10354000D01*
X-1627885Y-10354000D01*
X-1643124Y-10358475D01*
X-1644329Y-10359865D01*
X-1646000Y-10367548D01*
X-1646000Y-11627885D01*
X-2154000Y-11627885D01*
X-2154000Y-9972000D01*
X-2133998Y-9903879D01*
X-2080342Y-9857386D01*
X-2028000Y-9846000D01*
X28000Y-9846000D01*
X96121Y-9866002D01*
G37*
G04 #@! TD.AperFunction*
G04 #@! TA.AperFunction,Conductor*
G36*
X-5574376Y-6017389D02*
G01*
X-5549320Y-6046306D01*
X-5547780Y-6045152D01*
X-5482607Y-6132111D01*
X-5460975Y-6160975D01*
X-5372431Y-6227335D01*
X-5357335Y-6238649D01*
X-5314820Y-6295508D01*
X-5306900Y-6339475D01*
X-5306900Y-6664446D01*
X-5303835Y-6673879D01*
X-5299946Y-6685848D01*
X-5295330Y-6705074D01*
X-5291809Y-6727306D01*
X-5287308Y-6736139D01*
X-5287308Y-6736140D01*
X-5281592Y-6747358D01*
X-5274028Y-6765620D01*
X-5270136Y-6777597D01*
X-5267070Y-6787032D01*
X-5261239Y-6795057D01*
X-5253840Y-6805241D01*
X-5243510Y-6822096D01*
X-5233292Y-6842151D01*
X-4987251Y-7088192D01*
X-4978410Y-7092696D01*
X-4970391Y-7098523D01*
X-4971515Y-7100069D01*
X-4928774Y-7140432D01*
X-4911704Y-7209347D01*
X-4934602Y-7276549D01*
X-4948494Y-7293051D01*
X-5746231Y-8090788D01*
X-5808543Y-8124814D01*
X-5850243Y-8126807D01*
X-5994342Y-8109624D01*
X-6001345Y-8110360D01*
X-6001346Y-8110360D01*
X-6167021Y-8127773D01*
X-6167023Y-8127774D01*
X-6174021Y-8128509D01*
X-6264082Y-8159168D01*
X-6338380Y-8184461D01*
X-6338383Y-8184462D01*
X-6345050Y-8186732D01*
X-6498930Y-8281399D01*
X-6628012Y-8407806D01*
X-6725881Y-8559669D01*
X-6728292Y-8566292D01*
X-6728293Y-8566295D01*
X-6785263Y-8722819D01*
X-6785264Y-8722824D01*
X-6787673Y-8729442D01*
X-6810317Y-8908685D01*
X-6792687Y-9088491D01*
X-6735659Y-9259922D01*
X-6732011Y-9265945D01*
X-6666539Y-9374052D01*
X-6642068Y-9414459D01*
X-6637178Y-9419523D01*
X-6637177Y-9419524D01*
X-6591448Y-9466878D01*
X-6558516Y-9529775D01*
X-6564816Y-9600492D01*
X-6593927Y-9644427D01*
X-6628012Y-9677806D01*
X-6725881Y-9829669D01*
X-6728292Y-9836292D01*
X-6728293Y-9836295D01*
X-6785263Y-9992819D01*
X-6785264Y-9992824D01*
X-6787673Y-9999442D01*
X-6810317Y-10178685D01*
X-6792687Y-10358491D01*
X-6735659Y-10529922D01*
X-6732012Y-10535944D01*
X-6732011Y-10535946D01*
X-6675266Y-10629642D01*
X-6642068Y-10684459D01*
X-6637178Y-10689523D01*
X-6637177Y-10689524D01*
X-6591448Y-10736878D01*
X-6558516Y-10799775D01*
X-6564816Y-10870492D01*
X-6593927Y-10914427D01*
X-6628012Y-10947806D01*
X-6725881Y-11099669D01*
X-6728292Y-11106292D01*
X-6728293Y-11106295D01*
X-6785263Y-11262819D01*
X-6785264Y-11262824D01*
X-6787673Y-11269442D01*
X-6810317Y-11448685D01*
X-6794145Y-11613617D01*
X-6807404Y-11683363D01*
X-6830449Y-11715006D01*
X-6979605Y-11864162D01*
X-7041917Y-11898188D01*
X-7112732Y-11893123D01*
X-7169568Y-11850576D01*
X-7194379Y-11784056D01*
X-7194700Y-11775067D01*
X-7194700Y-6227335D01*
X-7174698Y-6159214D01*
X-7121042Y-6112721D01*
X-7050768Y-6102617D01*
X-6986188Y-6132111D01*
X-6967877Y-6151766D01*
X-6960975Y-6160975D01*
X-6953795Y-6166356D01*
X-6953794Y-6166357D01*
X-6852334Y-6242398D01*
X-6852331Y-6242400D01*
X-6845152Y-6247780D01*
X-6836748Y-6250930D01*
X-6836749Y-6250930D01*
X-6717017Y-6295815D01*
X-6717015Y-6295815D01*
X-6709622Y-6298587D01*
X-6701772Y-6299440D01*
X-6701771Y-6299440D01*
X-6651235Y-6304930D01*
X-6647829Y-6305300D01*
X-6400073Y-6305300D01*
X-6152172Y-6305299D01*
X-6148778Y-6304930D01*
X-6148772Y-6304930D01*
X-6098236Y-6299441D01*
X-6098232Y-6299440D01*
X-6090378Y-6298587D01*
X-5954848Y-6247780D01*
X-5947669Y-6242400D01*
X-5947666Y-6242398D01*
X-5846206Y-6166357D01*
X-5846205Y-6166356D01*
X-5839025Y-6160975D01*
X-5817392Y-6132111D01*
X-5752220Y-6045152D01*
X-5749800Y-6046966D01*
X-5710259Y-6007515D01*
X-5640868Y-5992502D01*
X-5574376Y-6017389D01*
G37*
G04 #@! TD.AperFunction*
G04 #@! TA.AperFunction,Conductor*
G36*
X2473180Y-5272939D02*
G01*
X2497865Y-5294329D01*
X2505548Y-5296000D01*
X3528000Y-5296000D01*
X3596121Y-5316002D01*
X3642614Y-5369658D01*
X3654000Y-5422000D01*
X3654000Y-6489884D01*
X3658475Y-6505123D01*
X3659865Y-6506328D01*
X3664294Y-6507291D01*
X3695090Y-6504462D01*
X3764755Y-6518149D01*
X3818884Y-6572731D01*
X3851708Y-6637151D01*
X3942849Y-6728292D01*
X3951687Y-6732796D01*
X3959708Y-6738623D01*
X3959065Y-6739507D01*
X3977350Y-6752793D01*
X4254162Y-7029605D01*
X4288188Y-7091917D01*
X4283123Y-7162732D01*
X4240576Y-7219568D01*
X4174056Y-7244379D01*
X4165067Y-7244700D01*
X3384642Y-7244700D01*
X3373748Y-7245996D01*
X3367407Y-7246750D01*
X3367404Y-7246751D01*
X3358022Y-7247867D01*
X3254081Y-7294036D01*
X3239397Y-7308746D01*
X3181948Y-7366295D01*
X3181947Y-7366297D01*
X3173730Y-7374528D01*
X3127742Y-7478549D01*
X3124700Y-7504642D01*
X3124700Y-8795358D01*
X3125996Y-8806252D01*
X3126659Y-8811821D01*
X3127867Y-8821978D01*
X3174036Y-8925919D01*
X3182271Y-8934140D01*
X3182272Y-8934141D01*
X3189625Y-8941481D01*
X3223706Y-9003762D01*
X3218705Y-9074582D01*
X3189705Y-9119751D01*
X2420395Y-9889061D01*
X2358083Y-9923087D01*
X2287268Y-9918022D01*
X2230432Y-9875475D01*
X2205621Y-9808955D01*
X2205300Y-9799966D01*
X2205300Y-9794103D01*
X2225302Y-9725982D01*
X2249604Y-9699865D01*
X2249374Y-9699635D01*
X2268285Y-9680724D01*
X2344786Y-9578649D01*
X2353324Y-9563054D01*
X2398478Y-9442606D01*
X2402105Y-9427351D01*
X2407631Y-9376486D01*
X2408000Y-9369672D01*
X2407999Y-9130331D01*
X2407629Y-9123510D01*
X2402105Y-9072648D01*
X2398479Y-9057396D01*
X2353324Y-8936946D01*
X2344786Y-8921351D01*
X2268285Y-8819276D01*
X2255724Y-8806715D01*
X2153649Y-8730214D01*
X2138054Y-8721676D01*
X2017606Y-8676522D01*
X2002351Y-8672895D01*
X1951486Y-8667369D01*
X1944672Y-8667000D01*
X1257500Y-8667001D01*
X1189379Y-8646999D01*
X1142886Y-8593343D01*
X1131500Y-8541001D01*
X1131500Y-7877333D01*
X1151502Y-7809212D01*
X1175669Y-7781522D01*
X1246613Y-7720930D01*
X1252391Y-7715995D01*
X1338561Y-7596077D01*
X1366377Y-7526882D01*
X1390805Y-7466118D01*
X1390806Y-7466116D01*
X1393640Y-7459065D01*
X1414446Y-7312871D01*
X1414581Y-7300000D01*
X1396841Y-7153402D01*
X1344644Y-7015267D01*
X1336178Y-7002949D01*
X1265306Y-6899829D01*
X1265305Y-6899827D01*
X1261004Y-6893570D01*
X1255333Y-6888517D01*
X1198706Y-6838064D01*
X1161150Y-6777814D01*
X1162131Y-6706824D01*
X1193430Y-6654892D01*
X1353871Y-6494452D01*
X1606483Y-6241840D01*
X1625494Y-6226486D01*
X1626556Y-6225520D01*
X1635304Y-6219871D01*
X1641748Y-6211696D01*
X1641751Y-6211694D01*
X1656229Y-6193328D01*
X1660206Y-6188853D01*
X1660135Y-6188792D01*
X1663488Y-6184835D01*
X1667171Y-6181152D01*
X1678455Y-6165361D01*
X1682018Y-6160615D01*
X1683123Y-6159214D01*
X1713934Y-6120130D01*
X1716985Y-6111443D01*
X1722334Y-6103957D01*
X1727931Y-6085244D01*
X1737098Y-6054589D01*
X1738933Y-6048941D01*
X1739627Y-6046966D01*
X1756016Y-6000298D01*
X1756500Y-5994709D01*
X1756500Y-5991998D01*
X1756615Y-5989331D01*
X1756634Y-5989268D01*
X1756808Y-5989275D01*
X1756855Y-5988529D01*
X1758725Y-5982276D01*
X1758288Y-5971140D01*
X1758646Y-5969261D01*
X1759622Y-5961536D01*
X1760108Y-5961597D01*
X1768950Y-5915243D01*
X1773428Y-5905115D01*
X1773428Y-5905113D01*
X1777258Y-5896451D01*
X1780300Y-5870358D01*
X1780300Y-5853705D01*
X2492001Y-5853705D01*
X2492264Y-5859454D01*
X2498132Y-5923315D01*
X2500743Y-5936351D01*
X2547715Y-6086243D01*
X2553921Y-6099988D01*
X2634824Y-6233574D01*
X2644131Y-6245443D01*
X2754557Y-6355869D01*
X2766426Y-6365176D01*
X2900012Y-6446079D01*
X2913757Y-6452285D01*
X3063644Y-6499256D01*
X3076694Y-6501869D01*
X3131586Y-6506913D01*
X3143124Y-6503525D01*
X3144329Y-6502135D01*
X3146000Y-6494452D01*
X3146000Y-5822115D01*
X3141525Y-5806876D01*
X3140135Y-5805671D01*
X3132452Y-5804000D01*
X2510116Y-5804000D01*
X2494877Y-5808475D01*
X2493672Y-5809865D01*
X2492001Y-5817548D01*
X2492001Y-5853705D01*
X1780300Y-5853705D01*
X1780300Y-5433999D01*
X1800302Y-5365878D01*
X1853958Y-5319385D01*
X1906300Y-5307999D01*
X2144669Y-5307999D01*
X2151490Y-5307629D01*
X2202352Y-5302105D01*
X2217603Y-5298479D01*
X2346437Y-5250181D01*
X2417244Y-5244998D01*
X2473180Y-5272939D01*
G37*
G04 #@! TD.AperFunction*
G04 #@! TA.AperFunction,Conductor*
G36*
X76009Y-558148D02*
G01*
X97595Y-581699D01*
X98523Y-580963D01*
X228534Y-744996D01*
X233228Y-748991D01*
X373763Y-868596D01*
X412676Y-927979D01*
X418100Y-964550D01*
X418100Y-3944524D01*
X418875Y-3949414D01*
X419263Y-3954351D01*
X418899Y-3954380D01*
X419700Y-3964544D01*
X419700Y-3966001D01*
X399698Y-4034122D01*
X346042Y-4080615D01*
X293700Y-4092001D01*
X55331Y-4092001D01*
X48510Y-4092371D01*
X-2352Y-4097895D01*
X-17604Y-4101521D01*
X-138054Y-4146676D01*
X-153649Y-4155214D01*
X-255724Y-4231715D01*
X-268285Y-4244276D01*
X-344786Y-4346351D01*
X-353324Y-4361946D01*
X-398478Y-4482394D01*
X-402105Y-4497649D01*
X-407631Y-4548514D01*
X-408000Y-4555327D01*
X-407999Y-4844668D01*
X-407629Y-4851490D01*
X-402105Y-4902352D01*
X-398479Y-4917604D01*
X-353324Y-5038054D01*
X-344786Y-5053649D01*
X-268285Y-5155724D01*
X-255724Y-5168285D01*
X-153649Y-5244786D01*
X-138054Y-5253324D01*
X-17606Y-5298478D01*
X-2351Y-5302105D01*
X48514Y-5307631D01*
X55328Y-5308000D01*
X293700Y-5308000D01*
X361821Y-5328002D01*
X408314Y-5381658D01*
X419700Y-5434000D01*
X419700Y-5692500D01*
X399698Y-5760621D01*
X346042Y-5807114D01*
X293700Y-5818500D01*
X70335Y-5818500D01*
X46036Y-5815914D01*
X44598Y-5815846D01*
X34420Y-5813655D01*
X4716Y-5817170D01*
X858Y-5817627D01*
X-5120Y-5817979D01*
X-5112Y-5818072D01*
X-10290Y-5818500D01*
X-15492Y-5818500D01*
X-34646Y-5821688D01*
X-40504Y-5822522D01*
X-57118Y-5824488D01*
X-81367Y-5827358D01*
X-81368Y-5827358D01*
X-91707Y-5828582D01*
X-100006Y-5832567D01*
X-109083Y-5834078D01*
X-154451Y-5858558D01*
X-159714Y-5861239D01*
X-199050Y-5880127D01*
X-199054Y-5880130D01*
X-206198Y-5883560D01*
X-210492Y-5887170D01*
X-212424Y-5889102D01*
X-214373Y-5890889D01*
X-214426Y-5890918D01*
X-214545Y-5890788D01*
X-215113Y-5891289D01*
X-220857Y-5894388D01*
X-227924Y-5902033D01*
X-257666Y-5934208D01*
X-261096Y-5937774D01*
X-379605Y-6056283D01*
X-441917Y-6090309D01*
X-512732Y-6085244D01*
X-569568Y-6042697D01*
X-594379Y-5976177D01*
X-594700Y-5967188D01*
X-594700Y-5204642D01*
X-596397Y-5190378D01*
X-596750Y-5187407D01*
X-596751Y-5187404D01*
X-597867Y-5178022D01*
X-644036Y-5074081D01*
X-684186Y-5034002D01*
X-716295Y-5001948D01*
X-716297Y-5001947D01*
X-724528Y-4993730D01*
X-828549Y-4947742D01*
X-854642Y-4944700D01*
X-1380897Y-4944700D01*
X-1449018Y-4924698D01*
X-1475135Y-4900396D01*
X-1475365Y-4900626D01*
X-1494276Y-4881715D01*
X-1596351Y-4805214D01*
X-1611946Y-4796676D01*
X-1732394Y-4751522D01*
X-1747649Y-4747895D01*
X-1798514Y-4742369D01*
X-1805328Y-4742000D01*
X-1831885Y-4742000D01*
X-1847124Y-4746475D01*
X-1848329Y-4747865D01*
X-1850000Y-4755548D01*
X-1850000Y-5974000D01*
X-1870002Y-6042121D01*
X-1923658Y-6088614D01*
X-1976000Y-6100000D01*
X-2224000Y-6100000D01*
X-2292121Y-6079998D01*
X-2338614Y-6026342D01*
X-2350000Y-5974000D01*
X-2350000Y-4760116D01*
X-2354475Y-4744877D01*
X-2355865Y-4743672D01*
X-2363548Y-4742001D01*
X-2394669Y-4742001D01*
X-2401490Y-4742371D01*
X-2452352Y-4747895D01*
X-2467604Y-4751521D01*
X-2588054Y-4796676D01*
X-2603649Y-4805214D01*
X-2705724Y-4881715D01*
X-2724635Y-4900626D01*
X-2725554Y-4899707D01*
X-2775138Y-4936781D01*
X-2819103Y-4944700D01*
X-3345358Y-4944700D01*
X-3356252Y-4945996D01*
X-3362593Y-4946750D01*
X-3362596Y-4946751D01*
X-3371978Y-4947867D01*
X-3475919Y-4994036D01*
X-3515998Y-5034186D01*
X-3548052Y-5066295D01*
X-3548053Y-5066297D01*
X-3556270Y-5074528D01*
X-3602258Y-5178549D01*
X-3605300Y-5204642D01*
X-3605300Y-6222000D01*
X-3625302Y-6290121D01*
X-3678958Y-6336614D01*
X-3731300Y-6348000D01*
X-4227302Y-6348000D01*
X-4295423Y-6327998D01*
X-4341916Y-6274342D01*
X-4352020Y-6204068D01*
X-4328128Y-6146435D01*
X-4257602Y-6052334D01*
X-4257600Y-6052331D01*
X-4252220Y-6045152D01*
X-4213534Y-5941955D01*
X-4204185Y-5917017D01*
X-4204185Y-5917015D01*
X-4201413Y-5909622D01*
X-4196749Y-5866695D01*
X-4195069Y-5851226D01*
X-4195069Y-5851225D01*
X-4194700Y-5847829D01*
X-4194701Y-5252172D01*
X-4199459Y-5208365D01*
X-4200559Y-5198236D01*
X-4200560Y-5198232D01*
X-4201413Y-5190378D01*
X-4252220Y-5054848D01*
X-4257600Y-5047669D01*
X-4257602Y-5047666D01*
X-4333643Y-4946206D01*
X-4333645Y-4946204D01*
X-4339025Y-4939025D01*
X-4346206Y-4933643D01*
X-4346208Y-4933641D01*
X-4359330Y-4923806D01*
X-4401844Y-4866946D01*
X-4406868Y-4796127D01*
X-4372807Y-4733835D01*
X-4349034Y-4715206D01*
X-4266429Y-4665179D01*
X-4254557Y-4655869D01*
X-4144131Y-4545443D01*
X-4134824Y-4533574D01*
X-4053921Y-4399988D01*
X-4047715Y-4386243D01*
X-4000744Y-4236356D01*
X-3998131Y-4223306D01*
X-3992266Y-4159479D01*
X-3992000Y-4153691D01*
X-3992000Y-4122115D01*
X-3996475Y-4106876D01*
X-3997865Y-4105671D01*
X-4005548Y-4104000D01*
X-5028000Y-4104000D01*
X-5096121Y-4083998D01*
X-5142614Y-4030342D01*
X-5154000Y-3978000D01*
X-5154000Y-3722000D01*
X-5133998Y-3653879D01*
X-5080342Y-3607386D01*
X-5028000Y-3596000D01*
X-4010116Y-3596000D01*
X-3994877Y-3591525D01*
X-3993672Y-3590135D01*
X-3992001Y-3582452D01*
X-3992001Y-3546295D01*
X-3992264Y-3540546D01*
X-3998132Y-3476685D01*
X-4000743Y-3463649D01*
X-4047715Y-3313757D01*
X-4053921Y-3300012D01*
X-4134824Y-3166426D01*
X-4144131Y-3154557D01*
X-4176693Y-3121995D01*
X-4210719Y-3059683D01*
X-4205654Y-2988868D01*
X-4163107Y-2932032D01*
X-4096587Y-2907221D01*
X-4087598Y-2906900D01*
X-3731300Y-2906900D01*
X-3663179Y-2926902D01*
X-3616686Y-2980558D01*
X-3605300Y-3032900D01*
X-3605300Y-4195358D01*
X-3604004Y-4206252D01*
X-3603315Y-4212040D01*
X-3602133Y-4221978D01*
X-3555964Y-4325919D01*
X-3536697Y-4345152D01*
X-3483705Y-4398052D01*
X-3483703Y-4398053D01*
X-3475472Y-4406270D01*
X-3371451Y-4452258D01*
X-3345358Y-4455300D01*
X-2754642Y-4455300D01*
X-2743748Y-4454004D01*
X-2737407Y-4453250D01*
X-2737404Y-4453249D01*
X-2728022Y-4452133D01*
X-2624081Y-4405964D01*
X-2564572Y-4346351D01*
X-2551948Y-4333705D01*
X-2551947Y-4333703D01*
X-2543730Y-4325472D01*
X-2497742Y-4221451D01*
X-2494700Y-4195358D01*
X-1705300Y-4195358D01*
X-1704004Y-4206252D01*
X-1703315Y-4212040D01*
X-1702133Y-4221978D01*
X-1655964Y-4325919D01*
X-1636697Y-4345152D01*
X-1583705Y-4398052D01*
X-1583703Y-4398053D01*
X-1575472Y-4406270D01*
X-1471451Y-4452258D01*
X-1445358Y-4455300D01*
X-854642Y-4455300D01*
X-843748Y-4454004D01*
X-837407Y-4453250D01*
X-837404Y-4453249D01*
X-828022Y-4452133D01*
X-724081Y-4405964D01*
X-664572Y-4346351D01*
X-651948Y-4333705D01*
X-651947Y-4333703D01*
X-643730Y-4325472D01*
X-597742Y-4221451D01*
X-594700Y-4195358D01*
X-594700Y-2904642D01*
X-596227Y-2891809D01*
X-596750Y-2887407D01*
X-596751Y-2887404D01*
X-597867Y-2878022D01*
X-644036Y-2774081D01*
X-707508Y-2710720D01*
X-716295Y-2701948D01*
X-716297Y-2701947D01*
X-724528Y-2693730D01*
X-828549Y-2647742D01*
X-854642Y-2644700D01*
X-1445358Y-2644700D01*
X-1456252Y-2645996D01*
X-1462593Y-2646750D01*
X-1462596Y-2646751D01*
X-1471978Y-2647867D01*
X-1575919Y-2694036D01*
X-1604530Y-2722697D01*
X-1648052Y-2766295D01*
X-1648053Y-2766297D01*
X-1656270Y-2774528D01*
X-1702258Y-2878549D01*
X-1705300Y-2904642D01*
X-1705300Y-4195358D01*
X-2494700Y-4195358D01*
X-2494700Y-2979448D01*
X-2474698Y-2911327D01*
X-2427750Y-2868851D01*
X-2422268Y-2867070D01*
X-2404059Y-2853840D01*
X-2387204Y-2843510D01*
X-2367149Y-2833292D01*
X-1916708Y-2382851D01*
X-1906490Y-2362796D01*
X-1896160Y-2345941D01*
X-1888761Y-2335757D01*
X-1882930Y-2327732D01*
X-1879864Y-2318297D01*
X-1875972Y-2306320D01*
X-1868408Y-2288058D01*
X-1862692Y-2276840D01*
X-1862692Y-2276839D01*
X-1858191Y-2268006D01*
X-1854670Y-2245774D01*
X-1850054Y-2226548D01*
X-1846165Y-2214579D01*
X-1843100Y-2205146D01*
X-1843100Y-956720D01*
X-1823098Y-888599D01*
X-1769442Y-842106D01*
X-1699168Y-832002D01*
X-1635437Y-860766D01*
X-1612070Y-880653D01*
X-1606692Y-883659D01*
X-1606690Y-883660D01*
X-1592730Y-891462D01*
X-1429360Y-982766D01*
X-1230296Y-1047446D01*
X-1022460Y-1072229D01*
X-1016325Y-1071757D01*
X-1016323Y-1071757D01*
X-819910Y-1056644D01*
X-819905Y-1056643D01*
X-813769Y-1056171D01*
X-807839Y-1054515D01*
X-807837Y-1054515D01*
X-618099Y-1001539D01*
X-618100Y-1001539D01*
X-612171Y-999884D01*
X-582052Y-984670D01*
X-448123Y-917017D01*
X-425345Y-905511D01*
X-403698Y-888599D01*
X-265264Y-780442D01*
X-260408Y-776648D01*
X-123642Y-618203D01*
X-110742Y-595495D01*
X-59703Y-546144D01*
X9915Y-532222D01*
X76009Y-558148D01*
G37*
G04 #@! TD.AperFunction*
G04 #@! TA.AperFunction,Conductor*
G36*
X4430964Y-988435D02*
G01*
X4479548Y-1040205D01*
X4493100Y-1097051D01*
X4493100Y-3060525D01*
X4473098Y-3128646D01*
X4442666Y-3161350D01*
X4339025Y-3239025D01*
X4333645Y-3246204D01*
X4333643Y-3246206D01*
X4283016Y-3313757D01*
X4252220Y-3354848D01*
X4249800Y-3353034D01*
X4210259Y-3392485D01*
X4140868Y-3407498D01*
X4074376Y-3382611D01*
X4049320Y-3353694D01*
X4047780Y-3354848D01*
X3966357Y-3246206D01*
X3966355Y-3246204D01*
X3960975Y-3239025D01*
X3953794Y-3233643D01*
X3852334Y-3157602D01*
X3852331Y-3157600D01*
X3845152Y-3152220D01*
X3782267Y-3128646D01*
X3717017Y-3104185D01*
X3717015Y-3104185D01*
X3709622Y-3101413D01*
X3701772Y-3100560D01*
X3701771Y-3100560D01*
X3651226Y-3095069D01*
X3651225Y-3095069D01*
X3647829Y-3094700D01*
X3400073Y-3094700D01*
X3152172Y-3094701D01*
X3148778Y-3095070D01*
X3148772Y-3095070D01*
X3098236Y-3100559D01*
X3098232Y-3100560D01*
X3090378Y-3101413D01*
X2954848Y-3152220D01*
X2947669Y-3157600D01*
X2947666Y-3157602D01*
X2846206Y-3233643D01*
X2839025Y-3239025D01*
X2833645Y-3246204D01*
X2833643Y-3246206D01*
X2757602Y-3347666D01*
X2757600Y-3347669D01*
X2752220Y-3354848D01*
X2701413Y-3490378D01*
X2694700Y-3552171D01*
X2694701Y-4147828D01*
X2695504Y-4155214D01*
X2695681Y-4156847D01*
X2683153Y-4226730D01*
X2634832Y-4278745D01*
X2566061Y-4296380D01*
X2498672Y-4274034D01*
X2469591Y-4246019D01*
X2468284Y-4244275D01*
X2455724Y-4231715D01*
X2353649Y-4155214D01*
X2338054Y-4146676D01*
X2217606Y-4101522D01*
X2202351Y-4097895D01*
X2151486Y-4092369D01*
X2144672Y-4092000D01*
X1906300Y-4092000D01*
X1838179Y-4071998D01*
X1791686Y-4018342D01*
X1780300Y-3966000D01*
X1780300Y-3964544D01*
X1781101Y-3954380D01*
X1780737Y-3954351D01*
X1781125Y-3949414D01*
X1781900Y-3944524D01*
X1781900Y-3490833D01*
X1801902Y-3422712D01*
X1818805Y-3401738D01*
X2433292Y-2787251D01*
X2443510Y-2767196D01*
X2453840Y-2750341D01*
X2461239Y-2740157D01*
X2467070Y-2732132D01*
X2470136Y-2722697D01*
X2474028Y-2710720D01*
X2481592Y-2692458D01*
X2487308Y-2681240D01*
X2487308Y-2681239D01*
X2491809Y-2672406D01*
X2495330Y-2650174D01*
X2499946Y-2630948D01*
X2503835Y-2618979D01*
X2506900Y-2609546D01*
X2506900Y-1097051D01*
X2526902Y-1028930D01*
X2580558Y-982437D01*
X2650832Y-972333D01*
X2705171Y-993838D01*
X2858066Y-1100896D01*
X2867561Y-1106379D01*
X3058993Y-1195645D01*
X3069285Y-1199391D01*
X3273309Y-1254059D01*
X3284104Y-1255962D01*
X3494525Y-1274372D01*
X3505475Y-1274372D01*
X3715896Y-1255962D01*
X3726691Y-1254059D01*
X3930715Y-1199391D01*
X3941007Y-1195645D01*
X4132439Y-1106379D01*
X4141934Y-1100896D01*
X4294829Y-993838D01*
X4362103Y-971150D01*
X4430964Y-988435D01*
G37*
G04 #@! TD.AperFunction*
G04 #@! TA.AperFunction,Conductor*
G36*
X6984142Y4692786D02*
G01*
X7000000Y4689990D01*
X7007555Y4691322D01*
X7026225Y4689483D01*
X7039113Y4686920D01*
X7049929Y4684768D01*
X7095345Y4665957D01*
X7116833Y4651599D01*
X7151599Y4616833D01*
X7161846Y4601498D01*
X7165957Y4595344D01*
X7184768Y4549929D01*
X7189483Y4526227D01*
X7191322Y4507555D01*
X7189990Y4500000D01*
X7191904Y4489146D01*
X7192786Y4484144D01*
X7194700Y4462264D01*
X7194700Y4132032D01*
X7174698Y4063911D01*
X7121042Y4017418D01*
X7050768Y4007314D01*
X6986188Y4036808D01*
X6970780Y4052738D01*
X6899745Y4140459D01*
X6890459Y4149745D01*
X6752390Y4261552D01*
X6741375Y4268705D01*
X6583070Y4349365D01*
X6570817Y4354069D01*
X6398403Y4400267D01*
X6387069Y4402214D01*
X6316010Y4407807D01*
X6311084Y4408000D01*
X6122115Y4408000D01*
X6106876Y4403525D01*
X6105671Y4402135D01*
X6104000Y4394452D01*
X6104000Y410115D01*
X6111282Y385313D01*
X6139326Y341676D01*
X6139326Y270680D01*
X6100942Y210953D01*
X6062659Y188196D01*
X6032677Y176956D01*
X5954848Y147780D01*
X5947669Y142400D01*
X5947666Y142398D01*
X5846206Y66357D01*
X5839025Y60975D01*
X5833645Y53796D01*
X5833643Y53794D01*
X5757602Y-47666D01*
X5757600Y-47669D01*
X5752220Y-54848D01*
X5749070Y-63251D01*
X5744758Y-71127D01*
X5743110Y-70225D01*
X5707143Y-118098D01*
X5640580Y-142794D01*
X5631808Y-143100D01*
X5432900Y-143100D01*
X5364779Y-123098D01*
X5318286Y-69442D01*
X5306900Y-17100D01*
X5306900Y266000D01*
X5326902Y334121D01*
X5380558Y380614D01*
X5432900Y392000D01*
X5577885Y392000D01*
X5593124Y396475D01*
X5594329Y397865D01*
X5596000Y405548D01*
X5596000Y2127885D01*
X5591525Y2143124D01*
X5590135Y2144329D01*
X5582452Y2146000D01*
X4560115Y2146000D01*
X4544876Y2141525D01*
X4543671Y2140135D01*
X4542000Y2132452D01*
X4542000Y1931714D01*
X4521998Y1863593D01*
X4468342Y1817100D01*
X4398068Y1806996D01*
X4348637Y1827059D01*
X4348551Y1826891D01*
X4328497Y1837109D01*
X4311642Y1847439D01*
X4301458Y1854838D01*
X4293433Y1860669D01*
X4284000Y1863734D01*
X4283998Y1863735D01*
X4272021Y1867627D01*
X4253759Y1875191D01*
X4242541Y1880907D01*
X4242540Y1880907D01*
X4233707Y1885408D01*
X4211475Y1888929D01*
X4192249Y1893545D01*
X4180280Y1897434D01*
X4170847Y1900499D01*
X3105631Y1900499D01*
X3037510Y1920501D01*
X2991017Y1974157D01*
X2980913Y2044431D01*
X2986932Y2068766D01*
X2989297Y2075406D01*
X2994955Y2091298D01*
X3036622Y2208310D01*
X3036623Y2208315D01*
X3038984Y2214945D01*
X3041135Y2232979D01*
X3059542Y2387349D01*
X3060376Y2394342D01*
X3041491Y2574021D01*
X3008097Y2672115D01*
X4542000Y2672115D01*
X4546475Y2656876D01*
X4547865Y2655671D01*
X4555548Y2654000D01*
X5577885Y2654000D01*
X5593124Y2658475D01*
X5594329Y2659865D01*
X5596000Y2667548D01*
X5596000Y4389885D01*
X5591525Y4405124D01*
X5590135Y4406329D01*
X5582452Y4408000D01*
X5388916Y4408000D01*
X5383990Y4407807D01*
X5312931Y4402214D01*
X5301597Y4400267D01*
X5129183Y4354069D01*
X5116930Y4349365D01*
X4958625Y4268705D01*
X4947610Y4261552D01*
X4809541Y4149745D01*
X4800255Y4140459D01*
X4688448Y4002390D01*
X4681295Y3991375D01*
X4600635Y3833070D01*
X4595931Y3820817D01*
X4549733Y3648403D01*
X4547786Y3637069D01*
X4542193Y3566010D01*
X4542000Y3561085D01*
X4542000Y2672115D01*
X3008097Y2672115D01*
X2983268Y2745050D01*
X2976991Y2755254D01*
X2957282Y2787290D01*
X2888601Y2898930D01*
X2762194Y3028012D01*
X2610331Y3125881D01*
X2603708Y3128292D01*
X2603705Y3128293D01*
X2447181Y3185263D01*
X2447176Y3185264D01*
X2440558Y3187673D01*
X2301028Y3205300D01*
X2204568Y3205300D01*
X2070458Y3190257D01*
X2063805Y3187940D01*
X2063804Y3187940D01*
X2056117Y3185263D01*
X1899839Y3130841D01*
X1746624Y3035102D01*
X1682246Y2971171D01*
X1623425Y2912760D01*
X1623422Y2912756D01*
X1618428Y2907797D01*
X1614654Y2901851D01*
X1614653Y2901849D01*
X1525399Y2761208D01*
X1525397Y2761204D01*
X1521621Y2755254D01*
X1511109Y2725732D01*
X1463378Y2591690D01*
X1463377Y2591685D01*
X1461016Y2585055D01*
X1460183Y2578067D01*
X1460182Y2578064D01*
X1445551Y2455360D01*
X1439624Y2405658D01*
X1458509Y2225979D01*
X1509769Y2075403D01*
X1512787Y2004473D01*
X1476977Y1943169D01*
X1413708Y1910958D01*
X1390491Y1908800D01*
X-1138046Y1908800D01*
X-1147479Y1905735D01*
X-1159448Y1901846D01*
X-1178674Y1897230D01*
X-1200906Y1893709D01*
X-1209739Y1889208D01*
X-1209740Y1889208D01*
X-1220958Y1883492D01*
X-1239220Y1875928D01*
X-1251197Y1872036D01*
X-1251199Y1872035D01*
X-1260632Y1868970D01*
X-1268657Y1863139D01*
X-1278841Y1855740D01*
X-1295696Y1845410D01*
X-1315751Y1835192D01*
X-2485985Y664958D01*
X-2548297Y630932D01*
X-2619112Y635997D01*
X-2672723Y674418D01*
X-2735112Y750915D01*
X-2735115Y750918D01*
X-2739011Y755695D01*
X-2743760Y759624D01*
X-2895536Y885184D01*
X-2895539Y885186D01*
X-2900286Y889113D01*
X-3084403Y988665D01*
X-3184377Y1019612D01*
X-3278464Y1048737D01*
X-3278467Y1048738D01*
X-3284351Y1050559D01*
X-3290476Y1051203D01*
X-3290477Y1051203D01*
X-3486385Y1071794D01*
X-3486386Y1071794D01*
X-3492513Y1072438D01*
X-3622163Y1060639D01*
X-3694819Y1054027D01*
X-3694820Y1054027D01*
X-3700960Y1053468D01*
X-3706874Y1051727D01*
X-3706876Y1051727D01*
X-3842125Y1011920D01*
X-3901752Y994371D01*
X-3907217Y991514D01*
X-3957792Y965074D01*
X-4087242Y897400D01*
X-4250364Y766246D01*
X-4384905Y605907D01*
X-4387875Y600504D01*
X-4387876Y600503D01*
X-4458412Y472199D01*
X-4508758Y422140D01*
X-4568827Y406900D01*
X-4754247Y406900D01*
X-4822368Y426902D01*
X-4868861Y480558D01*
X-4878965Y550832D01*
X-4849471Y615412D01*
X-4833542Y630820D01*
X-4809537Y650259D01*
X-4800255Y659541D01*
X-4688448Y797610D01*
X-4681295Y808625D01*
X-4600635Y966930D01*
X-4595931Y979183D01*
X-4549733Y1151597D01*
X-4547786Y1162931D01*
X-4542193Y1233990D01*
X-4542000Y1238916D01*
X-4542000Y2127885D01*
X-4546475Y2143124D01*
X-4547865Y2144329D01*
X-4555548Y2146000D01*
X-5978000Y2146000D01*
X-6046121Y2166002D01*
X-6092614Y2219658D01*
X-6104000Y2272000D01*
X-6104000Y2405658D01*
X-3060376Y2405658D01*
X-3041491Y2225979D01*
X-3012267Y2140135D01*
X-2987971Y2068766D01*
X-2983268Y2054950D01*
X-2979578Y2048951D01*
X-2979577Y2048950D01*
X-2976797Y2044431D01*
X-2888601Y1901070D01*
X-2762194Y1771988D01*
X-2610331Y1674119D01*
X-2603708Y1671708D01*
X-2603705Y1671707D01*
X-2447181Y1614737D01*
X-2447176Y1614736D01*
X-2440558Y1612327D01*
X-2301028Y1594700D01*
X-2204568Y1594700D01*
X-2070458Y1609743D01*
X-2063805Y1612060D01*
X-2063804Y1612060D01*
X-1994065Y1636346D01*
X-1899839Y1669159D01*
X-1746624Y1764898D01*
X-1673910Y1837107D01*
X-1623425Y1887240D01*
X-1623422Y1887244D01*
X-1618428Y1892203D01*
X-1609840Y1905735D01*
X-1525399Y2038792D01*
X-1525397Y2038796D01*
X-1521621Y2044746D01*
X-1510703Y2075406D01*
X-1463378Y2208310D01*
X-1463377Y2208315D01*
X-1461016Y2214945D01*
X-1458865Y2232979D01*
X-1440458Y2387349D01*
X-1439624Y2394342D01*
X-1458509Y2574021D01*
X-1516732Y2745050D01*
X-1523009Y2755254D01*
X-1542718Y2787290D01*
X-1611399Y2898930D01*
X-1737806Y3028012D01*
X-1889669Y3125881D01*
X-1896292Y3128292D01*
X-1896295Y3128293D01*
X-2052819Y3185263D01*
X-2052824Y3185264D01*
X-2059442Y3187673D01*
X-2198972Y3205300D01*
X-2295432Y3205300D01*
X-2429542Y3190257D01*
X-2436195Y3187940D01*
X-2436196Y3187940D01*
X-2443883Y3185263D01*
X-2600161Y3130841D01*
X-2753376Y3035102D01*
X-2817754Y2971171D01*
X-2876575Y2912760D01*
X-2876578Y2912756D01*
X-2881572Y2907797D01*
X-2885346Y2901851D01*
X-2885347Y2901849D01*
X-2974601Y2761208D01*
X-2974603Y2761204D01*
X-2978379Y2755254D01*
X-2988891Y2725732D01*
X-3036622Y2591690D01*
X-3036623Y2591685D01*
X-3038984Y2585055D01*
X-3039817Y2578067D01*
X-3039818Y2578064D01*
X-3054449Y2455360D01*
X-3060376Y2405658D01*
X-6104000Y2405658D01*
X-6104000Y2672115D01*
X-5596000Y2672115D01*
X-5591525Y2656876D01*
X-5590135Y2655671D01*
X-5582452Y2654000D01*
X-4560115Y2654000D01*
X-4544876Y2658475D01*
X-4543671Y2659865D01*
X-4542000Y2667548D01*
X-4542000Y3561085D01*
X-4542193Y3566010D01*
X-4547786Y3637069D01*
X-4549733Y3648403D01*
X-4595931Y3820817D01*
X-4600635Y3833070D01*
X-4681295Y3991375D01*
X-4688448Y4002390D01*
X-4800255Y4140459D01*
X-4809541Y4149745D01*
X-4947610Y4261552D01*
X-4958625Y4268705D01*
X-5116930Y4349365D01*
X-5129183Y4354069D01*
X-5301597Y4400267D01*
X-5312931Y4402214D01*
X-5383990Y4407807D01*
X-5388916Y4408000D01*
X-5577885Y4408000D01*
X-5593124Y4403525D01*
X-5594329Y4402135D01*
X-5596000Y4394452D01*
X-5596000Y2672115D01*
X-6104000Y2672115D01*
X-6104000Y4389885D01*
X-6108475Y4405124D01*
X-6109865Y4406329D01*
X-6117548Y4408000D01*
X-6311084Y4408000D01*
X-6316010Y4407807D01*
X-6387069Y4402214D01*
X-6398403Y4400267D01*
X-6570817Y4354069D01*
X-6583070Y4349365D01*
X-6741375Y4268705D01*
X-6752390Y4261552D01*
X-6890459Y4149745D01*
X-6899745Y4140459D01*
X-6970780Y4052738D01*
X-7029194Y4012386D01*
X-7100151Y4010020D01*
X-7161123Y4046393D01*
X-7192751Y4109955D01*
X-7194700Y4132032D01*
X-7194700Y4462263D01*
X-7192786Y4484143D01*
X-7191904Y4489145D01*
X-7191904Y4489146D01*
X-7189990Y4499999D01*
X-7191322Y4507554D01*
X-7189483Y4526223D01*
X-7184769Y4549924D01*
X-7165953Y4595350D01*
X-7151595Y4616837D01*
X-7116837Y4651595D01*
X-7106238Y4658677D01*
X-7095349Y4665954D01*
X-7049924Y4684769D01*
X-7026223Y4689483D01*
X-7007554Y4691322D01*
X-6999999Y4689990D01*
X-6984141Y4692786D01*
X-6962263Y4694700D01*
X6962264Y4694700D01*
X6984142Y4692786D01*
G37*
G04 #@! TD.AperFunction*
M02*
