G04 #@! TF.GenerationSoftware,KiCad,Pcbnew,(6.0.4-0)*
G04 #@! TF.CreationDate,2022-03-31T22:02:44+09:00*
G04 #@! TF.ProjectId,otaHID,6f746148-4944-42e6-9b69-6361645f7063,1.0*
G04 #@! TF.SameCoordinates,Original*
G04 #@! TF.FileFunction,Soldermask,Bot*
G04 #@! TF.FilePolarity,Negative*
%FSLAX46Y46*%
G04 Gerber Fmt 4.6, Leading zero omitted, Abs format (unit mm)*
G04 Created by KiCad (PCBNEW (6.0.4-0)) date 2022-03-31 22:02:44*
%MOMM*%
%LPD*%
G01*
G04 APERTURE LIST*
G04 Aperture macros list*
%AMRoundRect*
0 Rectangle with rounded corners*
0 $1 Rounding radius*
0 $2 $3 $4 $5 $6 $7 $8 $9 X,Y pos of 4 corners*
0 Add a 4 corners polygon primitive as box body*
4,1,4,$2,$3,$4,$5,$6,$7,$8,$9,$2,$3,0*
0 Add four circle primitives for the rounded corners*
1,1,$1+$1,$2,$3*
1,1,$1+$1,$4,$5*
1,1,$1+$1,$6,$7*
1,1,$1+$1,$8,$9*
0 Add four rect primitives between the rounded corners*
20,1,$1+$1,$2,$3,$4,$5,0*
20,1,$1+$1,$4,$5,$6,$7,0*
20,1,$1+$1,$6,$7,$8,$9,0*
20,1,$1+$1,$8,$9,$2,$3,0*%
%AMFreePoly0*
4,1,9,3.562500,-0.866500,0.737500,-0.866500,0.737500,-0.450000,-0.737500,-0.450000,-0.737500,0.450000,0.737500,0.450000,0.737500,0.866500,3.562500,0.866500,3.562500,-0.866500,3.562500,-0.866500,$1*%
G04 Aperture macros list end*
%ADD10C,0.750000*%
%ADD11R,1.000000X1.000000*%
%ADD12O,1.000000X1.000000*%
%ADD13RoundRect,0.200000X-0.200000X0.250000X-0.200000X-0.250000X0.200000X-0.250000X0.200000X0.250000X0*%
%ADD14R,1.500000X0.800000*%
%ADD15C,1.000000*%
%ADD16R,0.800000X1.500000*%
%ADD17C,1.524000*%
%ADD18RoundRect,0.400000X0.400000X1.100000X-0.400000X1.100000X-0.400000X-1.100000X0.400000X-1.100000X0*%
%ADD19RoundRect,0.200000X0.250000X0.200000X-0.250000X0.200000X-0.250000X-0.200000X0.250000X-0.200000X0*%
%ADD20R,0.900000X1.300000*%
%ADD21FreePoly0,90.000000*%
%ADD22RoundRect,0.200000X0.200000X-0.250000X0.200000X0.250000X-0.200000X0.250000X-0.200000X-0.250000X0*%
%ADD23R,1.200000X0.800000*%
G04 APERTURE END LIST*
D10*
X2200000Y-26900000D03*
X4000000Y-26900000D03*
D11*
X5300000Y-2475000D03*
D12*
X5300000Y-3745000D03*
X5300000Y-5015000D03*
X5300000Y-6285000D03*
X5300000Y-7555000D03*
D13*
X3400000Y-3150000D03*
X3400000Y-4850000D03*
D14*
X-5500000Y-26370000D03*
X-5500000Y-25170000D03*
X-5500000Y-23970000D03*
X-5500000Y-22770000D03*
X-5500000Y-21570000D03*
X-5500000Y-20370000D03*
X-5500000Y-19170000D03*
X-5500000Y-17970000D03*
D15*
X-5750000Y-15470000D03*
D16*
X-3000000Y-15720000D03*
X-1800000Y-15720000D03*
X-600000Y-15720000D03*
X600000Y-15720000D03*
X1800000Y-15720000D03*
X3000000Y-15720000D03*
D15*
X5750000Y-15470000D03*
D14*
X5500000Y-17970000D03*
X5500000Y-19170000D03*
X5500000Y-20370000D03*
X5500000Y-21570000D03*
X5500000Y-22770000D03*
X5500000Y-23970000D03*
X5500000Y-25170000D03*
X5500000Y-26370000D03*
D13*
X-3000000Y-3150000D03*
X-3000000Y-4850000D03*
X4300000Y-11900000D03*
X4300000Y-13600000D03*
D15*
X2250000Y2400000D03*
X-2250000Y2400000D03*
D17*
X-3500000Y0D03*
X-1000000Y0D03*
X1000000Y0D03*
X3500000Y0D03*
D18*
X5850000Y2400000D03*
X-5850000Y2400000D03*
D19*
X4600000Y-9200000D03*
X2900000Y-9200000D03*
D13*
X-4500000Y-3150000D03*
X-4500000Y-4850000D03*
X5800000Y-11900000D03*
X5800000Y-13600000D03*
D20*
X1700000Y-6125000D03*
D21*
X200000Y-6037500D03*
D20*
X-1300000Y-6125000D03*
D22*
X-6000000Y-4850000D03*
X-6000000Y-3150000D03*
D23*
X1050000Y-9330000D03*
X1050000Y-11870000D03*
X-5250000Y-11870000D03*
X-5250000Y-9330000D03*
D22*
X2800000Y-13600000D03*
X2800000Y-11900000D03*
M02*
