G04 #@! TF.GenerationSoftware,KiCad,Pcbnew,(6.0.9)*
G04 #@! TF.CreationDate,2023-01-08T15:32:06+09:00*
G04 #@! TF.ProjectId,otaHID,6f746148-4944-42e6-9b69-6361645f7063,2.1*
G04 #@! TF.SameCoordinates,Original*
G04 #@! TF.FileFunction,Soldermask,Top*
G04 #@! TF.FilePolarity,Negative*
%FSLAX46Y46*%
G04 Gerber Fmt 4.6, Leading zero omitted, Abs format (unit mm)*
G04 Created by KiCad (PCBNEW (6.0.9)) date 2023-01-08 15:32:06*
%MOMM*%
%LPD*%
G01*
G04 APERTURE LIST*
G04 Aperture macros list*
%AMRoundRect*
0 Rectangle with rounded corners*
0 $1 Rounding radius*
0 $2 $3 $4 $5 $6 $7 $8 $9 X,Y pos of 4 corners*
0 Add a 4 corners polygon primitive as box body*
4,1,4,$2,$3,$4,$5,$6,$7,$8,$9,$2,$3,0*
0 Add four circle primitives for the rounded corners*
1,1,$1+$1,$2,$3*
1,1,$1+$1,$4,$5*
1,1,$1+$1,$6,$7*
1,1,$1+$1,$8,$9*
0 Add four rect primitives between the rounded corners*
20,1,$1+$1,$2,$3,$4,$5,0*
20,1,$1+$1,$4,$5,$6,$7,0*
20,1,$1+$1,$6,$7,$8,$9,0*
20,1,$1+$1,$8,$9,$2,$3,0*%
G04 Aperture macros list end*
%ADD10RoundRect,0.150000X-0.150000X0.150000X-0.150000X-0.150000X0.150000X-0.150000X0.150000X0.150000X0*%
%ADD11R,0.150000X0.800000*%
%ADD12R,0.800000X0.150000*%
%ADD13R,1.200000X1.200000*%
%ADD14R,0.200000X0.400000*%
%ADD15R,0.400000X0.200000*%
%ADD16R,0.900000X1.200000*%
%ADD17R,0.900000X0.800000*%
%ADD18R,1.000000X0.800000*%
%ADD19R,0.800000X1.100000*%
%ADD20R,1.100000X0.800000*%
%ADD21RoundRect,0.150000X0.150000X-0.150000X0.150000X0.150000X-0.150000X0.150000X-0.150000X-0.150000X0*%
%ADD22R,1.000000X1.000000*%
%ADD23O,1.000000X1.000000*%
%ADD24RoundRect,0.200000X0.200000X-0.250000X0.200000X0.250000X-0.200000X0.250000X-0.200000X-0.250000X0*%
%ADD25R,0.500000X1.200000*%
%ADD26R,0.800000X1.200000*%
%ADD27RoundRect,0.200000X-0.200000X-0.600000X0.200000X-0.600000X0.200000X0.600000X-0.200000X0.600000X0*%
%ADD28R,0.600000X1.550000*%
%ADD29C,1.000000*%
%ADD30C,1.524000*%
%ADD31RoundRect,0.400000X0.400000X1.100000X-0.400000X1.100000X-0.400000X-1.100000X0.400000X-1.100000X0*%
G04 APERTURE END LIST*
D10*
X50000Y-4850000D03*
X50000Y-5850000D03*
D11*
X-3050000Y-13500000D03*
X-2550000Y-13500000D03*
X-2050000Y-13500000D03*
X-1550000Y-13500000D03*
X-1050000Y-13500000D03*
X-550000Y-13500000D03*
X-50000Y-13500000D03*
X450000Y-13500000D03*
D12*
X1200000Y-12750000D03*
X1200000Y-12250000D03*
X1200000Y-11750000D03*
X1200000Y-11250000D03*
X1200000Y-10750000D03*
X1200000Y-10250000D03*
X1200000Y-9750000D03*
X1200000Y-9250000D03*
D11*
X450000Y-8500000D03*
X-50000Y-8500000D03*
X-550000Y-8500000D03*
X-1050000Y-8500000D03*
X-1550000Y-8500000D03*
X-2050000Y-8500000D03*
X-2550000Y-8500000D03*
X-3050000Y-8500000D03*
D12*
X-3800000Y-9250000D03*
X-3800000Y-9750000D03*
X-3800000Y-10250000D03*
X-3800000Y-10750000D03*
X-3800000Y-11250000D03*
X-3800000Y-11750000D03*
X-3800000Y-12250000D03*
D13*
X-400000Y-10100000D03*
X-2200000Y-11900000D03*
X-2200000Y-10100000D03*
D12*
X-3800000Y-12750000D03*
D13*
X-400000Y-11900000D03*
D14*
X1325000Y-4750000D03*
X1875000Y-4750000D03*
D15*
X2100000Y-5400000D03*
D14*
X1875000Y-6050000D03*
X1325000Y-6050000D03*
D15*
X1100000Y-5400000D03*
D16*
X4625000Y-12900000D03*
X4625000Y-16900000D03*
X6125000Y-12900000D03*
X6125000Y-16900000D03*
D17*
X1950000Y-23200000D03*
X1950000Y-22000000D03*
D18*
X2000000Y-20800000D03*
X2000000Y-19600000D03*
X2000000Y-18400000D03*
D19*
X1000000Y-16850000D03*
X-200000Y-16850000D03*
X-1400000Y-16850000D03*
X-2600000Y-16850000D03*
X-3800000Y-16850000D03*
X-5000000Y-16850000D03*
D20*
X-6050000Y-18400000D03*
X-6050000Y-19600000D03*
X-6050000Y-20800000D03*
X-6050000Y-22000000D03*
X-6050000Y-23200000D03*
D21*
X-4650000Y-5850000D03*
X-4650000Y-4850000D03*
D10*
X4400000Y-1550000D03*
X4400000Y-2550000D03*
D22*
X-5500000Y-14000000D03*
D23*
X-5500000Y-12730000D03*
X-5500000Y-11460000D03*
X-5500000Y-10190000D03*
X-5500000Y-8920000D03*
D24*
X-5900000Y-5550000D03*
X-5900000Y-3850000D03*
D25*
X-3250000Y-5850000D03*
X-2300000Y-5850000D03*
X-1350000Y-5850000D03*
X-1350000Y-3550000D03*
X-3250000Y-3550000D03*
D24*
X-5900000Y-2250000D03*
X-5900000Y-550000D03*
X5900000Y-2250000D03*
X5900000Y-550000D03*
D26*
X5870000Y-4250000D03*
X3330000Y-4250000D03*
X3330000Y-10550000D03*
X5870000Y-10550000D03*
D27*
X3200000Y-22882500D03*
X6300000Y-22882500D03*
D28*
X4250000Y-19032500D03*
X5250000Y-19032500D03*
D10*
X3400000Y-1550000D03*
X3400000Y-2550000D03*
D29*
X2250000Y2400000D03*
X-2250000Y2400000D03*
D30*
X-3500000Y0D03*
X-1000000Y0D03*
X1000000Y0D03*
X3500000Y0D03*
D31*
X5850000Y2400000D03*
X-5850000Y2400000D03*
M02*
