G04 #@! TF.GenerationSoftware,KiCad,Pcbnew,(6.0.4-0)*
G04 #@! TF.CreationDate,2022-03-31T22:02:44+09:00*
G04 #@! TF.ProjectId,otaHID,6f746148-4944-42e6-9b69-6361645f7063,1.0*
G04 #@! TF.SameCoordinates,Original*
G04 #@! TF.FileFunction,Legend,Top*
G04 #@! TF.FilePolarity,Positive*
%FSLAX46Y46*%
G04 Gerber Fmt 4.6, Leading zero omitted, Abs format (unit mm)*
G04 Created by KiCad (PCBNEW (6.0.4-0)) date 2022-03-31 22:02:44*
%MOMM*%
%LPD*%
G01*
G04 APERTURE LIST*
%ADD10C,0.150000*%
%ADD11C,0.100000*%
%ADD12C,0.120000*%
%ADD13C,0.200000*%
G04 APERTURE END LIST*
D10*
X-4521547Y-2347380D02*
X-4616785Y-2299761D01*
X-4664404Y-2252142D01*
X-4712023Y-2156904D01*
X-4712023Y-1871190D01*
X-4664404Y-1775952D01*
X-4616785Y-1728333D01*
X-4521547Y-1680714D01*
X-4378690Y-1680714D01*
X-4283452Y-1728333D01*
X-4235833Y-1775952D01*
X-4188214Y-1871190D01*
X-4188214Y-2156904D01*
X-4235833Y-2252142D01*
X-4283452Y-2299761D01*
X-4378690Y-2347380D01*
X-4521547Y-2347380D01*
X-3902500Y-1680714D02*
X-3521547Y-1680714D01*
X-3759642Y-1347380D02*
X-3759642Y-2204523D01*
X-3712023Y-2299761D01*
X-3616785Y-2347380D01*
X-3521547Y-2347380D01*
X-2759642Y-2347380D02*
X-2759642Y-1823571D01*
X-2807261Y-1728333D01*
X-2902500Y-1680714D01*
X-3092976Y-1680714D01*
X-3188214Y-1728333D01*
X-2759642Y-2299761D02*
X-2854880Y-2347380D01*
X-3092976Y-2347380D01*
X-3188214Y-2299761D01*
X-3235833Y-2204523D01*
X-3235833Y-2109285D01*
X-3188214Y-2014047D01*
X-3092976Y-1966428D01*
X-2854880Y-1966428D01*
X-2759642Y-1918809D01*
X-2283452Y-2347380D02*
X-2283452Y-1347380D01*
X-2283452Y-1823571D02*
X-1712023Y-1823571D01*
X-1712023Y-2347380D02*
X-1712023Y-1347380D01*
X-1235833Y-2347380D02*
X-1235833Y-1347380D01*
X-759642Y-2347380D02*
X-759642Y-1347380D01*
X-521547Y-1347380D01*
X-378690Y-1395000D01*
X-283452Y-1490238D01*
X-235833Y-1585476D01*
X-188214Y-1775952D01*
X-188214Y-1918809D01*
X-235833Y-2109285D01*
X-283452Y-2204523D01*
X-378690Y-2299761D01*
X-521547Y-2347380D01*
X-759642Y-2347380D01*
X-4807261Y-2957380D02*
X-4473928Y-3957380D01*
X-4140595Y-2957380D01*
X-3283452Y-3957380D02*
X-3854880Y-3957380D01*
X-3569166Y-3957380D02*
X-3569166Y-2957380D01*
X-3664404Y-3100238D01*
X-3759642Y-3195476D01*
X-3854880Y-3243095D01*
X-2854880Y-3862142D02*
X-2807261Y-3909761D01*
X-2854880Y-3957380D01*
X-2902500Y-3909761D01*
X-2854880Y-3862142D01*
X-2854880Y-3957380D01*
X-2188214Y-2957380D02*
X-2092976Y-2957380D01*
X-1997738Y-3005000D01*
X-1950119Y-3052619D01*
X-1902500Y-3147857D01*
X-1854880Y-3338333D01*
X-1854880Y-3576428D01*
X-1902500Y-3766904D01*
X-1950119Y-3862142D01*
X-1997738Y-3909761D01*
X-2092976Y-3957380D01*
X-2188214Y-3957380D01*
X-2283452Y-3909761D01*
X-2331071Y-3862142D01*
X-2378690Y-3766904D01*
X-2426309Y-3576428D01*
X-2426309Y-3338333D01*
X-2378690Y-3147857D01*
X-2331071Y-3052619D01*
X-2283452Y-3005000D01*
X-2188214Y-2957380D01*
D11*
X-457142Y-5571428D02*
X-457142Y-6057142D01*
X-428571Y-6114285D01*
X-399999Y-6142857D01*
X-342857Y-6171428D01*
X-228571Y-6171428D01*
X-171428Y-6142857D01*
X-142857Y-6114285D01*
X-114285Y-6057142D01*
X-114285Y-5571428D01*
X142857Y-5628571D02*
X171428Y-5600000D01*
X228571Y-5571428D01*
X371428Y-5571428D01*
X428571Y-5600000D01*
X457142Y-5628571D01*
X485714Y-5685714D01*
X485714Y-5742857D01*
X457142Y-5828571D01*
X114285Y-6171428D01*
X485714Y-6171428D01*
X-457142Y-17371428D02*
X-457142Y-17857142D01*
X-428571Y-17914285D01*
X-399999Y-17942857D01*
X-342857Y-17971428D01*
X-228571Y-17971428D01*
X-171428Y-17942857D01*
X-142857Y-17914285D01*
X-114285Y-17857142D01*
X-114285Y-17371428D01*
X114285Y-17371428D02*
X485714Y-17371428D01*
X285714Y-17600000D01*
X371428Y-17600000D01*
X428571Y-17628571D01*
X457142Y-17657142D01*
X485714Y-17714285D01*
X485714Y-17857142D01*
X457142Y-17914285D01*
X428571Y-17942857D01*
X371428Y-17971428D01*
X200000Y-17971428D01*
X142857Y-17942857D01*
X114285Y-17914285D01*
X-4700000Y-4914285D02*
X-4728571Y-4942857D01*
X-4814285Y-4971428D01*
X-4871428Y-4971428D01*
X-4957142Y-4942857D01*
X-5014285Y-4885714D01*
X-5042857Y-4828571D01*
X-5071428Y-4714285D01*
X-5071428Y-4628571D01*
X-5042857Y-4514285D01*
X-5014285Y-4457142D01*
X-4957142Y-4400000D01*
X-4871428Y-4371428D01*
X-4814285Y-4371428D01*
X-4728571Y-4400000D01*
X-4700000Y-4428571D01*
X-4185714Y-4371428D02*
X-4300000Y-4371428D01*
X-4357142Y-4400000D01*
X-4385714Y-4428571D01*
X-4442857Y-4514285D01*
X-4471428Y-4628571D01*
X-4471428Y-4857142D01*
X-4442857Y-4914285D01*
X-4414285Y-4942857D01*
X-4357142Y-4971428D01*
X-4242857Y-4971428D01*
X-4185714Y-4942857D01*
X-4157142Y-4914285D01*
X-4128571Y-4857142D01*
X-4128571Y-4714285D01*
X-4157142Y-4657142D01*
X-4185714Y-4628571D01*
X-4242857Y-4600000D01*
X-4357142Y-4600000D01*
X-4414285Y-4628571D01*
X-4442857Y-4657142D01*
X-4471428Y-4714285D01*
X-885714Y-22185714D02*
X-885714Y-22471428D01*
X-1085714Y-21871428D02*
X-885714Y-22185714D01*
X-685714Y-21871428D01*
X-171428Y-22471428D02*
X-514285Y-22471428D01*
X-342857Y-22471428D02*
X-342857Y-21871428D01*
X-399999Y-21957142D01*
X-457142Y-22014285D01*
X-514285Y-22042857D01*
X5300000Y-19214285D02*
X5271428Y-19242857D01*
X5185714Y-19271428D01*
X5128571Y-19271428D01*
X5042857Y-19242857D01*
X4985714Y-19185714D01*
X4957142Y-19128571D01*
X4928571Y-19014285D01*
X4928571Y-18928571D01*
X4957142Y-18814285D01*
X4985714Y-18757142D01*
X5042857Y-18700000D01*
X5128571Y-18671428D01*
X5185714Y-18671428D01*
X5271428Y-18700000D01*
X5300000Y-18728571D01*
X5500000Y-18671428D02*
X5900000Y-18671428D01*
X5642857Y-19271428D01*
X3800000Y-19271428D02*
X3600000Y-18985714D01*
X3457142Y-19271428D02*
X3457142Y-18671428D01*
X3685714Y-18671428D01*
X3742857Y-18700000D01*
X3771428Y-18728571D01*
X3800000Y-18785714D01*
X3800000Y-18871428D01*
X3771428Y-18928571D01*
X3742857Y-18957142D01*
X3685714Y-18985714D01*
X3457142Y-18985714D01*
X4314285Y-18871428D02*
X4314285Y-19271428D01*
X4171428Y-18642857D02*
X4028571Y-19071428D01*
X4400000Y-19071428D01*
X-442857Y-26071428D02*
X-442857Y-25471428D01*
X-300000Y-25471428D01*
X-214285Y-25500000D01*
X-157142Y-25557142D01*
X-128571Y-25614285D01*
X-100000Y-25728571D01*
X-100000Y-25814285D01*
X-128571Y-25928571D01*
X-157142Y-25985714D01*
X-214285Y-26042857D01*
X-300000Y-26071428D01*
X-442857Y-26071428D01*
X471428Y-26071428D02*
X128571Y-26071428D01*
X299999Y-26071428D02*
X299999Y-25471428D01*
X242857Y-25557142D01*
X185714Y-25614285D01*
X128571Y-25642857D01*
X2100000Y-21714285D02*
X2071428Y-21742857D01*
X1985714Y-21771428D01*
X1928571Y-21771428D01*
X1842857Y-21742857D01*
X1785714Y-21685714D01*
X1757142Y-21628571D01*
X1728571Y-21514285D01*
X1728571Y-21428571D01*
X1757142Y-21314285D01*
X1785714Y-21257142D01*
X1842857Y-21200000D01*
X1928571Y-21171428D01*
X1985714Y-21171428D01*
X2071428Y-21200000D01*
X2100000Y-21228571D01*
X2614285Y-21371428D02*
X2614285Y-21771428D01*
X2471428Y-21142857D02*
X2328571Y-21571428D01*
X2700000Y-21571428D01*
X-3499999Y-21714285D02*
X-3528571Y-21742857D01*
X-3614285Y-21771428D01*
X-3671428Y-21771428D01*
X-3757142Y-21742857D01*
X-3814285Y-21685714D01*
X-3842857Y-21628571D01*
X-3871428Y-21514285D01*
X-3871428Y-21428571D01*
X-3842857Y-21314285D01*
X-3814285Y-21257142D01*
X-3757142Y-21200000D01*
X-3671428Y-21171428D01*
X-3614285Y-21171428D01*
X-3528571Y-21200000D01*
X-3499999Y-21228571D01*
X-3300000Y-21171428D02*
X-2928571Y-21171428D01*
X-3128571Y-21400000D01*
X-3042857Y-21400000D01*
X-2985714Y-21428571D01*
X-2957142Y-21457142D01*
X-2928571Y-21514285D01*
X-2928571Y-21657142D01*
X-2957142Y-21714285D01*
X-2985714Y-21742857D01*
X-3042857Y-21771428D01*
X-3214285Y-21771428D01*
X-3271428Y-21742857D01*
X-3300000Y-21714285D01*
X-4700000Y-19614285D02*
X-4728571Y-19642857D01*
X-4814285Y-19671428D01*
X-4871428Y-19671428D01*
X-4957142Y-19642857D01*
X-5014285Y-19585714D01*
X-5042857Y-19528571D01*
X-5071428Y-19414285D01*
X-5071428Y-19328571D01*
X-5042857Y-19214285D01*
X-5014285Y-19157142D01*
X-4957142Y-19100000D01*
X-4871428Y-19071428D01*
X-4814285Y-19071428D01*
X-4728571Y-19100000D01*
X-4700000Y-19128571D01*
X-4157142Y-19071428D02*
X-4442857Y-19071428D01*
X-4471428Y-19357142D01*
X-4442857Y-19328571D01*
X-4385714Y-19300000D01*
X-4242857Y-19300000D01*
X-4185714Y-19328571D01*
X-4157142Y-19357142D01*
X-4128571Y-19414285D01*
X-4128571Y-19557142D01*
X-4157142Y-19614285D01*
X-4185714Y-19642857D01*
X-4242857Y-19671428D01*
X-4385714Y-19671428D01*
X-4442857Y-19642857D01*
X-4471428Y-19614285D01*
D12*
X600000Y-3400000D02*
X700000Y-3400000D01*
X700000Y-3400000D02*
X700000Y-3900000D01*
X-700000Y-5000000D02*
X-700000Y-4500000D01*
X700000Y-4500000D02*
X700000Y-5000000D01*
X700000Y-5000000D02*
X600000Y-5000000D01*
X-700000Y-3900000D02*
X-700000Y-3400000D01*
X-500000Y-5000000D02*
X-700000Y-5000000D01*
X-700000Y-3400000D02*
X-600000Y-3400000D01*
X4800000Y-24700000D02*
X4800000Y-29100000D01*
X4800000Y-29100000D02*
X4100000Y-29100000D01*
X2100000Y-29100000D02*
X1400000Y-29100000D01*
X4100000Y-24700000D02*
X4800000Y-24700000D01*
X1400000Y-29100000D02*
X1400000Y-24700000D01*
X1400000Y-24700000D02*
X2100000Y-24700000D01*
X3600000Y-15000000D02*
X3600000Y-15600000D01*
X-3600000Y-8400000D02*
X-3000000Y-8400000D01*
X3600000Y-15600000D02*
X3000000Y-15600000D01*
X3000000Y-8400000D02*
X3600000Y-8400000D01*
X-3600000Y-15600000D02*
X-3600000Y-15000000D01*
X-3600000Y-9000000D02*
X-3600000Y-8400000D01*
X3600000Y-8400000D02*
X3600000Y-9000000D01*
X-3000000Y-15600000D02*
X-3600000Y-15600000D01*
D13*
X-2650000Y-17550000D02*
G75*
G03*
X-2650000Y-17550000I-100000J0D01*
G01*
D12*
X-4800000Y-6800000D02*
X-4400000Y-6800000D01*
X-5350000Y-8550000D02*
X-3850000Y-8550000D01*
X-4400000Y-6800000D02*
X-4600000Y-7000000D01*
X-4600000Y-7000000D02*
X-4800000Y-6800000D01*
X-3850000Y-8550000D02*
X-3850000Y-5250000D01*
X-5350000Y-8550000D02*
X-5350000Y-5250000D01*
X-5350000Y-5250000D02*
X-3850000Y-5250000D01*
X-2700000Y-25332500D02*
X-1800000Y-25332500D01*
X-1800000Y-25332500D02*
X-1800000Y-27732500D01*
X-5800000Y-25332500D02*
X-4900000Y-25332500D01*
X-5800000Y-27732500D02*
X-5800000Y-25332500D01*
X-1100000Y-21200000D02*
X-100000Y-21200000D01*
X1050000Y-20200000D02*
X1050000Y-19600000D01*
X-100000Y-18600000D02*
X-1100000Y-18600000D01*
X-2250000Y-19600000D02*
X-2250000Y-20200000D01*
X5400000Y-21100000D02*
X5600000Y-21300000D01*
X6150000Y-19550000D02*
X4650000Y-19550000D01*
X6150000Y-22850000D02*
X4650000Y-22850000D01*
X5600000Y-21300000D02*
X5200000Y-21300000D01*
X6150000Y-19550000D02*
X6150000Y-22850000D01*
X5200000Y-21300000D02*
X5400000Y-21100000D01*
X4650000Y-19550000D02*
X4650000Y-22850000D01*
X4650000Y-19550000D02*
X3150000Y-19550000D01*
X3150000Y-19550000D02*
X3150000Y-22850000D01*
X3900000Y-21100000D02*
X4100000Y-21300000D01*
X4650000Y-19550000D02*
X4650000Y-22850000D01*
X4650000Y-22850000D02*
X3150000Y-22850000D01*
X4100000Y-21300000D02*
X3700000Y-21300000D01*
X3700000Y-21300000D02*
X3900000Y-21100000D01*
X-750000Y-29650000D02*
X750000Y-29650000D01*
X-750000Y-29650000D02*
X-750000Y-26350000D01*
X200000Y-27900000D02*
X0Y-28100000D01*
X-200000Y-27900000D02*
X200000Y-27900000D01*
X750000Y-29650000D02*
X750000Y-26350000D01*
X-750000Y-26350000D02*
X750000Y-26350000D01*
X0Y-28100000D02*
X-200000Y-27900000D01*
X1700000Y-18900000D02*
X2700000Y-18900000D01*
X1700000Y-20900000D02*
X2700000Y-20900000D01*
X1700000Y-18900000D02*
X1700000Y-20900000D01*
X2700000Y-18900000D02*
X2700000Y-20900000D01*
X-2900000Y-20900000D02*
X-3900000Y-20900000D01*
X-3900000Y-20900000D02*
X-3900000Y-18900000D01*
X-2900000Y-20900000D02*
X-2900000Y-18900000D01*
X-2900000Y-18900000D02*
X-3900000Y-18900000D01*
X4350000Y-8475000D02*
X6250000Y-8475000D01*
X4350000Y-1525000D02*
X6250000Y-1525000D01*
X6250000Y-1525000D02*
X6250000Y-8475000D01*
X4350000Y-1525000D02*
X4350000Y-8475000D01*
X-5350000Y-18750000D02*
X-5350000Y-15450000D01*
X-5350000Y-18750000D02*
X-3850000Y-18750000D01*
X-4400000Y-17000000D02*
X-4600000Y-17200000D01*
X-3850000Y-18750000D02*
X-3850000Y-15450000D01*
X-4800000Y-17000000D02*
X-4400000Y-17000000D01*
X-5350000Y-15450000D02*
X-3850000Y-15450000D01*
X-4600000Y-17200000D02*
X-4800000Y-17000000D01*
M02*
