G04 #@! TF.GenerationSoftware,KiCad,Pcbnew,(6.0.4-0)*
G04 #@! TF.CreationDate,2022-03-31T22:02:44+09:00*
G04 #@! TF.ProjectId,otaHID,6f746148-4944-42e6-9b69-6361645f7063,1.0*
G04 #@! TF.SameCoordinates,Original*
G04 #@! TF.FileFunction,Copper,L1,Top*
G04 #@! TF.FilePolarity,Positive*
%FSLAX46Y46*%
G04 Gerber Fmt 4.6, Leading zero omitted, Abs format (unit mm)*
G04 Created by KiCad (PCBNEW (6.0.4-0)) date 2022-03-31 22:02:44*
%MOMM*%
%LPD*%
G01*
G04 APERTURE LIST*
G04 Aperture macros list*
%AMRoundRect*
0 Rectangle with rounded corners*
0 $1 Rounding radius*
0 $2 $3 $4 $5 $6 $7 $8 $9 X,Y pos of 4 corners*
0 Add a 4 corners polygon primitive as box body*
4,1,4,$2,$3,$4,$5,$6,$7,$8,$9,$2,$3,0*
0 Add four circle primitives for the rounded corners*
1,1,$1+$1,$2,$3*
1,1,$1+$1,$4,$5*
1,1,$1+$1,$6,$7*
1,1,$1+$1,$8,$9*
0 Add four rect primitives between the rounded corners*
20,1,$1+$1,$2,$3,$4,$5,0*
20,1,$1+$1,$4,$5,$6,$7,0*
20,1,$1+$1,$6,$7,$8,$9,0*
20,1,$1+$1,$8,$9,$2,$3,0*%
G04 Aperture macros list end*
G04 #@! TA.AperFunction,SMDPad,CuDef*
%ADD10R,0.200000X0.675000*%
G04 #@! TD*
G04 #@! TA.AperFunction,SMDPad,CuDef*
%ADD11R,0.700000X0.200000*%
G04 #@! TD*
G04 #@! TA.AperFunction,SMDPad,CuDef*
%ADD12R,1.600000X1.000000*%
G04 #@! TD*
G04 #@! TA.AperFunction,SMDPad,CuDef*
%ADD13R,0.150000X1.400000*%
G04 #@! TD*
G04 #@! TA.AperFunction,SMDPad,CuDef*
%ADD14R,1.400000X0.150000*%
G04 #@! TD*
G04 #@! TA.AperFunction,SMDPad,CuDef*
%ADD15RoundRect,0.200000X0.200000X-0.250000X0.200000X0.250000X-0.200000X0.250000X-0.200000X-0.250000X0*%
G04 #@! TD*
G04 #@! TA.AperFunction,SMDPad,CuDef*
%ADD16R,1.200000X1.600000*%
G04 #@! TD*
G04 #@! TA.AperFunction,SMDPad,CuDef*
%ADD17R,0.600000X1.550000*%
G04 #@! TD*
G04 #@! TA.AperFunction,SMDPad,CuDef*
%ADD18R,1.350000X1.200000*%
G04 #@! TD*
G04 #@! TA.AperFunction,SMDPad,CuDef*
%ADD19RoundRect,0.200000X-0.200000X0.250000X-0.200000X-0.250000X0.200000X-0.250000X0.200000X0.250000X0*%
G04 #@! TD*
G04 #@! TA.AperFunction,SMDPad,CuDef*
%ADD20RoundRect,0.150000X-0.150000X0.150000X-0.150000X-0.150000X0.150000X-0.150000X0.150000X0.150000X0*%
G04 #@! TD*
G04 #@! TA.AperFunction,SMDPad,CuDef*
%ADD21RoundRect,0.150000X0.150000X-0.150000X0.150000X0.150000X-0.150000X0.150000X-0.150000X-0.150000X0*%
G04 #@! TD*
G04 #@! TA.AperFunction,ComponentPad*
%ADD22R,1.000000X1.000000*%
G04 #@! TD*
G04 #@! TA.AperFunction,ComponentPad*
%ADD23O,1.000000X1.000000*%
G04 #@! TD*
G04 #@! TA.AperFunction,ComponentPad*
%ADD24C,1.524000*%
G04 #@! TD*
G04 #@! TA.AperFunction,ComponentPad*
%ADD25RoundRect,0.400000X0.400000X1.100000X-0.400000X1.100000X-0.400000X-1.100000X0.400000X-1.100000X0*%
G04 #@! TD*
G04 #@! TA.AperFunction,ViaPad*
%ADD26C,0.609600*%
G04 #@! TD*
G04 #@! TA.AperFunction,Conductor*
%ADD27C,0.152400*%
G04 #@! TD*
G04 #@! TA.AperFunction,Conductor*
%ADD28C,0.203200*%
G04 #@! TD*
G04 APERTURE END LIST*
D10*
X-275000Y-3412500D03*
X275000Y-3412500D03*
D11*
X650000Y-4200000D03*
D10*
X275000Y-4987500D03*
X-275000Y-4987500D03*
D11*
X-650000Y-4200000D03*
D12*
X3100000Y-29100000D03*
X3100000Y-24700000D03*
D13*
X-2750000Y-16350000D03*
X-2250000Y-16350000D03*
X-1750000Y-16350000D03*
X-1250000Y-16350000D03*
X-750000Y-16350000D03*
X-250000Y-16350000D03*
X250000Y-16350000D03*
X750000Y-16350000D03*
X1250000Y-16350000D03*
X1750000Y-16350000D03*
X2250000Y-16350000D03*
X2750000Y-16350000D03*
D14*
X4350000Y-14750000D03*
X4350000Y-14250000D03*
X4350000Y-13750000D03*
X4350000Y-13250000D03*
X4350000Y-12750000D03*
X4350000Y-12250000D03*
X4350000Y-11750000D03*
X4350000Y-11250000D03*
X4350000Y-10750000D03*
X4350000Y-10250000D03*
X4350000Y-9750000D03*
X4350000Y-9250000D03*
D13*
X2750000Y-7650000D03*
X2250000Y-7650000D03*
X1750000Y-7650000D03*
X1250000Y-7650000D03*
X750000Y-7650000D03*
X250000Y-7650000D03*
X-250000Y-7650000D03*
X-750000Y-7650000D03*
X-1250000Y-7650000D03*
X-1750000Y-7650000D03*
X-2250000Y-7650000D03*
X-2750000Y-7650000D03*
D14*
X-4350000Y-9250000D03*
X-4350000Y-9750000D03*
X-4350000Y-10250000D03*
X-4350000Y-10750000D03*
X-4350000Y-11250000D03*
X-4350000Y-11750000D03*
X-4350000Y-12250000D03*
X-4350000Y-12750000D03*
X-4350000Y-13250000D03*
X-4350000Y-13750000D03*
X-4350000Y-14250000D03*
X-4350000Y-14750000D03*
D15*
X-4600000Y-7750000D03*
X-4600000Y-6050000D03*
D16*
X-5599999Y-28782493D03*
X-2000000Y-28782493D03*
D17*
X-4300000Y-24932500D03*
X-3300000Y-24932500D03*
D18*
X-1900000Y-20950000D03*
X700000Y-20950000D03*
X700000Y-18850000D03*
X-1900000Y-18850000D03*
D19*
X5400000Y-20350000D03*
X5400000Y-22050000D03*
X3900000Y-20350000D03*
X3900000Y-22050000D03*
D15*
X0Y-28850000D03*
X0Y-27150000D03*
D20*
X2200000Y-19400000D03*
X2200000Y-20400000D03*
D21*
X-3400000Y-20400000D03*
X-3400000Y-19400000D03*
D22*
X5300000Y-2475000D03*
D23*
X5300000Y-3745000D03*
X5300000Y-5015000D03*
X5300000Y-6285000D03*
X5300000Y-7555000D03*
D15*
X-4600000Y-17950000D03*
X-4600000Y-16250000D03*
D24*
X-3500000Y0D03*
X-1000000Y0D03*
X1000000Y0D03*
X3500000Y0D03*
D25*
X5850000Y2400000D03*
X-5850000Y2400000D03*
D26*
X-2000000Y-1500000D03*
X-2500000Y-13200000D03*
X2000000Y-10500000D03*
X5499999Y-500000D03*
X3100000Y-27800000D03*
X0Y-23000000D03*
X2900000Y-6200000D03*
X-3700000Y-27700000D03*
X-400000Y-11600000D03*
X-5500000Y-500000D03*
X-3000000Y-6200000D03*
X-3500000Y-7800000D03*
X5800000Y-9300000D03*
X4100000Y-23100000D03*
X2300000Y-3500000D03*
X400000Y-1400000D03*
X-6000000Y-13400000D03*
X-5600000Y-10500000D03*
X-1700000Y-11300000D03*
X-2700000Y-9300000D03*
X-1200000Y-9300000D03*
X2100000Y-17800000D03*
X4100000Y-16200000D03*
X1300000Y-13000000D03*
D27*
X-5328911Y-16071089D02*
X-5150000Y-16250000D01*
X600000Y-14400000D02*
X-400000Y-13400000D01*
D28*
X-2850000Y-18850000D02*
X-3400000Y-19400000D01*
X-1900000Y-18850000D02*
X-2850000Y-18850000D01*
D27*
X4350000Y-9750000D02*
X2950000Y-9750000D01*
X-400000Y-13400000D02*
X-400000Y-11600000D01*
X700000Y-20950000D02*
X700000Y-22300000D01*
X-2900000Y-6300000D02*
X-3000000Y-6200000D01*
X1300000Y-3500000D02*
X1300000Y-2200000D01*
X-2250000Y-6450000D02*
X-2400000Y-6300000D01*
X-3450000Y-12750000D02*
X-4350000Y-12750000D01*
X2950000Y-9750000D02*
X2200000Y-10500000D01*
X-2400000Y-6300000D02*
X-2900000Y-6300000D01*
X-4350000Y-14250000D02*
X-5250000Y-14250000D01*
X700000Y-22300000D02*
X0Y-23000000D01*
D28*
X5300000Y-2475000D02*
X6369080Y-2475000D01*
D27*
X-2250000Y-7650000D02*
X-2250000Y-6450000D01*
X-3371089Y-13228911D02*
X-2528911Y-13228911D01*
X-3371089Y-12828911D02*
X-3450000Y-12750000D01*
D28*
X6594080Y-2700000D02*
X6594080Y-21900000D01*
D27*
X-650000Y-4200000D02*
X-4100000Y-4200000D01*
X-3371089Y-14171089D02*
X-3371089Y-13228911D01*
D28*
X700000Y-20950000D02*
X1650000Y-20950000D01*
D27*
X-6050000Y-6050000D02*
X-6619480Y-6619480D01*
D28*
X1650000Y-20950000D02*
X2200000Y-20400000D01*
D27*
X-4744880Y-19400000D02*
X-3400000Y-19400000D01*
X-5250000Y-14250000D02*
X-5328911Y-14328911D01*
X-5150000Y-16250000D02*
X-4600000Y-16250000D01*
D28*
X6444080Y-22050000D02*
X5400000Y-22050000D01*
D27*
X-5344880Y-16444880D02*
X-5344880Y-18800000D01*
D28*
X6369080Y-2475000D02*
X6594080Y-2700000D01*
D27*
X-4600000Y-4700000D02*
X-4600000Y-6050000D01*
X-6619480Y-6619480D02*
X-6619480Y-24780520D01*
X-3371089Y-13228911D02*
X-3371089Y-12828911D01*
X-2528911Y-13228911D02*
X-2500000Y-13200000D01*
X-4600000Y-6050000D02*
X-6050000Y-6050000D01*
X-5328911Y-14328911D02*
X-5328911Y-16071089D01*
D28*
X6594080Y-21900000D02*
X6444080Y-22050000D01*
D27*
X3100000Y-29100000D02*
X3100000Y-27800000D01*
X750000Y-14550000D02*
X600000Y-14400000D01*
X-5344880Y-18800000D02*
X-4744880Y-19400000D01*
X-4350000Y-14250000D02*
X-3450000Y-14250000D01*
X1700000Y-3900000D02*
X1300000Y-3500000D01*
X-4100000Y-4200000D02*
X-4600000Y-4700000D01*
X750000Y-16350000D02*
X750000Y-14550000D01*
X1300000Y-2200000D02*
X3500000Y0D01*
X-5150000Y-16250000D02*
X-5344880Y-16444880D01*
X-6619480Y-24780520D02*
X-3700000Y-27700000D01*
X-3450000Y-14250000D02*
X-3371089Y-14171089D01*
X1700000Y-4200000D02*
X1700000Y-3900000D01*
X650000Y-4200000D02*
X1700000Y-4200000D01*
D28*
X5400000Y-18300000D02*
X5400000Y-20350000D01*
X4604320Y-22595680D02*
X4604320Y-20395680D01*
D27*
X-1441782Y-9883711D02*
X-1612746Y-9712746D01*
X-2750000Y-8566289D02*
X-2900000Y-8716289D01*
X-2283711Y-12216289D02*
X-1500000Y-13000000D01*
X-2458218Y-8716289D02*
X-2900000Y-8716289D01*
D28*
X-2900000Y-8716289D02*
X-3283711Y-8716289D01*
D27*
X-2283711Y-10383711D02*
X-2283711Y-12216289D01*
X250000Y-9250000D02*
X-324507Y-9250000D01*
D28*
X6064550Y-9564550D02*
X6064550Y-17635450D01*
D27*
X-3250000Y-14750000D02*
X-2850000Y-15150000D01*
X-2850000Y-15150000D02*
X-2750000Y-15250000D01*
X-2750000Y-15250000D02*
X-2750000Y-16350000D01*
D28*
X3815000Y-7315000D02*
X3815000Y-5015000D01*
X-4600000Y-7750000D02*
X-3550000Y-7750000D01*
D27*
X5750000Y-9250000D02*
X5800000Y-9300000D01*
X-1612746Y-9712746D02*
X-2283711Y-10383711D01*
D28*
X-3550000Y-7750000D02*
X-3500000Y-7800000D01*
D27*
X-4350000Y-14750000D02*
X-3250000Y-14750000D01*
X1250000Y-16350000D02*
X1250000Y-13950000D01*
D28*
X4650000Y-20350000D02*
X5400000Y-20350000D01*
D27*
X4350000Y-9250000D02*
X250000Y-9250000D01*
X-2750000Y-16350000D02*
X-2750000Y-17250000D01*
X4350000Y-9250000D02*
X5750000Y-9250000D01*
D28*
X5800000Y-9300000D02*
X3815000Y-7315000D01*
X5800000Y-9300000D02*
X6064550Y-9564550D01*
D27*
X-1500000Y-13800000D02*
X-2850000Y-15150000D01*
X-958218Y-9883711D02*
X-1441782Y-9883711D01*
X-3450000Y-17950000D02*
X-4600000Y-17950000D01*
X-2750000Y-17250000D02*
X-3450000Y-17950000D01*
X250000Y-12950000D02*
X250000Y-9250000D01*
D28*
X3900000Y-20350000D02*
X4650000Y-20350000D01*
D27*
X-1783711Y-9390796D02*
X-2458218Y-8716289D01*
D28*
X-3283711Y-8716289D02*
X-3500000Y-8500000D01*
X4100000Y-23100000D02*
X4604320Y-22595680D01*
D27*
X-1783711Y-9541782D02*
X-1783711Y-9390796D01*
X-1500000Y-13000000D02*
X-1500000Y-13800000D01*
X-1612746Y-9712746D02*
X-1783711Y-9541782D01*
X1250000Y-13950000D02*
X250000Y-12950000D01*
D28*
X3815000Y-5015000D02*
X2300000Y-3500000D01*
D27*
X-324507Y-9250000D02*
X-958218Y-9883711D01*
X-2750000Y-7650000D02*
X-2750000Y-8566289D01*
D28*
X-3500000Y-8500000D02*
X-3500000Y-7800000D01*
X6064550Y-17635450D02*
X5400000Y-18300000D01*
X5300000Y-5015000D02*
X3815000Y-5015000D01*
X4604320Y-20395680D02*
X4650000Y-20350000D01*
D27*
X-750000Y-20650000D02*
X-1100000Y-21000000D01*
X-750000Y-16350000D02*
X-750000Y-20650000D01*
X-1850000Y-21000000D02*
X-1900000Y-20950000D01*
D28*
X-2850000Y-20950000D02*
X-3400000Y-20400000D01*
X-1900000Y-20950000D02*
X-2850000Y-20950000D01*
D27*
X-1100000Y-21000000D02*
X-1850000Y-21000000D01*
X-250000Y-18650000D02*
X-50000Y-18850000D01*
D28*
X1650000Y-18850000D02*
X2200000Y-19400000D01*
X700000Y-18850000D02*
X1650000Y-18850000D01*
D27*
X-50000Y-18850000D02*
X700000Y-18850000D01*
X-250000Y-16350000D02*
X-250000Y-18650000D01*
X2800000Y-19178920D02*
X2800000Y-23142178D01*
X0Y-28300000D02*
X0Y-28850000D01*
X-678920Y-27621080D02*
X0Y-28300000D01*
X5328911Y-16650009D02*
X2800000Y-19178920D01*
X2800000Y-23142178D02*
X-678920Y-26621098D01*
X5250000Y-11750000D02*
X5328911Y-11828911D01*
X-678920Y-26621098D02*
X-678920Y-27621080D01*
X4350000Y-11750000D02*
X5250000Y-11750000D01*
X5328911Y-11828911D02*
X5328911Y-16650009D01*
X3510240Y-23710240D02*
X3968062Y-23710240D01*
X3900000Y-25700000D02*
X900000Y-25700000D01*
X900000Y-25700000D02*
X0Y-26600000D01*
X3968062Y-23710240D02*
X4178911Y-23921089D01*
X3510240Y-22389760D02*
X3510240Y-23710240D01*
X0Y-26600000D02*
X0Y-27150000D01*
X4178911Y-23921089D02*
X4178911Y-25421089D01*
X3900000Y-22050000D02*
X3850000Y-22050000D01*
X4178911Y-25421089D02*
X3900000Y-25700000D01*
X3850000Y-22050000D02*
X3510240Y-22389760D01*
D28*
X275000Y-1525000D02*
X400000Y-1400000D01*
X275000Y-2575000D02*
X275000Y-1525000D01*
D27*
X275000Y-3412500D02*
X275000Y-2575000D01*
D28*
X-275000Y-1213586D02*
X-275000Y-2575000D01*
X938586Y0D02*
X-275000Y-1213586D01*
X1000000Y0D02*
X938586Y0D01*
D27*
X-275000Y-3412500D02*
X-275000Y-2575000D01*
X-6055120Y-13455120D02*
X-6000000Y-13400000D01*
X-4300000Y-24932500D02*
X-4300000Y-22602216D01*
X-4300000Y-22602216D02*
X-6055120Y-20847095D01*
X-6055120Y-20847095D02*
X-6055120Y-13455120D01*
X-5700000Y-14100000D02*
X-5700000Y-20700000D01*
X-5416289Y-13816289D02*
X-5700000Y-14100000D01*
X-3300000Y-23100000D02*
X-3300000Y-24932500D01*
X-5416289Y-10683711D02*
X-5416289Y-13816289D01*
X-5600000Y-10500000D02*
X-5416289Y-10683711D01*
X-5700000Y-20700000D02*
X-3300000Y-23100000D01*
X-1144880Y-11855120D02*
X-1700000Y-11300000D01*
X-1144880Y-13157336D02*
X-1144880Y-11855120D01*
X250000Y-16350000D02*
X250000Y-14552216D01*
X250000Y-14552216D02*
X-1144880Y-13157336D01*
X-4350000Y-9250000D02*
X-2750000Y-9250000D01*
X-2750000Y-9250000D02*
X-2700000Y-9300000D01*
X-1750000Y-8750000D02*
X-1200000Y-9300000D01*
X-1750000Y-7650000D02*
X-1750000Y-8750000D01*
X5252216Y-11250000D02*
X4350000Y-11250000D01*
X3155120Y-19326016D02*
X5684031Y-16797105D01*
X5684031Y-16797105D02*
X5684031Y-11681815D01*
X3100000Y-24700000D02*
X3155120Y-24644880D01*
X5684031Y-11681815D02*
X5252216Y-11250000D01*
X3155120Y-24644880D02*
X3155120Y-19326016D01*
X275000Y-5772600D02*
X275000Y-4987500D01*
X-750000Y-6797600D02*
X275000Y-5772600D01*
X-750000Y-7650000D02*
X-750000Y-6797600D01*
X-275000Y-5820385D02*
X-275000Y-4987500D01*
X-1250000Y-7650000D02*
X-1250000Y-6795384D01*
X-1250000Y-6795384D02*
X-275000Y-5820385D01*
X2750000Y-16350000D02*
X2750000Y-17150000D01*
X2750000Y-17150000D02*
X2100000Y-17800000D01*
X3400000Y-15500000D02*
X4100000Y-16200000D01*
X4350000Y-14750000D02*
X3450000Y-14750000D01*
X3450000Y-14750000D02*
X3400000Y-14800000D01*
X3400000Y-14800000D02*
X3400000Y-15500000D01*
X2050000Y-12250000D02*
X1300000Y-13000000D01*
X4350000Y-12250000D02*
X2050000Y-12250000D01*
G04 #@! TA.AperFunction,Conductor*
G36*
X6624257Y-17706640D02*
G01*
X6676579Y-17754629D01*
X6694700Y-17819730D01*
X6694700Y-28962264D01*
X6692786Y-28984142D01*
X6689990Y-29000000D01*
X6691904Y-29010855D01*
X6691904Y-29021879D01*
X6690865Y-29021879D01*
X6691317Y-29034345D01*
X6682568Y-29123179D01*
X6677749Y-29147405D01*
X6645422Y-29253973D01*
X6635970Y-29276793D01*
X6583472Y-29375010D01*
X6569749Y-29395548D01*
X6499099Y-29481634D01*
X6481634Y-29499099D01*
X6395548Y-29569749D01*
X6375010Y-29583472D01*
X6276793Y-29635970D01*
X6253973Y-29645422D01*
X6147405Y-29677749D01*
X6123179Y-29682568D01*
X6034345Y-29691317D01*
X6021879Y-29690865D01*
X6021879Y-29691904D01*
X6010855Y-29691904D01*
X6000000Y-29689990D01*
X5984142Y-29692786D01*
X5962264Y-29694700D01*
X4534000Y-29694700D01*
X4465879Y-29674698D01*
X4419386Y-29621042D01*
X4408000Y-29568700D01*
X4408000Y-29372115D01*
X4403525Y-29356876D01*
X4402135Y-29355671D01*
X4394452Y-29354000D01*
X1810116Y-29354000D01*
X1794877Y-29358475D01*
X1793672Y-29359865D01*
X1792001Y-29367548D01*
X1792001Y-29568700D01*
X1771999Y-29636821D01*
X1718343Y-29683314D01*
X1666001Y-29694700D01*
X627335Y-29694700D01*
X559214Y-29674698D01*
X512721Y-29621042D01*
X502617Y-29550768D01*
X532111Y-29486188D01*
X551768Y-29467875D01*
X560975Y-29460975D01*
X625403Y-29375010D01*
X642398Y-29352334D01*
X642400Y-29352331D01*
X647780Y-29345152D01*
X674404Y-29274132D01*
X695815Y-29217017D01*
X695815Y-29217015D01*
X698587Y-29209622D01*
X705300Y-29147829D01*
X705299Y-28827885D01*
X1792000Y-28827885D01*
X1796475Y-28843124D01*
X1797865Y-28844329D01*
X1805548Y-28846000D01*
X2827885Y-28846000D01*
X2843124Y-28841525D01*
X2844329Y-28840135D01*
X2846000Y-28832452D01*
X2846000Y-28827885D01*
X3354000Y-28827885D01*
X3358475Y-28843124D01*
X3359865Y-28844329D01*
X3367548Y-28846000D01*
X4389884Y-28846000D01*
X4405123Y-28841525D01*
X4406328Y-28840135D01*
X4407999Y-28832452D01*
X4407999Y-28555331D01*
X4407629Y-28548510D01*
X4402105Y-28497648D01*
X4398479Y-28482396D01*
X4353324Y-28361946D01*
X4344786Y-28346351D01*
X4268285Y-28244276D01*
X4255724Y-28231715D01*
X4153649Y-28155214D01*
X4138054Y-28146676D01*
X4017606Y-28101522D01*
X4002351Y-28097895D01*
X3951486Y-28092369D01*
X3944672Y-28092000D01*
X3372115Y-28092000D01*
X3356876Y-28096475D01*
X3355671Y-28097865D01*
X3354000Y-28105548D01*
X3354000Y-28827885D01*
X2846000Y-28827885D01*
X2846000Y-28110116D01*
X2841525Y-28094877D01*
X2840135Y-28093672D01*
X2832452Y-28092001D01*
X2255331Y-28092001D01*
X2248510Y-28092371D01*
X2197648Y-28097895D01*
X2182396Y-28101521D01*
X2061946Y-28146676D01*
X2046351Y-28155214D01*
X1944276Y-28231715D01*
X1931715Y-28244276D01*
X1855214Y-28346351D01*
X1846676Y-28361946D01*
X1801522Y-28482394D01*
X1797895Y-28497649D01*
X1792369Y-28548514D01*
X1792000Y-28555328D01*
X1792000Y-28827885D01*
X705299Y-28827885D01*
X705299Y-28552172D01*
X704902Y-28548514D01*
X699441Y-28498236D01*
X699440Y-28498232D01*
X698587Y-28490378D01*
X647780Y-28354848D01*
X642400Y-28347669D01*
X642398Y-28347666D01*
X566357Y-28246206D01*
X560975Y-28239025D01*
X553794Y-28233643D01*
X452334Y-28157602D01*
X452331Y-28157600D01*
X445152Y-28152220D01*
X376359Y-28126431D01*
X319594Y-28083790D01*
X319003Y-28082939D01*
X316440Y-28077602D01*
X312830Y-28073308D01*
X311851Y-28072329D01*
X307035Y-28064871D01*
X309516Y-28063269D01*
X286584Y-28011013D01*
X297731Y-27940897D01*
X345016Y-27887938D01*
X367316Y-27876959D01*
X445152Y-27847780D01*
X452331Y-27842400D01*
X452334Y-27842398D01*
X553794Y-27766357D01*
X560975Y-27760975D01*
X625521Y-27674852D01*
X642398Y-27652334D01*
X642400Y-27652331D01*
X647780Y-27645152D01*
X672071Y-27580355D01*
X695815Y-27517017D01*
X695815Y-27517015D01*
X698587Y-27509622D01*
X699628Y-27500045D01*
X704931Y-27451226D01*
X704931Y-27451225D01*
X705300Y-27447829D01*
X705299Y-26852172D01*
X704930Y-26848772D01*
X699441Y-26798236D01*
X699440Y-26798232D01*
X698587Y-26790378D01*
X647780Y-26654848D01*
X642398Y-26647666D01*
X638086Y-26639791D01*
X639648Y-26638936D01*
X618572Y-26582516D01*
X633630Y-26513135D01*
X655152Y-26484370D01*
X826469Y-26313054D01*
X1021119Y-26118404D01*
X1083431Y-26084379D01*
X1110214Y-26081500D01*
X1783998Y-26081500D01*
X1852119Y-26101502D01*
X1898612Y-26155158D01*
X1908716Y-26225432D01*
X1879222Y-26290012D01*
X1855365Y-26311340D01*
X1758399Y-26377983D01*
X1746805Y-26385951D01*
X1637269Y-26508892D01*
X1633713Y-26515608D01*
X1572240Y-26631711D01*
X1560220Y-26654412D01*
X1520107Y-26814110D01*
X1520067Y-26821709D01*
X1520067Y-26821711D01*
X1519908Y-26852172D01*
X1519245Y-26978766D01*
X1557683Y-27138875D01*
X1633204Y-27285194D01*
X1638196Y-27290916D01*
X1638197Y-27290918D01*
X1736452Y-27403550D01*
X1736456Y-27403553D01*
X1741447Y-27409275D01*
X1747657Y-27413640D01*
X1747661Y-27413643D01*
X1869945Y-27499586D01*
X1869947Y-27499587D01*
X1876162Y-27503955D01*
X2029574Y-27563767D01*
X2155156Y-27580300D01*
X2241292Y-27580300D01*
X2320395Y-27570727D01*
X2355923Y-27566428D01*
X2355924Y-27566428D01*
X2363466Y-27565515D01*
X2509990Y-27510149D01*
X2510390Y-27509998D01*
X2510392Y-27509997D01*
X2517495Y-27507313D01*
X2653195Y-27414049D01*
X2762731Y-27291108D01*
X2839780Y-27145588D01*
X2879893Y-26985890D01*
X2880755Y-26821234D01*
X2875234Y-26798236D01*
X2844089Y-26668504D01*
X2844088Y-26668500D01*
X2842317Y-26661125D01*
X2792797Y-26565182D01*
X2770279Y-26521554D01*
X2770279Y-26521553D01*
X2766796Y-26514806D01*
X2756629Y-26503151D01*
X2663548Y-26396450D01*
X2663544Y-26396447D01*
X2658553Y-26390725D01*
X2652343Y-26386360D01*
X2652339Y-26386357D01*
X2544529Y-26310587D01*
X2500297Y-26255052D01*
X2493112Y-26184420D01*
X2525254Y-26121116D01*
X2586518Y-26085238D01*
X2616980Y-26081500D01*
X3583998Y-26081500D01*
X3652119Y-26101502D01*
X3698612Y-26155158D01*
X3708716Y-26225432D01*
X3679222Y-26290012D01*
X3655365Y-26311340D01*
X3558399Y-26377983D01*
X3546805Y-26385951D01*
X3437269Y-26508892D01*
X3433713Y-26515608D01*
X3372240Y-26631711D01*
X3360220Y-26654412D01*
X3320107Y-26814110D01*
X3320067Y-26821709D01*
X3320067Y-26821711D01*
X3319908Y-26852172D01*
X3319245Y-26978766D01*
X3357683Y-27138875D01*
X3433204Y-27285194D01*
X3438196Y-27290916D01*
X3438197Y-27290918D01*
X3536452Y-27403550D01*
X3536456Y-27403553D01*
X3541447Y-27409275D01*
X3547657Y-27413640D01*
X3547661Y-27413643D01*
X3669945Y-27499586D01*
X3669947Y-27499587D01*
X3676162Y-27503955D01*
X3829574Y-27563767D01*
X3955156Y-27580300D01*
X4041292Y-27580300D01*
X4120395Y-27570727D01*
X4155923Y-27566428D01*
X4155924Y-27566428D01*
X4163466Y-27565515D01*
X4309990Y-27510149D01*
X4310390Y-27509998D01*
X4310392Y-27509997D01*
X4317495Y-27507313D01*
X4453195Y-27414049D01*
X4562731Y-27291108D01*
X4639780Y-27145588D01*
X4679893Y-26985890D01*
X4680755Y-26821234D01*
X4675234Y-26798236D01*
X4644089Y-26668504D01*
X4644088Y-26668500D01*
X4642317Y-26661125D01*
X4592797Y-26565182D01*
X4570279Y-26521554D01*
X4570279Y-26521553D01*
X4566796Y-26514806D01*
X4556629Y-26503151D01*
X4463548Y-26396450D01*
X4463544Y-26396447D01*
X4458553Y-26390725D01*
X4452343Y-26386360D01*
X4452339Y-26386357D01*
X4330055Y-26300414D01*
X4330053Y-26300413D01*
X4323838Y-26296045D01*
X4170426Y-26236233D01*
X4167470Y-26235844D01*
X4108158Y-26200537D01*
X4076469Y-26137005D01*
X4084159Y-26066426D01*
X4124156Y-26018531D01*
X4122398Y-26016440D01*
X4124606Y-26014584D01*
X4124610Y-26014581D01*
X4126692Y-26012830D01*
X4128621Y-26010901D01*
X4130573Y-26009111D01*
X4130626Y-26009082D01*
X4130745Y-26009212D01*
X4131313Y-26008711D01*
X4137057Y-26005612D01*
X4173868Y-25965790D01*
X4177297Y-25962225D01*
X4410387Y-25729135D01*
X4429410Y-25713771D01*
X4430469Y-25712807D01*
X4439215Y-25707160D01*
X4445663Y-25698981D01*
X4445665Y-25698979D01*
X4460145Y-25680612D01*
X4464120Y-25676139D01*
X4464048Y-25676078D01*
X4467401Y-25672121D01*
X4471082Y-25668440D01*
X4482366Y-25652649D01*
X4485930Y-25647903D01*
X4511398Y-25615597D01*
X4517845Y-25607419D01*
X4520895Y-25598734D01*
X4526246Y-25591246D01*
X4541026Y-25541823D01*
X4542838Y-25536249D01*
X4559927Y-25487587D01*
X4560411Y-25481998D01*
X4560411Y-25479287D01*
X4560526Y-25476620D01*
X4560545Y-25476557D01*
X4560719Y-25476564D01*
X4560766Y-25475818D01*
X4562636Y-25469565D01*
X4560508Y-25415401D01*
X4560411Y-25410455D01*
X4560411Y-23975229D01*
X4562998Y-23950913D01*
X4563065Y-23949490D01*
X4565257Y-23939309D01*
X4561284Y-23905741D01*
X4560932Y-23899767D01*
X4560839Y-23899775D01*
X4560411Y-23894597D01*
X4560411Y-23889397D01*
X4559557Y-23884265D01*
X4557225Y-23870254D01*
X4556388Y-23864375D01*
X4551553Y-23823522D01*
X4551553Y-23823521D01*
X4550329Y-23813182D01*
X4546344Y-23804883D01*
X4544833Y-23795806D01*
X4520367Y-23750463D01*
X4517671Y-23745172D01*
X4498783Y-23705837D01*
X4495352Y-23698692D01*
X4495352Y-23698691D01*
X4496422Y-23698177D01*
X4478463Y-23637488D01*
X4498322Y-23569326D01*
X4522632Y-23541413D01*
X4546608Y-23520935D01*
X4546611Y-23520931D01*
X4552391Y-23515995D01*
X4638561Y-23396077D01*
X4693640Y-23259065D01*
X4714446Y-23112871D01*
X4714489Y-23108747D01*
X4714802Y-23104635D01*
X4716607Y-23104772D01*
X4735200Y-23043912D01*
X4751355Y-23024088D01*
X4790818Y-22984625D01*
X4853130Y-22950599D01*
X4917592Y-22953486D01*
X5063644Y-22999256D01*
X5076694Y-23001869D01*
X5131586Y-23006913D01*
X5143124Y-23003525D01*
X5144329Y-23002135D01*
X5146000Y-22994452D01*
X5146000Y-22989884D01*
X5654000Y-22989884D01*
X5658475Y-23005123D01*
X5659865Y-23006328D01*
X5664294Y-23007291D01*
X5723315Y-23001868D01*
X5736351Y-22999257D01*
X5886243Y-22952285D01*
X5899988Y-22946079D01*
X6033574Y-22865176D01*
X6045443Y-22855869D01*
X6155869Y-22745443D01*
X6165176Y-22733574D01*
X6246079Y-22599988D01*
X6252285Y-22586243D01*
X6299256Y-22436356D01*
X6301869Y-22423306D01*
X6307734Y-22359479D01*
X6308000Y-22353691D01*
X6308000Y-22322115D01*
X6303525Y-22306876D01*
X6302135Y-22305671D01*
X6294452Y-22304000D01*
X5672115Y-22304000D01*
X5656876Y-22308475D01*
X5655671Y-22309865D01*
X5654000Y-22317548D01*
X5654000Y-22989884D01*
X5146000Y-22989884D01*
X5146000Y-21922000D01*
X5166002Y-21853879D01*
X5219658Y-21807386D01*
X5272000Y-21796000D01*
X6289884Y-21796000D01*
X6305123Y-21791525D01*
X6306328Y-21790135D01*
X6307999Y-21782452D01*
X6307999Y-21746295D01*
X6307736Y-21740546D01*
X6301868Y-21676685D01*
X6299257Y-21663649D01*
X6252285Y-21513757D01*
X6246079Y-21500012D01*
X6165176Y-21366426D01*
X6155869Y-21354557D01*
X6045443Y-21244131D01*
X6033571Y-21234821D01*
X5950966Y-21184794D01*
X5903059Y-21132396D01*
X5891086Y-21062417D01*
X5918847Y-20997073D01*
X5940670Y-20976194D01*
X5953792Y-20966359D01*
X5953794Y-20966357D01*
X5960975Y-20960975D01*
X6006024Y-20900867D01*
X6042398Y-20852334D01*
X6042400Y-20852331D01*
X6047780Y-20845152D01*
X6076081Y-20769658D01*
X6095815Y-20717017D01*
X6095815Y-20717015D01*
X6098587Y-20709622D01*
X6105300Y-20647829D01*
X6105299Y-20052172D01*
X6104930Y-20048772D01*
X6099441Y-19998236D01*
X6099440Y-19998232D01*
X6098587Y-19990378D01*
X6047780Y-19854848D01*
X6042400Y-19847669D01*
X6042398Y-19847666D01*
X5966357Y-19746206D01*
X5960975Y-19739025D01*
X5857334Y-19661350D01*
X5814820Y-19604492D01*
X5806900Y-19560525D01*
X5806900Y-18520733D01*
X5826902Y-18452612D01*
X5843805Y-18431638D01*
X6397842Y-17877601D01*
X6408060Y-17857546D01*
X6418390Y-17840691D01*
X6425789Y-17830507D01*
X6431620Y-17822482D01*
X6434743Y-17812871D01*
X6438578Y-17801070D01*
X6446142Y-17782808D01*
X6456358Y-17762757D01*
X6459954Y-17764589D01*
X6488909Y-17722214D01*
X6554297Y-17694556D01*
X6624257Y-17706640D01*
G37*
G04 #@! TD.AperFunction*
G04 #@! TA.AperFunction,Conductor*
G36*
X-6486188Y-13777926D02*
G01*
X-6473317Y-13790821D01*
X-6469469Y-13795279D01*
X-6466205Y-13800137D01*
X-6437868Y-13862502D01*
X-6436620Y-13880194D01*
X-6436620Y-20792960D01*
X-6439206Y-20817259D01*
X-6439274Y-20818697D01*
X-6441465Y-20828875D01*
X-6438689Y-20852334D01*
X-6437493Y-20862437D01*
X-6437141Y-20868415D01*
X-6437048Y-20868407D01*
X-6436620Y-20873585D01*
X-6436620Y-20878787D01*
X-6435766Y-20883917D01*
X-6433434Y-20897927D01*
X-6432598Y-20903799D01*
X-6426538Y-20955002D01*
X-6422553Y-20963301D01*
X-6421042Y-20972378D01*
X-6396562Y-21017746D01*
X-6393881Y-21023009D01*
X-6374993Y-21062345D01*
X-6374990Y-21062349D01*
X-6371560Y-21069493D01*
X-6367950Y-21073787D01*
X-6366018Y-21075719D01*
X-6364231Y-21077668D01*
X-6364202Y-21077721D01*
X-6364332Y-21077840D01*
X-6363831Y-21078408D01*
X-6360732Y-21084152D01*
X-6353087Y-21091219D01*
X-6320925Y-21120949D01*
X-6317358Y-21124379D01*
X-4718404Y-22723335D01*
X-4684379Y-22785647D01*
X-4681500Y-22812430D01*
X-4681500Y-23777693D01*
X-4701502Y-23845814D01*
X-4756353Y-23892845D01*
X-4765289Y-23896814D01*
X-4765291Y-23896815D01*
X-4775919Y-23901536D01*
X-4803305Y-23928970D01*
X-4848052Y-23973795D01*
X-4848053Y-23973797D01*
X-4856270Y-23982028D01*
X-4902258Y-24086049D01*
X-4905300Y-24112142D01*
X-4905300Y-25752858D01*
X-4904004Y-25763752D01*
X-4903315Y-25769540D01*
X-4902133Y-25779478D01*
X-4855964Y-25883419D01*
X-4815814Y-25923498D01*
X-4783705Y-25955552D01*
X-4783703Y-25955553D01*
X-4775472Y-25963770D01*
X-4671451Y-26009758D01*
X-4645358Y-26012800D01*
X-3954642Y-26012800D01*
X-3943748Y-26011504D01*
X-3937407Y-26010750D01*
X-3937404Y-26010749D01*
X-3928022Y-26009633D01*
X-3851207Y-25975513D01*
X-3780832Y-25966140D01*
X-3749113Y-25975423D01*
X-3671451Y-26009758D01*
X-3645358Y-26012800D01*
X-2954642Y-26012800D01*
X-2943748Y-26011504D01*
X-2937407Y-26010750D01*
X-2937404Y-26010749D01*
X-2928022Y-26009633D01*
X-2824081Y-25963464D01*
X-2784002Y-25923314D01*
X-2751948Y-25891205D01*
X-2751947Y-25891203D01*
X-2743730Y-25882972D01*
X-2697742Y-25778951D01*
X-2694700Y-25752858D01*
X-2694700Y-24112142D01*
X-2695996Y-24101248D01*
X-2696750Y-24094907D01*
X-2696751Y-24094904D01*
X-2697867Y-24085522D01*
X-2744036Y-23981581D01*
X-2800028Y-23925687D01*
X-2816295Y-23909448D01*
X-2816297Y-23909447D01*
X-2824528Y-23901230D01*
X-2839298Y-23894700D01*
X-2843450Y-23892864D01*
X-2897665Y-23847025D01*
X-2918500Y-23777625D01*
X-2918500Y-23154140D01*
X-2915913Y-23129824D01*
X-2915846Y-23128401D01*
X-2913654Y-23118220D01*
X-2917627Y-23084652D01*
X-2917979Y-23078678D01*
X-2918072Y-23078686D01*
X-2918500Y-23073508D01*
X-2918500Y-23068308D01*
X-2919354Y-23063176D01*
X-2921686Y-23049165D01*
X-2922523Y-23043286D01*
X-2927358Y-23002433D01*
X-2927358Y-23002432D01*
X-2928582Y-22992093D01*
X-2932567Y-22983794D01*
X-2934078Y-22974717D01*
X-2958544Y-22929374D01*
X-2961240Y-22924083D01*
X-2980127Y-22884749D01*
X-2980129Y-22884745D01*
X-2983559Y-22877603D01*
X-2987169Y-22873308D01*
X-2989096Y-22871381D01*
X-2990891Y-22869424D01*
X-2990922Y-22869366D01*
X-2990793Y-22869248D01*
X-2991290Y-22868684D01*
X-2994388Y-22862943D01*
X-3002040Y-22855869D01*
X-3034195Y-22826146D01*
X-3037761Y-22822716D01*
X-5281595Y-20578882D01*
X-5315621Y-20516570D01*
X-5318500Y-20489787D01*
X-5318500Y-18694807D01*
X-5298498Y-18626686D01*
X-5244842Y-18580193D01*
X-5174568Y-18570089D01*
X-5116937Y-18593980D01*
X-5045152Y-18647780D01*
X-5036748Y-18650930D01*
X-5036749Y-18650930D01*
X-4917017Y-18695815D01*
X-4917015Y-18695815D01*
X-4909622Y-18698587D01*
X-4901772Y-18699440D01*
X-4901771Y-18699440D01*
X-4851235Y-18704930D01*
X-4847829Y-18705300D01*
X-4600073Y-18705300D01*
X-4352172Y-18705299D01*
X-4348778Y-18704930D01*
X-4348772Y-18704930D01*
X-4298236Y-18699441D01*
X-4298232Y-18699440D01*
X-4290378Y-18698587D01*
X-4236880Y-18678532D01*
X-4166074Y-18673349D01*
X-4103705Y-18707270D01*
X-4069576Y-18769526D01*
X-4074523Y-18840350D01*
X-4084198Y-18860653D01*
X-4154648Y-18979779D01*
X-4160893Y-18994210D01*
X-4199939Y-19128605D01*
X-4199899Y-19142706D01*
X-4192630Y-19146000D01*
X-3672115Y-19146000D01*
X-3656876Y-19141525D01*
X-3655671Y-19140135D01*
X-3654000Y-19132452D01*
X-3654000Y-18613122D01*
X-3657973Y-18599591D01*
X-3665871Y-18598456D01*
X-3813400Y-18641318D01*
X-3814062Y-18639041D01*
X-3872734Y-18646285D01*
X-3936714Y-18615509D01*
X-3973898Y-18555029D01*
X-3972482Y-18484047D01*
X-3960610Y-18460924D01*
X-3961915Y-18460210D01*
X-3957604Y-18452336D01*
X-3952220Y-18445152D01*
X-3940268Y-18413270D01*
X-3897628Y-18356506D01*
X-3831067Y-18331806D01*
X-3822287Y-18331500D01*
X-3504135Y-18331500D01*
X-3479836Y-18334086D01*
X-3478398Y-18334154D01*
X-3468220Y-18336345D01*
X-3434659Y-18332373D01*
X-3428680Y-18332021D01*
X-3428688Y-18331928D01*
X-3423510Y-18331500D01*
X-3418308Y-18331500D01*
X-3399154Y-18328312D01*
X-3393296Y-18327478D01*
X-3376682Y-18325512D01*
X-3352433Y-18322642D01*
X-3352432Y-18322642D01*
X-3342093Y-18321418D01*
X-3333794Y-18317433D01*
X-3324717Y-18315922D01*
X-3279349Y-18291442D01*
X-3274090Y-18288763D01*
X-3269283Y-18286454D01*
X-3263544Y-18283699D01*
X-3193479Y-18272241D01*
X-3128341Y-18300481D01*
X-3088812Y-18359455D01*
X-3083000Y-18397281D01*
X-3083000Y-18491775D01*
X-3103002Y-18559896D01*
X-3140578Y-18597579D01*
X-3141970Y-18598479D01*
X-3146000Y-18607370D01*
X-3146000Y-19528000D01*
X-3166002Y-19596121D01*
X-3219658Y-19642614D01*
X-3272000Y-19654000D01*
X-4186878Y-19654000D01*
X-4200409Y-19657973D01*
X-4201544Y-19665871D01*
X-4160893Y-19805790D01*
X-4154648Y-19820221D01*
X-4078089Y-19949678D01*
X-4068449Y-19962104D01*
X-4023134Y-20007419D01*
X-3989108Y-20069731D01*
X-3993347Y-20138263D01*
X-3999741Y-20156471D01*
X-4002287Y-20163722D01*
X-4005300Y-20195595D01*
X-4005299Y-20604404D01*
X-4002287Y-20636278D01*
X-3956924Y-20765455D01*
X-3951332Y-20773025D01*
X-3951331Y-20773028D01*
X-3898058Y-20845152D01*
X-3875582Y-20875582D01*
X-3868011Y-20881174D01*
X-3773028Y-20951331D01*
X-3773025Y-20951332D01*
X-3765455Y-20956924D01*
X-3636278Y-21002287D01*
X-3628632Y-21003010D01*
X-3628631Y-21003010D01*
X-3622909Y-21003551D01*
X-3604405Y-21005300D01*
X-3591816Y-21005300D01*
X-3422335Y-21005299D01*
X-3354215Y-21025301D01*
X-3333240Y-21042203D01*
X-3190650Y-21184794D01*
X-3115079Y-21260365D01*
X-3115064Y-21260379D01*
X-3092151Y-21283292D01*
X-3072093Y-21293512D01*
X-3055241Y-21303840D01*
X-3037032Y-21317069D01*
X-3023191Y-21321566D01*
X-3015632Y-21324022D01*
X-2997367Y-21331587D01*
X-2977306Y-21341809D01*
X-2967514Y-21343360D01*
X-2967360Y-21343410D01*
X-2908756Y-21383486D01*
X-2881121Y-21448883D01*
X-2880300Y-21463242D01*
X-2880300Y-21595358D01*
X-2879571Y-21601486D01*
X-2878315Y-21612040D01*
X-2877133Y-21621978D01*
X-2830964Y-21725919D01*
X-2816311Y-21740546D01*
X-2758705Y-21798052D01*
X-2758703Y-21798053D01*
X-2750472Y-21806270D01*
X-2646451Y-21852258D01*
X-2620358Y-21855300D01*
X-1179642Y-21855300D01*
X-1168748Y-21854004D01*
X-1162407Y-21853250D01*
X-1162404Y-21853249D01*
X-1153022Y-21852133D01*
X-1049081Y-21805964D01*
X-1009002Y-21765814D01*
X-976948Y-21733705D01*
X-976947Y-21733703D01*
X-968730Y-21725472D01*
X-922742Y-21621451D01*
X-919700Y-21595358D01*
X-919700Y-21410514D01*
X-899698Y-21342393D01*
X-877117Y-21316726D01*
X-877397Y-21316421D01*
X-875394Y-21314584D01*
X-873308Y-21312830D01*
X-871378Y-21310900D01*
X-869427Y-21309111D01*
X-869374Y-21309082D01*
X-869255Y-21309212D01*
X-868687Y-21308711D01*
X-862943Y-21305612D01*
X-826132Y-21265790D01*
X-822703Y-21262225D01*
X-698095Y-21137617D01*
X-635783Y-21103591D01*
X-564968Y-21108656D01*
X-508132Y-21151203D01*
X-483321Y-21217723D01*
X-483000Y-21226712D01*
X-482999Y-21594668D01*
X-482629Y-21601490D01*
X-477105Y-21652352D01*
X-473479Y-21667604D01*
X-428324Y-21788054D01*
X-419786Y-21803649D01*
X-343285Y-21905724D01*
X-330724Y-21918285D01*
X-228649Y-21994786D01*
X-213054Y-22003324D01*
X-92606Y-22048478D01*
X-77351Y-22052105D01*
X-26486Y-22057631D01*
X-19672Y-22058000D01*
X427885Y-22058000D01*
X443124Y-22053525D01*
X444329Y-22052135D01*
X446000Y-22044452D01*
X446000Y-20822000D01*
X466002Y-20753879D01*
X519658Y-20707386D01*
X572000Y-20696000D01*
X828000Y-20696000D01*
X896121Y-20716002D01*
X942614Y-20769658D01*
X954000Y-20822000D01*
X954000Y-22039884D01*
X958475Y-22055123D01*
X959865Y-22056328D01*
X967548Y-22057999D01*
X1419669Y-22057999D01*
X1426490Y-22057629D01*
X1477352Y-22052105D01*
X1492604Y-22048479D01*
X1613054Y-22003324D01*
X1628649Y-21994786D01*
X1730724Y-21918285D01*
X1743285Y-21905724D01*
X1819786Y-21803649D01*
X1828324Y-21788054D01*
X1873478Y-21667606D01*
X1877105Y-21652351D01*
X1882631Y-21601486D01*
X1883000Y-21594672D01*
X1883000Y-21308225D01*
X1903002Y-21240104D01*
X1940578Y-21202421D01*
X1941970Y-21201521D01*
X1946000Y-21192630D01*
X1946000Y-20272000D01*
X1966002Y-20203879D01*
X2019658Y-20157386D01*
X2072000Y-20146000D01*
X2292500Y-20146000D01*
X2360621Y-20166002D01*
X2407114Y-20219658D01*
X2418500Y-20272000D01*
X2418500Y-22931965D01*
X2398498Y-23000086D01*
X2381595Y-23021060D01*
X-910399Y-26313054D01*
X-929415Y-26328413D01*
X-930476Y-26329379D01*
X-939224Y-26335027D01*
X-945670Y-26343204D01*
X-960149Y-26361570D01*
X-964126Y-26366045D01*
X-964055Y-26366106D01*
X-967408Y-26370063D01*
X-971091Y-26373746D01*
X-974117Y-26377981D01*
X-974119Y-26377983D01*
X-982373Y-26389534D01*
X-985936Y-26394280D01*
X-1017854Y-26434768D01*
X-1020905Y-26443455D01*
X-1026254Y-26450941D01*
X-1029237Y-26460917D01*
X-1029238Y-26460918D01*
X-1041018Y-26500309D01*
X-1042848Y-26505941D01*
X-1059936Y-26554600D01*
X-1060420Y-26560189D01*
X-1060420Y-26562900D01*
X-1060535Y-26565567D01*
X-1060554Y-26565630D01*
X-1060728Y-26565623D01*
X-1060775Y-26566369D01*
X-1062645Y-26572622D01*
X-1062236Y-26583025D01*
X-1060517Y-26626763D01*
X-1060420Y-26631711D01*
X-1060420Y-27385431D01*
X-1080422Y-27453552D01*
X-1134078Y-27500045D01*
X-1204352Y-27510149D01*
X-1230650Y-27503413D01*
X-1282394Y-27484015D01*
X-1297649Y-27480388D01*
X-1348514Y-27474862D01*
X-1355328Y-27474493D01*
X-1727885Y-27474493D01*
X-1743124Y-27478968D01*
X-1744329Y-27480358D01*
X-1746000Y-27488041D01*
X-1746000Y-28910493D01*
X-1766002Y-28978614D01*
X-1819658Y-29025107D01*
X-1872000Y-29036493D01*
X-3089884Y-29036493D01*
X-3105123Y-29040968D01*
X-3106328Y-29042358D01*
X-3107999Y-29050041D01*
X-3107999Y-29568700D01*
X-3128001Y-29636821D01*
X-3181657Y-29683314D01*
X-3233999Y-29694700D01*
X-4365999Y-29694700D01*
X-4434120Y-29674698D01*
X-4480613Y-29621042D01*
X-4491999Y-29568700D01*
X-4491999Y-29054608D01*
X-4496474Y-29039369D01*
X-4497864Y-29038164D01*
X-4505547Y-29036493D01*
X-5727999Y-29036493D01*
X-5796120Y-29016491D01*
X-5842613Y-28962835D01*
X-5853999Y-28910493D01*
X-5853999Y-28510378D01*
X-5345999Y-28510378D01*
X-5341524Y-28525617D01*
X-5340134Y-28526822D01*
X-5332451Y-28528493D01*
X-4510115Y-28528493D01*
X-4494876Y-28524018D01*
X-4493671Y-28522628D01*
X-4492000Y-28514945D01*
X-4492000Y-28510378D01*
X-3108000Y-28510378D01*
X-3103525Y-28525617D01*
X-3102135Y-28526822D01*
X-3094452Y-28528493D01*
X-2272115Y-28528493D01*
X-2256876Y-28524018D01*
X-2255671Y-28522628D01*
X-2254000Y-28514945D01*
X-2254000Y-27492609D01*
X-2258475Y-27477370D01*
X-2259865Y-27476165D01*
X-2267548Y-27474494D01*
X-2644669Y-27474494D01*
X-2651490Y-27474864D01*
X-2702352Y-27480388D01*
X-2717604Y-27484014D01*
X-2838054Y-27529169D01*
X-2853649Y-27537707D01*
X-2955724Y-27614208D01*
X-2968285Y-27626769D01*
X-3044786Y-27728844D01*
X-3053324Y-27744439D01*
X-3098478Y-27864887D01*
X-3102105Y-27880142D01*
X-3107631Y-27931007D01*
X-3108000Y-27937821D01*
X-3108000Y-28510378D01*
X-4492000Y-28510378D01*
X-4492000Y-27937824D01*
X-4492370Y-27931003D01*
X-4497894Y-27880141D01*
X-4501520Y-27864889D01*
X-4546675Y-27744439D01*
X-4555213Y-27728844D01*
X-4631714Y-27626769D01*
X-4644275Y-27614208D01*
X-4746350Y-27537707D01*
X-4761945Y-27529169D01*
X-4882393Y-27484015D01*
X-4897648Y-27480388D01*
X-4948513Y-27474862D01*
X-4955327Y-27474493D01*
X-5327884Y-27474493D01*
X-5343123Y-27478968D01*
X-5344328Y-27480358D01*
X-5345999Y-27488041D01*
X-5345999Y-28510378D01*
X-5853999Y-28510378D01*
X-5853999Y-27492609D01*
X-5858474Y-27477370D01*
X-5859864Y-27476165D01*
X-5867547Y-27474494D01*
X-6244668Y-27474494D01*
X-6251489Y-27474864D01*
X-6302351Y-27480388D01*
X-6317603Y-27484014D01*
X-6438053Y-27529169D01*
X-6453648Y-27537707D01*
X-6493135Y-27567301D01*
X-6559642Y-27592149D01*
X-6629024Y-27577096D01*
X-6679254Y-27526922D01*
X-6694700Y-27466475D01*
X-6694700Y-13873150D01*
X-6674698Y-13805029D01*
X-6621042Y-13758536D01*
X-6550768Y-13748432D01*
X-6486188Y-13777926D01*
G37*
G04 #@! TD.AperFunction*
G04 #@! TA.AperFunction,Conductor*
G36*
X-1449057Y-17329001D02*
G01*
X-1396451Y-17352258D01*
X-1370358Y-17355300D01*
X-1257500Y-17355300D01*
X-1189379Y-17375302D01*
X-1142886Y-17428958D01*
X-1131500Y-17481300D01*
X-1131500Y-17616000D01*
X-1151502Y-17684121D01*
X-1205158Y-17730614D01*
X-1257500Y-17742000D01*
X-1627885Y-17742000D01*
X-1643124Y-17746475D01*
X-1644329Y-17747865D01*
X-1646000Y-17755548D01*
X-1646000Y-18978000D01*
X-1666002Y-19046121D01*
X-1719658Y-19092614D01*
X-1772000Y-19104000D01*
X-2028000Y-19104000D01*
X-2096121Y-19083998D01*
X-2142614Y-19030342D01*
X-2154000Y-18978000D01*
X-2154000Y-17760116D01*
X-2158475Y-17744877D01*
X-2159865Y-17743672D01*
X-2167548Y-17742001D01*
X-2392860Y-17742001D01*
X-2460981Y-17721999D01*
X-2507474Y-17668343D01*
X-2517578Y-17598069D01*
X-2489378Y-17536322D01*
X-2489696Y-17536071D01*
X-2488667Y-17534766D01*
X-2488667Y-17534765D01*
X-2468771Y-17509528D01*
X-2464792Y-17505050D01*
X-2464863Y-17504990D01*
X-2461510Y-17501033D01*
X-2457829Y-17497352D01*
X-2446531Y-17481543D01*
X-2442968Y-17476798D01*
X-2432291Y-17463254D01*
X-2411066Y-17436330D01*
X-2408016Y-17427645D01*
X-2402666Y-17420158D01*
X-2402133Y-17418376D01*
X-2354024Y-17370540D01*
X-2293955Y-17355300D01*
X-2129642Y-17355300D01*
X-2118748Y-17354004D01*
X-2112407Y-17353250D01*
X-2112404Y-17353249D01*
X-2103022Y-17352133D01*
X-2094384Y-17348296D01*
X-2094380Y-17348295D01*
X-2051147Y-17329092D01*
X-1980772Y-17319719D01*
X-1949057Y-17329001D01*
X-1896451Y-17352258D01*
X-1870358Y-17355300D01*
X-1629642Y-17355300D01*
X-1618748Y-17354004D01*
X-1612407Y-17353250D01*
X-1612404Y-17353249D01*
X-1603022Y-17352133D01*
X-1594384Y-17348296D01*
X-1594380Y-17348295D01*
X-1551147Y-17329092D01*
X-1480772Y-17319719D01*
X-1449057Y-17329001D01*
G37*
G04 #@! TD.AperFunction*
G04 #@! TA.AperFunction,Conductor*
G36*
X-3392092Y-15151502D02*
G01*
X-3371117Y-15168405D01*
X-3168404Y-15371119D01*
X-3134379Y-15433431D01*
X-3131500Y-15460214D01*
X-3131500Y-17039787D01*
X-3151502Y-17107908D01*
X-3168405Y-17128883D01*
X-3571119Y-17531596D01*
X-3633431Y-17565621D01*
X-3660214Y-17568500D01*
X-3822287Y-17568500D01*
X-3890408Y-17548498D01*
X-3936901Y-17494842D01*
X-3940269Y-17486729D01*
X-3947699Y-17466907D01*
X-3952220Y-17454848D01*
X-4039025Y-17339025D01*
X-4046206Y-17333643D01*
X-4046208Y-17333641D01*
X-4059330Y-17323806D01*
X-4101844Y-17266946D01*
X-4106868Y-17196127D01*
X-4072807Y-17133835D01*
X-4049034Y-17115206D01*
X-3966429Y-17065179D01*
X-3954557Y-17055869D01*
X-3844131Y-16945443D01*
X-3834824Y-16933574D01*
X-3753921Y-16799988D01*
X-3747715Y-16786243D01*
X-3700744Y-16636356D01*
X-3698131Y-16623306D01*
X-3692266Y-16559479D01*
X-3692000Y-16553691D01*
X-3692000Y-16522115D01*
X-3696475Y-16506876D01*
X-3697865Y-16505671D01*
X-3705548Y-16504000D01*
X-4728000Y-16504000D01*
X-4796121Y-16483998D01*
X-4842614Y-16430342D01*
X-4854000Y-16378000D01*
X-4854000Y-16122000D01*
X-4833998Y-16053879D01*
X-4780342Y-16007386D01*
X-4728000Y-15996000D01*
X-3710116Y-15996000D01*
X-3694877Y-15991525D01*
X-3693672Y-15990135D01*
X-3692001Y-15982452D01*
X-3692001Y-15946295D01*
X-3692264Y-15940546D01*
X-3698132Y-15876685D01*
X-3700743Y-15863649D01*
X-3747715Y-15713757D01*
X-3753921Y-15700012D01*
X-3834824Y-15566426D01*
X-3844131Y-15554557D01*
X-3954557Y-15444131D01*
X-3966429Y-15434821D01*
X-4081262Y-15365276D01*
X-4129169Y-15312878D01*
X-4141142Y-15242899D01*
X-4113381Y-15177555D01*
X-4054699Y-15137593D01*
X-4015991Y-15131500D01*
X-3460213Y-15131500D01*
X-3392092Y-15151502D01*
G37*
G04 #@! TD.AperFunction*
G04 #@! TA.AperFunction,Conductor*
G36*
X-3133901Y-9730092D02*
G01*
X-3089143Y-9770818D01*
X-3056015Y-9800962D01*
X-2926242Y-9871423D01*
X-2783408Y-9908895D01*
X-2654599Y-9910918D01*
X-2586801Y-9931987D01*
X-2541157Y-9986366D01*
X-2532157Y-10056790D01*
X-2557629Y-10114909D01*
X-2564941Y-10124184D01*
X-2568917Y-10128658D01*
X-2568846Y-10128719D01*
X-2572199Y-10132676D01*
X-2575882Y-10136359D01*
X-2578908Y-10140594D01*
X-2578910Y-10140596D01*
X-2587164Y-10152147D01*
X-2590729Y-10156896D01*
X-2609514Y-10180725D01*
X-2622645Y-10197381D01*
X-2625696Y-10206068D01*
X-2631045Y-10213554D01*
X-2634028Y-10223530D01*
X-2634029Y-10223531D01*
X-2634762Y-10225982D01*
X-2645115Y-10260603D01*
X-2645809Y-10262922D01*
X-2647639Y-10268554D01*
X-2664727Y-10317213D01*
X-2665211Y-10322802D01*
X-2665211Y-10325513D01*
X-2665326Y-10328180D01*
X-2665345Y-10328243D01*
X-2665519Y-10328236D01*
X-2665566Y-10328982D01*
X-2667436Y-10335235D01*
X-2667027Y-10345639D01*
X-2665308Y-10389389D01*
X-2665211Y-10394336D01*
X-2665211Y-12162154D01*
X-2667797Y-12186453D01*
X-2667865Y-12187891D01*
X-2670056Y-12198069D01*
X-2666853Y-12225131D01*
X-2666084Y-12231631D01*
X-2665732Y-12237609D01*
X-2665639Y-12237601D01*
X-2665211Y-12242779D01*
X-2665211Y-12247981D01*
X-2664357Y-12253111D01*
X-2662025Y-12267121D01*
X-2661188Y-12273000D01*
X-2657949Y-12300365D01*
X-2655129Y-12324196D01*
X-2651144Y-12332495D01*
X-2649633Y-12341572D01*
X-2625153Y-12386940D01*
X-2622472Y-12392203D01*
X-2603584Y-12431539D01*
X-2603581Y-12431543D01*
X-2600151Y-12438687D01*
X-2596541Y-12442981D01*
X-2594609Y-12444913D01*
X-2592822Y-12446862D01*
X-2592793Y-12446915D01*
X-2592923Y-12447034D01*
X-2592422Y-12447602D01*
X-2589323Y-12453346D01*
X-2581678Y-12460413D01*
X-2549502Y-12490156D01*
X-2545936Y-12493586D01*
X-1918405Y-13121117D01*
X-1884379Y-13183429D01*
X-1881500Y-13210212D01*
X-1881500Y-13589787D01*
X-1901502Y-13657908D01*
X-1918405Y-13678882D01*
X-2760905Y-14521382D01*
X-2823217Y-14555408D01*
X-2894032Y-14550343D01*
X-2939095Y-14521382D01*
X-2941957Y-14518520D01*
X-2957316Y-14499504D01*
X-2958280Y-14498444D01*
X-2963929Y-14489696D01*
X-2972104Y-14483252D01*
X-2972106Y-14483249D01*
X-2990472Y-14468771D01*
X-2994947Y-14464794D01*
X-2995008Y-14464865D01*
X-2998965Y-14461512D01*
X-3002648Y-14457829D01*
X-3010754Y-14452036D01*
X-3018436Y-14446547D01*
X-3023185Y-14442982D01*
X-3055493Y-14417512D01*
X-3055494Y-14417511D01*
X-3063670Y-14411066D01*
X-3072357Y-14408015D01*
X-3079843Y-14402666D01*
X-3079885Y-14402653D01*
X-3126764Y-14355499D01*
X-3142000Y-14295439D01*
X-3142001Y-14130331D01*
X-3142371Y-14123510D01*
X-3147895Y-14072648D01*
X-3151521Y-14057396D01*
X-3196676Y-13936946D01*
X-3205214Y-13921351D01*
X-3281715Y-13819276D01*
X-3300626Y-13800365D01*
X-3299707Y-13799446D01*
X-3336781Y-13749862D01*
X-3344700Y-13705897D01*
X-3344700Y-13629642D01*
X-3345996Y-13618748D01*
X-3346750Y-13612407D01*
X-3346751Y-13612404D01*
X-3347867Y-13603022D01*
X-3351704Y-13594384D01*
X-3351705Y-13594380D01*
X-3370908Y-13551147D01*
X-3380281Y-13480772D01*
X-3370999Y-13449057D01*
X-3347742Y-13396451D01*
X-3344700Y-13370358D01*
X-3344700Y-13294103D01*
X-3324698Y-13225982D01*
X-3300396Y-13199865D01*
X-3300626Y-13199635D01*
X-3281715Y-13180724D01*
X-3205214Y-13078649D01*
X-3196676Y-13063054D01*
X-3151522Y-12942606D01*
X-3147895Y-12927351D01*
X-3142369Y-12876486D01*
X-3142000Y-12869672D01*
X-3142001Y-12630331D01*
X-3142371Y-12623510D01*
X-3147895Y-12572648D01*
X-3151521Y-12557396D01*
X-3196676Y-12436946D01*
X-3205214Y-12421351D01*
X-3281715Y-12319276D01*
X-3300626Y-12300365D01*
X-3299707Y-12299446D01*
X-3336781Y-12249862D01*
X-3344700Y-12205897D01*
X-3344700Y-12129642D01*
X-3347867Y-12103022D01*
X-3351704Y-12094384D01*
X-3351705Y-12094380D01*
X-3370908Y-12051147D01*
X-3380281Y-11980772D01*
X-3370999Y-11949057D01*
X-3347742Y-11896451D01*
X-3344700Y-11870358D01*
X-3344700Y-11629642D01*
X-3346301Y-11616185D01*
X-3346750Y-11612407D01*
X-3346751Y-11612404D01*
X-3347867Y-11603022D01*
X-3351704Y-11594384D01*
X-3351705Y-11594380D01*
X-3370908Y-11551147D01*
X-3380281Y-11480772D01*
X-3370999Y-11449057D01*
X-3347742Y-11396451D01*
X-3344700Y-11370358D01*
X-3344700Y-11129642D01*
X-3345996Y-11118748D01*
X-3346750Y-11112407D01*
X-3346751Y-11112404D01*
X-3347867Y-11103022D01*
X-3351704Y-11094384D01*
X-3351705Y-11094380D01*
X-3370908Y-11051147D01*
X-3380281Y-10980772D01*
X-3370999Y-10949057D01*
X-3347742Y-10896451D01*
X-3344700Y-10870358D01*
X-3344700Y-10629642D01*
X-3346399Y-10615362D01*
X-3346750Y-10612407D01*
X-3346751Y-10612404D01*
X-3347867Y-10603022D01*
X-3351704Y-10594384D01*
X-3351705Y-10594380D01*
X-3370908Y-10551147D01*
X-3380281Y-10480772D01*
X-3370999Y-10449057D01*
X-3347742Y-10396451D01*
X-3344700Y-10370358D01*
X-3344700Y-10129642D01*
X-3347867Y-10103022D01*
X-3351704Y-10094384D01*
X-3351705Y-10094380D01*
X-3370908Y-10051147D01*
X-3380281Y-9980772D01*
X-3370999Y-9949057D01*
X-3347742Y-9896451D01*
X-3344700Y-9870358D01*
X-3344700Y-9823286D01*
X-3324698Y-9755165D01*
X-3271042Y-9708672D01*
X-3200768Y-9698568D01*
X-3133901Y-9730092D01*
G37*
G04 #@! TD.AperFunction*
G04 #@! TA.AperFunction,Conductor*
G36*
X-213468Y-9782649D02*
G01*
X-156632Y-9825196D01*
X-131821Y-9891716D01*
X-131500Y-9900705D01*
X-131500Y-12895865D01*
X-134086Y-12920164D01*
X-134154Y-12921602D01*
X-136345Y-12931780D01*
X-134529Y-12947123D01*
X-132373Y-12965342D01*
X-132021Y-12971320D01*
X-131928Y-12971312D01*
X-131500Y-12976490D01*
X-131500Y-12981692D01*
X-128452Y-13000000D01*
X-128314Y-13000832D01*
X-127478Y-13006704D01*
X-121418Y-13057907D01*
X-117433Y-13066206D01*
X-115922Y-13075283D01*
X-91442Y-13120651D01*
X-88761Y-13125914D01*
X-69873Y-13165250D01*
X-69870Y-13165254D01*
X-66440Y-13172398D01*
X-62830Y-13176692D01*
X-60898Y-13178624D01*
X-59111Y-13180573D01*
X-59082Y-13180626D01*
X-59212Y-13180745D01*
X-58711Y-13181313D01*
X-55612Y-13187057D01*
X-47967Y-13194124D01*
X-15791Y-13223867D01*
X-12225Y-13227297D01*
X831595Y-14071117D01*
X865621Y-14133429D01*
X868500Y-14160212D01*
X868500Y-14415577D01*
X848498Y-14483698D01*
X794842Y-14530191D01*
X724568Y-14540295D01*
X659988Y-14510801D01*
X622331Y-14452027D01*
X621418Y-14444309D01*
X617433Y-14436010D01*
X615922Y-14426933D01*
X591442Y-14381565D01*
X588761Y-14376302D01*
X569873Y-14336966D01*
X569870Y-14336962D01*
X566440Y-14329818D01*
X562830Y-14325524D01*
X560898Y-14323592D01*
X559111Y-14321643D01*
X559082Y-14321590D01*
X559212Y-14321471D01*
X558711Y-14320903D01*
X555612Y-14315159D01*
X515791Y-14278349D01*
X512226Y-14274920D01*
X-726475Y-13036218D01*
X-760501Y-12973906D01*
X-763380Y-12947123D01*
X-763380Y-11909255D01*
X-760794Y-11884956D01*
X-760726Y-11883518D01*
X-758535Y-11873340D01*
X-762507Y-11839778D01*
X-762859Y-11833800D01*
X-762952Y-11833808D01*
X-763380Y-11828630D01*
X-763380Y-11823428D01*
X-766568Y-11804274D01*
X-767403Y-11798409D01*
X-772238Y-11757553D01*
X-772238Y-11757552D01*
X-773462Y-11747213D01*
X-777447Y-11738914D01*
X-778958Y-11729837D01*
X-803438Y-11684469D01*
X-806119Y-11679206D01*
X-825007Y-11639870D01*
X-825010Y-11639866D01*
X-828440Y-11632722D01*
X-832050Y-11628428D01*
X-833982Y-11626496D01*
X-835769Y-11624547D01*
X-835798Y-11624494D01*
X-835668Y-11624375D01*
X-836169Y-11623807D01*
X-839268Y-11618063D01*
X-879089Y-11581253D01*
X-882654Y-11577824D01*
X-1049259Y-11411219D01*
X-1083285Y-11348907D01*
X-1085706Y-11313941D01*
X-1085554Y-11312871D01*
X-1085419Y-11300000D01*
X-1103159Y-11153402D01*
X-1155356Y-11015267D01*
X-1179064Y-10980772D01*
X-1234694Y-10899829D01*
X-1234695Y-10899827D01*
X-1238996Y-10893570D01*
X-1246311Y-10887052D01*
X-1343579Y-10800390D01*
X-1349250Y-10795337D01*
X-1355960Y-10791784D01*
X-1473043Y-10729792D01*
X-1473045Y-10729791D01*
X-1479754Y-10726239D01*
X-1526660Y-10714457D01*
X-1615602Y-10692116D01*
X-1615606Y-10692116D01*
X-1622973Y-10690265D01*
X-1630572Y-10690225D01*
X-1630574Y-10690225D01*
X-1746568Y-10689618D01*
X-1814583Y-10669260D01*
X-1860794Y-10615362D01*
X-1870530Y-10545036D01*
X-1840699Y-10480610D01*
X-1835003Y-10474525D01*
X-1650868Y-10290390D01*
X-1588556Y-10256364D01*
X-1520023Y-10260603D01*
X-1508280Y-10264727D01*
X-1502691Y-10265211D01*
X-1499978Y-10265211D01*
X-1497314Y-10265326D01*
X-1497250Y-10265345D01*
X-1497257Y-10265519D01*
X-1496512Y-10265566D01*
X-1490259Y-10267436D01*
X-1440400Y-10265477D01*
X-1436105Y-10265308D01*
X-1431158Y-10265211D01*
X-1012353Y-10265211D01*
X-988054Y-10267797D01*
X-986616Y-10267865D01*
X-976438Y-10270056D01*
X-942877Y-10266084D01*
X-936898Y-10265732D01*
X-936906Y-10265639D01*
X-931728Y-10265211D01*
X-926526Y-10265211D01*
X-907372Y-10262023D01*
X-901514Y-10261189D01*
X-884900Y-10259223D01*
X-860651Y-10256353D01*
X-860650Y-10256353D01*
X-850311Y-10255129D01*
X-842012Y-10251144D01*
X-832935Y-10249633D01*
X-787567Y-10225153D01*
X-782304Y-10222472D01*
X-742968Y-10203584D01*
X-742964Y-10203581D01*
X-735820Y-10200151D01*
X-731526Y-10196541D01*
X-729594Y-10194609D01*
X-727645Y-10192822D01*
X-727592Y-10192793D01*
X-727473Y-10192923D01*
X-726905Y-10192422D01*
X-721161Y-10189323D01*
X-684350Y-10149501D01*
X-680921Y-10145936D01*
X-346595Y-9811610D01*
X-284283Y-9777584D01*
X-213468Y-9782649D01*
G37*
G04 #@! TD.AperFunction*
G04 #@! TA.AperFunction,Conductor*
G36*
X5984142Y4692786D02*
G01*
X6000000Y4689990D01*
X6010855Y4691904D01*
X6021879Y4691904D01*
X6021879Y4690865D01*
X6034345Y4691317D01*
X6123179Y4682568D01*
X6147399Y4677751D01*
X6223806Y4654573D01*
X6283184Y4615659D01*
X6312100Y4550818D01*
X6301369Y4480637D01*
X6254399Y4427398D01*
X6187227Y4408000D01*
X6122115Y4408000D01*
X6106876Y4403525D01*
X6105671Y4402135D01*
X6104000Y4394452D01*
X6104000Y410115D01*
X6108475Y394876D01*
X6109865Y393671D01*
X6117548Y392000D01*
X6311085Y392000D01*
X6316010Y392193D01*
X6387069Y397786D01*
X6398403Y399733D01*
X6536089Y436626D01*
X6607066Y434936D01*
X6665861Y395142D01*
X6693809Y329877D01*
X6694700Y314919D01*
X6694700Y-9380271D01*
X6674698Y-9448392D01*
X6621042Y-9494885D01*
X6550768Y-9504989D01*
X6486188Y-9475495D01*
X6459702Y-9435539D01*
X6456358Y-9437243D01*
X6446141Y-9417191D01*
X6438575Y-9398925D01*
X6437943Y-9396978D01*
X6431620Y-9377518D01*
X6427633Y-9372030D01*
X6415793Y-9312885D01*
X6414446Y-9312871D01*
X6414538Y-9304135D01*
X6414538Y-9304129D01*
X6414581Y-9300000D01*
X6396841Y-9153402D01*
X6344644Y-9015267D01*
X6290969Y-8937169D01*
X6265306Y-8899829D01*
X6265305Y-8899827D01*
X6261004Y-8893570D01*
X6250450Y-8884166D01*
X6179394Y-8820858D01*
X6150750Y-8795337D01*
X6144040Y-8791784D01*
X6026957Y-8729792D01*
X6026955Y-8729791D01*
X6020246Y-8726239D01*
X5968594Y-8713265D01*
X5884398Y-8692116D01*
X5884394Y-8692116D01*
X5877027Y-8690265D01*
X5869428Y-8690225D01*
X5869426Y-8690225D01*
X5816925Y-8689950D01*
X5748910Y-8669591D01*
X5728490Y-8653047D01*
X5579159Y-8503716D01*
X5545133Y-8441404D01*
X5550198Y-8370589D01*
X5592745Y-8313753D01*
X5621903Y-8298634D01*
X5621662Y-8298102D01*
X5628082Y-8295190D01*
X5634778Y-8293014D01*
X5703020Y-8252334D01*
X5783910Y-8204115D01*
X5783913Y-8204113D01*
X5789965Y-8200505D01*
X5860558Y-8133280D01*
X5915695Y-8080774D01*
X5915697Y-8080771D01*
X5920799Y-8075913D01*
X6020779Y-7925430D01*
X6084936Y-7756537D01*
X6108469Y-7589091D01*
X6109529Y-7581551D01*
X6109529Y-7581546D01*
X6110080Y-7577628D01*
X6110396Y-7555000D01*
X6090257Y-7375458D01*
X6068929Y-7314211D01*
X6062356Y-7295337D01*
X6030841Y-7204839D01*
X5935102Y-7051624D01*
X5893405Y-7009635D01*
X5859598Y-6947204D01*
X5864910Y-6876407D01*
X5895919Y-6829606D01*
X5915695Y-6810774D01*
X5915697Y-6810771D01*
X5920799Y-6805913D01*
X6020779Y-6655430D01*
X6084936Y-6486537D01*
X6090367Y-6447895D01*
X6109529Y-6311551D01*
X6109529Y-6311546D01*
X6110080Y-6307628D01*
X6110396Y-6285000D01*
X6090257Y-6105458D01*
X6084115Y-6087819D01*
X6039230Y-5958930D01*
X6030841Y-5934839D01*
X5935102Y-5781624D01*
X5893405Y-5739635D01*
X5859598Y-5677204D01*
X5864910Y-5606407D01*
X5895919Y-5559606D01*
X5915695Y-5540774D01*
X5915697Y-5540771D01*
X5920799Y-5535913D01*
X6020779Y-5385430D01*
X6077644Y-5235733D01*
X6082436Y-5223119D01*
X6082437Y-5223117D01*
X6084936Y-5216537D01*
X6093736Y-5153921D01*
X6109529Y-5041551D01*
X6109529Y-5041546D01*
X6110080Y-5037628D01*
X6110396Y-5015000D01*
X6090257Y-4835458D01*
X6030841Y-4664839D01*
X5935102Y-4511624D01*
X5893405Y-4469635D01*
X5859598Y-4407204D01*
X5864910Y-4336407D01*
X5895919Y-4289606D01*
X5915695Y-4270774D01*
X5915697Y-4270771D01*
X5920799Y-4265913D01*
X6020779Y-4115430D01*
X6084936Y-3946537D01*
X6087834Y-3925919D01*
X6109529Y-3771551D01*
X6109529Y-3771546D01*
X6110080Y-3767628D01*
X6110396Y-3745000D01*
X6090257Y-3565458D01*
X6072750Y-3515185D01*
X6069238Y-3444277D01*
X6104619Y-3382725D01*
X6116177Y-3372924D01*
X6155724Y-3343285D01*
X6168285Y-3330724D01*
X6244786Y-3228649D01*
X6253324Y-3213054D01*
X6298478Y-3092606D01*
X6302105Y-3077351D01*
X6307631Y-3026486D01*
X6308000Y-3019672D01*
X6308000Y-2747115D01*
X6303525Y-2731876D01*
X6302135Y-2730671D01*
X6294452Y-2729000D01*
X4310116Y-2729000D01*
X4294877Y-2733475D01*
X4293672Y-2734865D01*
X4292001Y-2742548D01*
X4292001Y-3019669D01*
X4292371Y-3026490D01*
X4297895Y-3077352D01*
X4301521Y-3092604D01*
X4346676Y-3213054D01*
X4355214Y-3228649D01*
X4431715Y-3330724D01*
X4444274Y-3343283D01*
X4483315Y-3372543D01*
X4525829Y-3429403D01*
X4530854Y-3500222D01*
X4526150Y-3516463D01*
X4514737Y-3547819D01*
X4514736Y-3547824D01*
X4512327Y-3554442D01*
X4489683Y-3733685D01*
X4507313Y-3913491D01*
X4564341Y-4084922D01*
X4567988Y-4090944D01*
X4567989Y-4090946D01*
X4578932Y-4109014D01*
X4657932Y-4239459D01*
X4662822Y-4244523D01*
X4662823Y-4244524D01*
X4708552Y-4291878D01*
X4741484Y-4354775D01*
X4735184Y-4425492D01*
X4706073Y-4469427D01*
X4671988Y-4502806D01*
X4668173Y-4508726D01*
X4641345Y-4550355D01*
X4587630Y-4596780D01*
X4535433Y-4608100D01*
X4035733Y-4608100D01*
X3967612Y-4588098D01*
X3946638Y-4571195D01*
X2950641Y-3575198D01*
X2916615Y-3512886D01*
X2914867Y-3499965D01*
X2914581Y-3500000D01*
X2901855Y-3394839D01*
X2896841Y-3353402D01*
X2844644Y-3215267D01*
X2761004Y-3093570D01*
X2742802Y-3077352D01*
X2705877Y-3044454D01*
X2650750Y-2995337D01*
X2643866Y-2991692D01*
X2526957Y-2929792D01*
X2526955Y-2929791D01*
X2520246Y-2926239D01*
X2473340Y-2914457D01*
X2384398Y-2892116D01*
X2384394Y-2892116D01*
X2377027Y-2890265D01*
X2369428Y-2890225D01*
X2369426Y-2890225D01*
X2307798Y-2889903D01*
X2229362Y-2889492D01*
X2221982Y-2891264D01*
X2221980Y-2891264D01*
X2093153Y-2922192D01*
X2093149Y-2922193D01*
X2085774Y-2923964D01*
X1954554Y-2991692D01*
X1948832Y-2996684D01*
X1948830Y-2996685D01*
X1915226Y-3026000D01*
X1843277Y-3088765D01*
X1758368Y-3209579D01*
X1755609Y-3216654D01*
X1755608Y-3216657D01*
X1750933Y-3228649D01*
X1704727Y-3347160D01*
X1703735Y-3354693D01*
X1703735Y-3354694D01*
X1689082Y-3466001D01*
X1685453Y-3493564D01*
X1701657Y-3640340D01*
X1704267Y-3647472D01*
X1741407Y-3748962D01*
X1752404Y-3779014D01*
X1756640Y-3785317D01*
X1756640Y-3785318D01*
X1797653Y-3846351D01*
X1834765Y-3901580D01*
X1943985Y-4000962D01*
X2073758Y-4071423D01*
X2216592Y-4108895D01*
X2284288Y-4109958D01*
X2352086Y-4131027D01*
X2371404Y-4146847D01*
X3371195Y-5146638D01*
X3405221Y-5208950D01*
X3408100Y-5235733D01*
X3408100Y-7379446D01*
X3411165Y-7388879D01*
X3415054Y-7400848D01*
X3419670Y-7420074D01*
X3423191Y-7442306D01*
X3427692Y-7451139D01*
X3427692Y-7451140D01*
X3433408Y-7462358D01*
X3440972Y-7480620D01*
X3444864Y-7492597D01*
X3447930Y-7502032D01*
X3453761Y-7510057D01*
X3461160Y-7520241D01*
X3471490Y-7537096D01*
X3481708Y-7557151D01*
X4577962Y-8653405D01*
X4611988Y-8715717D01*
X4606923Y-8786532D01*
X4564376Y-8843368D01*
X4497856Y-8868179D01*
X4488867Y-8868500D01*
X3003923Y-8868500D01*
X2935802Y-8848498D01*
X2889309Y-8794842D01*
X2879205Y-8724568D01*
X2908699Y-8659988D01*
X2952773Y-8627350D01*
X3000919Y-8605964D01*
X3052266Y-8554527D01*
X3073052Y-8533705D01*
X3073053Y-8533703D01*
X3081270Y-8525472D01*
X3127258Y-8421451D01*
X3130300Y-8395358D01*
X3130300Y-6904642D01*
X3129004Y-6893748D01*
X3128250Y-6887407D01*
X3128249Y-6887404D01*
X3127133Y-6878022D01*
X3080964Y-6774081D01*
X3040386Y-6733574D01*
X3008705Y-6701948D01*
X3008703Y-6701947D01*
X3000472Y-6693730D01*
X2896451Y-6647742D01*
X2870358Y-6644700D01*
X2629642Y-6644700D01*
X2618748Y-6645996D01*
X2612407Y-6646750D01*
X2612404Y-6646751D01*
X2603022Y-6647867D01*
X2594384Y-6651704D01*
X2594380Y-6651705D01*
X2551147Y-6670908D01*
X2480772Y-6680281D01*
X2449057Y-6670999D01*
X2396451Y-6647742D01*
X2370358Y-6644700D01*
X2129642Y-6644700D01*
X2118748Y-6645996D01*
X2112407Y-6646750D01*
X2112404Y-6646751D01*
X2103022Y-6647867D01*
X2094384Y-6651704D01*
X2094380Y-6651705D01*
X2051147Y-6670908D01*
X1980772Y-6680281D01*
X1949057Y-6670999D01*
X1896451Y-6647742D01*
X1870358Y-6644700D01*
X1629642Y-6644700D01*
X1618748Y-6645996D01*
X1612407Y-6646750D01*
X1612404Y-6646751D01*
X1603022Y-6647867D01*
X1594384Y-6651704D01*
X1594380Y-6651705D01*
X1551147Y-6670908D01*
X1480772Y-6680281D01*
X1449057Y-6670999D01*
X1396451Y-6647742D01*
X1370358Y-6644700D01*
X1129642Y-6644700D01*
X1118748Y-6645996D01*
X1112407Y-6646750D01*
X1112404Y-6646751D01*
X1103022Y-6647867D01*
X1094384Y-6651704D01*
X1094380Y-6651705D01*
X1051147Y-6670908D01*
X980772Y-6680281D01*
X949057Y-6670999D01*
X896451Y-6647742D01*
X870358Y-6644700D01*
X629642Y-6644700D01*
X618748Y-6645996D01*
X612407Y-6646750D01*
X612404Y-6646751D01*
X603022Y-6647867D01*
X594384Y-6651704D01*
X594380Y-6651705D01*
X551147Y-6670908D01*
X480772Y-6680281D01*
X449057Y-6670999D01*
X396451Y-6647742D01*
X370358Y-6644700D01*
X246614Y-6644700D01*
X178493Y-6624698D01*
X132000Y-6571042D01*
X121896Y-6500768D01*
X151390Y-6436188D01*
X157518Y-6429605D01*
X506482Y-6080640D01*
X525478Y-6065299D01*
X526552Y-6064322D01*
X535304Y-6058671D01*
X556229Y-6032128D01*
X560206Y-6027653D01*
X560135Y-6027592D01*
X563488Y-6023635D01*
X567171Y-6019952D01*
X578455Y-6004161D01*
X582018Y-5999415D01*
X607488Y-5967107D01*
X607489Y-5967106D01*
X613934Y-5958930D01*
X616985Y-5950243D01*
X622334Y-5942757D01*
X626490Y-5928862D01*
X637098Y-5893389D01*
X638933Y-5887741D01*
X656016Y-5839098D01*
X656500Y-5833509D01*
X656500Y-5830798D01*
X656615Y-5828131D01*
X656634Y-5828068D01*
X656808Y-5828075D01*
X656855Y-5827329D01*
X658725Y-5821076D01*
X656597Y-5766922D01*
X656500Y-5761975D01*
X656500Y-5470014D01*
X667260Y-5419067D01*
X673426Y-5405119D01*
X673426Y-5405118D01*
X677258Y-5396451D01*
X680300Y-5370358D01*
X680300Y-4933999D01*
X700302Y-4865878D01*
X753958Y-4819385D01*
X806300Y-4807999D01*
X1044669Y-4807999D01*
X1051490Y-4807629D01*
X1102352Y-4802105D01*
X1117604Y-4798479D01*
X1238054Y-4753324D01*
X1253649Y-4744786D01*
X1355724Y-4668285D01*
X1368285Y-4655724D01*
X1444786Y-4553649D01*
X1453324Y-4538054D01*
X1498478Y-4417606D01*
X1502105Y-4402351D01*
X1507631Y-4351486D01*
X1508000Y-4344673D01*
X1507999Y-4055332D01*
X1507629Y-4048510D01*
X1502105Y-3997648D01*
X1498479Y-3982396D01*
X1453324Y-3861946D01*
X1444786Y-3846351D01*
X1368285Y-3744276D01*
X1355724Y-3731715D01*
X1253649Y-3655214D01*
X1238054Y-3646676D01*
X1117606Y-3601522D01*
X1102351Y-3597895D01*
X1051486Y-3592369D01*
X1044672Y-3592000D01*
X806300Y-3592000D01*
X738179Y-3571998D01*
X691686Y-3518342D01*
X680300Y-3466000D01*
X680300Y-3029642D01*
X677133Y-3003022D01*
X673293Y-2994376D01*
X667349Y-2980994D01*
X656500Y-2929846D01*
X656500Y-2748970D01*
X662574Y-2710617D01*
X666809Y-2702306D01*
X681900Y-2607024D01*
X681900Y-2202885D01*
X4292000Y-2202885D01*
X4296475Y-2218124D01*
X4297865Y-2219329D01*
X4305548Y-2221000D01*
X5027885Y-2221000D01*
X5043124Y-2216525D01*
X5044329Y-2215135D01*
X5046000Y-2207452D01*
X5046000Y-2202885D01*
X5554000Y-2202885D01*
X5558475Y-2218124D01*
X5559865Y-2219329D01*
X5567548Y-2221000D01*
X6289884Y-2221000D01*
X6305123Y-2216525D01*
X6306328Y-2215135D01*
X6307999Y-2207452D01*
X6307999Y-1930331D01*
X6307629Y-1923510D01*
X6302105Y-1872648D01*
X6298479Y-1857396D01*
X6253324Y-1736946D01*
X6244786Y-1721351D01*
X6168285Y-1619276D01*
X6155724Y-1606715D01*
X6053649Y-1530214D01*
X6038054Y-1521676D01*
X5917606Y-1476522D01*
X5902351Y-1472895D01*
X5851486Y-1467369D01*
X5844672Y-1467000D01*
X5572115Y-1467000D01*
X5556876Y-1471475D01*
X5555671Y-1472865D01*
X5554000Y-1480548D01*
X5554000Y-2202885D01*
X5046000Y-2202885D01*
X5046000Y-1485116D01*
X5041525Y-1469877D01*
X5040135Y-1468672D01*
X5032452Y-1467001D01*
X4755331Y-1467001D01*
X4748510Y-1467371D01*
X4697648Y-1472895D01*
X4682396Y-1476521D01*
X4561946Y-1521676D01*
X4546351Y-1530214D01*
X4444276Y-1606715D01*
X4431715Y-1619276D01*
X4355214Y-1721351D01*
X4346676Y-1736946D01*
X4301522Y-1857394D01*
X4297895Y-1872649D01*
X4292369Y-1923514D01*
X4292000Y-1930328D01*
X4292000Y-2202885D01*
X681900Y-2202885D01*
X681900Y-2017033D01*
X701902Y-1948912D01*
X736645Y-1913638D01*
X740104Y-1911898D01*
X786058Y-1872649D01*
X846613Y-1820930D01*
X852391Y-1815995D01*
X938561Y-1696077D01*
X993640Y-1559065D01*
X1005387Y-1476522D01*
X1013865Y-1416955D01*
X1013865Y-1416952D01*
X1014446Y-1412871D01*
X1014581Y-1400000D01*
X996841Y-1253402D01*
X989198Y-1233175D01*
X983828Y-1162383D01*
X1017585Y-1099925D01*
X1079750Y-1065632D01*
X1097396Y-1063007D01*
X1152369Y-1058777D01*
X2805777Y-1058777D01*
X2815074Y-1070793D01*
X2858069Y-1100898D01*
X2867555Y-1106376D01*
X3058993Y-1195645D01*
X3069285Y-1199391D01*
X3273309Y-1254059D01*
X3284104Y-1255962D01*
X3494525Y-1274372D01*
X3505475Y-1274372D01*
X3715896Y-1255962D01*
X3726691Y-1254059D01*
X3930715Y-1199391D01*
X3941007Y-1195645D01*
X4132445Y-1106376D01*
X4141931Y-1100898D01*
X4185764Y-1070207D01*
X4194139Y-1059729D01*
X4187071Y-1046281D01*
X3512812Y-372022D01*
X3498868Y-364408D01*
X3497035Y-364539D01*
X3490420Y-368790D01*
X2812207Y-1047003D01*
X2805777Y-1058777D01*
X1152369Y-1058777D01*
X1180090Y-1056644D01*
X1180095Y-1056643D01*
X1186231Y-1056171D01*
X1192161Y-1054515D01*
X1192163Y-1054515D01*
X1317703Y-1019463D01*
X1387829Y-999884D01*
X1417948Y-984670D01*
X1475734Y-955480D01*
X1574655Y-905511D01*
X1739592Y-776648D01*
X1771083Y-740165D01*
X1872329Y-622871D01*
X1872330Y-622869D01*
X1876358Y-618203D01*
X1979745Y-436210D01*
X2025711Y-298032D01*
X2066193Y-239708D01*
X2131781Y-212528D01*
X2201651Y-225123D01*
X2253621Y-273493D01*
X2266976Y-305193D01*
X2300609Y-430715D01*
X2304355Y-441007D01*
X2393623Y-632441D01*
X2399103Y-641932D01*
X2429794Y-685765D01*
X2440271Y-694140D01*
X2453718Y-687072D01*
X3127978Y-12812D01*
X3134356Y-1132D01*
X3864408Y-1132D01*
X3864539Y-2965D01*
X3868790Y-9580D01*
X4547003Y-687793D01*
X4558777Y-694223D01*
X4570793Y-684926D01*
X4600897Y-641932D01*
X4606377Y-632441D01*
X4695645Y-441007D01*
X4699391Y-430715D01*
X4754059Y-226691D01*
X4755962Y-215896D01*
X4774372Y-5475D01*
X4774372Y5475D01*
X4755962Y215896D01*
X4754059Y226691D01*
X4699390Y430719D01*
X4695452Y441538D01*
X4690949Y512392D01*
X4725468Y574432D01*
X4788048Y607961D01*
X4858821Y602334D01*
X4893147Y582552D01*
X4947610Y538448D01*
X4958625Y531295D01*
X5116930Y450635D01*
X5129183Y445931D01*
X5301597Y399733D01*
X5312931Y397786D01*
X5383990Y392193D01*
X5388915Y392000D01*
X5577885Y392000D01*
X5593124Y396475D01*
X5594329Y397865D01*
X5596000Y405548D01*
X5596000Y2127885D01*
X5591525Y2143124D01*
X5590135Y2144329D01*
X5582452Y2146000D01*
X4560115Y2146000D01*
X4544876Y2141525D01*
X4543671Y2140135D01*
X4542000Y2132452D01*
X4542000Y1238916D01*
X4542193Y1233990D01*
X4547786Y1162931D01*
X4549733Y1151597D01*
X4595931Y979183D01*
X4600635Y966930D01*
X4645144Y879575D01*
X4658248Y809798D01*
X4631548Y744013D01*
X4591502Y710841D01*
X4546281Y687071D01*
X3872022Y12812D01*
X3864408Y-1132D01*
X3134356Y-1132D01*
X3135592Y1132D01*
X3135461Y2965D01*
X3131210Y9580D01*
X2452997Y687793D01*
X2441223Y694223D01*
X2429207Y684926D01*
X2399103Y641932D01*
X2393623Y632441D01*
X2304355Y441007D01*
X2300609Y430715D01*
X2266642Y303948D01*
X2229690Y243325D01*
X2165830Y212304D01*
X2095335Y220732D01*
X2040588Y265935D01*
X2024313Y300141D01*
X2015335Y329877D01*
X1991542Y408684D01*
X1893278Y593493D01*
X1818707Y684926D01*
X1764884Y750920D01*
X1764881Y750923D01*
X1760989Y755695D01*
X1756240Y759624D01*
X1604464Y885184D01*
X1604461Y885186D01*
X1599714Y889113D01*
X1415597Y988665D01*
X1315623Y1019612D01*
X1221536Y1048737D01*
X1221533Y1048738D01*
X1215649Y1050559D01*
X1209524Y1051203D01*
X1209523Y1051203D01*
X1128404Y1059729D01*
X2805860Y1059729D01*
X2812928Y1046282D01*
X3487188Y372022D01*
X3501132Y364408D01*
X3502965Y364539D01*
X3509580Y368790D01*
X4187793Y1047003D01*
X4194223Y1058777D01*
X4184926Y1070793D01*
X4141931Y1100898D01*
X4132445Y1106376D01*
X3941007Y1195645D01*
X3930715Y1199391D01*
X3726691Y1254059D01*
X3715896Y1255962D01*
X3505475Y1274372D01*
X3494525Y1274372D01*
X3284104Y1255962D01*
X3273309Y1254059D01*
X3069285Y1199391D01*
X3058993Y1195645D01*
X2867559Y1106377D01*
X2858068Y1100897D01*
X2814235Y1070206D01*
X2805860Y1059729D01*
X1128404Y1059729D01*
X1013615Y1071794D01*
X1013614Y1071794D01*
X1007487Y1072438D01*
X877837Y1060639D01*
X805181Y1054027D01*
X805180Y1054027D01*
X799040Y1053468D01*
X793126Y1051727D01*
X793124Y1051727D01*
X774624Y1046282D01*
X598248Y994371D01*
X412758Y897400D01*
X249636Y766246D01*
X115095Y605907D01*
X112124Y600504D01*
X112122Y600500D01*
X110828Y598146D01*
X109832Y597155D01*
X108642Y595418D01*
X108312Y595644D01*
X60485Y548086D01*
X-8932Y533191D01*
X-75382Y558190D01*
X-104212Y588772D01*
X-106722Y593493D01*
X-181293Y684926D01*
X-235116Y750920D01*
X-235119Y750923D01*
X-239011Y755695D01*
X-243760Y759624D01*
X-395536Y885184D01*
X-395539Y885186D01*
X-400286Y889113D01*
X-584403Y988665D01*
X-684377Y1019612D01*
X-778464Y1048737D01*
X-778467Y1048738D01*
X-784351Y1050559D01*
X-790476Y1051203D01*
X-790477Y1051203D01*
X-986385Y1071794D01*
X-986386Y1071794D01*
X-992513Y1072438D01*
X-1122163Y1060639D01*
X-1194819Y1054027D01*
X-1194820Y1054027D01*
X-1200960Y1053468D01*
X-1206874Y1051727D01*
X-1206876Y1051727D01*
X-1225376Y1046282D01*
X-1401752Y994371D01*
X-1587242Y897400D01*
X-1750364Y766246D01*
X-1884905Y605907D01*
X-1887875Y600504D01*
X-1887876Y600503D01*
X-1891730Y593493D01*
X-1985740Y422489D01*
X-2049028Y222978D01*
X-2049714Y216861D01*
X-2049715Y216857D01*
X-2071672Y21099D01*
X-2072359Y14974D01*
X-2054845Y-193600D01*
X-1997152Y-394800D01*
X-1994334Y-400282D01*
X-1994333Y-400286D01*
X-1904297Y-575477D01*
X-1904294Y-575481D01*
X-1901477Y-580963D01*
X-1771466Y-744996D01*
X-1612070Y-880653D01*
X-1429360Y-982766D01*
X-1230296Y-1047446D01*
X-1022460Y-1072229D01*
X-1016325Y-1071757D01*
X-1016323Y-1071757D01*
X-916997Y-1064114D01*
X-817566Y-1056463D01*
X-748112Y-1071180D01*
X-697640Y-1121111D01*
X-681900Y-1182092D01*
X-681900Y-2607024D01*
X-666809Y-2702306D01*
X-662574Y-2710617D01*
X-656500Y-2748970D01*
X-656500Y-2929986D01*
X-667260Y-2980933D01*
X-672016Y-2991692D01*
X-677258Y-3003549D01*
X-680300Y-3029642D01*
X-680300Y-3466001D01*
X-700302Y-3534122D01*
X-753958Y-3580615D01*
X-806300Y-3592001D01*
X-1044669Y-3592001D01*
X-1051490Y-3592371D01*
X-1102352Y-3597895D01*
X-1117604Y-3601521D01*
X-1238054Y-3646676D01*
X-1253649Y-3655214D01*
X-1355724Y-3731715D01*
X-1368285Y-3744276D01*
X-1444786Y-3846351D01*
X-1453324Y-3861946D01*
X-1498478Y-3982394D01*
X-1502105Y-3997649D01*
X-1507631Y-4048514D01*
X-1508000Y-4055327D01*
X-1507999Y-4344668D01*
X-1507629Y-4351490D01*
X-1502105Y-4402352D01*
X-1498479Y-4417604D01*
X-1453324Y-4538054D01*
X-1444786Y-4553649D01*
X-1368285Y-4655724D01*
X-1355724Y-4668285D01*
X-1253649Y-4744786D01*
X-1238054Y-4753324D01*
X-1117606Y-4798478D01*
X-1102351Y-4802105D01*
X-1051486Y-4807631D01*
X-1044672Y-4808000D01*
X-806300Y-4808000D01*
X-738179Y-4828002D01*
X-691686Y-4881658D01*
X-680300Y-4933999D01*
X-680300Y-5370358D01*
X-677133Y-5396978D01*
X-673294Y-5405621D01*
X-673293Y-5405624D01*
X-667349Y-5419006D01*
X-656500Y-5470154D01*
X-656500Y-5610171D01*
X-676502Y-5678292D01*
X-693405Y-5699267D01*
X-1088581Y-6094442D01*
X-1481483Y-6487344D01*
X-1500494Y-6502698D01*
X-1501556Y-6503664D01*
X-1510304Y-6509313D01*
X-1516748Y-6517488D01*
X-1516751Y-6517490D01*
X-1531229Y-6535856D01*
X-1535208Y-6540334D01*
X-1535137Y-6540394D01*
X-1538490Y-6544351D01*
X-1542171Y-6548032D01*
X-1545195Y-6552264D01*
X-1545197Y-6552266D01*
X-1553469Y-6563841D01*
X-1557032Y-6568586D01*
X-1579199Y-6596705D01*
X-1637080Y-6637819D01*
X-1678149Y-6644700D01*
X-1705897Y-6644700D01*
X-1774018Y-6624698D01*
X-1800135Y-6600396D01*
X-1800365Y-6600626D01*
X-1819276Y-6581715D01*
X-1921351Y-6505214D01*
X-1936946Y-6496676D01*
X-2057394Y-6451522D01*
X-2072649Y-6447895D01*
X-2123514Y-6442369D01*
X-2130328Y-6442000D01*
X-2369669Y-6442001D01*
X-2376490Y-6442371D01*
X-2427352Y-6447895D01*
X-2442604Y-6451521D01*
X-2563054Y-6496676D01*
X-2578649Y-6505214D01*
X-2680724Y-6581715D01*
X-2699635Y-6600626D01*
X-2700554Y-6599707D01*
X-2750138Y-6636781D01*
X-2794103Y-6644700D01*
X-2870358Y-6644700D01*
X-2881252Y-6645996D01*
X-2887593Y-6646750D01*
X-2887596Y-6646751D01*
X-2896978Y-6647867D01*
X-3000919Y-6694036D01*
X-3040388Y-6733574D01*
X-3073052Y-6766295D01*
X-3073053Y-6766297D01*
X-3081270Y-6774528D01*
X-3127258Y-6878549D01*
X-3130300Y-6904642D01*
X-3130300Y-7102216D01*
X-3150302Y-7170337D01*
X-3203958Y-7216830D01*
X-3274232Y-7226934D01*
X-3286995Y-7224420D01*
X-3415602Y-7192116D01*
X-3415606Y-7192116D01*
X-3422973Y-7190265D01*
X-3430572Y-7190225D01*
X-3430574Y-7190225D01*
X-3492202Y-7189903D01*
X-3570638Y-7189492D01*
X-3578018Y-7191264D01*
X-3578020Y-7191264D01*
X-3706847Y-7222192D01*
X-3706851Y-7222193D01*
X-3714226Y-7223964D01*
X-3720971Y-7227445D01*
X-3720970Y-7227445D01*
X-3807825Y-7272274D01*
X-3877532Y-7285743D01*
X-3943456Y-7259388D01*
X-3966441Y-7235873D01*
X-4033643Y-7146206D01*
X-4039025Y-7139025D01*
X-4046206Y-7133643D01*
X-4046208Y-7133641D01*
X-4059330Y-7123806D01*
X-4101844Y-7066946D01*
X-4106868Y-6996127D01*
X-4072807Y-6933835D01*
X-4049034Y-6915206D01*
X-3966429Y-6865179D01*
X-3954557Y-6855869D01*
X-3844131Y-6745443D01*
X-3834824Y-6733574D01*
X-3753921Y-6599988D01*
X-3747715Y-6586243D01*
X-3700744Y-6436356D01*
X-3698131Y-6423306D01*
X-3692266Y-6359479D01*
X-3692000Y-6353691D01*
X-3692000Y-6322115D01*
X-3696475Y-6306876D01*
X-3697865Y-6305671D01*
X-3705548Y-6304000D01*
X-5489884Y-6304000D01*
X-5505123Y-6308475D01*
X-5506328Y-6309865D01*
X-5507999Y-6317548D01*
X-5507999Y-6353705D01*
X-5507736Y-6359454D01*
X-5501868Y-6423315D01*
X-5499257Y-6436351D01*
X-5452285Y-6586243D01*
X-5446079Y-6599988D01*
X-5365176Y-6733574D01*
X-5355869Y-6745443D01*
X-5245443Y-6855869D01*
X-5233571Y-6865179D01*
X-5150966Y-6915206D01*
X-5103059Y-6967604D01*
X-5091086Y-7037583D01*
X-5118847Y-7102927D01*
X-5140670Y-7123806D01*
X-5153792Y-7133641D01*
X-5153794Y-7133643D01*
X-5160975Y-7139025D01*
X-5166357Y-7146206D01*
X-5242398Y-7247666D01*
X-5242400Y-7247669D01*
X-5247780Y-7254848D01*
X-5250930Y-7263251D01*
X-5290770Y-7369527D01*
X-5298587Y-7390378D01*
X-5299440Y-7398228D01*
X-5299440Y-7398229D01*
X-5300749Y-7410281D01*
X-5305300Y-7452171D01*
X-5305299Y-8047828D01*
X-5304930Y-8051222D01*
X-5304930Y-8051228D01*
X-5301720Y-8080774D01*
X-5298587Y-8109622D01*
X-5247780Y-8245152D01*
X-5242400Y-8252331D01*
X-5242398Y-8252334D01*
X-5166357Y-8353794D01*
X-5160975Y-8360975D01*
X-5153794Y-8366357D01*
X-5052334Y-8442398D01*
X-5052331Y-8442400D01*
X-5045152Y-8447780D01*
X-5036748Y-8450930D01*
X-5036749Y-8450930D01*
X-4917017Y-8495815D01*
X-4917015Y-8495815D01*
X-4909622Y-8498587D01*
X-4901772Y-8499440D01*
X-4901771Y-8499440D01*
X-4862410Y-8503716D01*
X-4847829Y-8505300D01*
X-4600073Y-8505300D01*
X-4352172Y-8505299D01*
X-4348778Y-8504930D01*
X-4348772Y-8504930D01*
X-4298236Y-8499441D01*
X-4298232Y-8499440D01*
X-4290378Y-8498587D01*
X-4154848Y-8447780D01*
X-4147669Y-8442400D01*
X-4147666Y-8442398D01*
X-4108465Y-8413018D01*
X-4041958Y-8388170D01*
X-3972576Y-8403223D01*
X-3922346Y-8453397D01*
X-3906900Y-8513844D01*
X-3906900Y-8564446D01*
X-3903835Y-8573879D01*
X-3899946Y-8585848D01*
X-3895330Y-8605074D01*
X-3891809Y-8627306D01*
X-3887308Y-8636139D01*
X-3887308Y-8636140D01*
X-3881592Y-8647358D01*
X-3874028Y-8665620D01*
X-3870136Y-8677598D01*
X-3870134Y-8677602D01*
X-3867070Y-8687032D01*
X-3865475Y-8689227D01*
X-3853109Y-8755074D01*
X-3879809Y-8820858D01*
X-3937836Y-8861765D01*
X-3978480Y-8868500D01*
X-4381692Y-8868500D01*
X-4386494Y-8869299D01*
X-4396211Y-8869700D01*
X-5095358Y-8869700D01*
X-5106252Y-8870996D01*
X-5112593Y-8871750D01*
X-5112596Y-8871751D01*
X-5121978Y-8872867D01*
X-5150885Y-8885707D01*
X-5208365Y-8911239D01*
X-5225919Y-8919036D01*
X-5265998Y-8959186D01*
X-5298052Y-8991295D01*
X-5298053Y-8991297D01*
X-5306270Y-8999528D01*
X-5352258Y-9103549D01*
X-5355300Y-9129642D01*
X-5355300Y-9370358D01*
X-5352133Y-9396978D01*
X-5348296Y-9405616D01*
X-5348295Y-9405620D01*
X-5329092Y-9448853D01*
X-5319719Y-9519228D01*
X-5329001Y-9550943D01*
X-5352258Y-9603549D01*
X-5355300Y-9629642D01*
X-5355300Y-9770818D01*
X-5375302Y-9838939D01*
X-5428958Y-9885432D01*
X-5499232Y-9895536D01*
X-5511990Y-9893023D01*
X-5515598Y-9892117D01*
X-5515602Y-9892117D01*
X-5522973Y-9890265D01*
X-5530572Y-9890225D01*
X-5530574Y-9890225D01*
X-5592202Y-9889903D01*
X-5670638Y-9889492D01*
X-5678018Y-9891264D01*
X-5678020Y-9891264D01*
X-5806847Y-9922192D01*
X-5806851Y-9922193D01*
X-5814226Y-9923964D01*
X-5945446Y-9991692D01*
X-5951168Y-9996684D01*
X-5951170Y-9996685D01*
X-6013601Y-10051147D01*
X-6056723Y-10088765D01*
X-6141632Y-10209579D01*
X-6144391Y-10216654D01*
X-6144392Y-10216657D01*
X-6186183Y-10323846D01*
X-6195273Y-10347160D01*
X-6196265Y-10354693D01*
X-6196265Y-10354694D01*
X-6202902Y-10405113D01*
X-6214547Y-10493564D01*
X-6198343Y-10640340D01*
X-6147596Y-10779014D01*
X-6143360Y-10785317D01*
X-6143360Y-10785318D01*
X-6074997Y-10887052D01*
X-6065235Y-10901580D01*
X-6059616Y-10906693D01*
X-6059615Y-10906694D01*
X-6013066Y-10949050D01*
X-5956015Y-11000962D01*
X-5949342Y-11004585D01*
X-5863667Y-11051103D01*
X-5813345Y-11101186D01*
X-5797789Y-11161834D01*
X-5797789Y-12664259D01*
X-5817791Y-12732380D01*
X-5871447Y-12778873D01*
X-5924448Y-12790257D01*
X-5998690Y-12789869D01*
X-6070638Y-12789492D01*
X-6078018Y-12791264D01*
X-6078020Y-12791264D01*
X-6206847Y-12822192D01*
X-6206851Y-12822193D01*
X-6214226Y-12823964D01*
X-6220971Y-12827445D01*
X-6220970Y-12827445D01*
X-6337504Y-12887593D01*
X-6345446Y-12891692D01*
X-6351168Y-12896684D01*
X-6351170Y-12896685D01*
X-6378084Y-12920164D01*
X-6456723Y-12988765D01*
X-6461093Y-12994982D01*
X-6461095Y-12994985D01*
X-6465614Y-13001415D01*
X-6521148Y-13045647D01*
X-6591780Y-13052832D01*
X-6655085Y-13020690D01*
X-6690962Y-12959426D01*
X-6694700Y-12928964D01*
X-6694700Y-5777885D01*
X-5508000Y-5777885D01*
X-5503525Y-5793124D01*
X-5502135Y-5794329D01*
X-5494452Y-5796000D01*
X-4872115Y-5796000D01*
X-4856876Y-5791525D01*
X-4855671Y-5790135D01*
X-4854000Y-5782452D01*
X-4854000Y-5777885D01*
X-4346000Y-5777885D01*
X-4341525Y-5793124D01*
X-4340135Y-5794329D01*
X-4332452Y-5796000D01*
X-3710116Y-5796000D01*
X-3694877Y-5791525D01*
X-3693672Y-5790135D01*
X-3692001Y-5782452D01*
X-3692001Y-5746295D01*
X-3692264Y-5740546D01*
X-3698132Y-5676685D01*
X-3700743Y-5663649D01*
X-3747715Y-5513757D01*
X-3753921Y-5500012D01*
X-3834824Y-5366426D01*
X-3844131Y-5354557D01*
X-3954557Y-5244131D01*
X-3966426Y-5234824D01*
X-4100012Y-5153921D01*
X-4113757Y-5147715D01*
X-4263644Y-5100744D01*
X-4276694Y-5098131D01*
X-4331586Y-5093087D01*
X-4343124Y-5096475D01*
X-4344329Y-5097865D01*
X-4346000Y-5105548D01*
X-4346000Y-5777885D01*
X-4854000Y-5777885D01*
X-4854000Y-5110116D01*
X-4858475Y-5094877D01*
X-4859865Y-5093672D01*
X-4864294Y-5092709D01*
X-4923315Y-5098132D01*
X-4936351Y-5100743D01*
X-5086243Y-5147715D01*
X-5099988Y-5153921D01*
X-5233574Y-5234824D01*
X-5245443Y-5244131D01*
X-5355869Y-5354557D01*
X-5365176Y-5366426D01*
X-5446079Y-5500012D01*
X-5452285Y-5513757D01*
X-5499256Y-5663644D01*
X-5501869Y-5676694D01*
X-5507734Y-5740521D01*
X-5508000Y-5746309D01*
X-5508000Y-5777885D01*
X-6694700Y-5777885D01*
X-6694700Y14974D01*
X-4572359Y14974D01*
X-4554845Y-193600D01*
X-4497152Y-394800D01*
X-4494334Y-400282D01*
X-4494333Y-400286D01*
X-4404297Y-575477D01*
X-4404294Y-575481D01*
X-4401477Y-580963D01*
X-4271466Y-744996D01*
X-4112070Y-880653D01*
X-3929360Y-982766D01*
X-3730296Y-1047446D01*
X-3522460Y-1072229D01*
X-3516325Y-1071757D01*
X-3516323Y-1071757D01*
X-3319910Y-1056644D01*
X-3319905Y-1056643D01*
X-3313769Y-1056171D01*
X-3307839Y-1054515D01*
X-3307837Y-1054515D01*
X-3182297Y-1019463D01*
X-3112171Y-999884D01*
X-3082052Y-984670D01*
X-3024266Y-955480D01*
X-2925345Y-905511D01*
X-2760408Y-776648D01*
X-2728917Y-740165D01*
X-2627671Y-622871D01*
X-2627670Y-622869D01*
X-2623642Y-618203D01*
X-2520255Y-436210D01*
X-2454187Y-237603D01*
X-2427954Y-29945D01*
X-2427536Y0D01*
X-2447961Y208309D01*
X-2450251Y215896D01*
X-2503479Y392193D01*
X-2508458Y408684D01*
X-2606722Y593493D01*
X-2681293Y684926D01*
X-2735116Y750920D01*
X-2735119Y750923D01*
X-2739011Y755695D01*
X-2743760Y759624D01*
X-2895536Y885184D01*
X-2895539Y885186D01*
X-2900286Y889113D01*
X-3084403Y988665D01*
X-3184377Y1019612D01*
X-3278464Y1048737D01*
X-3278467Y1048738D01*
X-3284351Y1050559D01*
X-3290476Y1051203D01*
X-3290477Y1051203D01*
X-3486385Y1071794D01*
X-3486386Y1071794D01*
X-3492513Y1072438D01*
X-3622163Y1060639D01*
X-3694819Y1054027D01*
X-3694820Y1054027D01*
X-3700960Y1053468D01*
X-3706874Y1051727D01*
X-3706876Y1051727D01*
X-3725376Y1046282D01*
X-3901752Y994371D01*
X-4087242Y897400D01*
X-4250364Y766246D01*
X-4384905Y605907D01*
X-4387875Y600504D01*
X-4387876Y600503D01*
X-4391730Y593493D01*
X-4485740Y422489D01*
X-4549028Y222978D01*
X-4549714Y216861D01*
X-4549715Y216857D01*
X-4571672Y21099D01*
X-4572359Y14974D01*
X-6694700Y14974D01*
X-6694700Y314919D01*
X-6674698Y383040D01*
X-6621042Y429533D01*
X-6550768Y439637D01*
X-6536089Y436626D01*
X-6398403Y399733D01*
X-6387069Y397786D01*
X-6316010Y392193D01*
X-6311085Y392000D01*
X-6122115Y392000D01*
X-6106876Y396475D01*
X-6105671Y397865D01*
X-6104000Y405548D01*
X-6104000Y410115D01*
X-5596000Y410115D01*
X-5591525Y394876D01*
X-5590135Y393671D01*
X-5582452Y392000D01*
X-5388915Y392000D01*
X-5383990Y392193D01*
X-5312931Y397786D01*
X-5301597Y399733D01*
X-5129183Y445931D01*
X-5116930Y450635D01*
X-4958625Y531295D01*
X-4947610Y538448D01*
X-4809541Y650255D01*
X-4800255Y659541D01*
X-4688448Y797610D01*
X-4681295Y808625D01*
X-4600635Y966930D01*
X-4595931Y979183D01*
X-4549733Y1151597D01*
X-4547786Y1162931D01*
X-4542193Y1233990D01*
X-4542000Y1238916D01*
X-4542000Y2127885D01*
X-4546475Y2143124D01*
X-4547865Y2144329D01*
X-4555548Y2146000D01*
X-5577885Y2146000D01*
X-5593124Y2141525D01*
X-5594329Y2140135D01*
X-5596000Y2132452D01*
X-5596000Y410115D01*
X-6104000Y410115D01*
X-6104000Y2405658D01*
X-3060376Y2405658D01*
X-3041491Y2225979D01*
X-2983268Y2054950D01*
X-2979578Y2048951D01*
X-2979577Y2048950D01*
X-2973328Y2038792D01*
X-2888601Y1901070D01*
X-2762194Y1771988D01*
X-2610331Y1674119D01*
X-2603708Y1671708D01*
X-2603705Y1671707D01*
X-2447181Y1614737D01*
X-2447176Y1614736D01*
X-2440558Y1612327D01*
X-2301028Y1594700D01*
X-2204568Y1594700D01*
X-2070458Y1609743D01*
X-2063805Y1612060D01*
X-2063804Y1612060D01*
X-1994065Y1636346D01*
X-1899839Y1669159D01*
X-1746624Y1764898D01*
X-1682246Y1828829D01*
X-1623425Y1887240D01*
X-1623422Y1887244D01*
X-1618428Y1892203D01*
X-1612801Y1901070D01*
X-1525399Y2038792D01*
X-1525397Y2038796D01*
X-1521621Y2044746D01*
X-1511109Y2074268D01*
X-1463378Y2208310D01*
X-1463377Y2208315D01*
X-1461016Y2214945D01*
X-1458865Y2232979D01*
X-1440458Y2387349D01*
X-1439624Y2394342D01*
X-1440813Y2405658D01*
X1439624Y2405658D01*
X1458509Y2225979D01*
X1516732Y2054950D01*
X1520422Y2048951D01*
X1520423Y2048950D01*
X1526672Y2038792D01*
X1611399Y1901070D01*
X1737806Y1771988D01*
X1889669Y1674119D01*
X1896292Y1671708D01*
X1896295Y1671707D01*
X2052819Y1614737D01*
X2052824Y1614736D01*
X2059442Y1612327D01*
X2198972Y1594700D01*
X2295432Y1594700D01*
X2429542Y1609743D01*
X2436195Y1612060D01*
X2436196Y1612060D01*
X2505935Y1636346D01*
X2600161Y1669159D01*
X2753376Y1764898D01*
X2817754Y1828829D01*
X2876575Y1887240D01*
X2876578Y1887244D01*
X2881572Y1892203D01*
X2887199Y1901070D01*
X2974601Y2038792D01*
X2974603Y2038796D01*
X2978379Y2044746D01*
X2988891Y2074268D01*
X3036622Y2208310D01*
X3036623Y2208315D01*
X3038984Y2214945D01*
X3041135Y2232979D01*
X3059542Y2387349D01*
X3060376Y2394342D01*
X3041491Y2574021D01*
X3008097Y2672115D01*
X4542000Y2672115D01*
X4546475Y2656876D01*
X4547865Y2655671D01*
X4555548Y2654000D01*
X5577885Y2654000D01*
X5593124Y2658475D01*
X5594329Y2659865D01*
X5596000Y2667548D01*
X5596000Y4389885D01*
X5591525Y4405124D01*
X5590135Y4406329D01*
X5582452Y4408000D01*
X5388916Y4408000D01*
X5383990Y4407807D01*
X5312931Y4402214D01*
X5301597Y4400267D01*
X5129183Y4354069D01*
X5116930Y4349365D01*
X4958625Y4268705D01*
X4947610Y4261552D01*
X4809541Y4149745D01*
X4800255Y4140459D01*
X4688448Y4002390D01*
X4681295Y3991375D01*
X4600635Y3833070D01*
X4595931Y3820817D01*
X4549733Y3648403D01*
X4547786Y3637069D01*
X4542193Y3566010D01*
X4542000Y3561085D01*
X4542000Y2672115D01*
X3008097Y2672115D01*
X2983268Y2745050D01*
X2976991Y2755254D01*
X2957282Y2787290D01*
X2888601Y2898930D01*
X2762194Y3028012D01*
X2610331Y3125881D01*
X2603708Y3128292D01*
X2603705Y3128293D01*
X2447181Y3185263D01*
X2447176Y3185264D01*
X2440558Y3187673D01*
X2301028Y3205300D01*
X2204568Y3205300D01*
X2070458Y3190257D01*
X2063805Y3187940D01*
X2063804Y3187940D01*
X2056117Y3185263D01*
X1899839Y3130841D01*
X1746624Y3035102D01*
X1682246Y2971171D01*
X1623425Y2912760D01*
X1623422Y2912756D01*
X1618428Y2907797D01*
X1614654Y2901851D01*
X1614653Y2901849D01*
X1525399Y2761208D01*
X1525397Y2761204D01*
X1521621Y2755254D01*
X1511109Y2725732D01*
X1463378Y2591690D01*
X1463377Y2591685D01*
X1461016Y2585055D01*
X1460183Y2578067D01*
X1460182Y2578064D01*
X1445551Y2455360D01*
X1439624Y2405658D01*
X-1440813Y2405658D01*
X-1458509Y2574021D01*
X-1516732Y2745050D01*
X-1523009Y2755254D01*
X-1542718Y2787290D01*
X-1611399Y2898930D01*
X-1737806Y3028012D01*
X-1889669Y3125881D01*
X-1896292Y3128292D01*
X-1896295Y3128293D01*
X-2052819Y3185263D01*
X-2052824Y3185264D01*
X-2059442Y3187673D01*
X-2198972Y3205300D01*
X-2295432Y3205300D01*
X-2429542Y3190257D01*
X-2436195Y3187940D01*
X-2436196Y3187940D01*
X-2443883Y3185263D01*
X-2600161Y3130841D01*
X-2753376Y3035102D01*
X-2817754Y2971171D01*
X-2876575Y2912760D01*
X-2876578Y2912756D01*
X-2881572Y2907797D01*
X-2885346Y2901851D01*
X-2885347Y2901849D01*
X-2974601Y2761208D01*
X-2974603Y2761204D01*
X-2978379Y2755254D01*
X-2988891Y2725732D01*
X-3036622Y2591690D01*
X-3036623Y2591685D01*
X-3038984Y2585055D01*
X-3039817Y2578067D01*
X-3039818Y2578064D01*
X-3054449Y2455360D01*
X-3060376Y2405658D01*
X-6104000Y2405658D01*
X-6104000Y2672115D01*
X-5596000Y2672115D01*
X-5591525Y2656876D01*
X-5590135Y2655671D01*
X-5582452Y2654000D01*
X-4560115Y2654000D01*
X-4544876Y2658475D01*
X-4543671Y2659865D01*
X-4542000Y2667548D01*
X-4542000Y3561085D01*
X-4542193Y3566010D01*
X-4547786Y3637069D01*
X-4549733Y3648403D01*
X-4595931Y3820817D01*
X-4600635Y3833070D01*
X-4681295Y3991375D01*
X-4688448Y4002390D01*
X-4800255Y4140459D01*
X-4809541Y4149745D01*
X-4947610Y4261552D01*
X-4958625Y4268705D01*
X-5116930Y4349365D01*
X-5129183Y4354069D01*
X-5301597Y4400267D01*
X-5312931Y4402214D01*
X-5383990Y4407807D01*
X-5388916Y4408000D01*
X-5577885Y4408000D01*
X-5593124Y4403525D01*
X-5594329Y4402135D01*
X-5596000Y4394452D01*
X-5596000Y2672115D01*
X-6104000Y2672115D01*
X-6104000Y4389885D01*
X-6108475Y4405124D01*
X-6109865Y4406329D01*
X-6117548Y4408000D01*
X-6187226Y4408000D01*
X-6255347Y4428002D01*
X-6301840Y4481658D01*
X-6311944Y4551932D01*
X-6282450Y4616512D01*
X-6223802Y4654574D01*
X-6147405Y4677749D01*
X-6123179Y4682568D01*
X-6034345Y4691317D01*
X-6021879Y4690865D01*
X-6021879Y4691904D01*
X-6010855Y4691904D01*
X-6000000Y4689990D01*
X-5984142Y4692786D01*
X-5962264Y4694700D01*
X5962264Y4694700D01*
X5984142Y4692786D01*
G37*
G04 #@! TD.AperFunction*
G04 #@! TA.AperFunction,Conductor*
G36*
X3084122Y-9651502D02*
G01*
X3130615Y-9705158D01*
X3142001Y-9757500D01*
X3142001Y-9869669D01*
X3142371Y-9876490D01*
X3147895Y-9927352D01*
X3151521Y-9942604D01*
X3196676Y-10063054D01*
X3205214Y-10078649D01*
X3281715Y-10180724D01*
X3300626Y-10199635D01*
X3299707Y-10200554D01*
X3336781Y-10250138D01*
X3344700Y-10294103D01*
X3344700Y-10370358D01*
X3345996Y-10381252D01*
X3346685Y-10387040D01*
X3347867Y-10396978D01*
X3351704Y-10405616D01*
X3351705Y-10405620D01*
X3370908Y-10448853D01*
X3380281Y-10519228D01*
X3370999Y-10550943D01*
X3347742Y-10603549D01*
X3344700Y-10629642D01*
X3344700Y-10870358D01*
X3345996Y-10881252D01*
X3346685Y-10887040D01*
X3347867Y-10896978D01*
X3351704Y-10905616D01*
X3351705Y-10905620D01*
X3370908Y-10948853D01*
X3380281Y-11019228D01*
X3370999Y-11050943D01*
X3347742Y-11103549D01*
X3344700Y-11129642D01*
X3344700Y-11370358D01*
X3345996Y-11381252D01*
X3346685Y-11387040D01*
X3347867Y-11396978D01*
X3351704Y-11405616D01*
X3351705Y-11405620D01*
X3370908Y-11448853D01*
X3380281Y-11519228D01*
X3370999Y-11550943D01*
X3347742Y-11603549D01*
X3344700Y-11629642D01*
X3344700Y-11742500D01*
X3324698Y-11810621D01*
X3271042Y-11857114D01*
X3218700Y-11868500D01*
X2104135Y-11868500D01*
X2079836Y-11865914D01*
X2078398Y-11865846D01*
X2068220Y-11863655D01*
X2038516Y-11867170D01*
X2034658Y-11867627D01*
X2028680Y-11867979D01*
X2028688Y-11868072D01*
X2023510Y-11868500D01*
X2018308Y-11868500D01*
X1999154Y-11871688D01*
X1993296Y-11872522D01*
X1986385Y-11873340D01*
X1952433Y-11877358D01*
X1952432Y-11877358D01*
X1942093Y-11878582D01*
X1933794Y-11882567D01*
X1924717Y-11884078D01*
X1879349Y-11908558D01*
X1874086Y-11911239D01*
X1834750Y-11930127D01*
X1834746Y-11930130D01*
X1827602Y-11933560D01*
X1823308Y-11937170D01*
X1821376Y-11939102D01*
X1819427Y-11940889D01*
X1819374Y-11940918D01*
X1819255Y-11940788D01*
X1818687Y-11941289D01*
X1812943Y-11944388D01*
X1805876Y-11952033D01*
X1776134Y-11984208D01*
X1772704Y-11987774D01*
X1407426Y-12353052D01*
X1345114Y-12387078D01*
X1317674Y-12389955D01*
X1229362Y-12389492D01*
X1221982Y-12391264D01*
X1221980Y-12391264D01*
X1093153Y-12422192D01*
X1093149Y-12422193D01*
X1085774Y-12423964D01*
X954554Y-12491692D01*
X948832Y-12496684D01*
X948830Y-12496685D01*
X879236Y-12557396D01*
X843277Y-12588765D01*
X841846Y-12587125D01*
X790689Y-12618640D01*
X719705Y-12617288D01*
X660721Y-12577773D01*
X632464Y-12512642D01*
X631500Y-12497090D01*
X631500Y-9757500D01*
X651502Y-9689379D01*
X705158Y-9642886D01*
X757500Y-9631500D01*
X3016001Y-9631500D01*
X3084122Y-9651502D01*
G37*
G04 #@! TD.AperFunction*
M02*
