G04 #@! TF.GenerationSoftware,KiCad,Pcbnew,(6.0.4-0)*
G04 #@! TF.CreationDate,2022-03-31T22:02:44+09:00*
G04 #@! TF.ProjectId,otaHID,6f746148-4944-42e6-9b69-6361645f7063,1.0*
G04 #@! TF.SameCoordinates,Original*
G04 #@! TF.FileFunction,Soldermask,Top*
G04 #@! TF.FilePolarity,Negative*
%FSLAX46Y46*%
G04 Gerber Fmt 4.6, Leading zero omitted, Abs format (unit mm)*
G04 Created by KiCad (PCBNEW (6.0.4-0)) date 2022-03-31 22:02:44*
%MOMM*%
%LPD*%
G01*
G04 APERTURE LIST*
G04 Aperture macros list*
%AMRoundRect*
0 Rectangle with rounded corners*
0 $1 Rounding radius*
0 $2 $3 $4 $5 $6 $7 $8 $9 X,Y pos of 4 corners*
0 Add a 4 corners polygon primitive as box body*
4,1,4,$2,$3,$4,$5,$6,$7,$8,$9,$2,$3,0*
0 Add four circle primitives for the rounded corners*
1,1,$1+$1,$2,$3*
1,1,$1+$1,$4,$5*
1,1,$1+$1,$6,$7*
1,1,$1+$1,$8,$9*
0 Add four rect primitives between the rounded corners*
20,1,$1+$1,$2,$3,$4,$5,0*
20,1,$1+$1,$4,$5,$6,$7,0*
20,1,$1+$1,$6,$7,$8,$9,0*
20,1,$1+$1,$8,$9,$2,$3,0*%
G04 Aperture macros list end*
%ADD10R,0.200000X0.675000*%
%ADD11R,0.700000X0.200000*%
%ADD12C,0.750000*%
%ADD13R,1.600000X1.000000*%
%ADD14R,0.150000X1.400000*%
%ADD15R,1.400000X0.150000*%
%ADD16RoundRect,0.200000X0.200000X-0.250000X0.200000X0.250000X-0.200000X0.250000X-0.200000X-0.250000X0*%
%ADD17R,1.200000X1.600000*%
%ADD18R,0.600000X1.550000*%
%ADD19R,1.350000X1.200000*%
%ADD20RoundRect,0.200000X-0.200000X0.250000X-0.200000X-0.250000X0.200000X-0.250000X0.200000X0.250000X0*%
%ADD21RoundRect,0.150000X-0.150000X0.150000X-0.150000X-0.150000X0.150000X-0.150000X0.150000X0.150000X0*%
%ADD22RoundRect,0.150000X0.150000X-0.150000X0.150000X0.150000X-0.150000X0.150000X-0.150000X-0.150000X0*%
%ADD23R,1.000000X1.000000*%
%ADD24O,1.000000X1.000000*%
%ADD25C,1.000000*%
%ADD26C,1.524000*%
%ADD27RoundRect,0.400000X0.400000X1.100000X-0.400000X1.100000X-0.400000X-1.100000X0.400000X-1.100000X0*%
G04 APERTURE END LIST*
D10*
X-275000Y-3412500D03*
X275000Y-3412500D03*
D11*
X650000Y-4200000D03*
D10*
X275000Y-4987500D03*
X-275000Y-4987500D03*
D11*
X-650000Y-4200000D03*
D12*
X2200000Y-26900000D03*
X4000000Y-26900000D03*
D13*
X3100000Y-29100000D03*
X3100000Y-24700000D03*
D14*
X-2750000Y-16350000D03*
X-2250000Y-16350000D03*
X-1750000Y-16350000D03*
X-1250000Y-16350000D03*
X-750000Y-16350000D03*
X-250000Y-16350000D03*
X250000Y-16350000D03*
X750000Y-16350000D03*
X1250000Y-16350000D03*
X1750000Y-16350000D03*
X2250000Y-16350000D03*
X2750000Y-16350000D03*
D15*
X4350000Y-14750000D03*
X4350000Y-14250000D03*
X4350000Y-13750000D03*
X4350000Y-13250000D03*
X4350000Y-12750000D03*
X4350000Y-12250000D03*
X4350000Y-11750000D03*
X4350000Y-11250000D03*
X4350000Y-10750000D03*
X4350000Y-10250000D03*
X4350000Y-9750000D03*
X4350000Y-9250000D03*
D14*
X2750000Y-7650000D03*
X2250000Y-7650000D03*
X1750000Y-7650000D03*
X1250000Y-7650000D03*
X750000Y-7650000D03*
X250000Y-7650000D03*
X-250000Y-7650000D03*
X-750000Y-7650000D03*
X-1250000Y-7650000D03*
X-1750000Y-7650000D03*
X-2250000Y-7650000D03*
X-2750000Y-7650000D03*
D15*
X-4350000Y-9250000D03*
X-4350000Y-9750000D03*
X-4350000Y-10250000D03*
X-4350000Y-10750000D03*
X-4350000Y-11250000D03*
X-4350000Y-11750000D03*
X-4350000Y-12250000D03*
X-4350000Y-12750000D03*
X-4350000Y-13250000D03*
X-4350000Y-13750000D03*
X-4350000Y-14250000D03*
X-4350000Y-14750000D03*
D16*
X-4600000Y-7750000D03*
X-4600000Y-6050000D03*
D17*
X-5599999Y-28782493D03*
X-2000000Y-28782493D03*
D18*
X-4300000Y-24932500D03*
X-3300000Y-24932500D03*
D19*
X-1900000Y-20950000D03*
X700000Y-20950000D03*
X700000Y-18850000D03*
X-1900000Y-18850000D03*
D20*
X5400000Y-20350000D03*
X5400000Y-22050000D03*
X3900000Y-20350000D03*
X3900000Y-22050000D03*
D16*
X0Y-28850000D03*
X0Y-27150000D03*
D21*
X2200000Y-19400000D03*
X2200000Y-20400000D03*
D22*
X-3400000Y-20400000D03*
X-3400000Y-19400000D03*
D23*
X5300000Y-2475000D03*
D24*
X5300000Y-3745000D03*
X5300000Y-5015000D03*
X5300000Y-6285000D03*
X5300000Y-7555000D03*
D16*
X-4600000Y-17950000D03*
X-4600000Y-16250000D03*
D25*
X2250000Y2400000D03*
X-2250000Y2400000D03*
D26*
X-3500000Y0D03*
X-1000000Y0D03*
X1000000Y0D03*
X3500000Y0D03*
D27*
X5850000Y2400000D03*
X-5850000Y2400000D03*
M02*
