G04 #@! TF.GenerationSoftware,KiCad,Pcbnew,(6.0.9)*
G04 #@! TF.CreationDate,2022-12-10T19:33:09+09:00*
G04 #@! TF.ProjectId,otaHID,6f746148-4944-42e6-9b69-6361645f7063,2.0*
G04 #@! TF.SameCoordinates,Original*
G04 #@! TF.FileFunction,Legend,Top*
G04 #@! TF.FilePolarity,Positive*
%FSLAX46Y46*%
G04 Gerber Fmt 4.6, Leading zero omitted, Abs format (unit mm)*
G04 Created by KiCad (PCBNEW (6.0.9)) date 2022-12-10 19:33:09*
%MOMM*%
%LPD*%
G01*
G04 APERTURE LIST*
%ADD10C,0.150000*%
%ADD11C,0.100000*%
%ADD12C,0.120000*%
%ADD13C,0.200000*%
G04 APERTURE END LIST*
D10*
X-4071428Y-2252380D02*
X-4166666Y-2204761D01*
X-4214285Y-2157142D01*
X-4261904Y-2061904D01*
X-4261904Y-1776190D01*
X-4214285Y-1680952D01*
X-4166666Y-1633333D01*
X-4071428Y-1585714D01*
X-3928571Y-1585714D01*
X-3833333Y-1633333D01*
X-3785714Y-1680952D01*
X-3738095Y-1776190D01*
X-3738095Y-2061904D01*
X-3785714Y-2157142D01*
X-3833333Y-2204761D01*
X-3928571Y-2252380D01*
X-4071428Y-2252380D01*
X-3452380Y-1585714D02*
X-3071428Y-1585714D01*
X-3309523Y-1252380D02*
X-3309523Y-2109523D01*
X-3261904Y-2204761D01*
X-3166666Y-2252380D01*
X-3071428Y-2252380D01*
X-2309523Y-2252380D02*
X-2309523Y-1728571D01*
X-2357142Y-1633333D01*
X-2452380Y-1585714D01*
X-2642857Y-1585714D01*
X-2738095Y-1633333D01*
X-2309523Y-2204761D02*
X-2404761Y-2252380D01*
X-2642857Y-2252380D01*
X-2738095Y-2204761D01*
X-2785714Y-2109523D01*
X-2785714Y-2014285D01*
X-2738095Y-1919047D01*
X-2642857Y-1871428D01*
X-2404761Y-1871428D01*
X-2309523Y-1823809D01*
X-1833333Y-2252380D02*
X-1833333Y-1252380D01*
X-1833333Y-1728571D02*
X-1261904Y-1728571D01*
X-1261904Y-2252380D02*
X-1261904Y-1252380D01*
X-785714Y-2252380D02*
X-785714Y-1252380D01*
X-309523Y-2252380D02*
X-309523Y-1252380D01*
X-71428Y-1252380D01*
X71428Y-1300000D01*
X166666Y-1395238D01*
X214285Y-1490476D01*
X261904Y-1680952D01*
X261904Y-1823809D01*
X214285Y-2014285D01*
X166666Y-2109523D01*
X71428Y-2204761D01*
X-71428Y-2252380D01*
X-309523Y-2252380D01*
X1309523Y-1252380D02*
X1642857Y-2252380D01*
X1976190Y-1252380D01*
X2261904Y-1347619D02*
X2309523Y-1300000D01*
X2404761Y-1252380D01*
X2642857Y-1252380D01*
X2738095Y-1300000D01*
X2785714Y-1347619D01*
X2833333Y-1442857D01*
X2833333Y-1538095D01*
X2785714Y-1680952D01*
X2214285Y-2252380D01*
X2833333Y-2252380D01*
X3261904Y-2157142D02*
X3309523Y-2204761D01*
X3261904Y-2252380D01*
X3214285Y-2204761D01*
X3261904Y-2157142D01*
X3261904Y-2252380D01*
X3928571Y-1252380D02*
X4023809Y-1252380D01*
X4119047Y-1300000D01*
X4166666Y-1347619D01*
X4214285Y-1442857D01*
X4261904Y-1633333D01*
X4261904Y-1871428D01*
X4214285Y-2061904D01*
X4166666Y-2157142D01*
X4119047Y-2204761D01*
X4023809Y-2252380D01*
X3928571Y-2252380D01*
X3833333Y-2204761D01*
X3785714Y-2157142D01*
X3738095Y-2061904D01*
X3690476Y-1871428D01*
X3690476Y-1633333D01*
X3738095Y-1442857D01*
X3785714Y-1347619D01*
X3833333Y-1300000D01*
X3928571Y-1252380D01*
D11*
X3300000Y-7114285D02*
X3271428Y-7142857D01*
X3185714Y-7171428D01*
X3128571Y-7171428D01*
X3042857Y-7142857D01*
X2985714Y-7085714D01*
X2957142Y-7028571D01*
X2928571Y-6914285D01*
X2928571Y-6828571D01*
X2957142Y-6714285D01*
X2985714Y-6657142D01*
X3042857Y-6600000D01*
X3128571Y-6571428D01*
X3185714Y-6571428D01*
X3271428Y-6600000D01*
X3300000Y-6628571D01*
X3528571Y-6628571D02*
X3557142Y-6600000D01*
X3614285Y-6571428D01*
X3757142Y-6571428D01*
X3814285Y-6600000D01*
X3842857Y-6628571D01*
X3871428Y-6685714D01*
X3871428Y-6742857D01*
X3842857Y-6828571D01*
X3500000Y-7171428D01*
X3871428Y-7171428D01*
X-1457142Y-7171428D02*
X-1457142Y-7657142D01*
X-1428571Y-7714285D01*
X-1400000Y-7742857D01*
X-1342857Y-7771428D01*
X-1228571Y-7771428D01*
X-1171428Y-7742857D01*
X-1142857Y-7714285D01*
X-1114285Y-7657142D01*
X-1114285Y-7171428D01*
X-571428Y-7371428D02*
X-571428Y-7771428D01*
X-714285Y-7142857D02*
X-857142Y-7571428D01*
X-485714Y-7571428D01*
X642857Y-2671428D02*
X642857Y-3157142D01*
X671428Y-3214285D01*
X700000Y-3242857D01*
X757142Y-3271428D01*
X871428Y-3271428D01*
X928571Y-3242857D01*
X957142Y-3214285D01*
X985714Y-3157142D01*
X985714Y-2671428D01*
X1242857Y-2728571D02*
X1271428Y-2700000D01*
X1328571Y-2671428D01*
X1471428Y-2671428D01*
X1528571Y-2700000D01*
X1557142Y-2728571D01*
X1585714Y-2785714D01*
X1585714Y-2842857D01*
X1557142Y-2928571D01*
X1214285Y-3271428D01*
X1585714Y-3271428D01*
X5200000Y-15942857D02*
X5285714Y-15971428D01*
X5428571Y-15971428D01*
X5485714Y-15942857D01*
X5514285Y-15914285D01*
X5542857Y-15857142D01*
X5542857Y-15800000D01*
X5514285Y-15742857D01*
X5485714Y-15714285D01*
X5428571Y-15685714D01*
X5314285Y-15657142D01*
X5257142Y-15628571D01*
X5228571Y-15600000D01*
X5200000Y-15542857D01*
X5200000Y-15485714D01*
X5228571Y-15428571D01*
X5257142Y-15400000D01*
X5314285Y-15371428D01*
X5457142Y-15371428D01*
X5542857Y-15400000D01*
X5742857Y-15371428D02*
X5885714Y-15971428D01*
X6000000Y-15542857D01*
X6114285Y-15971428D01*
X6257142Y-15371428D01*
X6800000Y-15971428D02*
X6457142Y-15971428D01*
X6628571Y-15971428D02*
X6628571Y-15371428D01*
X6571428Y-15457142D01*
X6514285Y-15514285D01*
X6457142Y-15542857D01*
X-2757142Y-15171428D02*
X-2757142Y-15657142D01*
X-2728571Y-15714285D01*
X-2700000Y-15742857D01*
X-2642857Y-15771428D01*
X-2528571Y-15771428D01*
X-2471428Y-15742857D01*
X-2442857Y-15714285D01*
X-2414285Y-15657142D01*
X-2414285Y-15171428D01*
X-2185714Y-15171428D02*
X-1814285Y-15171428D01*
X-2014285Y-15400000D01*
X-1928571Y-15400000D01*
X-1871428Y-15428571D01*
X-1842857Y-15457142D01*
X-1814285Y-15514285D01*
X-1814285Y-15657142D01*
X-1842857Y-15714285D01*
X-1871428Y-15742857D01*
X-1928571Y-15771428D01*
X-2100000Y-15771428D01*
X-2157142Y-15742857D01*
X-2185714Y-15714285D01*
X-5000000Y-7114285D02*
X-5028571Y-7142857D01*
X-5114285Y-7171428D01*
X-5171428Y-7171428D01*
X-5257142Y-7142857D01*
X-5314285Y-7085714D01*
X-5342857Y-7028571D01*
X-5371428Y-6914285D01*
X-5371428Y-6828571D01*
X-5342857Y-6714285D01*
X-5314285Y-6657142D01*
X-5257142Y-6600000D01*
X-5171428Y-6571428D01*
X-5114285Y-6571428D01*
X-5028571Y-6600000D01*
X-5000000Y-6628571D01*
X-4428571Y-7171428D02*
X-4771428Y-7171428D01*
X-4600000Y-7171428D02*
X-4600000Y-6571428D01*
X-4657142Y-6657142D01*
X-4714285Y-6714285D01*
X-4771428Y-6742857D01*
X4900000Y-871428D02*
X4700000Y-585714D01*
X4557142Y-871428D02*
X4557142Y-271428D01*
X4785714Y-271428D01*
X4842857Y-300000D01*
X4871428Y-328571D01*
X4900000Y-385714D01*
X4900000Y-471428D01*
X4871428Y-528571D01*
X4842857Y-557142D01*
X4785714Y-585714D01*
X4557142Y-585714D01*
X5471428Y-871428D02*
X5128571Y-871428D01*
X5300000Y-871428D02*
X5300000Y-271428D01*
X5242857Y-357142D01*
X5185714Y-414285D01*
X5128571Y-442857D01*
X-6200000Y-15171428D02*
X-6200000Y-15600000D01*
X-6228571Y-15685714D01*
X-6285714Y-15742857D01*
X-6371428Y-15771428D01*
X-6428571Y-15771428D01*
X-5942857Y-15228571D02*
X-5914285Y-15200000D01*
X-5857142Y-15171428D01*
X-5714285Y-15171428D01*
X-5657142Y-15200000D01*
X-5628571Y-15228571D01*
X-5600000Y-15285714D01*
X-5600000Y-15342857D01*
X-5628571Y-15428571D01*
X-5971428Y-15771428D01*
X-5600000Y-15771428D01*
X-6500000Y-7171428D02*
X-6785714Y-7171428D01*
X-6785714Y-6571428D01*
X-5985714Y-7171428D02*
X-6328571Y-7171428D01*
X-6157142Y-7171428D02*
X-6157142Y-6571428D01*
X-6214285Y-6657142D01*
X-6271428Y-6714285D01*
X-6328571Y-6742857D01*
X-2557142Y-2671428D02*
X-2557142Y-3157142D01*
X-2528571Y-3214285D01*
X-2500000Y-3242857D01*
X-2442857Y-3271428D01*
X-2328571Y-3271428D01*
X-2271428Y-3242857D01*
X-2242857Y-3214285D01*
X-2214285Y-3157142D01*
X-2214285Y-2671428D01*
X-1614285Y-3271428D02*
X-1957142Y-3271428D01*
X-1785714Y-3271428D02*
X-1785714Y-2671428D01*
X-1842857Y-2757142D01*
X-1900000Y-2814285D01*
X-1957142Y-2842857D01*
X-5200000Y-557142D02*
X-5400000Y-557142D01*
X-5400000Y-871428D02*
X-5400000Y-271428D01*
X-5114285Y-271428D01*
X-4571428Y-871428D02*
X-4914285Y-871428D01*
X-4742857Y-871428D02*
X-4742857Y-271428D01*
X-4800000Y-357142D01*
X-4857142Y-414285D01*
X-4914285Y-442857D01*
X5957142Y-7171428D02*
X5957142Y-6571428D01*
X6100000Y-6571428D01*
X6185714Y-6600000D01*
X6242857Y-6657142D01*
X6271428Y-6714285D01*
X6300000Y-6828571D01*
X6300000Y-6914285D01*
X6271428Y-7028571D01*
X6242857Y-7085714D01*
X6185714Y-7142857D01*
X6100000Y-7171428D01*
X5957142Y-7171428D01*
X6871428Y-7171428D02*
X6528571Y-7171428D01*
X6700000Y-7171428D02*
X6700000Y-6571428D01*
X6642857Y-6657142D01*
X6585714Y-6714285D01*
X6528571Y-6742857D01*
X4642857Y-7771428D02*
X4642857Y-8257142D01*
X4671428Y-8314285D01*
X4700000Y-8342857D01*
X4757142Y-8371428D01*
X4871428Y-8371428D01*
X4928571Y-8342857D01*
X4957142Y-8314285D01*
X4985714Y-8257142D01*
X4985714Y-7771428D01*
X5557142Y-7771428D02*
X5271428Y-7771428D01*
X5242857Y-8057142D01*
X5271428Y-8028571D01*
X5328571Y-8000000D01*
X5471428Y-8000000D01*
X5528571Y-8028571D01*
X5557142Y-8057142D01*
X5585714Y-8114285D01*
X5585714Y-8257142D01*
X5557142Y-8314285D01*
X5528571Y-8342857D01*
X5471428Y-8371428D01*
X5328571Y-8371428D01*
X5271428Y-8342857D01*
X5242857Y-8314285D01*
X6200000Y-22371428D02*
X6200000Y-22800000D01*
X6171428Y-22885714D01*
X6114285Y-22942857D01*
X6028571Y-22971428D01*
X5971428Y-22971428D01*
X6428571Y-22371428D02*
X6800000Y-22371428D01*
X6600000Y-22600000D01*
X6685714Y-22600000D01*
X6742857Y-22628571D01*
X6771428Y-22657142D01*
X6800000Y-22714285D01*
X6800000Y-22857142D01*
X6771428Y-22914285D01*
X6742857Y-22942857D01*
X6685714Y-22971428D01*
X6514285Y-22971428D01*
X6457142Y-22942857D01*
X6428571Y-22914285D01*
X4800000Y-7171428D02*
X4600000Y-6885714D01*
X4457142Y-7171428D02*
X4457142Y-6571428D01*
X4685714Y-6571428D01*
X4742857Y-6600000D01*
X4771428Y-6628571D01*
X4800000Y-6685714D01*
X4800000Y-6771428D01*
X4771428Y-6828571D01*
X4742857Y-6857142D01*
X4685714Y-6885714D01*
X4457142Y-6885714D01*
X5028571Y-6628571D02*
X5057142Y-6600000D01*
X5114285Y-6571428D01*
X5257142Y-6571428D01*
X5314285Y-6600000D01*
X5342857Y-6628571D01*
X5371428Y-6685714D01*
X5371428Y-6742857D01*
X5342857Y-6828571D01*
X5000000Y-7171428D01*
X5371428Y-7171428D01*
D12*
X3400000Y-4600000D02*
X3600000Y-4800000D01*
X4150000Y-3050000D02*
X4150000Y-6350000D01*
X3600000Y-4800000D02*
X3200000Y-4800000D01*
X3200000Y-4800000D02*
X3400000Y-4600000D01*
X2650000Y-3050000D02*
X2650000Y-6350000D01*
X4150000Y-6350000D02*
X2650000Y-6350000D01*
X4150000Y-3050000D02*
X2650000Y-3050000D01*
X1610000Y-8865000D02*
X1610000Y-8390000D01*
X1610000Y-8390000D02*
X1135000Y-8390000D01*
X-3610000Y-13135000D02*
X-3610000Y-13610000D01*
X1610000Y-13135000D02*
X1610000Y-13610000D01*
X-3610000Y-8390000D02*
X-3135000Y-8390000D01*
X1610000Y-13610000D02*
X1135000Y-13610000D01*
X-3610000Y-8865000D02*
X-3610000Y-8390000D01*
D13*
X-3200000Y-13900000D02*
G75*
G03*
X-3200000Y-13900000I-100000J0D01*
G01*
D12*
X1700000Y-3900000D02*
X1800000Y-3900000D01*
X1800000Y-3900000D02*
X1800000Y-4400000D01*
X400000Y-5500000D02*
X400000Y-5000000D01*
X1800000Y-5000000D02*
X1800000Y-5500000D01*
X1800000Y-5500000D02*
X1700000Y-5500000D01*
X400000Y-4400000D02*
X400000Y-3900000D01*
X600000Y-5500000D02*
X400000Y-5500000D01*
X400000Y-3900000D02*
X500000Y-3900000D01*
X4500000Y-20700000D02*
X4500000Y-17100000D01*
X6100000Y-17100000D02*
X5900000Y-17100000D01*
X6100000Y-20700000D02*
X5900000Y-20700000D01*
X-6900000Y-16400000D02*
X-6000000Y-16400000D01*
X2300000Y-17700000D02*
X2300000Y-16400000D01*
X2300000Y-16400000D02*
X1400000Y-16400000D01*
X-6900000Y-17700000D02*
X-6900000Y-16400000D01*
X-5650000Y-6350000D02*
X-4150000Y-6350000D01*
X-5650000Y-3050000D02*
X-4150000Y-3050000D01*
X-4150000Y-6350000D02*
X-4150000Y-3050000D01*
X-5650000Y-6350000D02*
X-5650000Y-3050000D01*
X-5100000Y-4600000D02*
X-4700000Y-4600000D01*
X-4900000Y-4800000D02*
X-5100000Y-4600000D01*
X-4700000Y-4600000D02*
X-4900000Y-4800000D01*
X6600000Y-1500000D02*
X6200000Y-1500000D01*
X5650000Y250000D02*
X5650000Y-3050000D01*
X7150000Y250000D02*
X5650000Y250000D01*
X7150000Y-3050000D02*
X5650000Y-3050000D01*
X6400000Y-1300000D02*
X6600000Y-1500000D01*
X6200000Y-1500000D02*
X6400000Y-1300000D01*
X7150000Y250000D02*
X7150000Y-3050000D01*
X-5050000Y-8000000D02*
X-6950000Y-8000000D01*
X-5050000Y-14950000D02*
X-5050000Y-8000000D01*
X-5050000Y-14950000D02*
X-6950000Y-14950000D01*
X-6950000Y-14950000D02*
X-6950000Y-8000000D01*
X-6200000Y-4600000D02*
X-6400000Y-4800000D01*
X-7150000Y-6350000D02*
X-7150000Y-3050000D01*
X-7150000Y-6350000D02*
X-5650000Y-6350000D01*
X-5650000Y-6350000D02*
X-5650000Y-3050000D01*
X-6400000Y-4800000D02*
X-6600000Y-4600000D01*
X-7150000Y-3050000D02*
X-5650000Y-3050000D01*
X-6600000Y-4600000D02*
X-6200000Y-4600000D01*
X-3500000Y-3750000D02*
X-3600000Y-3750000D01*
X-3600000Y-5650000D02*
X-3500000Y-5650000D01*
X-700000Y-5650000D02*
X-600000Y-5650000D01*
X-3600000Y-3750000D02*
X-3600000Y-5650000D01*
X-600000Y-3750000D02*
X-700000Y-3750000D01*
X-2600000Y-3750000D02*
X-1600000Y-3750000D01*
X-600000Y-5650000D02*
X-600000Y-3750000D01*
D13*
X-2950000Y-6800000D02*
G75*
G03*
X-2950000Y-6800000I-100000J0D01*
G01*
D12*
X-7150000Y-3050000D02*
X-7150000Y250000D01*
X-5650000Y-3050000D02*
X-5650000Y250000D01*
X-6400000Y-1500000D02*
X-6600000Y-1300000D01*
X-7150000Y-3050000D02*
X-5650000Y-3050000D01*
X-6600000Y-1300000D02*
X-6200000Y-1300000D01*
X-6200000Y-1300000D02*
X-6400000Y-1500000D01*
X-7150000Y250000D02*
X-5650000Y250000D01*
X5650000Y-6350000D02*
X7150000Y-6350000D01*
X5650000Y-6350000D02*
X5650000Y-3050000D01*
X6600000Y-4600000D02*
X6400000Y-4800000D01*
X6200000Y-4600000D02*
X6600000Y-4600000D01*
X7150000Y-6350000D02*
X7150000Y-3050000D01*
X5650000Y-3050000D02*
X7150000Y-3050000D01*
X6400000Y-4800000D02*
X6200000Y-4600000D01*
X7020000Y-8300000D02*
X7020000Y-13300000D01*
X3180000Y-12800000D02*
X3180000Y-9800000D01*
X6800000Y-23450000D02*
X6800000Y-25850000D01*
X2800000Y-25850000D02*
X2800000Y-23450000D01*
X2800000Y-23450000D02*
X3700000Y-23450000D01*
X5900000Y-23450000D02*
X6800000Y-23450000D01*
X5650000Y-3050000D02*
X4150000Y-3050000D01*
X4700000Y-4800000D02*
X4900000Y-4600000D01*
X4900000Y-4600000D02*
X5100000Y-4800000D01*
X5100000Y-4800000D02*
X4700000Y-4800000D01*
X5650000Y-3050000D02*
X5650000Y-6350000D01*
X4150000Y-3050000D02*
X4150000Y-6350000D01*
X5650000Y-6350000D02*
X4150000Y-6350000D01*
M02*
