M48
; DRILL file {KiCad (6.0.9)} date Sat Dec 10 19:33:18 2022
; FORMAT={-:-/ absolute / inch / decimal}
; #@! TF.CreationDate,2022-12-10T19:33:18+09:00
; #@! TF.GenerationSoftware,Kicad,Pcbnew,(6.0.9)
; #@! TF.FileFunction,MixedPlating,1,2
FMAT,2
INCH
; #@! TA.AperFunction,Plated,PTH,ViaDrill
T1C0.0120
; #@! TA.AperFunction,Plated,PTH,ComponentDrill
T2C0.0276
; #@! TA.AperFunction,Plated,PTH,ComponentDrill
T3C0.0366
; #@! TA.AperFunction,Plated,PTH,ComponentDrill
T4C0.0472
; #@! TA.AperFunction,NonPlated,NPTH,ComponentDrill
T5C0.0394
%
G90
G05
T1
X-0.2205Y-0.2913
X-0.2039Y-0.9134
X-0.1969Y-0.7257
X-0.1969Y-0.8547
X-0.189Y-0.0984
X-0.0827Y-0.185
X-0.0669Y-0.709
X-0.0197Y-0.7638
X0.0053Y-0.5851
X0.0315Y-0.2874
X0.0591Y-0.5831
X0.0868Y-0.2872
X0.189Y-1.0118
X0.2008Y-0.4449
X0.248Y-0.7441
T2
X-0.2362Y-0.3512
X-0.2362Y-0.4012
X-0.2362Y-0.4512
X-0.2362Y-0.5012
X-0.2362Y-0.5512
T3
X-0.1378Y0.0
X-0.0394Y0.0
X0.0394Y0.0
X0.1378Y0.0
T5
X-0.0886Y0.0945
X0.0886Y0.0945
T4
G00X-0.2303Y0.0689
M15
G01X-0.2303Y0.1201
M16
G05
G00X0.2303Y0.0689
M15
G01X0.2303Y0.1201
M16
G05
T0
M30
